#N canvas 0 64 1366 676 10;
#X msg 369 153 clear;
#X obj 315 238 tof/pmenu 1 1 black white red;
#X obj 100 102 bng 21 250 50 0 empty empty O 4 8 0 10 -262144 -1 -1
;
#X obj 122 102 bng 21 250 50 0 empty empty S 4 8 0 10 -262144 -1 -1
;
#X floatatom 315 261 5 0 0 0 - - -;
#X msg 518 143 clear;
#X obj 316 89 loadbang;
#X msg 208 398 set \$1;
#X floatatom 165 458 5 0 0 0 - - -;
#X floatatom 144 102 5 0 0 0 - - -;
#X obj 123 426 t b a b;
#X obj 316 112 t b b b b b;
#X obj 448 68 f \$1;
#X floatatom 448 91 5 0 0 0 - - -;
#X msg 657 174 write -c pres-\$1.txt;
#X msg 623 369 read -c pres-\$1.txt;
#X obj 665 311 pack f;
#X floatatom 665 278 5 0 0 0 - - -;
#X msg 664 244 set \$1;
#X floatatom 655 132 5 0 0 0 - - -;
#X msg 601 100 set \$1;
#X obj 518 431 text define -k \$0-pres;
#A set 0 0 0 0.338983 0.59322 0.372881 \; 0 1 1 0.779661 0.898305 0
\;;
#X obj 315 288 text get \$0-pres;
#X obj 124 537 s \$0-savepres;
#X obj 654 51 r \$0-savepres;
#X obj 315 553 outlet;
#X obj 142 501 text set \$0-pres;
#X msg 316 193 add 0 1 2 3 4 5 6 7 8 9 10 11 12 13 14 15 16 17 18 19
;
#X obj 35 299 list prepend set;
#X msg 123 368 0.22449 0.673469 0.673469 0.489796 0 0.510204 0.387755
0.387755 0.122449 0 0 0.0204082 0.0204082 0.673469;
#X obj 34 62 inlet;
#X obj 35 342 list trim;
#X obj 43 539 outlet;
#X obj 119 227 t b b;
#X connect 0 0 1 0;
#X connect 1 0 4 0;
#X connect 2 0 1 0;
#X connect 3 0 33 0;
#X connect 4 0 7 0;
#X connect 4 0 9 0;
#X connect 4 0 22 0;
#X connect 5 0 21 0;
#X connect 6 0 11 0;
#X connect 7 0 8 0;
#X connect 8 0 26 1;
#X connect 10 0 23 0;
#X connect 10 1 26 0;
#X connect 10 2 8 0;
#X connect 11 0 27 0;
#X connect 11 1 0 0;
#X connect 11 2 16 0;
#X connect 11 3 5 0;
#X connect 11 4 12 0;
#X connect 12 0 13 0;
#X connect 13 0 18 0;
#X connect 13 0 20 0;
#X connect 14 0 21 0;
#X connect 15 0 21 0;
#X connect 16 0 15 0;
#X connect 17 0 16 0;
#X connect 18 0 17 0;
#X connect 19 0 14 0;
#X connect 20 0 19 0;
#X connect 22 0 25 0;
#X connect 24 0 19 0;
#X connect 27 0 1 0;
#X connect 28 0 31 0;
#X connect 29 0 10 0;
#X connect 30 0 28 0;
#X connect 31 0 29 0;
#X connect 33 0 29 0;
#X connect 33 1 32 0;
#X coords 0 -1 1 1 76 24 2 100 100;
