#N canvas 3 55 1265 683 10;
#X obj 101 101 cnv 15 184 114 empty empty REVERSE_TAPE 2 7 0 14 -233017
-66577 0;
#X floatatom 186 124 5 0 0 0 sens - -, f 5;
#X obj 99 352 >;
#X obj 222 116 vsl 15 90 0 100 0 0 empty empty SENS 0 -9 0 10 -262144
-1 -1 3263 1;
#X obj 99 395 sel 1;
#X obj 99 374 change;
#X obj 65 521 line~;
#X obj 49 542 *~;
#X obj 99 420 t b b;
#X obj 99 329 env~ 256 128;
#X obj 433 11 loadbang;
#X msg 423 64 43;
#X msg 194 480 0 5;
#X obj 99 461 del 6;
#X obj 251 117 vsl 15 90 0 600 0 0 empty empty ATT 0 -9 0 10 -262144
-1 -1 7234 1;
#X obj 99 481 pack 1 200;
#X floatatom 183 194 5 0 0 0 att - -, f 5;
#X msg 456 65 300;
#X text 237 219 <-- Sensitivity;
#X text 306 92 (adjust to your fingers;
#X text 310 110 or to your instrument);
#X text 283 164 Attack -->;
#X text 225 351 <-- Measures the amplitude of;
#X text 248 365 the input \, and send a bang;
#X text 247 380 if it is greater than the;
#X text 231 484 <-- Turn the volume all the way down;
#X text 247 394 sensitivity threshold;
#X text 245 409 (attack detected).;
#X text 230 499 when an attack is detected \, and than ramp;
#X text 230 514 slowly up again.;
#X text 256 5 <-- Buffer the input;
#X text 256 21 to give [env~] enough time;
#X text 257 38 to detect the attack.;
#X text 294 594 GuitarExtended \, Pierre Massat \, 2012;
#X obj 47 611 outlet~;
#X obj 50 18 inlet~;
#X obj 196 15 inlet;
#X obj 191 73 * 100;
#X obj 235 71 * 600;
#X obj 185 99 int;
#X obj 184 163 int;
#X obj 541 75 tgl 15 0 empty empty empty 17 7 0 10 -262144 -1 -1 1
1;
#X obj 542 95 switch~;
#X obj 536 30 inlet;
#X obj 51 46 delwrite~ \$0-violin 10;
#X obj 51 70 delread~ \$0-violin 10;
#X obj 133 563 line~;
#X obj 49 576 *~;
#X msg 135 532 \$1 20;
#X msg 498 118 0.75;
#X text 550 139 2018_01_12_00_52: added gain to give it a third param
;
#X floatatom 498 140 5 0 0 0 - - -, f 5;
#X obj 269 119 vsl 15 90 0 1 0 0 empty empty GN 0 -9 0 10 -262144 -1
-1 6675 1;
#X obj 196 48 route 0 1 2;
#X connect 1 0 2 1;
#X connect 2 0 5 0;
#X connect 3 0 39 0;
#X connect 4 0 8 0;
#X connect 5 0 4 0;
#X connect 6 0 7 1;
#X connect 7 0 47 0;
#X connect 8 0 13 0;
#X connect 8 1 12 0;
#X connect 9 0 2 0;
#X connect 10 0 11 0;
#X connect 10 0 17 0;
#X connect 10 0 49 0;
#X connect 11 0 3 0;
#X connect 12 0 6 0;
#X connect 13 0 15 0;
#X connect 14 0 40 0;
#X connect 15 0 6 0;
#X connect 16 0 15 1;
#X connect 17 0 14 0;
#X connect 35 0 9 0;
#X connect 35 0 44 0;
#X connect 36 0 53 0;
#X connect 37 0 3 0;
#X connect 38 0 14 0;
#X connect 39 0 1 0;
#X connect 40 0 16 0;
#X connect 41 0 42 0;
#X connect 43 0 41 0;
#X connect 45 0 7 0;
#X connect 46 0 47 1;
#X connect 47 0 34 0;
#X connect 48 0 46 0;
#X connect 49 0 51 0;
#X connect 51 0 52 0;
#X connect 52 0 48 0;
#X connect 53 0 37 0;
#X connect 53 1 38 0;
#X connect 53 2 52 0;
#X coords 0 -1 1 1 186 116 2 100 100;
