#N canvas 3 59 1265 686 10;
#X obj 479 455 outlet~;
#X obj 98 12 inlet~, f 8;
#X obj 369 13 inlet controls;
#X obj 672 45 tgl 15 0 empty empty empty 17 7 0 10 -262144 -1 -1 0
1;
#X obj 673 65 switch~;
#X obj 671 17 inlet;
#X obj 101 101 cnv 15 184 114 empty empty del(3-body_resonance) 2 12
0 14 -233017 -66577 0;
#X obj 127 197 hsl 60 10 0 1 0 0 \$0-a \$0-ra size -2 -7 0 10 -114150
-262144 -355 2891 1;
#X obj 212 137 hsl 60 10 0 1 0 0 \$0-b \$0-rb gain -2 -7 0 10 -114150
-262144 -355 4425 1;
#X obj 100 193 cnv 12 15 13 empty empty 2 1 6 0 12 -33289 -262144 0
;
#X obj 192 137 cnv 12 15 13 empty empty 3 1 6 0 12 -33289 -262144 0
;
#X obj 125 137 hsl 60 10 0 1 0 0 \$0-a \$0-ra size -2 -7 0 10 -114150
-262144 -355 2891 1;
#X obj 100 137 cnv 12 15 13 empty empty 0 1 6 0 12 -33289 -262144 0
;
#X obj 126 168 hsl 60 10 0 1 0 0 \$0-a \$0-ra size -2 -7 0 10 -114150
-262144 -355 2891 1;
#X obj 100 165 cnv 12 15 13 empty empty 1 1 6 0 12 -33289 -262144 0
;
#X msg 165 256 0 \$1;
#X msg 565 251 0 \$1, f 5;
#X msg 376 238 0 \$1;
#X obj 374 33 route 0 1 2 3;
#X obj 95 291 bodyresonance(d);
#X obj 477 290 bodyresonance(d);
#X obj 288 291 bodyresonance(d);
#X obj 705 400 line~;
#X obj 478 423 *~;
#X msg 705 266 \$1 20;
#X obj 496 10 loadbang;
#X msg 482 44 0.75;
#X msg 541 41 0.49;
#X connect 1 0 19 0;
#X connect 2 0 18 0;
#X connect 3 0 4 0;
#X connect 3 0 19 2;
#X connect 3 0 21 2;
#X connect 3 0 20 2;
#X connect 5 0 3 0;
#X connect 7 0 16 0;
#X connect 8 0 24 0;
#X connect 11 0 15 0;
#X connect 13 0 17 0;
#X connect 15 0 19 1;
#X connect 16 0 20 1;
#X connect 17 0 21 1;
#X connect 18 0 11 0;
#X connect 18 1 13 0;
#X connect 18 2 7 0;
#X connect 18 3 8 0;
#X connect 19 0 21 0;
#X connect 20 0 23 0;
#X connect 21 0 20 0;
#X connect 22 0 23 1;
#X connect 23 0 0 0;
#X connect 24 0 22 0;
#X connect 25 0 26 0;
#X connect 25 0 27 0;
#X connect 26 0 8 0;
#X connect 27 0 11 0;
#X connect 27 0 13 0;
#X connect 27 0 7 0;
#X coords 0 -1 1 1 186 116 2 100 100;
