#N canvas 3 54 1265 718 10;
#X obj 109 115 looper(fw-bw)(v);
#X obj 287 27 tgl 15 0 empty empty empty 17 7 0 10 -262144 -1 -1 1
1;
#X obj 111 64 adc~;
#X obj 112 288 dac~;
#X obj 462 100 vsl 15 128 0 1 0 0 empty empty empty 0 -9 0 10 -262144
-1 -1 2200 1;
#X msg 462 236 0 \$1;
#X obj 504 102 vsl 15 128 0 1 0 0 empty empty empty 0 -9 0 10 -262144
-1 -1 9900 1;
#X obj 549 103 vsl 15 128 0 1 0 0 empty empty empty 0 -9 0 10 -262144
-1 -1 9600 1;
#X obj 591 105 vsl 15 128 0 1 0 0 empty empty empty 0 -9 0 10 -262144
-1 -1 2700 1;
#X obj 625 105 vsl 15 128 0 1 0 0 empty empty empty 0 -9 0 10 -262144
-1 -1 4300 1;
#X msg 504 237 1 \$1;
#X msg 549 239 2 \$1;
#X msg 591 241 3 \$1;
#X msg 624 241 4 \$1;
#X connect 0 0 3 0;
#X connect 0 0 3 1;
#X connect 1 0 0 2;
#X connect 2 0 0 0;
#X connect 2 1 0 0;
#X connect 4 0 5 0;
#X connect 5 0 0 1;
#X connect 6 0 10 0;
#X connect 7 0 11 0;
#X connect 8 0 12 0;
#X connect 9 0 13 0;
#X connect 10 0 0 1;
#X connect 11 0 0 1;
#X connect 12 0 0 1;
#X connect 13 0 0 1;
