#N canvas 12 54 1425 818 10;
#X obj 101 101 cnv 15 258 138 empty empty SAMPLE_PLAYER~ 68 12 0 21
-233017 -66577 0;
#X text 274 471 1 starts playback;
#X text 277 494 0 stops it;
#X obj 209 505 readsf~ 2;
#X msg 105 580 \$1 20;
#X obj 105 602 line~;
#X obj 86 661 *~;
#X obj 230 475 tgl 15 0 empty empty empty 17 7 0 10 -262144 -1 -1 1
1;
#X obj 162 321 t f f b;
#X obj 107 253 sel 0 1;
#X msg 179 290 1;
#X floatatom 104 559 5 0 0 0 - - -, f 5;
#X msg 106 384 0;
#X floatatom 134 422 5 0 0 0 - - -, f 5;
#X obj 802 342 bng 15 250 50 0 empty empty empty 17 7 0 10 -262144
-1 -1;
#X obj 107 193 tgl 40 0 empty empty PLAY 0 20 0 16 -262144 -1 -1 1
1;
#X obj 85 727 outlet~;
#X obj 38 9 inlet;
#X obj 108 106 bng 40 250 50 0 empty empty OPEN 0 20 0 16 -262144 -1
-1;
#X obj 264 312 openpanel;
#X msg 263 272 symbol /root/HOME;
#X obj 587 27 loadbang;
#X msg 210 426 open \$1;
#X symbolatom 291 392 56 0 0 0 - - -, f 56;
#X obj 201 352 bng 15 250 50 0 empty empty empty 17 7 0 10 -262144
-1 -1;
#X obj 265 357 t b s;
#X msg 193 36 1;
#X obj 369 338 symbol;
#X obj 586 58 bng 15 250 50 0 empty empty empty 17 7 0 10 -262144 -1
-1;
#X obj 107 150 bng 40 250 50 0 empty empty DFLT 0 20 0 16 -262144 -1
-1;
#X obj 713 443 switch~;
#X obj 686 389 t f f;
#X msg 686 474 \$1 5;
#X obj 686 507 line~;
#X obj 713 418 pipe 8;
#X obj 187 193 tgl 40 0 empty pause PAUSE|RESUME 42 20 0 16 -262144
-1 -1 0 1;
#X obj 85 697 *~;
#X obj 687 322 - 1;
#X obj 686 359 abs;
#X obj 587 88 t b b b;
#X msg 634 119 0;
#X msg 291 411 symbol \$1;
#X obj 501 707 outlet;
#X floatatom 218 238 5 0 0 0 *500ms - -, f 5;
#X obj 172 257 del 1000;
#X obj 188 148 tgl 40 0 empty empty LOOP|ONCE 42 20 0 16 -262144 -1
-1 0 1;
#X obj 839 260 == 0;
#X obj 801 314 spigot;
#X obj 270 550 bng 15 250 50 0 empty empty empty 17 7 0 10 -262144
-1 -1;
#X obj 706 704 outlet;
#X obj 38 44 route 0 1 2 3 4;
#X obj 39 79 sel 1;
#X obj 54 121 sel 1;
#X msg 405 299 symbol PachabelsCanon-short_b.wav;
#X connect 3 0 6 0;
#X connect 3 1 6 0;
#X connect 3 2 47 0;
#X connect 3 2 48 0;
#X connect 4 0 5 0;
#X connect 5 0 6 1;
#X connect 6 0 36 0;
#X connect 7 0 3 0;
#X connect 8 0 13 0;
#X connect 8 1 11 0;
#X connect 8 2 24 0;
#X connect 9 0 12 0;
#X connect 9 1 44 0;
#X connect 10 0 8 0;
#X connect 11 0 4 0;
#X connect 12 0 11 0;
#X connect 12 0 13 0;
#X connect 13 0 7 0;
#X connect 14 0 10 0;
#X connect 15 0 9 0;
#X connect 15 0 49 0;
#X connect 17 0 50 0;
#X connect 18 0 20 0;
#X connect 19 0 25 0;
#X connect 20 0 19 0;
#X connect 21 0 28 0;
#X connect 22 0 3 0;
#X connect 23 0 22 0;
#X connect 23 0 41 0;
#X connect 24 0 23 0;
#X connect 25 1 23 0;
#X connect 26 0 15 0;
#X connect 27 0 23 0;
#X connect 28 0 39 0;
#X connect 29 0 28 0;
#X connect 31 0 32 0;
#X connect 31 1 34 0;
#X connect 32 0 33 0;
#X connect 33 0 36 1;
#X connect 34 0 30 0;
#X connect 35 0 37 0;
#X connect 36 0 16 0;
#X connect 37 0 38 0;
#X connect 38 0 31 0;
#X connect 39 0 27 0;
#X connect 39 1 53 0;
#X connect 39 2 40 0;
#X connect 40 0 35 0;
#X connect 40 0 43 0;
#X connect 40 0 45 0;
#X connect 41 0 42 0;
#X connect 43 0 44 1;
#X connect 44 0 10 0;
#X connect 45 0 46 0;
#X connect 46 0 47 1;
#X connect 47 0 14 0;
#X connect 50 0 51 0;
#X connect 50 1 52 0;
#X connect 50 2 15 0;
#X connect 50 3 35 0;
#X connect 50 4 45 0;
#X connect 51 0 18 0;
#X connect 52 0 29 0;
#X connect 53 0 27 1;
#X coords 0 -1 1 1 260 140 2 100 100;
