#N canvas 2 64 1366 676 10;
#X obj 529 27 loadbang;
#X obj 86 50 inlet~;
#N canvas 3 56 1265 686 pot~ 0;
#X obj 37 343 *~;
#X obj 36 49 inlet~;
#X obj 36 373 outlet~;
#X obj 93 49 inlet;
#X obj 93 279 line~;
#X obj 94 318 *~;
#X obj 172 170 pack f f;
#X obj 93 170 pack f f;
#X obj 93 78 sel 0 1;
#X msg 169 124 1;
#X msg 93 124 0;
#X floatatom 93 146 5 0 0 0 - - -;
#X floatatom 171 146 5 0 0 0 - - -;
#X msg 93 197 \$1 50;
#X msg 173 197 \$1 50;
#X connect 0 0 2 0;
#X connect 1 0 0 0;
#X connect 3 0 8 0;
#X connect 4 0 5 0;
#X connect 4 0 5 1;
#X connect 5 0 0 1;
#X connect 6 0 14 0;
#X connect 7 0 13 0;
#X connect 8 0 10 0;
#X connect 8 1 9 0;
#X connect 9 0 12 0;
#X connect 10 0 11 0;
#X connect 11 0 7 0;
#X connect 12 0 6 0;
#X connect 13 0 4 0;
#X connect 14 0 4 0;
#X restore 85 216 pd pot~;
#N canvas 3 55 1265 686 pot~ 0;
#X obj 17 325 *~;
#X obj 16 31 inlet~;
#X obj 16 355 outlet~;
#X obj 73 31 inlet;
#X obj 73 261 line~;
#X obj 74 300 *~;
#X obj 152 152 pack f f;
#X obj 73 152 pack f f;
#X obj 73 60 sel 0 1;
#X msg 149 106 1;
#X msg 73 106 0;
#X floatatom 73 128 5 0 0 0 - - -;
#X floatatom 151 128 5 0 0 0 - - -;
#X msg 73 179 \$1 50;
#X msg 153 179 \$1 50;
#X connect 0 0 2 0;
#X connect 1 0 0 0;
#X connect 3 0 8 0;
#X connect 4 0 5 0;
#X connect 4 0 5 1;
#X connect 5 0 0 1;
#X connect 6 0 14 0;
#X connect 7 0 13 0;
#X connect 8 0 10 0;
#X connect 8 1 9 0;
#X connect 9 0 12 0;
#X connect 10 0 11 0;
#X connect 11 0 7 0;
#X connect 12 0 6 0;
#X connect 13 0 4 0;
#X connect 14 0 4 0;
#X restore 9 217 pd pot~;
#X obj 10 325 outlet~;
#X obj 478 307 tgl 15 0 empty empty by -17 7 0 10 -262144 -1 -1 0 1
;
#X obj 1191 369 r \$1-params5;
#X obj 516 540 r \$1-params8;
#X obj 721 540 r \$1-params9;
#X obj 112 512 throw~ \$0-effsout;
#X obj 312 512 throw~ \$0-effsout;
#X obj 504 516 throw~ \$0-effsout;
#X obj 712 512 throw~ \$0-effsout;
#X obj 912 512 throw~ \$0-effsout;
#X obj 1111 512 throw~ \$0-effsout;
#X obj 108 692 throw~ \$0-effsout;
#X obj 316 692 throw~ \$0-effsout;
#X obj 516 692 throw~ \$0-effsout;
#X obj 721 692 throw~ \$0-effsout;
#X obj 1121 692 throw~ \$0-effsout;
#X obj 119 869 throw~ \$0-effsout;
#X obj 310 869 throw~ \$0-effsout;
#X obj 510 869 throw~ \$0-effsout;
#X obj 707 869 throw~ \$0-effsout;
#X obj 902 869 throw~ \$0-effsout;
#X obj 1111 869 throw~ \$0-effsout;
#X obj 917 692 throw~ \$0-effsout;
#X obj 112 1054 throw~ \$0-effsout;
#X obj 312 1054 throw~ \$0-effsout;
#X obj 108 1240 throw~ \$0-effsout;
#X obj 307 1240 throw~ \$0-effsout;
#X obj 539 1240 throw~ \$0-effsout;
#X obj 722 1240 throw~ \$0-effsout;
#X obj 525 1054 throw~ \$0-effsout;
#X obj 703 1055 throw~ \$0-effsout;
#X obj 900 1053 throw~ \$0-effsout;
#X obj 1115 1058 throw~ \$0-effsout;
#X obj 917 1240 throw~ \$0-effsout;
#X obj 9 104 catch~ \$0-effsout;
#X obj 9 294 *~ 1;
#X obj 386 172 send;
#X symbolatom 406 148 10 0 0 0 - - -;
#X obj 192 543 r \$1-params6;
#X obj 368 545 r \$1-params7;
#X obj 593 366 r \$1-params2;
#X obj 797 364 r \$1-params3;
#X obj 995 367 r \$1-params4;
#X obj 1114 1235 throw~ \$0-effsout;
#X obj 162 352 r \$1-params0;
#X obj 396 371 r \$1-params1;
#X obj 972 535 r \$1-params10;
#X obj 1174 535 r \$1-params11;
#X obj 164 712 r \$1-params12;
#X obj 362 712 r \$1-params13;
#X obj 555 712 r \$1-params14;
#X obj 812 708 r \$1-params15;
#X obj 988 714 r \$1-params16;
#X obj 1203 715 r \$1-params17;
#X obj 126 898 r \$1-params18;
#X obj 335 895 r \$1-params19;
#X obj 533 898 r \$1-params20;
#X obj 729 903 r \$1-params21;
#X obj 928 904 r \$1-params22;
#X obj 1142 904 r \$1-params23;
#X obj 114 1093 r \$1-params24;
#X obj 309 1092 r \$1-params25;
#X obj 519 1092 r \$1-params26;
#X obj 746 1082 r \$1-params27;
#X obj 951 1089 r \$1-params28;
#X obj 1154 1085 r \$1-params29;
#X obj 723 1117 stepvibrato(g);
#X obj 106 1116 tremolo(d);
#X obj 308 1116 vcf(d);
#X obj 518 1116 vibrato(d);
#X obj 917 1116 wah-auto(v);
#X obj 1109 1115 wavedistort(d);
#X obj 504 392 beatlooper(v);
#X obj 708 392 chorus(s);
#X obj 311 392 audioflow(v);
#X obj 907 392 delay(3tap)(d);
#X obj 1106 392 delay(fb)(d);
#X obj 311 566 delay(push)(v);
#X obj 511 566 delay(revtap)(g);
#X obj 721 566 delay(spect)(d);
#X obj 108 566 delay(pitch)(v);
#X obj 1111 566 delay(wavey)(v);
#X obj 314 738 distortion(d);
#X obj 111 738 detuning(g);
#X obj 511 738 flanger(s);
#X obj 708 738 hexxciter(g);
#X obj 905 738 looper(fw-bw)(v) \;;
#X obj 1105 738 octaver-harmonizer(p);
#X obj 109 928 phaser(s);
#X obj 306 928 pitchshifter(d);
#X obj 505 928 reverb(pure)(d);
#X obj 701 928 ringmod(g);
#X obj 901 928 shaper(d);
#X obj 336 218 route 0 1 2;
#X floatatom 337 305 5 0 0 0 - - -;
#X obj 336 254 * 100;
#X obj 336 276 int;
#X floatatom 379 305 5 0 0 0 - - -;
#X obj 380 255 * 100;
#X obj 380 277 int;
#X floatatom 419 305 5 0 0 0 - - -;
#X obj 434 253 * 100;
#X obj 434 275 int;
#X text 308 311 P(%);
#X obj 386 50 inlet params;
#X msg 529 162 0;
#X obj 111 392 0-raw;
#X obj 129 149 sel 0 1;
#X msg 23 178 1;
#X msg 100 181 0;
#X msg 133 181 1;
#X msg 54 178 0;
#X obj 920 566 delay(tbr)(v);
#X obj 1105 928 filter(s);
#X obj 674 363 r \$1-switch2;
#X obj 861 363 r \$1-switch3;
#X obj 1088 363 r \$1-switch4;
#X obj 1235 363 r \$1-switch5;
#X obj 243 537 r \$1-switch6;
#X obj 461 537 r \$1-switch7;
#X obj 671 537 r \$1-switch8;
#X obj 875 537 r \$1-switch9;
#X obj 1073 537 r \$1-switch10;
#X obj 1278 518 r \$1-switch11;
#X obj 251 714 r \$1-switch12;
#X obj 446 714 r \$1-switch13;
#X obj 640 714 r \$1-switch14;
#X obj 844 714 r \$1-switch15;
#X obj 1042 714 r \$1-switch16;
#X obj 1278 695 r \$1-switch17;
#X obj 239 895 r \$1-switch18;
#X obj 434 895 r \$1-switch19;
#X obj 632 903 r \$1-switch20;
#X obj 819 908 r \$1-switch21;
#X obj 1016 906 r \$1-switch22;
#X obj 1244 908 r \$1-switch23;
#X obj 216 1093 r \$1-switch24;
#X obj 410 1092 r \$1-switch25;
#X obj 632 1091 r \$1-switch26;
#X obj 838 1081 r \$1-switch27;
#X obj 1042 1088 r \$1-switch28;
#X obj 1249 1084 r \$1-switch29;
#X obj 465 363 r \$1-switch1;
#X obj 258 363 r \$1-switch0;
#X obj 939 74 until;
#X obj 939 102 f;
#X obj 970 104 + 1;
#X obj 1014 104 sel 0;
#X msg 939 48 30;
#X obj 945 309 send;
#X symbolatom 943 246 10 0 0 0 - - -;
#X obj 944 268 t b s;
#X msg 944 290 0;
#X obj 822 69 t f b;
#X obj 821 128 v seleff;
#X obj 188 50 inlet by;
#X obj 265 49 inlet seleffindex;
#X obj 198 154 s~ \$0-SigIn;
#X obj 527 317 r~ \$0-SigIn;
#X floatatom 265 312 5 0 0 0 index - -;
#X floatatom 822 154 5 0 0 0 - - -;
#X obj 970 138 mod 30;
#X obj 852 95 del 20;
#X text 974 49 so all off on init;
#X obj 662 61 f \$1;
#X floatatom 662 84 5 0 0 0 - - -;
#X obj 943 168 pack f f;
#X msg 944 224 symbol \$2-switch\$1;
#X obj 602 75 vsl 15 128 0 1 0 0 empty empty empty 0 -9 0 10 -262144
-1 -1 0 1;
#X msg 602 211 0 \$1;
#X obj 824 309 send;
#X symbolatom 822 246 10 0 0 0 - - -;
#X obj 823 268 t b s;
#X obj 822 184 pack f f;
#X msg 823 224 symbol \$2-switch\$1;
#X msg 823 290 1;
#X obj 405 104 pack f f;
#X msg 406 126 symbol \$2-params\$1;
#X obj 378 6 hradio 15 1 0 8 empty empty empty 0 -8 0 10 -262144 -1
-1 3;
#X obj 1317 1131 tgl 15 0 empty empty empty 17 7 0 10 -262144 -1 -1
0 1;
#X obj 1320 1180 tgl 15 0 empty empty empty 17 7 0 10 -262144 -1 -1
0 1;
#X connect 0 0 109 0;
#X connect 0 0 168 0;
#X connect 1 0 2 0;
#X connect 1 0 161 0;
#X connect 2 0 39 0;
#X connect 3 0 39 0;
#X connect 5 0 111 0;
#X connect 6 0 80 1;
#X connect 7 0 82 1;
#X connect 8 0 83 1;
#X connect 38 0 3 0;
#X connect 39 0 4 0;
#X connect 41 0 40 1;
#X connect 42 0 84 1;
#X connect 43 0 81 1;
#X connect 44 0 76 1;
#X connect 45 0 77 1;
#X connect 46 0 79 1;
#X connect 48 0 110 1;
#X connect 49 0 78 1;
#X connect 50 0 116 1;
#X connect 51 0 85 1;
#X connect 52 0 87 1;
#X connect 53 0 86 1;
#X connect 54 0 88 1;
#X connect 55 0 89 1;
#X connect 56 0 90 1;
#X connect 57 0 91 1;
#X connect 58 0 92 1;
#X connect 59 0 93 1;
#X connect 60 0 94 1;
#X connect 61 0 95 1;
#X connect 62 0 96 1;
#X connect 63 0 117 1;
#X connect 64 0 71 2;
#X connect 65 0 72 1;
#X connect 66 0 73 1;
#X connect 67 0 70 1;
#X connect 68 0 74 1;
#X connect 69 0 75 1;
#X connect 70 0 32 0;
#X connect 71 0 29 0;
#X connect 72 0 30 0;
#X connect 73 0 31 0;
#X connect 74 0 37 0;
#X connect 75 0 47 0;
#X connect 76 0 11 0;
#X connect 77 0 12 0;
#X connect 78 0 10 0;
#X connect 79 0 13 0;
#X connect 80 0 14 0;
#X connect 81 0 16 0;
#X connect 82 0 17 0;
#X connect 83 0 18 0;
#X connect 84 0 15 0;
#X connect 85 0 19 0;
#X connect 86 0 21 0;
#X connect 87 0 20 0;
#X connect 88 0 22 0;
#X connect 89 0 23 0;
#X connect 90 0 24 0;
#X connect 91 0 25 0;
#X connect 92 0 27 0;
#X connect 93 0 28 0;
#X connect 94 0 33 0;
#X connect 95 0 34 0;
#X connect 96 0 35 0;
#X connect 97 0 99 0;
#X connect 97 1 102 0;
#X connect 97 2 105 0;
#X connect 99 0 100 0;
#X connect 100 0 98 0;
#X connect 102 0 103 0;
#X connect 103 0 101 0;
#X connect 105 0 106 0;
#X connect 106 0 104 0;
#X connect 108 0 40 0;
#X connect 108 0 97 0;
#X connect 109 0 5 0;
#X connect 110 0 9 0;
#X connect 111 0 112 0;
#X connect 111 0 113 0;
#X connect 111 1 115 0;
#X connect 111 1 114 0;
#X connect 112 0 3 1;
#X connect 113 0 2 1;
#X connect 114 0 2 1;
#X connect 115 0 3 1;
#X connect 116 0 26 0;
#X connect 117 0 36 0;
#X connect 118 0 76 2;
#X connect 119 0 77 2;
#X connect 120 0 79 2;
#X connect 121 0 80 2;
#X connect 122 0 84 2;
#X connect 123 0 81 2;
#X connect 124 0 82 2;
#X connect 125 0 83 2;
#X connect 126 0 116 2;
#X connect 127 0 85 2;
#X connect 128 0 87 2;
#X connect 129 0 86 2;
#X connect 130 0 88 2;
#X connect 131 0 89 2;
#X connect 132 0 90 2;
#X connect 133 0 91 2;
#X connect 134 0 92 2;
#X connect 135 0 93 2;
#X connect 136 0 94 2;
#X connect 137 0 95 2;
#X connect 138 0 96 2;
#X connect 139 0 117 2;
#X connect 140 0 71 3;
#X connect 141 0 72 2;
#X connect 142 0 73 2;
#X connect 143 0 70 2;
#X connect 144 0 74 2;
#X connect 144 0 184 0;
#X connect 145 0 75 2;
#X connect 145 0 183 0;
#X connect 146 0 78 2;
#X connect 147 0 110 2;
#X connect 148 0 149 0;
#X connect 149 0 150 0;
#X connect 149 0 170 0;
#X connect 150 0 165 0;
#X connect 151 0 148 1;
#X connect 151 0 166 0;
#X connect 152 0 148 0;
#X connect 154 0 155 0;
#X connect 155 0 156 0;
#X connect 155 1 153 1;
#X connect 156 0 153 0;
#X connect 157 0 158 0;
#X connect 157 1 152 0;
#X connect 158 0 164 0;
#X connect 159 0 5 0;
#X connect 160 0 157 0;
#X connect 160 0 163 0;
#X connect 160 0 180 0;
#X connect 162 0 110 0;
#X connect 162 0 78 0;
#X connect 162 0 76 0;
#X connect 162 0 77 0;
#X connect 162 0 79 0;
#X connect 162 0 80 0;
#X connect 162 0 84 0;
#X connect 162 0 81 0;
#X connect 162 0 82 0;
#X connect 162 0 83 0;
#X connect 162 0 116 0;
#X connect 162 0 85 0;
#X connect 162 0 87 0;
#X connect 162 0 86 0;
#X connect 162 0 88 0;
#X connect 162 0 89 0;
#X connect 162 0 90 0;
#X connect 162 0 91 0;
#X connect 162 0 92 0;
#X connect 162 0 93 0;
#X connect 162 0 94 0;
#X connect 162 0 95 0;
#X connect 162 0 96 0;
#X connect 162 0 117 0;
#X connect 162 0 71 0;
#X connect 162 0 72 0;
#X connect 162 0 73 0;
#X connect 162 0 70 0;
#X connect 162 0 74 0;
#X connect 162 0 75 0;
#X connect 164 0 177 0;
#X connect 165 0 149 1;
#X connect 165 0 151 0;
#X connect 166 0 158 0;
#X connect 168 0 169 0;
#X connect 169 0 170 1;
#X connect 169 0 177 1;
#X connect 169 0 180 1;
#X connect 170 0 171 0;
#X connect 171 0 154 0;
#X connect 172 0 173 0;
#X connect 173 0 97 0;
#X connect 175 0 176 0;
#X connect 176 0 179 0;
#X connect 176 1 174 1;
#X connect 177 0 178 0;
#X connect 178 0 175 0;
#X connect 179 0 174 0;
#X connect 180 0 181 0;
#X connect 181 0 41 0;
#X connect 182 0 180 0;
#X coords 0 676 1 675 1200 960 0;
