#N canvas 642 81 450 579 12;
#X obj 11 10 tgl 15 0 empty empty empty 17 7 0 10 -262144 -1 -1 0 1
;
#X floatatom 71 9 5 0 0 0 - - -;
#X obj 11 46 metro 300;
#X obj 11 71 f;
#X obj 68 72 + 1;
#X floatatom 11 96 5 0 0 0 - - -;
#X obj 11 120 mod 4;
#X obj 11 145 hradio 16 1 0 4 empty empty empty 0 -8 0 10 -262144 -1
-1 1;
#X obj 11 166 select 0 1 2 3;
#X obj 34 215 vsl 15 128 0 127 0 0 empty empty empty 0 -9 0 10 -262144
-1 -1 7000 1;
#X floatatom 34 349 5 0 0 0 - - -;
#X obj 15 375 f;
#X obj 89 217 vsl 15 128 0 127 0 0 empty empty empty 0 -9 0 10 -262144
-1 -1 7700 1;
#X floatatom 89 351 5 0 0 0 - - -;
#X obj 70 377 f;
#X obj 141 221 vsl 15 128 0 127 0 0 empty empty empty 0 -9 0 10 -262144
-1 -1 6400 1;
#X floatatom 141 355 5 0 0 0 - - -;
#X obj 122 381 f;
#X obj 211 227 vsl 15 128 0 127 0 0 empty empty empty 0 -9 0 10 -262144
-1 -1 6800 1;
#X floatatom 211 361 5 0 0 0 - - -;
#X obj 192 387 f;
#X obj 38 468 mtof;
#X obj 29 501 osc~;
#X obj 40 545 dac~;
#X floatatom 94 501 5 0 0 0 - - -;
#X floatatom 15 404 5 0 0 0 - - -;
#X floatatom 70 402 5 0 0 0 - - -;
#X text 96 41 http://floss.booktype.pro/pure-data/sequencer/;
#X connect 0 0 2 0;
#X connect 1 0 2 1;
#X connect 2 0 3 0;
#X connect 3 0 4 0;
#X connect 3 0 5 0;
#X connect 4 0 3 1;
#X connect 5 0 6 0;
#X connect 6 0 7 0;
#X connect 7 0 8 0;
#X connect 8 0 11 0;
#X connect 8 1 14 0;
#X connect 8 2 17 0;
#X connect 8 3 20 0;
#X connect 9 0 10 0;
#X connect 10 0 11 1;
#X connect 11 0 25 0;
#X connect 12 0 13 0;
#X connect 13 0 14 1;
#X connect 14 0 26 0;
#X connect 15 0 16 0;
#X connect 16 0 17 1;
#X connect 17 0 21 0;
#X connect 18 0 19 0;
#X connect 19 0 20 1;
#X connect 20 0 21 0;
#X connect 21 0 22 0;
#X connect 21 0 24 0;
#X connect 22 0 23 0;
#X connect 22 0 23 1;
#X connect 25 0 21 0;
#X connect 26 0 21 0;
