#N canvas 601 106 450 554 12;
#X obj 114 99 poly 8 1;
#X obj 146 17 notein;
#X floatatom 116 44 5 0 0 0 - - -;
#X floatatom 171 48 5 0 0 0 - - -;
#X obj 114 147 pack f f f;
#X obj 114 172 route 1 2 3 4 5 6 7 8;
#X obj 114 350 st2;
#N canvas 0 50 450 300 sound~ 0;
#X obj 37 37 inlet~;
#X obj 37 110 dac~;
#X connect 0 0 1 0;
#X connect 0 0 1 1;
#X restore 115 428 pd sound~;
#X obj 22 417 snapshot~;
#X obj 20 333 bng 15 250 50 0 empty empty empty 17 7 0 10 -262144 -1
-1;
#X obj 20 353 metro 200;
#X floatatom 22 442 5 0 0 0 - - -;
#X connect 0 0 4 0;
#X connect 0 1 4 1;
#X connect 0 2 4 2;
#X connect 1 0 2 0;
#X connect 1 1 3 0;
#X connect 2 0 0 0;
#X connect 3 0 0 1;
#X connect 4 0 5 0;
#X connect 5 0 6 0;
#X connect 6 0 7 0;
#X connect 6 0 8 0;
#X connect 8 0 11 0;
#X connect 9 0 10 0;
#X connect 10 0 8 0;
