#N canvas 135 129 700 403 12;
#X obj 117 54 poly 6 1;
#X obj 117 78 pack 0 0 0;
#X obj 117 103 route 1 2 3 4 5 6;
#X obj 114 207 expr~ $v1+$v2+$v3+$v4+$v5+$v6;
#X floatatom 72 54 5 0 0 0 - - - 0;
#X text 238 27 http://archive.anthonymattox.com/2007-2011-blog/index.html%3Fp=2631.html
;
#X obj 119 5 notein 1;
#X obj 85 139 st2;
#X obj 133 137 st2;
#X obj 188 136 st2;
#X obj 241 132 st2;
#X obj 289 132 st2;
#X obj 350 134 st2;
#X obj 113 235 WTSOutput~;
#X obj 367 222 loadbang;
#X obj 408 252 metro 200;
#X obj 423 307 snapshot~;
#X floatatom 422 350 5 0 0 0 - - - 8;
#X msg 367 247 1;
#X obj 420 278 bng 15 250 50 0 empty empty empty 17 7 0 10 #fcfcfc
#000000 #000000;
#X connect 0 0 1 0;
#X connect 0 1 1 1;
#X connect 0 2 1 2;
#X connect 1 0 2 0;
#X connect 2 0 7 0;
#X connect 2 1 8 0;
#X connect 2 2 9 0;
#X connect 2 3 10 0;
#X connect 2 5 11 0;
#X connect 2 6 12 0;
#X connect 3 0 13 0;
#X connect 6 0 0 0;
#X connect 6 0 4 0;
#X connect 6 1 0 1;
#X connect 7 0 3 0;
#X connect 7 0 16 0;
#X connect 8 0 3 1;
#X connect 9 0 3 2;
#X connect 10 0 3 3;
#X connect 11 0 3 4;
#X connect 12 0 3 5;
#X connect 14 0 18 0;
#X connect 15 0 19 0;
#X connect 16 0 17 0;
#X connect 18 0 15 0;
#X connect 19 0 16 0;
