#N canvas 423 82 795 586 12;
#X obj 127 462 dac~ 1 2;
#X obj 69 286 chorus_sdd_320;
#X floatatom 68 133 5 0 0 0 - - - 0;
#X obj 95 1 notein;
#X obj 127 437 WTSAmplifierStero;
#X obj 231 126 vsl 15 128 0 1 0 0 empty empty Vol 0 -9 0 10 #fcfcfc
#000000 #000000 0 1;
#X floatatom 199 28 5 0 0 0 - - - 0;
#X obj 96 237 *~;
#X obj 138 83 / 127;
#X floatatom 138 108 5 0 0 0 - - - 0;
#X obj 137 134 pack 0 50;
#X obj 138 162 line~;
#X obj 121 392 WTSReverbPhasor;
#X obj 34 184 WTSPhasing;
#X obj 430 145 route 1;
#X obj 428 299 tgl 15 0 empty empty empty 17 7 0 10 #fcfcfc #000000
#000000 0 1;
#X obj 474 299 tgl 15 0 empty empty empty 17 7 0 10 #fcfcfc #000000
#000000 0 1;
#X obj 366 75 pack 1 1;
#X obj 363 39 bng 15 250 50 0 empty empty empty 17 7 0 10 #fcfcfc #000000
#000000;
#X obj 485 47 bng 15 250 50 0 empty empty empty 17 7 0 10 #fcfcfc #000000
#000000;
#X obj 485 67 pack 2 1;
#X obj 347 221 expr if($i1 == 1 \, 0 \, 1);
#X floatatom 347 242 5 0 0 0 - - - 0;
#X floatatom 347 201 5 0 0 0 - - - 0;
#X obj 531 221 expr if($i1 == 1 \, 0 \, 1);
#X floatatom 531 242 5 0 0 0 - - - 0;
#X floatatom 531 201 5 0 0 0 - - - 0;
#X obj 476 172 route 2;
#X obj 26 38 s nte;
#X obj 630 308 r nte;
#X obj 580 447 s WTSPhasing;
#X obj 13 94 r WTSPhasing;
#X obj 123 28 s vel;
#X obj 137 55 r gated_vel;
#X obj 315 305 r vel;
#X floatatom 310 469 5 0 0 0 - - - 0;
#X obj 310 493 s gated_vel;
#X floatatom 285 346 5 0 0 0 - - - 0;
#X floatatom 601 414 5 0 0 0 - - - 0;
#X floatatom 684 346 5 0 0 0 - - - 0;
#X obj 285 411 expr if($i2 == 1 \, $i1 \, foo);
#X obj 285 436 route foo;
#X msg 245 499;
#X obj 106 339 r rvbph;
#X obj 267 122 vsl 15 128 1 300 0 0 empty empty BPM 0 -9 0 10 #fcfcfc
#000000 #000000 0 1;
#X floatatom 267 258 5 0 0 0 - - - 0;
#X obj 267 282 s bpm;
#X obj 488 380 WTSGate;
#X floatatom 488 405 5 0 0 0 - - - 0;
#X obj 488 429 s rvbph;
#X floatatom 107 360 5 0 0 0 - - - 0;
#X obj 582 387 WTSGate;
#X obj 194 355 r bpm;
#X floatatom 156 372 5 0 0 0 - - - 0;
#X connect 1 0 4 0;
#X connect 1 1 4 1;
#X connect 2 0 13 1;
#X connect 3 0 28 0;
#X connect 3 1 32 0;
#X connect 3 2 6 0;
#X connect 4 0 0 0;
#X connect 4 1 0 1;
#X connect 5 0 4 2;
#X connect 7 0 1 0;
#X connect 7 0 1 1;
#X connect 8 0 9 0;
#X connect 9 0 10 0;
#X connect 10 0 11 0;
#X connect 11 0 7 1;
#X connect 12 0 4 0;
#X connect 12 1 4 1;
#X connect 13 0 7 0;
#X connect 14 0 15 0;
#X connect 14 0 23 0;
#X connect 14 1 27 0;
#X connect 15 0 40 1;
#X connect 15 0 51 0;
#X connect 16 0 47 0;
#X connect 17 0 14 0;
#X connect 18 0 17 0;
#X connect 19 0 20 0;
#X connect 20 0 14 0;
#X connect 21 0 22 0;
#X connect 22 0 16 0;
#X connect 23 0 21 0;
#X connect 24 0 25 0;
#X connect 25 0 15 0;
#X connect 26 0 24 0;
#X connect 27 0 16 0;
#X connect 27 0 26 0;
#X connect 29 0 39 0;
#X connect 29 0 47 1;
#X connect 29 0 51 1;
#X connect 31 0 13 0;
#X connect 33 0 8 0;
#X connect 34 0 37 0;
#X connect 35 0 36 0;
#X connect 37 0 40 0;
#X connect 40 0 41 0;
#X connect 41 0 42 0;
#X connect 41 1 35 0;
#X connect 43 0 50 0;
#X connect 44 0 45 0;
#X connect 45 0 46 0;
#X connect 47 0 48 0;
#X connect 48 0 49 0;
#X connect 50 0 12 0;
#X connect 51 0 30 0;
#X connect 51 0 38 0;
#X connect 52 0 12 1;
#X connect 52 0 53 0;
