#N canvas 0 0 604 473 12;
#X obj 243 388 dac~ 1 2;
#X obj 69 286 chorus_sdd_320;
#X obj 68 190 WTSPhasing;
#X floatatom 149 36 5 0 0 0 - - - 0;
#X obj 58 36 notein;
#X obj 243 363 WTSAmplifierStero;
#X obj 359 212 vsl 15 128 0 1 0 0 empty empty Vol 0 -9 0 10 #fcfcfc
#000000 #000000 0 1;
#X floatatom 103 60 5 0 0 0 - - - 0;
#X obj 96 237 *~;
#X obj 79 97 / 127;
#X floatatom 79 122 5 0 0 0 - - - 0;
#X obj 169 151 pack 0 50;
#X obj 169 176 line~;
#X obj 511 11 abswitch~;
#X obj 493 93 bypassstereo~;
#X obj 483 61 crossfader~;
#X obj 511 36 expression;
#X obj 488 127 freeverb~;
#X obj 408 177 leslie~;
#X obj 399 403 main;
#X obj 466 448 override;
#X obj 489 149 pitchshifter~;
#X connect 1 0 5 0;
#X connect 1 1 5 1;
#X connect 2 0 8 0;
#X connect 3 0 2 1;
#X connect 4 0 2 0;
#X connect 4 1 9 0;
#X connect 4 2 7 0;
#X connect 5 0 0 0;
#X connect 5 1 0 1;
#X connect 6 0 5 2;
#X connect 8 0 1 0;
#X connect 8 0 1 1;
#X connect 9 0 10 0;
#X connect 10 0 11 0;
#X connect 11 0 12 0;
#X connect 12 0 8 1;
