#N canvas 703 99 532 543 12;
#X obj 11 6 notein;
#X floatatom 50 30 5 0 0 0 - - - 0;
#X obj 26 485 output~;
#X obj 34 61 WTSBobEnv01;
#X obj 25 437 catch~ output;
#X obj 34 266 throw~ output;
#X connect 0 0 3 0;
#X connect 0 1 3 1;
#X connect 0 2 1 0;
#X connect 3 0 5 0;
#X connect 4 0 2 0;
#X connect 4 0 2 1;
