#N canvas 175 106 1004 561 12;
#X declare -path r_cycle;
#X declare -path ../;
#X obj 6 5 declare -path r_cycle;
#X obj 2 141 LP_GUI -1;
#X text 272 69 LP_GUI;
#N canvas 1 78 486 150 MISC 0;
#X text 32 25 This is needed to make the r_cycle objects accessible
even before placing the r_cycle folder in a place part of the path
search in Pd \;;
#X obj 34 87 declare -path ../;
#X restore 23 538 pd MISC;
#X msg 170 68 device LP_X;
#X obj 169 -2 loadbang;
#X obj 209 559 TO_LP_X;
#X obj 209 533 r \$0-LPX;
#X floatatom 830 90 5 0 0 0 row - -;
#X floatatom 845 110 5 0 0 0 column - -;
#X symbolatom 860 131 15 0 0 0 button - -;
#X floatatom 876 150 5 0 0 0 note - -;
#X floatatom 891 170 5 0 0 0 velocity - -;
#X floatatom 906 190 5 0 0 0 polytouch - -;
#X floatatom 922 210 5 0 0 0 aftertouch - -;
#X floatatom 937 230 5 0 0 0 cc_value - -;
#X floatatom 953 250 5 0 0 0 cc_number - -;
#X floatatom 939 190 5 0 0 1 note - -;
#X obj 906 89 unpack;
#X obj 830 63 FROM_LP_X 1 72, f 21;
#X obj 830 23 tgl 15 0 empty empty off_on_(on_by_default) 17 7 0 10
-262144 -1 -1 0 1;
#X msg 880 42 print_args;
#X obj 345 117 bng 15 250 50 0 empty empty empty 17 7 0 10 -262144
-1 -1;
#X obj 345 72 tgl 15 0 empty empty empty 17 7 0 10 -262144 -1 -1 1
1;
#X obj 345 137 float;
#X obj 412 159 + 1;
#X floatatom 345 162 5 0 0 0 - - -;
#X floatatom 345 211 5 0 0 0 - - -;
#X msg 388 131 1;
#X obj 345 235 hradio 16 1 0 8 empty empty empty 0 -8 0 10 -262144
-1 -1 4;
#X obj 345 186 mod 8;
#X obj 346 93 metro 500;
#X floatatom 345 252 5 0 0 0 - - -;
#X obj 409 28 hsl 128 15 60 300 0 0 empty empty BPM -2 -8 0 10 -262144
-1 -1 0 1;
#X obj 406 64 expr 60000/$f1;
#X floatatom 406 42 5 0 0 0 - - -;
#N canvas 280 127 586 513 guide_lights 0;
#X obj 37 37 inlet;
#X obj 35 75 select 0 1 2 3 4 5 6 7;
#X obj 10 423 s \$0-LPX;
#X msg 10 398 rgb 91 127 0 0;
#X obj 54 378 s \$0-LPX;
#X msg 56 359 rgb 91 0 0 127;
#X obj 135 425 s \$0-LPX;
#X obj 179 380 s \$0-LPX;
#X msg 135 400 rgb 92 127 0 0;
#X msg 181 361 rgb 92 0 0 127;
#X obj 79 336 s \$0-LPX;
#X obj 123 291 s \$0-LPX;
#X obj 204 338 s \$0-LPX;
#X obj 248 293 s \$0-LPX;
#X msg 125 272 rgb 93 0 0 127;
#X msg 80 311 rgb 93 127 0 0;
#X msg 251 274 rgb 94 0 0 127;
#X msg 203 313 rgb 94 127 0 0;
#X obj 160 248 s \$0-LPX;
#X obj 204 203 s \$0-LPX;
#X obj 285 250 s \$0-LPX;
#X obj 329 205 s \$0-LPX;
#X obj 229 161 s \$0-LPX;
#X obj 273 116 s \$0-LPX;
#X obj 354 163 s \$0-LPX;
#X obj 398 118 s \$0-LPX;
#X msg 160 223 rgb 95 127 0 0;
#X msg 206 184 rgb 95 0 0 127;
#X msg 230 136 rgb 97 127 0 0;
#X msg 275 97 rgb 97 0 0 127;
#X msg 401 99 rgb 98 0 0 127;
#X msg 353 138 rgb 98 127 0 0;
#X msg 331 186 rgb 96 0 0 127;
#X msg 285 225 rgb 96 127 0 0;
#X text 7 2 Make the top row of buttons flash in sequence;
#X connect 0 0 1 0;
#X connect 1 0 3 0;
#X connect 1 0 30 0;
#X connect 1 1 5 0;
#X connect 1 1 8 0;
#X connect 1 2 9 0;
#X connect 1 2 15 0;
#X connect 1 3 14 0;
#X connect 1 3 17 0;
#X connect 1 4 16 0;
#X connect 1 4 26 0;
#X connect 1 5 33 0;
#X connect 1 5 27 0;
#X connect 1 6 32 0;
#X connect 1 6 28 0;
#X connect 1 7 31 0;
#X connect 1 7 29 0;
#X connect 3 0 2 0;
#X connect 5 0 4 0;
#X connect 8 0 6 0;
#X connect 9 0 7 0;
#X connect 14 0 11 0;
#X connect 15 0 10 0;
#X connect 16 0 13 0;
#X connect 17 0 12 0;
#X connect 26 0 18 0;
#X connect 27 0 19 0;
#X connect 28 0 22 0;
#X connect 29 0 23 0;
#X connect 30 0 25 0;
#X connect 31 0 24 0;
#X connect 32 0 21 0;
#X connect 33 0 20 0;
#X restore 345 276 pd guide_lights;
#X obj 337 34 loadbang;
#X obj 590 379 WTSToggleButton 83;
#X obj 576 355 WTSToggleButton 82;
#X obj 605 405 WTSToggleButton 84;
#X obj 622 431 WTSToggleButton 85;
#X obj 637 456 WTSToggleButton 86;
#X obj 664 505 WTSToggleButton 88;
#X obj 651 481 WTSToggleButton 87;
#X obj 169 23 t b b;
#X msg 56 58 daw_mode 1;
#X msg 216 50 programmer_mode 1;
#X obj 273 4 bng 15 250 50 0 empty empty empty 17 7 0 10 -262144 -1
-1;
#X obj 29 36 bng 15 250 50 0 empty empty empty 17 7 0 10 -262144 -1
-1;
#X msg 18 88 reset;
#X msg 152 102 play;
#X msg 4 66 _HB_off;
#N canvas 639 244 450 300 grid_data 0;
#N canvas 0 50 450 250 (subpatch) 0;
#X array \$0-grid_data 100 float 2;
#X coords 0 -1 100 1 200 140 2 200 140;
#X restore 100 20 graph;
#X obj 168 165 struct;
#X restore 583 71 pd grid_data;
#X f 16;
#X obj 582 32 array get \$0-grid_data;
#X obj 584 155 array set \$0-grid_data;
#X obj 509 294 select 0 1 2 3 4 5 6 7;
#X obj 521 356 spigot;
#X obj 539 379 spigot;
#X obj 552 404 spigot;
#X obj 569 430 spigot;
#X obj 588 459 spigot;
#X obj 598 482 spigot;
#X obj 612 507 spigot;
#X obj 626 531 spigot;
#X obj 588 557 bng 15 250 50 0 empty empty empty 17 7 0 10 -262144
-1 -1;
#X obj 560 331 WTSToggleButton 81;
#X obj 743 293 select 0 1 2 3 4 5 6 7;
#X obj 755 355 spigot;
#X obj 773 378 spigot;
#X obj 786 403 spigot;
#X obj 803 429 spigot;
#X obj 822 458 spigot;
#X obj 832 481 spigot;
#X obj 846 506 spigot;
#X obj 860 530 spigot;
#X obj 822 556 bng 15 250 50 0 empty empty empty 17 7 0 10 -262144
-1 -1;
#X obj 794 330 WTSToggleButton 71;
#X obj 810 354 WTSToggleButton 72;
#X obj 824 378 WTSToggleButton 73;
#X obj 839 404 WTSToggleButton 74;
#X obj 856 430 WTSToggleButton 75;
#X obj 871 455 WTSToggleButton 76;
#X obj 885 480 WTSToggleButton 77;
#X obj 897 504 WTSToggleButton 78;
#X connect 4 0 1 0;
#X connect 5 0 45 0;
#X connect 7 0 6 0;
#X connect 18 0 13 0;
#X connect 18 1 17 0;
#X connect 19 0 8 0;
#X connect 19 1 9 0;
#X connect 19 2 10 0;
#X connect 19 3 11 0;
#X connect 19 4 12 0;
#X connect 19 5 18 0;
#X connect 19 6 14 0;
#X connect 19 7 15 0;
#X connect 19 8 16 0;
#X connect 20 0 19 0;
#X connect 21 0 19 0;
#X connect 22 0 24 0;
#X connect 23 0 31 0;
#X connect 24 0 25 0;
#X connect 24 0 26 0;
#X connect 25 0 24 1;
#X connect 26 0 30 0;
#X connect 27 0 29 0;
#X connect 28 0 24 1;
#X connect 29 0 32 0;
#X connect 30 0 27 0;
#X connect 31 0 22 0;
#X connect 32 0 36 0;
#X connect 32 0 56 0;
#X connect 32 0 67 0;
#X connect 33 0 35 0;
#X connect 34 0 31 1;
#X connect 35 0 34 0;
#X connect 37 0 23 0;
#X connect 38 0 59 1;
#X connect 39 0 58 1;
#X connect 40 0 60 1;
#X connect 41 0 61 1;
#X connect 42 0 62 1;
#X connect 43 0 64 1;
#X connect 44 0 63 1;
#X connect 45 1 4 0;
#X connect 46 0 1 0;
#X connect 47 0 1 0;
#X connect 48 0 47 0;
#X connect 49 0 46 0;
#X connect 50 0 1 0;
#X connect 51 0 1 0;
#X connect 52 0 1 0;
#X connect 56 0 57 0;
#X connect 56 1 58 0;
#X connect 56 2 59 0;
#X connect 56 3 60 0;
#X connect 56 4 61 0;
#X connect 56 5 62 0;
#X connect 56 6 63 0;
#X connect 56 7 64 0;
#X connect 57 0 65 0;
#X connect 58 0 65 0;
#X connect 59 0 65 0;
#X connect 60 0 65 0;
#X connect 61 0 65 0;
#X connect 62 0 65 0;
#X connect 63 0 65 0;
#X connect 64 0 65 0;
#X connect 66 0 57 1;
#X connect 67 0 68 0;
#X connect 67 1 69 0;
#X connect 67 2 70 0;
#X connect 67 3 71 0;
#X connect 67 4 72 0;
#X connect 67 5 73 0;
#X connect 67 6 74 0;
#X connect 67 7 75 0;
#X connect 68 0 76 0;
#X connect 69 0 76 0;
#X connect 70 0 76 0;
#X connect 71 0 76 0;
#X connect 72 0 76 0;
#X connect 73 0 76 0;
#X connect 74 0 76 0;
#X connect 75 0 76 0;
#X connect 77 0 68 1;
#X connect 78 0 69 1;
#X connect 79 0 70 1;
#X connect 80 0 71 1;
#X connect 81 0 72 1;
#X connect 82 0 73 1;
#X connect 83 0 74 1;
#X connect 84 0 75 1;
