#N canvas 547 109 807 611 12;
#X obj 56 10 notein;
#X obj 133 58 s \$0-note-on-off, f 19;
#X floatatom 13 35 5 0 0 0 - - - 0;
#X obj 56 35 mtof;
#X obj 147 11 expr if($i1 > 0 \, 1 \, 0);
#X floatatom 147 36 5 0 0 0 - - - 0;
#X obj 122 460 eee-adsr~;
#X obj 35 479 *~;
#X obj 122 430 r \$0-note-on-off;
#X obj 33 445 *~ 0.4;
#X obj 19 531 output~;
#X obj 55 98 syn-ugurphase;
#X obj 175 374 diy-makeobjects;
#X obj 55 192 mono-delayfb;
#X obj 56 268 mono-FFTreverb;
#X obj 390 320 mono-buffery;
#X connect 0 0 2 0;
#X connect 0 0 3 0;
#X connect 0 1 4 0;
#X connect 3 0 11 0;
#X connect 4 0 5 0;
#X connect 5 0 1 0;
#X connect 6 0 7 1;
#X connect 7 0 10 0;
#X connect 7 0 10 1;
#X connect 8 0 6 0;
#X connect 9 0 7 0;
#X connect 11 0 13 0;
#X connect 13 0 14 0;
#X connect 14 0 9 0;
#X connect 14 0 15 0;
