#N canvas 723 50 450 464 12;
#X obj 133 79 syn-cz10;
#X obj 227 290 eee-adsr~;
#X obj 140 309 *~;
#X obj 227 260 r \$0-note-on-off;
#X obj 138 275 *~ 0.4;
#X obj 122 378 output~;
#X obj 133 5 notein;
#X obj 210 53 s \$0-note-on-off, f 19;
#X floatatom 38 36 5 0 0 0 - - - 0;
#X obj 133 30 mtof;
#X obj 224 6 expr if($i1 > 0 \, 1 \, 0);
#X floatatom 224 31 5 0 0 0 - - - 0;
#X connect 0 0 4 0;
#X connect 1 0 2 1;
#X connect 2 0 5 0;
#X connect 2 0 5 1;
#X connect 3 0 1 0;
#X connect 4 0 2 0;
#X connect 6 0 8 0;
#X connect 6 0 9 0;
#X connect 6 1 10 0;
#X connect 9 0 0 0;
#X connect 10 0 11 0;
#X connect 11 0 7 0;
