#N canvas 175 106 1004 561 12;
#X declare -path r_cycle;
#X declare -path ../;
#X obj 29 19 declare -path r_cycle;
#X obj 28 92 LP_GUI -1;
#X obj 29 45 DEVICE_SELECT;
#X text 271 69 LP_GUI;
#N canvas 1 78 486 150 MISC 0;
#X text 32 25 This is needed to make the r_cycle objects accessible
even before placing the r_cycle folder in a place part of the path
search in Pd \;;
#X obj 34 87 declare -path ../;
#X restore 28 496 pd MISC;
#X msg 170 68 device LP_X;
#X obj 172 39 loadbang;
#X obj 214 517 TO_LP_X;
#X obj 214 491 r \$0-LPX;
#X floatatom 830 90 5 0 0 0 row - -;
#X floatatom 845 110 5 0 0 0 column - -;
#X symbolatom 860 131 15 0 0 0 button - -;
#X floatatom 876 150 5 0 0 0 note - -;
#X floatatom 891 170 5 0 0 0 velocity - -;
#X floatatom 906 190 5 0 0 0 polytouch - -;
#X floatatom 922 210 5 0 0 0 aftertouch - -;
#X floatatom 937 230 5 0 0 0 cc_value - -;
#X floatatom 953 250 5 0 0 0 cc_number - -;
#X floatatom 939 190 5 0 0 1 note - -;
#X obj 906 89 unpack;
#X obj 830 63 FROM_LP_X 1 72, f 21;
#X obj 830 23 tgl 15 0 empty empty off_on_(on_by_default) 17 7 0 10
-262144 -1 -1 0 1;
#X msg 880 42 print_args;
#X obj 345 117 bng 15 250 50 0 empty empty empty 17 7 0 10 -262144
-1 -1;
#X obj 345 72 tgl 15 0 empty empty empty 17 7 0 10 -262144 -1 -1 1
1;
#X obj 345 137 float;
#X obj 412 159 + 1;
#X floatatom 345 162 5 0 0 0 - - -;
#X floatatom 345 211 5 0 0 0 - - -;
#X msg 388 131 1;
#X obj 345 235 hradio 16 1 0 8 empty empty empty 0 -8 0 10 -262144
-1 -1 3;
#X obj 345 186 mod 8;
#X obj 346 93 metro 500;
#X floatatom 345 252 5 0 0 0 - - -;
#X obj 409 28 hsl 128 15 60 300 0 0 empty empty BPM -2 -8 0 10 -262144
-1 -1 0 1;
#X obj 406 64 expr 60000/$f1;
#X floatatom 406 42 5 0 0 0 - - -;
#N canvas 0 50 1263 669 guide_lights 0;
#X obj 37 37 inlet;
#X obj 35 75 select 0 1 2 3 4 5 6 7;
#X obj 10 423 s \$0-LPX;
#X msg 10 398 rgb 91 127 40 15;
#X obj 54 378 s \$0-LPX;
#X msg 56 359 rgb 91 10 40 127;
#X obj 135 425 s \$0-LPX;
#X obj 179 380 s \$0-LPX;
#X msg 135 400 rgb 92 127 40 15;
#X msg 181 361 rgb 92 10 40 127;
#X obj 79 336 s \$0-LPX;
#X obj 123 291 s \$0-LPX;
#X obj 204 338 s \$0-LPX;
#X obj 248 293 s \$0-LPX;
#X msg 125 272 rgb 93 10 40 127;
#X msg 80 311 rgb 93 127 40 15;
#X msg 251 274 rgb 94 10 40 127;
#X msg 203 313 rgb 94 127 40 15;
#X obj 160 248 s \$0-LPX;
#X obj 204 203 s \$0-LPX;
#X obj 285 250 s \$0-LPX;
#X obj 329 205 s \$0-LPX;
#X obj 229 161 s \$0-LPX;
#X obj 273 116 s \$0-LPX;
#X obj 354 163 s \$0-LPX;
#X obj 398 118 s \$0-LPX;
#X msg 160 223 rgb 95 127 40 15;
#X msg 206 184 rgb 95 10 40 127;
#X msg 230 136 rgb 97 127 40 15;
#X msg 275 97 rgb 97 10 40 127;
#X msg 401 99 rgb 98 10 40 127;
#X msg 353 138 rgb 98 127 40 15;
#X msg 331 186 rgb 96 10 40 127;
#X msg 285 225 rgb 96 127 40 15;
#X connect 0 0 1 0;
#X connect 1 0 3 0;
#X connect 1 0 30 0;
#X connect 1 1 5 0;
#X connect 1 1 8 0;
#X connect 1 2 9 0;
#X connect 1 2 15 0;
#X connect 1 3 14 0;
#X connect 1 3 17 0;
#X connect 1 4 16 0;
#X connect 1 4 26 0;
#X connect 1 5 27 0;
#X connect 1 5 33 0;
#X connect 1 6 32 0;
#X connect 1 6 28 0;
#X connect 1 7 31 0;
#X connect 1 7 29 0;
#X connect 3 0 2 0;
#X connect 5 0 4 0;
#X connect 8 0 6 0;
#X connect 9 0 7 0;
#X connect 14 0 11 0;
#X connect 15 0 10 0;
#X connect 16 0 13 0;
#X connect 17 0 12 0;
#X connect 26 0 18 0;
#X connect 27 0 19 0;
#X connect 28 0 22 0;
#X connect 29 0 23 0;
#X connect 30 0 25 0;
#X connect 31 0 24 0;
#X connect 32 0 21 0;
#X connect 33 0 20 0;
#X restore 345 276 pd guide_lights;
#X obj 337 34 loadbang;
#X obj 395 515 s \$0-LPX;
#X text 561 74 comment;
#X obj 604 514 s \$0-LPX;
#X obj 600 379 WTSToggleButton 74;
#X obj 618 406 WTSToggleButton 75;
#X obj 557 305 WTSToggleButton 71;
#X obj 571 330 WTSToggleButton 72;
#X obj 586 354 WTSToggleButton 73;
#X obj 633 431 WTSToggleButton 76;
#X obj 647 456 WTSToggleButton 77;
#X obj 661 480 WTSToggleButton 78;
#X obj 348 306 WTSToggleButton 81;
#X obj 363 331 WTSToggleButton 82;
#X obj 377 355 WTSToggleButton 83;
#X obj 392 381 WTSToggleButton 84;
#X obj 409 407 WTSToggleButton 85;
#X obj 424 432 WTSToggleButton 86;
#X obj 438 457 WTSToggleButton 87;
#X obj 452 481 WTSToggleButton 88;
#X connect 5 0 1 0;
#X connect 6 0 5 0;
#X connect 8 0 7 0;
#X connect 19 0 14 0;
#X connect 19 1 18 0;
#X connect 20 0 9 0;
#X connect 20 1 10 0;
#X connect 20 2 11 0;
#X connect 20 3 12 0;
#X connect 20 4 13 0;
#X connect 20 5 19 0;
#X connect 20 6 15 0;
#X connect 20 7 16 0;
#X connect 20 8 17 0;
#X connect 21 0 20 0;
#X connect 22 0 20 0;
#X connect 23 0 25 0;
#X connect 24 0 32 0;
#X connect 25 0 26 0;
#X connect 25 0 27 0;
#X connect 26 0 25 1;
#X connect 27 0 31 0;
#X connect 28 0 30 0;
#X connect 29 0 25 1;
#X connect 30 0 33 0;
#X connect 31 0 28 0;
#X connect 32 0 23 0;
#X connect 33 0 37 0;
#X connect 34 0 36 0;
#X connect 35 0 32 1;
#X connect 36 0 35 0;
#X connect 38 0 24 0;
#X connect 42 0 41 0;
#X connect 43 0 41 0;
#X connect 44 0 41 0;
#X connect 45 0 41 0;
#X connect 46 0 41 0;
#X connect 47 0 41 0;
#X connect 48 0 41 0;
#X connect 49 0 41 0;
#X connect 50 0 39 0;
#X connect 51 0 39 0;
#X connect 52 0 39 0;
#X connect 53 0 39 0;
#X connect 54 0 39 0;
#X connect 55 0 39 0;
#X connect 56 0 39 0;
#X connect 57 0 39 0;
