#N canvas 102 51 1091 359 12;
#X obj 71 114 hsl 128 15 60 300 0 0 empty empty BPM 5 -8 0 10 #fcfcfc
#000000 #000000 0 1;
#X obj 68 150 expr 60000/$f1;
#X floatatom 68 128 5 0 0 0 - - - 0;
#X obj 68 37 loadbang;
#X msg 68 72 180;
#X text 66 4 Set speed;
#X obj 8 154 tgl 15 0 empty empty empty 17 7 0 10 #fcfcfc #000000 #000000
0 1;
#X obj 8 178 metro 500;
#X obj 8 203 s \$0-clock;
#X obj 272 72 catch~ dac;
#X obj 273 142 dac~;
#X obj 318 142 *~;
#X obj 231 139 *~;
#X obj 232 39 vsl 8 50 0 1 0 0 empty empty empty 0 -9 0 10 #fcfcfc
#000000 #000000 0 1;
#X obj 264 11 loadbang;
#X msg 264 36 0.75;
#X obj 118 184 r \$0-clock;
#X obj 260 176 r \$0-clock;
#X obj 260 318 Sample8x8 bbb;
#X obj 118 261 spigot;
#X obj 260 261 spigot;
#X obj 206 208 r ccc;
#X floatatom 206 233 5 0 0 0 - - - 0;
#X msg 157 231 1;
#X obj 737 86 midiout;
#X obj 727 176 midiout;
#X obj 727 127 bng 15 250 50 0 empty empty empty 17 7 0 10 #fcfcfc
#000000 #000000;
#X obj 728 150 list 240 0 32 41 2 12 16 0 247;
#X text 745 125 Put LPX in standalone mode;
#X msg 760 8 1;
#X msg 760 31 0;
#X text 786 7 Set programmer mode;
#X text 790 29 Set live mode;
#X obj 738 60 list 240 0 32 41 2 12 14 \$1 247;
#X msg 299 229 1;
#X floatatom 406 33 5 0 0 0 - - - 0;
#X obj 406 98 route 48 50 52, f 19;
#X obj 406 123 t b;
#X floatatom 469 30 5 0 0 0 - - - 0;
#X obj 406 57 spigot;
#N canvas 612 255 450 300 flipflop 0;
#X obj 37 37 inlet;
#X obj 37 109 outlet;
#X floatatom 252 102 5 0 1 0 - - - 8;
#X msg 252 76 0;
#X obj 252 48 loadbang;
#X obj 37 85 t a a;
#X obj 37 61 expr if($i2 == 1 \, 0 \, 1);
#X connect 0 0 6 0;
#X connect 2 0 6 1;
#X connect 3 0 2 0;
#X connect 4 0 3 0;
#X connect 5 0 1 0;
#X connect 5 1 2 0;
#X connect 6 0 5 0;
#X coords 0 -1 1 1 40 23 2 250 100;
#X restore 406 168 pd flipflop;
#X floatatom 406 208 5 0 0 0 - - - 0;
#X obj 406 232 s ccc;
#X obj 449 122 t b;
#N canvas 612 255 450 300 flipflop 0;
#X obj 37 37 inlet;
#X obj 37 109 outlet;
#X floatatom 252 102 5 0 1 0 - - - 8;
#X msg 252 76 0;
#X obj 252 48 loadbang;
#X obj 37 85 t a a;
#X obj 37 61 expr if($i2 == 1 \, 0 \, 1);
#X connect 0 0 6 0;
#X connect 2 0 6 1;
#X connect 3 0 2 0;
#X connect 4 0 3 0;
#X connect 5 0 1 0;
#X connect 5 1 2 0;
#X connect 6 0 5 0;
#X coords 0 -1 1 1 40 23 2 250 100;
#X restore 449 167 pd flipflop;
#X floatatom 449 207 5 0 0 0 - - - 0;
#X obj 449 231 s bbb;
#X floatatom 348 252 5 0 0 0 - - - 0;
#X obj 348 227 r bbb;
#X obj 118 286 bng 15 250 50 0 empty empty empty 17 7 0 10 #fcfcfc
#000000 #000000;
#X obj 260 286 bng 15 250 50 0 empty empty empty 17 7 0 10 #fcfcfc
#000000 #000000;
#X obj 406 8 notein 17;
#X obj 559 180 r \$0-clock;
#X obj 559 322 Sample8x8 bbb;
#X obj 559 265 spigot;
#X msg 598 233 1;
#X floatatom 647 256 5 0 0 0 - - - 0;
#X obj 647 231 r bbb;
#X obj 559 290 bng 15 250 50 0 empty empty empty 17 7 0 10 #fcfcfc
#000000 #000000;
#X obj 118 318 Sample8x8 NiteLite;
#X connect 0 0 2 0;
#X connect 1 0 7 1;
#X connect 2 0 1 0;
#X connect 3 0 4 0;
#X connect 4 0 0 0;
#X connect 6 0 7 0;
#X connect 7 0 8 0;
#X connect 9 0 11 0;
#X connect 9 0 12 0;
#X connect 11 0 10 1;
#X connect 12 0 10 0;
#X connect 13 0 11 1;
#X connect 13 0 12 1;
#X connect 14 0 15 0;
#X connect 15 0 13 0;
#X connect 16 0 19 0;
#X connect 17 0 20 0;
#X connect 19 0 49 0;
#X connect 20 0 50 0;
#X connect 21 0 22 0;
#X connect 22 0 59 1;
#X connect 23 0 19 1;
#X connect 26 0 27 0;
#X connect 27 0 25 0;
#X connect 29 0 33 0;
#X connect 30 0 33 0;
#X connect 33 0 24 0;
#X connect 34 0 20 1;
#X connect 35 0 39 0;
#X connect 36 0 37 0;
#X connect 36 1 43 0;
#X connect 37 0 40 0;
#X connect 38 0 39 1;
#X connect 39 0 36 0;
#X connect 40 0 41 0;
#X connect 41 0 42 0;
#X connect 43 0 44 0;
#X connect 44 0 45 0;
#X connect 45 0 46 0;
#X connect 47 0 18 1;
#X connect 48 0 47 0;
#X connect 49 0 59 0;
#X connect 50 0 18 0;
#X connect 51 0 35 0;
#X connect 51 1 38 0;
#X connect 52 0 54 0;
#X connect 54 0 58 0;
#X connect 55 0 54 1;
#X connect 56 0 53 1;
#X connect 57 0 56 0;
#X connect 58 0 53 0;
