#N canvas 263 158 916 513 12;
#X obj 19 80 no.pinknoise~;
#X obj 23 150 output~;
#X msg 19 15 seed 123;
#X obj 666 446 output~;
#X obj 527 51 notein;
#X floatatom 527 103 5 0 0 0 - - - 0;
#N canvas 0 0 367 272 envelope 0;
#X obj 165 9 inlet Velocity;
#X obj 165 197 outlet~;
#X obj 124 166 *~;
#X obj 11 9 inlet~ Audio signal;
#X obj 165 34 WTSVelocityToShape;
#X connect 0 0 4 0;
#X connect 2 0 1 0;
#X connect 3 0 2 0;
#X connect 4 0 2 1;
#X restore 696 416 pd envelope;
#X obj 546 79 s vel;
#X obj 770 376 r vel;
#X obj 527 145 WTSWaveTableOsc~;
#X obj 591 10 vsl 15 128 0 127 0 0 empty empty empty 0 -9 0 10 #fcfcfc
#000000 #000000 0 1;
#X obj 655 7 vsl 15 128 0 127 0 0 empty empty empty 0 -9 0 10 #fcfcfc
#000000 #000000 0 1;
#X obj 720 5 vsl 15 128 0 127 0 0 empty empty empty 0 -9 0 10 #fcfcfc
#000000 #000000 0 1;
#X obj 131 125 WTSBob~;
#X obj 241 442 output~;
#N canvas 0 0 367 272 envelope 0;
#X obj 165 9 inlet Velocity;
#X obj 165 197 outlet~;
#X obj 124 166 *~;
#X obj 11 9 inlet~ Audio signal;
#X obj 165 34 WTSVelocityToShape;
#X connect 0 0 4 0;
#X connect 2 0 1 0;
#X connect 3 0 2 0;
#X connect 4 0 2 1;
#X restore 278 374 pd envelope;
#X obj 352 334 r vel;
#X connect 0 0 1 0;
#X connect 0 0 1 1;
#X connect 2 0 0 0;
#X connect 4 0 5 0;
#X connect 4 0 13 0;
#X connect 4 1 7 0;
#X connect 5 0 9 0;
#X connect 6 0 3 1;
#X connect 6 0 3 0;
#X connect 8 0 6 1;
#X connect 9 0 6 0;
#X connect 10 0 9 1;
#X connect 11 0 9 2;
#X connect 12 0 9 3;
#X connect 13 0 15 0;
#X connect 15 0 14 1;
#X connect 15 0 14 0;
#X connect 16 0 15 1;
