#N canvas 28 238 1157 300 12;
#X obj 37 37 syn-cranks;
#X obj 13 183 output~;
#X floatatom 18 5 5 0 0 0 - - - 0;
#X floatatom 93 6 5 0 0 0 - - - 0;
#X obj 210 146 perk-bell;
#X obj 288 93 bng 15 250 50 0 empty empty empty 17 7 0 10 #fcfcfc #000000
#000000;
#X obj 209 242 output~;
#X obj 562 234 output~;
#X obj 398 234 snapshot~;
#X floatatom 398 257 5 0 0 0 - - - 0;
#X obj 312 96 bng 15 250 50 0 empty empty empty 17 7 0 10 #fcfcfc #000000
#000000;
#X obj 353 88 metro 200;
#X floatatom 803 33 5 0 0 0 - - - 0;
#X obj 803 57 mtof;
#X obj 437 133 bng 15 250 50 0 empty empty empty 17 7 0 10 #fcfcfc
#000000 #000000;
#X obj 803 88 syn-simpleFM;
#X msg 446 42 stop;
#X connect 0 0 1 0;
#X connect 0 0 1 1;
#X connect 2 0 0 0;
#X connect 3 0 0 1;
#X connect 4 0 6 0;
#X connect 4 0 6 1;
#X connect 5 0 4 0;
#X connect 8 0 9 0;
#X connect 10 0 11 0;
#X connect 11 0 8 0;
#X connect 11 0 14 0;
#X connect 12 0 13 0;
#X connect 13 0 15 0;
#X connect 15 0 8 0;
#X connect 15 0 7 0;
#X connect 15 0 7 1;
#X connect 16 0 11 0;
