#N canvas 773 53 566 498 12;
#X declare -path r_cycle;
#X obj 79 49 WTSBobEnv01;
#X obj 77 2 notein;
#X floatatom 77 27 5 0 0 0 - - - 0;
#X obj 9 464 declare -path r_cycle;
#X obj 269 375 loadbang;
#X obj 269 400 delay 100;
#X msg 269 425 \; pd dsp 1;
#X obj 78 297 TAPE_DELAY;
#X obj 78 391 dac~ 3 4;
#X connect 0 0 7 0;
#X connect 1 0 2 0;
#X connect 1 1 0 1;
#X connect 2 0 0 0;
#X connect 4 0 5 0;
#X connect 5 0 6 0;
#X connect 7 0 8 1;
#X connect 7 0 8 0;
