#N canvas 0 0 1366 712 12;
#X obj 17 132 metro;
#X obj 48 4 loadbang;
#X msg 48 29 120;
#X obj 51 54 hsl 64 10 0 280 0 0 empty empty tempo 4 4 0 10 #dfdfdf
#ff0400 #000000 0 1;
#X obj 17 157 bng 15 250 50 0 empty empty empty 17 7 0 10 #fcfcfc #000000
#000000;
#X obj 49 112 expr 1000/($f1/60);
#X obj 17 112 tgl 15 0 empty empty empty 17 7 0 10 #fcfcfc #000000
#000000 0 1;
#X obj 17 177 float;
#X obj 84 199 + 1;
#X floatatom 17 202 5 0 0 0 - - - 0;
#X floatatom 17 251 5 0 0 0 - - - 0;
#X msg 60 171 1;
#X obj 17 275 hradio 16 1 0 4 empty empty empty 0 -8 0 10 #fcfcfc #000000
#000000 0;
#X obj 854 1082 WTSMidiElement;
#X obj 971 1082 WTSMidiElement;
#X obj 1097 1082 WTSMidiElement;
#X obj 995 602 select 0 1 2 3 4 5 6 7 8 9 10 11 12 13 14 15;
#X obj 170 369 select 0 1 2 3;
#X obj 17 226 mod 4;
#X obj 1218 1082 WTSMidiElement;
#X floatatom 854 1262 5 0 0 0 - - - 0;
#X floatatom 971 1262 5 0 0 0 - - - 0;
#X floatatom 1097 1262 5 0 0 0 - - - 0;
#X floatatom 1218 1262 5 0 0 0 - - - 0;
#X floatatom 916 1260 5 0 0 0 - - - 0;
#X floatatom 1035 1260 5 0 0 0 - - - 0;
#X floatatom 1163 1260 5 0 0 0 - - - 0;
#X floatatom 1285 1260 5 0 0 0 - - - 0;
#X obj 850 1371 WTSBobEnv01;
#X obj 1212 1721 output~;
#X text 12 1081 Bottom;
#X obj 1211 1371 WTSBobEnv01;
#X obj 293 334 WTSMidiElement;
#X floatatom 294 514 5 0 0 0 - - - 0;
#X obj 276 553 f;
#X obj 414 335 WTSMidiElement;
#X floatatom 414 515 5 0 0 0 - - - 0;
#X obj 678 602 vradio 12 1 0 12 empty empty empty 0 -8 0 10 #fcfcfc
#000000 #000000 0;
#X obj 718 604 vsl 15 128 0 127 0 0 empty empty empty 0 -9 0 10 #fcfcfc
#000000 #000000 0 1;
#X floatatom 718 740 5 0 0 0 - - \$0_velocity 0;
#X obj 696 602 vradio 15 1 0 5 empty empty empty 0 -8 0 10 #fcfcfc
#000000 #000000 0;
#X floatatom 767 688 5 0 0 0 - - - 0;
#X obj 678 751 expr (11 - $f1) + 57;
#X obj 767 663 expr (2 - $f1) * 12;
#X obj 717 879 +;
#X obj 735 805 r \$0_octave;
#X obj 778 751 s \$0_octave;
#X floatatom 717 904 5 0 0 0 - - - 0;
#X obj 767 643 bng 15 250 50 0 empty empty empty 17 7 0 10 #fcfcfc
#000000 #000000;
#X floatatom 696 682 2 0 0 0 - - - 0;
#X obj 705 805 t b;
#X obj 490 659 mtof;
#X obj 414 539 f;
#X obj 683 266 output~;
#X obj 685 66 WTSBob~;
#X obj 543 337 WTSMidiElement;
#X floatatom 543 517 5 0 0 0 - - - 0;
#X obj 544 561 f;
#X obj 651 337 WTSMidiElement;
#X floatatom 651 517 5 0 0 0 - - - 0;
#X obj 653 565 f;
#X obj 17 296 s \$0_select;
#X obj 171 342 r \$0_select;
#X obj 490 684 s \$0_frequency;
#X obj 684 9 r \$0_frequency;
#X floatatom 685 32 5 0 0 0 - - - 0;
#X obj 278 529 bng 15 250 50 0 empty empty empty 17 7 0 10 #fcfcfc
#000000 #000000;
#X connect 0 0 4 0;
#X connect 1 0 2 0;
#X connect 1 0 6 0;
#X connect 2 0 3 0;
#X connect 3 0 5 0;
#X connect 4 0 7 0;
#X connect 5 0 0 1;
#X connect 6 0 0 0;
#X connect 7 0 8 0;
#X connect 7 0 9 0;
#X connect 8 0 7 1;
#X connect 9 0 18 0;
#X connect 10 0 12 0;
#X connect 11 0 7 1;
#X connect 12 0 61 0;
#X connect 13 0 20 0;
#X connect 13 1 24 0;
#X connect 14 0 21 0;
#X connect 14 1 25 0;
#X connect 15 0 22 0;
#X connect 15 1 26 0;
#X connect 17 0 66 0;
#X connect 17 1 52 0;
#X connect 17 2 57 0;
#X connect 17 3 60 0;
#X connect 18 0 10 0;
#X connect 19 0 23 0;
#X connect 19 1 27 0;
#X connect 20 0 28 0;
#X connect 22 0 31 0;
#X connect 24 0 28 1;
#X connect 26 0 31 1;
#X connect 28 0 29 0;
#X connect 28 0 29 1;
#X connect 31 0 29 0;
#X connect 31 0 29 1;
#X connect 32 0 33 0;
#X connect 33 0 34 1;
#X connect 34 0 51 0;
#X connect 35 0 36 0;
#X connect 36 0 52 1;
#X connect 37 0 42 0;
#X connect 38 0 39 0;
#X connect 40 0 43 0;
#X connect 41 0 46 0;
#X connect 42 0 44 0;
#X connect 43 0 41 0;
#X connect 44 0 47 0;
#X connect 45 0 44 1;
#X connect 45 0 50 0;
#X connect 48 0 37 0;
#X connect 50 0 44 0;
#X connect 51 0 63 0;
#X connect 52 0 51 0;
#X connect 54 0 53 0;
#X connect 54 0 53 1;
#X connect 55 0 56 0;
#X connect 56 0 57 1;
#X connect 57 0 51 0;
#X connect 58 0 59 0;
#X connect 59 0 60 1;
#X connect 60 0 51 0;
#X connect 62 0 17 0;
#X connect 64 0 65 0;
#X connect 65 0 54 0;
#X connect 66 0 34 0;
