#N canvas 7 126 1243 514 12;
#X obj 39 134 bng 15 250 50 0 empty empty empty 17 7 0 10 -262144 -1
-1;
#X obj 39 89 tgl 15 0 empty empty empty 17 7 0 10 -262144 -1 -1 0 1
;
#X obj 39 154 float;
#X obj 106 176 + 1;
#X floatatom 39 179 5 0 0 0 - - -;
#X floatatom 39 228 5 0 0 0 - - -;
#X msg 82 148 1;
#X obj 39 252 hradio 16 1 0 8 empty empty empty 0 -8 0 10 -262144 -1
-1 1;
#X obj 39 203 mod 8;
#X obj 40 110 metro 500;
#X floatatom 39 269 5 0 0 0 - - -;
#X obj 103 45 hsl 128 15 60 300 0 0 empty empty BPM 5 -8 0 10 -262144
-1 -1 6350 1;
#X obj 100 81 expr 60000/$f1;
#X floatatom 100 59 5 0 0 0 - - -;
#N canvas 91 145 944 513 guide_lights 0;
#X obj 41 3 inlet;
#X obj 39 41 select 0 1 2 3 4 5 6 7, f 41;
#X text 7 2 Make the top row of buttons flash in sequence;
#X floatatom 105 21 5 0 0 0 - - -;
#X obj 352 475 midiout;
#X obj 381 307 list prepend 240 0 32 41 2 12 3 0;
#X text 477 330 71 => black;
#X text 471 405 9 => Orange;
#X msg 39 101 91;
#X obj 381 283 r \$0b;
#X obj 380 356 r \$0o;
#X msg 26 141 98;
#X obj 286 449 s \$0b;
#X obj 24 451 s \$0o;
#X msg 74 101 92;
#X msg 65 141 91;
#X msg 100 141 92;
#X msg 110 101 93;
#X msg 147 141 93;
#X obj 17 82 bng 15 250 50 0 empty empty empty 17 7 0 10 -262144 -1
-1;
#X msg 162 101 94;
#X msg 188 141 94;
#X msg 197 101 95;
#X msg 223 141 95;
#X msg 233 101 96;
#X msg 270 141 96;
#X msg 284 101 97;
#X msg 310 141 97;
#X msg 320 101 98;
#X obj 380 381 list prepend 240 0 32 41 2 12 3 0;
#X obj 381 331 list 37 247;
#X obj 380 406 list 50 247;
#X connect 0 0 1 0;
#X connect 0 0 3 0;
#X connect 1 0 8 0;
#X connect 1 0 11 0;
#X connect 1 0 19 0;
#X connect 1 1 14 0;
#X connect 1 1 15 0;
#X connect 1 2 16 0;
#X connect 1 2 17 0;
#X connect 1 3 18 0;
#X connect 1 3 20 0;
#X connect 1 4 21 0;
#X connect 1 4 22 0;
#X connect 1 5 23 0;
#X connect 1 5 24 0;
#X connect 1 6 25 0;
#X connect 1 6 24 0;
#X connect 1 7 27 0;
#X connect 1 7 26 0;
#X connect 1 8 28 0;
#X connect 5 0 30 0;
#X connect 8 0 13 0;
#X connect 9 0 5 0;
#X connect 10 0 29 0;
#X connect 11 0 12 0;
#X connect 14 0 13 0;
#X connect 15 0 12 0;
#X connect 16 0 12 0;
#X connect 17 0 13 0;
#X connect 18 0 12 0;
#X connect 19 0 8 0;
#X connect 20 0 13 0;
#X connect 21 0 12 0;
#X connect 22 0 13 0;
#X connect 23 0 12 0;
#X connect 24 0 13 0;
#X connect 25 0 12 0;
#X connect 26 0 13 0;
#X connect 27 0 12 0;
#X connect 28 0 13 0;
#X connect 29 0 31 0;
#X connect 30 0 4 0;
#X connect 31 0 4 0;
#X restore 52 424 pd guide_lights;
#X obj 100 -32 loadbang;
#X obj 210 95 select 0 1 2 3 4 5 6 7, f 23;
#X obj 640 364 catch~ dac;
#X obj 641 434 dac~;
#X obj 39 293 s sequence;
#X obj 210 67 r sequence;
#X obj 686 434 *~;
#X obj 599 431 *~;
#X obj 769 339 vsl 8 50 0 1 0 0 empty empty empty 0 -9 0 10 -262144
-1 -1 3675 1;
#X obj 801 311 loadbang;
#X msg 801 336 0.75;
#X msg 100 3 180;
#X text 898 509 Reset samples on load;
#X msg 966 563 set;
#X obj 867 612 s \$0-ss1;
#X obj 934 612 s \$0-ss2;
#X obj 1000 612 s \$0-ss3;
#X obj 1065 612 s \$0-ss4;
#X obj 867 650 s \$0-ss5;
#X obj 934 650 s \$0-ss6;
#X obj 1000 650 s \$0-ss7;
#X obj 1065 650 s \$0-ss8;
#X obj 966 533 loadbang;
#N canvas 2 88 1273 537 samples 0;
#X obj 10 -87 bng 15 250 50 0 empty empty empty 17 7 0 10 -262144 -1
-1;
#X obj 39 -103 openpanel;
#X obj 38 -79 s \$0-sampler_2_fn;
#X obj 15 -19 bng 15 250 50 0 empty empty empty 17 7 0 10 -262144 -1
-1;
#X obj 44 -35 openpanel;
#X obj 43 -11 s \$0-sampler_3_fn;
#X msg 117 -34 set \$1;
#X msg 181 -35, f 40;
#X msg 116 -104 set \$1;
#X msg 180 -105, f 40;
#X obj 52 441 bng 15 250 50 0 empty empty empty 17 7 0 10 -262144 -1
-1;
#X obj 14 50 bng 15 250 50 0 empty empty empty 17 7 0 10 -262144 -1
-1;
#X obj 43 34 openpanel;
#X msg 116 35 set \$1;
#X msg 180 34, f 40;
#X obj 42 58 s \$0-sampler_4_fn;
#X obj 15 117 bng 15 250 50 0 empty empty empty 17 7 0 10 -262144 -1
-1;
#X obj 44 101 openpanel;
#X msg 117 102 set \$1;
#X msg 181 101, f 40;
#X obj 43 125 s \$0-sampler_5_fn;
#X obj 15 185 bng 15 250 50 0 empty empty empty 17 7 0 10 -262144 -1
-1;
#X obj 44 169 openpanel;
#X msg 117 170 set \$1;
#X msg 181 169, f 40;
#X obj 43 193 s \$0-sampler_6_fn;
#X obj 14 250 bng 15 250 50 0 empty empty empty 17 7 0 10 -262144 -1
-1;
#X obj 43 234 openpanel;
#X msg 116 235 set \$1;
#X msg 180 234, f 40;
#X obj 42 258 s \$0-sampler_7_fn;
#X obj 13 320 bng 15 250 50 0 empty empty empty 17 7 0 10 -262144 -1
-1;
#X obj 42 304 openpanel;
#X msg 115 305 set \$1;
#X msg 179 304, f 40;
#X obj 41 328 s \$0-sampler_8_fn;
#X obj 11 -153 bng 15 250 50 0 empty empty empty 17 7 0 10 -262144
-1 -1;
#X obj 40 -169 openpanel;
#X msg 117 -170 set \$1;
#X msg 181 -171, f 40;
#X obj 39 -145 s \$0-sampler_1_fn;
#X obj 578 -145 bng 15 250 50 0 empty empty Save_Samples 17 7 0 10
-262144 -1 -1;
#X obj 578 -125 t b b;
#X obj 894 40 r \$0-save-sample;
#X obj 351 -133 s \$0-save-sample;
#X obj 181 -134 pack s;
#X msg 237 -132 add sample_1 \$1;
#X obj 468 -163 r \$0-ss1;
#X obj 578 57 t b b b b b b b b b b;
#X obj 610 255 s \$0-ss1;
#X obj 626 233 s \$0-ss2;
#X obj 642 210 s \$0-ss3;
#X obj 658 187 s \$0-ss4;
#X obj 674 164 s \$0-ss5;
#X obj 690 141 s \$0-ss6;
#X obj 706 118 s \$0-ss7;
#X obj 722 95 s \$0-ss8;
#X obj 350 -64 s \$0-save-sample;
#X obj 180 -64 pack s;
#X msg 236 -64 add sample_2 \$1;
#X obj 471 -28 r \$0-ss3;
#X obj 472 -99 r \$0-ss2;
#X obj 351 8 s \$0-save-sample;
#X obj 181 8 pack s;
#X msg 237 8 add sample_3 \$1;
#X obj 472 42 r \$0-ss4;
#X obj 350 76 s \$0-save-sample;
#X obj 180 76 pack s;
#X msg 236 76 add sample_4 \$1;
#X obj 351 141 s \$0-save-sample;
#X obj 181 141 pack s;
#X msg 237 141 add sample_5 \$1;
#X obj 473 107 r \$0-ss5;
#X obj 473 175 r \$0-ss6;
#X obj 351 207 s \$0-save-sample;
#X obj 181 207 pack s;
#X msg 237 207 add sample_6 \$1;
#X obj 350 273 s \$0-save-sample;
#X obj 180 273 pack s;
#X obj 474 238 r \$0-ss7;
#X msg 236 273 add sample_7 \$1;
#X obj 349 347 s \$0-save-sample;
#X obj 179 347 pack s;
#X obj 471 310 r \$0-ss8;
#X msg 235 347 add sample_8 \$1;
#X obj 739 219 route sample_1 sample_2 sample_3 sample_4 sample_5 sample_6
sample_7 sample_8, f 66;
#X obj 737 442 s \$0-ss1;
#X msg 739 381 set \$1;
#X msg 796 283 set \$1;
#X obj 796 334 s \$0-ss2;
#X obj 796 261 unpack s;
#X obj 739 352 unpack s;
#X msg 853 379 set \$1;
#X obj 853 357 unpack s;
#X obj 853 437 s \$0-ss3;
#X msg 911 284 set \$1;
#X obj 911 262 unpack s;
#X obj 911 330 s \$0-ss4;
#X msg 968 378 set \$1;
#X obj 968 356 unpack s;
#X obj 968 427 s \$0-ss5;
#X msg 1025 285 set \$1;
#X obj 1025 263 unpack s;
#X msg 1083 381 set \$1;
#X obj 1083 359 unpack s;
#X obj 1025 332 s \$0-ss6;
#X obj 1083 438 s \$0-ss7;
#X msg 1141 286 set \$1;
#X obj 1141 264 unpack s;
#X obj 1141 330 s \$0-ss8;
#X text 857 -126 Code to save and restore the samples;
#X obj 737 407 t b a;
#X obj 853 404 t b a;
#X obj 796 306 t b a;
#X obj 911 307 t b a;
#X obj 968 401 t b a;
#X obj 1025 308 t b a;
#X obj 1083 407 t b a;
#X obj 1141 308 t b a;
#X obj 894 77 s \$0-textfile;
#X obj 681 -207 inlet save;
#X obj 817 134 r \$0-textfile-left;
#X obj 926 185 print SAMPLES tfL;
#X obj 807 159 t a a;
#X connect 0 0 1 0;
#X connect 1 0 2 0;
#X connect 1 0 8 0;
#X connect 3 0 4 0;
#X connect 4 0 5 0;
#X connect 4 0 6 0;
#X connect 6 0 7 0;
#X connect 7 0 63 0;
#X connect 8 0 9 0;
#X connect 9 0 58 0;
#X connect 11 0 12 0;
#X connect 12 0 13 0;
#X connect 12 0 15 0;
#X connect 13 0 14 0;
#X connect 14 0 67 0;
#X connect 16 0 17 0;
#X connect 17 0 18 0;
#X connect 17 0 20 0;
#X connect 18 0 19 0;
#X connect 19 0 70 0;
#X connect 21 0 22 0;
#X connect 22 0 23 0;
#X connect 22 0 25 0;
#X connect 23 0 24 0;
#X connect 24 0 75 0;
#X connect 26 0 27 0;
#X connect 27 0 28 0;
#X connect 27 0 30 0;
#X connect 28 0 29 0;
#X connect 29 0 78 0;
#X connect 31 0 32 0;
#X connect 32 0 33 0;
#X connect 32 0 35 0;
#X connect 33 0 34 0;
#X connect 34 0 82 0;
#X connect 36 0 37 0;
#X connect 37 0 38 0;
#X connect 37 0 40 0;
#X connect 38 0 39 0;
#X connect 39 0 45 0;
#X connect 41 0 42 0;
#X connect 42 0 48 0;
#X connect 43 0 119 0;
#X connect 45 0 46 0;
#X connect 45 0 40 0;
#X connect 46 0 44 0;
#X connect 47 0 39 0;
#X connect 48 2 49 0;
#X connect 48 3 50 0;
#X connect 48 4 51 0;
#X connect 48 5 52 0;
#X connect 48 6 53 0;
#X connect 48 7 54 0;
#X connect 48 8 55 0;
#X connect 48 9 56 0;
#X connect 58 0 59 0;
#X connect 58 0 2 0;
#X connect 59 0 57 0;
#X connect 60 0 7 0;
#X connect 61 0 9 0;
#X connect 63 0 64 0;
#X connect 63 0 5 0;
#X connect 64 0 62 0;
#X connect 65 0 14 0;
#X connect 67 0 68 0;
#X connect 67 0 15 0;
#X connect 68 0 66 0;
#X connect 70 0 71 0;
#X connect 70 0 20 0;
#X connect 71 0 69 0;
#X connect 72 0 19 0;
#X connect 73 0 24 0;
#X connect 75 0 76 0;
#X connect 75 0 25 0;
#X connect 76 0 74 0;
#X connect 78 0 80 0;
#X connect 78 0 30 0;
#X connect 79 0 29 0;
#X connect 80 0 77 0;
#X connect 82 0 84 0;
#X connect 82 0 35 0;
#X connect 83 0 34 0;
#X connect 84 0 81 0;
#X connect 85 0 91 0;
#X connect 85 1 90 0;
#X connect 85 2 93 0;
#X connect 85 3 96 0;
#X connect 85 4 99 0;
#X connect 85 5 102 0;
#X connect 85 6 104 0;
#X connect 85 7 108 0;
#X connect 87 0 111 0;
#X connect 88 0 113 0;
#X connect 90 0 88 0;
#X connect 91 0 87 0;
#X connect 92 0 112 0;
#X connect 93 0 92 0;
#X connect 95 0 114 0;
#X connect 96 0 95 0;
#X connect 98 0 115 0;
#X connect 99 0 98 0;
#X connect 101 0 116 0;
#X connect 102 0 101 0;
#X connect 103 0 117 0;
#X connect 104 0 103 0;
#X connect 107 0 118 0;
#X connect 108 0 107 0;
#X connect 111 0 86 0;
#X connect 111 1 86 0;
#X connect 112 0 94 0;
#X connect 112 1 94 0;
#X connect 113 0 89 0;
#X connect 113 1 89 0;
#X connect 114 0 97 0;
#X connect 114 1 97 0;
#X connect 115 0 100 0;
#X connect 115 1 100 0;
#X connect 116 0 105 0;
#X connect 116 1 105 0;
#X connect 117 0 106 0;
#X connect 117 1 106 0;
#X connect 118 0 109 0;
#X connect 118 1 109 0;
#X connect 120 0 41 0;
#X connect 121 0 123 0;
#X connect 123 0 85 0;
#X connect 123 1 122 0;
#X restore 617 16 pd samples;
#X obj 1094 295 midiout;
#X obj 1094 246 bng 15 250 50 0 empty empty empty 17 7 0 10 -262144
-1 -1;
#X obj 1095 269 list 240 0 32 41 2 12 0 127 247;
#X text 1112 244 Set programmer mode;
#X obj 577 -37 bng 15 250 50 0 empty empty Save 17 7 0 10 -262144 -1
-1;
#N canvas 20 108 1212 540 control_pad 0;
#X obj 14 64 WTSButton8 81 82 83 84 85 86 87 88;
#X obj 26 327 tgl 15 0 \$0-c1r1 empty empty 17 7 0 10 -262144 -1 -1
0 1;
#X obj 61 327 tgl 15 0 \$0-c2r1 empty empty 17 7 0 10 -262144 -1 -1
0 1;
#X obj 94 327 tgl 15 0 \$0-c3r1 empty empty 17 7 0 10 -262144 -1 -1
0 1;
#X obj 127 327 tgl 15 0 \$0-c4r1 empty empty 17 7 0 10 -262144 -1 -1
0 1;
#X obj 154 328 tgl 15 0 \$0-c5r1 empty empty 17 7 0 10 -262144 -1 -1
0 1;
#X obj 184 329 tgl 15 0 \$0-c6r1 empty empty 17 7 0 10 -262144 -1 -1
0 1;
#X obj 215 329 tgl 15 0 \$0-c7r1 empty empty 17 7 0 10 -262144 -1 -1
0 1;
#X obj 254 326 tgl 15 0 \$0-c8r1 empty empty 17 7 0 10 -262144 -1 -1
0 1;
#X obj 26 355 tgl 15 0 \$0-c1r2 empty empty 17 7 0 10 -262144 -1 -1
0 1;
#X obj 61 355 tgl 15 0 \$0-c2r2 empty empty 17 7 0 10 -262144 -1 -1
0 1;
#X obj 94 355 tgl 15 0 \$0-c3r2 empty empty 17 7 0 10 -262144 -1 -1
0 1;
#X obj 127 356 tgl 15 0 \$0-c4r2 empty empty 17 7 0 10 -262144 -1 -1
0 1;
#X obj 154 356 tgl 15 0 \$0-c5r2 empty empty 17 7 0 10 -262144 -1 -1
0 1;
#X obj 184 357 tgl 15 0 \$0-c6r2 empty empty 17 7 0 10 -262144 -1 -1
0 1;
#X obj 215 357 tgl 15 0 \$0-c7r2 empty empty 17 7 0 10 -262144 -1 -1
0 1;
#X obj 254 354 tgl 15 0 \$0-c8r2 empty empty 17 7 0 10 -262144 -1 -1
0 1;
#X obj 14 96 WTSButton8 71 72 73 74 75 76 77 78;
#X obj 26 383 tgl 15 0 \$0-c1r3 empty empty 17 7 0 10 -262144 -1 -1
0 1;
#X obj 61 383 tgl 15 0 \$0-c2r3 empty empty 17 7 0 10 -262144 -1 -1
0 1;
#X obj 94 383 tgl 15 0 \$0-c3r3 empty empty 17 7 0 10 -262144 -1 -1
0 1;
#X obj 127 385 tgl 15 0 \$0-c4r3 empty empty 17 7 0 10 -262144 -1 -1
0 1;
#X obj 154 384 tgl 15 0 \$0-c5r3 empty empty 17 7 0 10 -262144 -1 -1
0 1;
#X obj 184 385 tgl 15 0 \$0-c6r3 empty empty 17 7 0 10 -262144 -1 -1
0 1;
#X obj 215 385 tgl 15 0 \$0-c7r3 empty empty 17 7 0 10 -262144 -1 -1
0 1;
#X obj 254 382 tgl 15 0 \$0-c8r3 empty empty 17 7 0 10 -262144 -1 -1
0 1;
#X obj 26 411 tgl 15 0 \$0-c1r4 empty empty 17 7 0 10 -262144 -1 -1
0 1;
#X obj 61 411 tgl 15 0 \$0-c2r4 empty empty 17 7 0 10 -262144 -1 -1
0 1;
#X obj 94 411 tgl 15 0 \$0-c3r4 empty empty 17 7 0 10 -262144 -1 -1
0 1;
#X obj 127 414 tgl 15 0 \$0-c4r4 empty empty 17 7 0 10 -262144 -1 -1
0 1;
#X obj 154 412 tgl 15 0 \$0-c5r4 empty empty 17 7 0 10 -262144 -1 -1
0 1;
#X obj 184 413 tgl 15 0 \$0-c6r4 empty empty 17 7 0 10 -262144 -1 -1
0 1;
#X obj 215 413 tgl 15 0 \$0-c7r4 empty empty 17 7 0 10 -262144 -1 -1
0 1;
#X obj 254 410 tgl 15 0 \$0-c8r4 empty empty 17 7 0 10 -262144 -1 -1
0 1;
#X obj 14 128 WTSButton8 61 62 63 64 65 66 67 68;
#X obj 14 160 WTSButton8 51 52 53 54 55 56 57 58;
#X obj 26 439 tgl 15 0 \$0-c1r5 empty empty 17 7 0 10 -262144 -1 -1
0 1;
#X obj 61 439 tgl 15 0 \$0-c2r5 empty empty 17 7 0 10 -262144 -1 -1
0 1;
#X obj 94 439 tgl 15 0 \$0-c3r5 empty empty 17 7 0 10 -262144 -1 -1
0 1;
#X obj 127 443 tgl 15 0 \$0-c4r5 empty empty 17 7 0 10 -262144 -1 -1
0 1;
#X obj 154 440 tgl 15 0 \$0-c5r5 empty empty 17 7 0 10 -262144 -1 -1
0 1;
#X obj 184 441 tgl 15 0 \$0-c6r5 empty empty 17 7 0 10 -262144 -1 -1
0 1;
#X obj 215 441 tgl 15 0 \$0-c7r5 empty empty 17 7 0 10 -262144 -1 -1
0 1;
#X obj 254 438 tgl 15 0 \$0-c8r5 empty empty 17 7 0 10 -262144 -1 -1
0 1;
#X obj 26 467 tgl 15 0 \$0-c1r6 empty empty 17 7 0 10 -262144 -1 -1
0 1;
#X obj 61 467 tgl 15 0 \$0-c2r6 empty empty 17 7 0 10 -262144 -1 -1
0 1;
#X obj 94 467 tgl 15 0 \$0-c3r6 empty empty 17 7 0 10 -262144 -1 -1
0 1;
#X obj 128 470 tgl 15 0 \$0-c4r6 empty empty 17 7 0 10 -262144 -1 -1
0 1;
#X obj 154 468 tgl 15 0 \$0-c5r6 empty empty 17 7 0 10 -262144 -1 -1
0 1;
#X obj 184 469 tgl 15 0 \$0-c6r6 empty empty 17 7 0 10 -262144 -1 -1
0 1;
#X obj 215 469 tgl 15 0 \$0-c7r6 empty empty 17 7 0 10 -262144 -1 -1
0 1;
#X obj 254 466 tgl 15 0 \$0-c8r6 empty empty 17 7 0 10 -262144 -1 -1
0 1;
#X obj 26 495 tgl 15 0 \$0-c1r7 empty empty 17 7 0 10 -262144 -1 -1
0 1;
#X obj 61 495 tgl 15 0 \$0-c2r7 empty empty 17 7 0 10 -262144 -1 -1
0 1;
#X obj 94 495 tgl 15 0 \$0-c3r7 empty empty 17 7 0 10 -262144 -1 -1
0 1;
#X obj 128 499 tgl 15 0 \$0-c4r7 empty empty 17 7 0 10 -262144 -1 -1
0 1;
#X obj 154 496 tgl 15 0 \$0-c5r7 empty empty 17 7 0 10 -262144 -1 -1
0 1;
#X obj 184 497 tgl 15 0 \$0-c6r7 empty empty 17 7 0 10 -262144 -1 -1
0 1;
#X obj 215 497 tgl 15 0 \$0-c7r7 empty empty 17 7 0 10 -262144 -1 -1
0 1;
#X obj 254 494 tgl 15 0 \$0-c8r7 empty empty 17 7 0 10 -262144 -1 -1
0 1;
#X obj 26 523 tgl 15 0 \$0-c1r8 empty empty 17 7 0 10 -262144 -1 -1
0 1;
#X obj 61 523 tgl 15 0 \$0-c2r8 empty empty 17 7 0 10 -262144 -1 -1
0 1;
#X obj 94 523 tgl 15 0 \$0-c3r8 empty empty 17 7 0 10 -262144 -1 -1
0 1;
#X obj 128 523 tgl 15 0 \$0-c4r8 empty empty 17 7 0 10 -262144 -1 -1
0 1;
#X obj 154 524 tgl 15 0 \$0-c5r8 empty empty 17 7 0 10 -262144 -1 -1
0 1;
#X obj 183 523 tgl 15 0 \$0-c6r8 empty empty 17 7 0 10 -262144 -1 -1
0 1;
#X obj 217 523 tgl 15 0 \$0-c7r8 empty empty 17 7 0 10 -262144 -1 -1
0 1;
#X obj 255 523 tgl 15 0 \$0-c8r8 empty empty 17 7 0 10 -262144 -1 -1
0 1;
#X obj 14 192 WTSButton8 41 42 43 44 45 46 47 48;
#X obj 14 256 WTSButton8 21 22 23 24 25 26 27 28;
#X obj 14 288 WTSButton8 11 12 13 14 15 16 17 18;
#X obj 14 224 WTSButton8 31 32 33 34 35 36 37 38;
#X text 583 129 Eight outlets for instruments;
#X obj 720 101 outlet;
#X text 487 7 Eight inlets for beats;
#X obj 434 36 inlet;
#X obj 575 36 inlet;
#X obj 504 36 inlet;
#X obj 647 36 inlet;
#X obj 791 36 inlet;
#X obj 720 36 inlet;
#X obj 936 36 inlet;
#X obj 863 36 inlet;
#X obj 434 101 outlet;
#X obj 791 101 outlet;
#X obj 505 101 outlet;
#X obj 863 101 outlet;
#X obj 577 101 outlet;
#X obj 935 101 outlet;
#X obj 648 101 outlet;
#N canvas 525 216 693 646 match_input_output 0;
#X obj 15 166 outlet;
#X obj 8 6 inlet;
#X obj 136 6 inlet;
#X obj 8 60 s \$0-i1;
#X obj 68 6 inlet;
#X obj 68 60 s \$0-i2;
#X obj 136 60 s \$0-i3;
#X obj 197 6 inlet;
#X obj 325 6 inlet;
#X obj 257 6 inlet;
#X obj 197 60 s \$0-i4;
#X obj 257 60 s \$0-i5;
#X obj 325 60 s \$0-i6;
#X obj 455 6 inlet;
#X obj 387 6 inlet;
#X obj 387 60 s \$0-i7;
#X obj 455 60 s \$0-i8;
#X obj 18 768 bng 15 250 50 0 empty empty empty 17 7 0 10 -262144 -1
-1;
#X text 10 -29 Inlet N gets bang! at time N;
#X text 177 681 Outlet M bangs! to fire sample M;
#X text 11 92 cNrM => at time N bangh! sample M;
#N canvas 299 213 575 300 sample1 0;
#X obj 5 59 spigot;
#X obj 4 10 r \$0-c1r1;
#X obj 5 34 r \$0-i1;
#X obj 76 58 spigot;
#X obj 75 9 r \$0-c2r1;
#X obj 148 57 spigot;
#X obj 147 8 r \$0-c3r1;
#X obj 219 56 spigot;
#X obj 218 7 r \$0-c4r1;
#X obj 290 56 spigot;
#X obj 289 7 r \$0-c5r1;
#X obj 361 55 spigot;
#X obj 360 6 r \$0-c6r1;
#X obj 433 54 spigot;
#X obj 432 5 r \$0-c7r1;
#X obj 504 53 spigot;
#X obj 503 4 r \$0-c8r1;
#X obj 504 28 r \$0-i8;
#X obj 76 33 r \$0-i2;
#X obj 148 32 r \$0-i3;
#X obj 219 31 r \$0-i4;
#X obj 290 31 r \$0-i5;
#X obj 361 30 r \$0-i6;
#X obj 433 29 r \$0-i7;
#X obj 251 127 outlet;
#X connect 0 0 24 0;
#X connect 1 0 0 1;
#X connect 2 0 0 0;
#X connect 3 0 24 0;
#X connect 4 0 3 1;
#X connect 5 0 24 0;
#X connect 6 0 5 1;
#X connect 7 0 24 0;
#X connect 8 0 7 1;
#X connect 9 0 24 0;
#X connect 10 0 9 1;
#X connect 11 0 24 0;
#X connect 12 0 11 1;
#X connect 13 0 24 0;
#X connect 14 0 13 1;
#X connect 15 0 24 0;
#X connect 16 0 15 1;
#X connect 17 0 15 0;
#X connect 18 0 3 0;
#X connect 19 0 5 0;
#X connect 20 0 7 0;
#X connect 21 0 9 0;
#X connect 22 0 11 0;
#X connect 23 0 13 0;
#X restore 15 136 pd sample1;
#N canvas 272 108 575 300 sample2 0;
#X obj 1 69 spigot;
#X obj 0 18 r \$0-c1r2;
#X obj 72 68 spigot;
#X obj 71 17 r \$0-c2r2;
#X obj 144 67 spigot;
#X obj 143 16 r \$0-c3r2;
#X obj 215 66 spigot;
#X obj 214 15 r \$0-c4r2;
#X obj 286 66 spigot;
#X obj 285 15 r \$0-c5r2;
#X obj 357 65 spigot;
#X obj 356 14 r \$0-c6r2;
#X obj 429 64 spigot;
#X obj 428 13 r \$0-c7r2;
#X obj 500 63 spigot;
#X obj 499 12 r \$0-c8r2;
#X obj 500 36 r \$0-i8;
#X obj 1 42 r \$0-i1;
#X obj 72 41 r \$0-i2;
#X obj 144 40 r \$0-i3;
#X obj 215 39 r \$0-i4;
#X obj 286 39 r \$0-i5;
#X obj 357 38 r \$0-i6;
#X obj 429 37 r \$0-i7;
#X obj 247 135 outlet;
#X connect 0 0 24 0;
#X connect 1 0 0 1;
#X connect 2 0 24 0;
#X connect 3 0 2 1;
#X connect 4 0 24 0;
#X connect 5 0 4 1;
#X connect 6 0 24 0;
#X connect 7 0 6 1;
#X connect 8 0 24 0;
#X connect 9 0 8 1;
#X connect 10 0 24 0;
#X connect 11 0 10 1;
#X connect 12 0 24 0;
#X connect 13 0 12 1;
#X connect 14 0 24 0;
#X connect 15 0 14 1;
#X connect 16 0 14 0;
#X connect 17 0 0 0;
#X connect 18 0 2 0;
#X connect 19 0 4 0;
#X connect 20 0 6 0;
#X connect 21 0 8 0;
#X connect 22 0 10 0;
#X connect 23 0 12 0;
#X restore 93 137 pd sample2;
#X obj 93 163 outlet;
#X obj 177 163 outlet;
#N canvas 565 269 663 151 sample3 0;
#X obj 11 60 spigot;
#X obj 10 9 r \$0-c1r3;
#X obj 82 59 spigot;
#X obj 81 8 r \$0-c2r3;
#X obj 154 58 spigot;
#X obj 153 7 r \$0-c3r3;
#X obj 225 57 spigot;
#X obj 224 6 r \$0-c4r3;
#X obj 296 57 spigot;
#X obj 295 6 r \$0-c5r3;
#X obj 367 56 spigot;
#X obj 366 5 r \$0-c6r3;
#X obj 439 55 spigot;
#X obj 438 4 r \$0-c7r3;
#X obj 510 54 spigot;
#X obj 509 3 r \$0-c8r3;
#X obj 510 27 r \$0-i8;
#X obj 11 33 r \$0-i1;
#X obj 82 32 r \$0-i2;
#X obj 154 31 r \$0-i3;
#X obj 225 30 r \$0-i4;
#X obj 296 30 r \$0-i5;
#X obj 367 29 r \$0-i6;
#X obj 439 28 r \$0-i7;
#X obj 257 126 outlet;
#X obj 76 121 bng 15 250 50 0 empty empty empty 17 7 0 10 -262144 -1
-1;
#X obj 158 118 bng 15 250 50 0 empty empty empty 17 7 0 10 -262144
-1 -1;
#X connect 0 0 24 0;
#X connect 1 0 0 1;
#X connect 2 0 24 0;
#X connect 3 0 2 1;
#X connect 4 0 24 0;
#X connect 4 0 26 0;
#X connect 5 0 4 1;
#X connect 6 0 24 0;
#X connect 7 0 6 1;
#X connect 8 0 24 0;
#X connect 9 0 8 1;
#X connect 10 0 24 0;
#X connect 11 0 10 1;
#X connect 12 0 24 0;
#X connect 13 0 12 1;
#X connect 14 0 24 0;
#X connect 15 0 14 1;
#X connect 16 0 14 0;
#X connect 17 0 0 0;
#X connect 18 0 2 0;
#X connect 19 0 4 0;
#X connect 19 0 25 0;
#X connect 20 0 6 0;
#X connect 21 0 8 0;
#X connect 22 0 10 0;
#X connect 23 0 12 0;
#X restore 177 137 pd sample3;
#X obj 259 164 outlet;
#N canvas 272 108 575 300 sample4 0;
#X obj 11 60 spigot;
#X obj 10 9 r \$0-c1r4;
#X obj 82 59 spigot;
#X obj 81 8 r \$0-c2r4;
#X obj 154 58 spigot;
#X obj 153 7 r \$0-c3r4;
#X obj 225 57 spigot;
#X obj 224 6 r \$0-c4r4;
#X obj 296 57 spigot;
#X obj 295 6 r \$0-c5r4;
#X obj 367 56 spigot;
#X obj 366 5 r \$0-c6r4;
#X obj 439 55 spigot;
#X obj 438 4 r \$0-c7r4;
#X obj 510 54 spigot;
#X obj 509 3 r \$0-c8r4;
#X obj 510 27 r \$0-i8;
#X obj 11 33 r \$0-i1;
#X obj 82 32 r \$0-i2;
#X obj 154 31 r \$0-i3;
#X obj 225 30 r \$0-i4;
#X obj 296 30 r \$0-i5;
#X obj 367 29 r \$0-i6;
#X obj 439 28 r \$0-i7;
#X obj 257 126 outlet;
#X connect 0 0 24 0;
#X connect 1 0 0 1;
#X connect 2 0 24 0;
#X connect 3 0 2 1;
#X connect 4 0 24 0;
#X connect 5 0 4 1;
#X connect 6 0 24 0;
#X connect 7 0 6 1;
#X connect 8 0 24 0;
#X connect 9 0 8 1;
#X connect 10 0 24 0;
#X connect 11 0 10 1;
#X connect 12 0 24 0;
#X connect 13 0 12 1;
#X connect 14 0 24 0;
#X connect 15 0 14 1;
#X connect 16 0 14 0;
#X connect 17 0 0 0;
#X connect 18 0 2 0;
#X connect 19 0 4 0;
#X connect 20 0 6 0;
#X connect 21 0 8 0;
#X connect 22 0 10 0;
#X connect 23 0 12 0;
#X restore 259 138 pd sample4;
#X obj 343 167 outlet;
#X obj 421 164 outlet;
#X obj 505 164 outlet;
#X obj 587 165 outlet;
#N canvas 299 213 575 300 sample5 0;
#X obj 11 60 spigot;
#X obj 10 9 r \$0-c1r5;
#X obj 82 59 spigot;
#X obj 81 8 r \$0-c2r5;
#X obj 154 58 spigot;
#X obj 153 7 r \$0-c3r5;
#X obj 225 57 spigot;
#X obj 224 6 r \$0-c4r5;
#X obj 296 57 spigot;
#X obj 295 6 r \$0-c5r5;
#X obj 367 56 spigot;
#X obj 366 5 r \$0-c6r5;
#X obj 439 55 spigot;
#X obj 438 4 r \$0-c7r5;
#X obj 510 54 spigot;
#X obj 509 3 r \$0-c8r5;
#X obj 510 27 r \$0-i8;
#X obj 11 33 r \$0-i1;
#X obj 82 32 r \$0-i2;
#X obj 154 31 r \$0-i3;
#X obj 225 30 r \$0-i4;
#X obj 296 30 r \$0-i5;
#X obj 367 29 r \$0-i6;
#X obj 439 28 r \$0-i7;
#X obj 257 126 outlet;
#X connect 0 0 24 0;
#X connect 1 0 0 1;
#X connect 2 0 24 0;
#X connect 3 0 2 1;
#X connect 4 0 24 0;
#X connect 5 0 4 1;
#X connect 6 0 24 0;
#X connect 7 0 6 1;
#X connect 8 0 24 0;
#X connect 9 0 8 1;
#X connect 10 0 24 0;
#X connect 11 0 10 1;
#X connect 12 0 24 0;
#X connect 13 0 12 1;
#X connect 14 0 24 0;
#X connect 15 0 14 1;
#X connect 16 0 14 0;
#X connect 17 0 0 0;
#X connect 18 0 2 0;
#X connect 19 0 4 0;
#X connect 20 0 6 0;
#X connect 21 0 8 0;
#X connect 22 0 10 0;
#X connect 23 0 12 0;
#X restore 343 137 pd sample5;
#N canvas 272 108 575 300 sample6 0;
#X obj 11 60 spigot;
#X obj 10 9 r \$0-c1r6;
#X obj 82 59 spigot;
#X obj 81 8 r \$0-c2r6;
#X obj 154 58 spigot;
#X obj 153 7 r \$0-c3r6;
#X obj 225 57 spigot;
#X obj 224 6 r \$0-c4r6;
#X obj 296 57 spigot;
#X obj 295 6 r \$0-c5r6;
#X obj 367 56 spigot;
#X obj 366 5 r \$0-c6r6;
#X obj 439 55 spigot;
#X obj 438 4 r \$0-c7r6;
#X obj 510 54 spigot;
#X obj 509 3 r \$0-c8r6;
#X obj 510 27 r \$0-i8;
#X obj 11 33 r \$0-i1;
#X obj 82 32 r \$0-i2;
#X obj 154 31 r \$0-i3;
#X obj 225 30 r \$0-i4;
#X obj 296 30 r \$0-i5;
#X obj 367 29 r \$0-i6;
#X obj 439 28 r \$0-i7;
#X obj 257 126 outlet;
#X connect 0 0 24 0;
#X connect 1 0 0 1;
#X connect 2 0 24 0;
#X connect 3 0 2 1;
#X connect 4 0 24 0;
#X connect 5 0 4 1;
#X connect 6 0 24 0;
#X connect 7 0 6 1;
#X connect 8 0 24 0;
#X connect 9 0 8 1;
#X connect 10 0 24 0;
#X connect 11 0 10 1;
#X connect 12 0 24 0;
#X connect 13 0 12 1;
#X connect 14 0 24 0;
#X connect 15 0 14 1;
#X connect 16 0 14 0;
#X connect 17 0 0 0;
#X connect 18 0 2 0;
#X connect 19 0 4 0;
#X connect 20 0 6 0;
#X connect 21 0 8 0;
#X connect 22 0 10 0;
#X connect 23 0 12 0;
#X restore 421 138 pd sample6;
#N canvas 565 269 663 151 sample7 0;
#X obj 11 60 spigot;
#X obj 10 9 r \$0-c1r7;
#X obj 82 59 spigot;
#X obj 81 8 r \$0-c2r7;
#X obj 154 58 spigot;
#X obj 153 7 r \$0-c3r7;
#X obj 225 57 spigot;
#X obj 224 6 r \$0-c4r7;
#X obj 296 57 spigot;
#X obj 295 6 r \$0-c5r7;
#X obj 367 56 spigot;
#X obj 366 5 r \$0-c6r7;
#X obj 439 55 spigot;
#X obj 438 4 r \$0-c7r7;
#X obj 510 54 spigot;
#X obj 509 3 r \$0-c8r7;
#X obj 510 27 r \$0-i8;
#X obj 11 33 r \$0-i1;
#X obj 82 32 r \$0-i2;
#X obj 154 31 r \$0-i3;
#X obj 225 30 r \$0-i4;
#X obj 296 30 r \$0-i5;
#X obj 367 29 r \$0-i6;
#X obj 439 28 r \$0-i7;
#X obj 257 126 outlet;
#X connect 0 0 24 0;
#X connect 1 0 0 1;
#X connect 2 0 24 0;
#X connect 3 0 2 1;
#X connect 4 0 24 0;
#X connect 5 0 4 1;
#X connect 6 0 24 0;
#X connect 7 0 6 1;
#X connect 8 0 24 0;
#X connect 9 0 8 1;
#X connect 10 0 24 0;
#X connect 11 0 10 1;
#X connect 12 0 24 0;
#X connect 13 0 12 1;
#X connect 14 0 24 0;
#X connect 15 0 14 1;
#X connect 16 0 14 0;
#X connect 17 0 0 0;
#X connect 18 0 2 0;
#X connect 19 0 4 0;
#X connect 20 0 6 0;
#X connect 21 0 8 0;
#X connect 22 0 10 0;
#X connect 23 0 12 0;
#X restore 505 138 pd sample7;
#N canvas 272 108 575 300 sample8 0;
#X obj 11 60 spigot;
#X obj 10 9 r \$0-c1r8;
#X obj 82 59 spigot;
#X obj 81 8 r \$0-c2r8;
#X obj 154 58 spigot;
#X obj 153 7 r \$0-c3r8;
#X obj 225 57 spigot;
#X obj 224 6 r \$0-c4r8;
#X obj 296 57 spigot;
#X obj 295 6 r \$0-c5r8;
#X obj 367 56 spigot;
#X obj 366 5 r \$0-c6r8;
#X obj 439 55 spigot;
#X obj 438 4 r \$0-c7r8;
#X obj 510 54 spigot;
#X obj 509 3 r \$0-c8r8;
#X obj 510 27 r \$0-i8;
#X obj 11 33 r \$0-i1;
#X obj 82 32 r \$0-i2;
#X obj 154 31 r \$0-i3;
#X obj 225 30 r \$0-i4;
#X obj 296 30 r \$0-i5;
#X obj 367 29 r \$0-i6;
#X obj 439 28 r \$0-i7;
#X obj 257 126 outlet;
#X connect 0 0 24 0;
#X connect 1 0 0 1;
#X connect 2 0 24 0;
#X connect 3 0 2 1;
#X connect 4 0 24 0;
#X connect 5 0 4 1;
#X connect 6 0 24 0;
#X connect 7 0 6 1;
#X connect 8 0 24 0;
#X connect 9 0 8 1;
#X connect 10 0 24 0;
#X connect 11 0 10 1;
#X connect 12 0 24 0;
#X connect 13 0 12 1;
#X connect 14 0 24 0;
#X connect 15 0 14 1;
#X connect 16 0 14 0;
#X connect 17 0 0 0;
#X connect 18 0 2 0;
#X connect 19 0 4 0;
#X connect 20 0 6 0;
#X connect 21 0 8 0;
#X connect 22 0 10 0;
#X connect 23 0 12 0;
#X restore 587 139 pd sample8;
#X connect 1 0 3 0;
#X connect 2 0 6 0;
#X connect 4 0 5 0;
#X connect 7 0 10 0;
#X connect 8 0 12 0;
#X connect 9 0 11 0;
#X connect 13 0 16 0;
#X connect 14 0 15 0;
#X connect 21 0 0 0;
#X connect 22 0 23 0;
#X connect 25 0 24 0;
#X connect 27 0 26 0;
#X connect 32 0 28 0;
#X connect 33 0 29 0;
#X connect 34 0 30 0;
#X connect 35 0 31 0;
#X restore 434 65 pd match_input_output;
#X f 72;
#X obj 599 224 r \$0-c1r2;
#X obj 672 224 r \$0-c2r2;
#X obj 742 224 r \$0-c3r2;
#X obj 815 224 r \$0-c4r2;
#X obj 888 224 r \$0-c5r2;
#X obj 961 224 r \$0-c6r2;
#X obj 1034 224 r \$0-c7r2;
#X obj 1107 224 r \$0-c8r2;
#X obj 1020 255 s \$0-textfile;
#X obj 601 257 pack f f f f f f f f;
#X msg 751 257 add lpx_row2 \$1 \$2 \$3 \$4 \$5 \$6 \$7 \$8;
#X obj 599 287 r \$0-c1r3;
#X obj 672 287 r \$0-c2r3;
#X obj 742 287 r \$0-c3r3;
#X obj 815 287 r \$0-c4r3;
#X obj 888 287 r \$0-c5r3;
#X obj 961 287 r \$0-c6r3;
#X obj 1034 287 r \$0-c7r3;
#X obj 1107 287 r \$0-c8r3;
#X obj 1027 320 s \$0-textfile;
#X obj 601 320 pack f f f f f f f f;
#X msg 751 320 add lpx_row3 \$1 \$2 \$3 \$4 \$5 \$6 \$7 \$8;
#X obj 602 351 r \$0-c1r4;
#X obj 675 351 r \$0-c2r4;
#X obj 745 351 r \$0-c3r4;
#X obj 818 351 r \$0-c4r4;
#X obj 891 351 r \$0-c5r4;
#X obj 964 351 r \$0-c6r4;
#X obj 1037 351 r \$0-c7r4;
#X obj 1110 351 r \$0-c8r4;
#X obj 1022 385 s \$0-textfile;
#X obj 604 384 pack f f f f f f f f;
#X msg 754 384 add lpx_row4 \$1 \$2 \$3 \$4 \$5 \$6 \$7 \$8;
#X obj 603 415 r \$0-c1r5;
#X obj 676 415 r \$0-c2r5;
#X obj 746 415 r \$0-c3r5;
#X obj 819 415 r \$0-c4r5;
#X obj 892 415 r \$0-c5r5;
#X obj 965 415 r \$0-c6r5;
#X obj 1038 415 r \$0-c7r5;
#X obj 1111 415 r \$0-c8r5;
#X obj 1023 449 s \$0-textfile;
#X obj 605 448 pack f f f f f f f f;
#X msg 755 448 add lpx_row5 \$1 \$2 \$3 \$4 \$5 \$6 \$7 \$8;
#X obj 606 475 r \$0-c1r6;
#X obj 679 475 r \$0-c2r6;
#X obj 749 475 r \$0-c3r6;
#X obj 822 475 r \$0-c4r6;
#X obj 895 475 r \$0-c5r6;
#X obj 968 475 r \$0-c6r6;
#X obj 1041 475 r \$0-c7r6;
#X obj 1114 475 r \$0-c8r6;
#X obj 1026 509 s \$0-textfile;
#X obj 608 508 pack f f f f f f f f;
#X msg 758 508 add lpx_row6 \$1 \$2 \$3 \$4 \$5 \$6 \$7 \$8;
#X obj 604 535 r \$0-c1r7;
#X obj 677 535 r \$0-c2r7;
#X obj 747 535 r \$0-c3r7;
#X obj 820 535 r \$0-c4r7;
#X obj 893 535 r \$0-c5r7;
#X obj 966 535 r \$0-c6r7;
#X obj 1039 535 r \$0-c7r7;
#X obj 1112 535 r \$0-c8r7;
#X obj 1024 569 s \$0-textfile;
#X obj 606 568 pack f f f f f f f f;
#X msg 756 568 add lpx_row7 \$1 \$2 \$3 \$4 \$5 \$6 \$7 \$8;
#X obj 605 593 r \$0-c1r8;
#X obj 678 593 r \$0-c2r8;
#X obj 748 593 r \$0-c3r8;
#X obj 821 593 r \$0-c4r8;
#X obj 894 593 r \$0-c5r8;
#X obj 967 593 r \$0-c6r8;
#X obj 1040 593 r \$0-c7r8;
#X obj 1113 593 r \$0-c8r8;
#X obj 1025 627 s \$0-textfile;
#X obj 607 626 pack f f f f f f f f;
#X msg 757 626 add lpx_row8 \$1 \$2 \$3 \$4 \$5 \$6 \$7 \$8;
#X obj 595 163 r \$0-c1r1;
#X obj 668 163 r \$0-c2r1;
#X obj 738 163 r \$0-c3r1;
#X obj 811 163 r \$0-c4r1;
#X obj 884 163 r \$0-c5r1;
#X obj 957 163 r \$0-c6r1;
#X obj 1030 163 r \$0-c7r1;
#X obj 1103 163 r \$0-c8r1;
#X obj 1015 197 s \$0-textfile;
#X obj 597 196 pack f f f f f f f f;
#X msg 747 196 add lpx_row1 \$1 \$2 \$3 \$4 \$5 \$6 \$7 \$8;
#X obj 429 165 t b b b b b b b b b b;
#X obj 18 -109 tgl 15 0 empty \$0-v-c1r1 empty 17 7 0 10 -262144 -1
-1 0 1;
#X obj 40 -109 tgl 15 0 empty \$0-v-c2r1 empty 17 7 0 10 -262144 -1
-1 0 1;
#X obj 62 -109 tgl 15 0 empty \$0-v-c3r1 empty 17 7 0 10 -262144 -1
-1 0 1;
#X obj 82 -109 tgl 15 0 empty \$0-v-c4r1 empty 17 7 0 10 -262144 -1
-1 0 1;
#X obj 104 -109 tgl 15 0 empty \$0-v-c5r1 empty 17 7 0 10 -262144 -1
-1 0 1;
#X obj 124 -109 tgl 15 0 empty \$0-v-c6r1 empty 17 7 0 10 -262144 -1
-1 0 1;
#X obj 146 -109 tgl 15 0 empty \$0-v-c7r1 empty 17 7 0 10 -262144 -1
-1 0 1;
#X obj 166 -109 tgl 15 0 empty \$0-v-c8r1 empty 17 7 0 10 -262144 -1
-1 0 1;
#X obj 17 -88 tgl 15 0 empty \$0-v-c1r2 empty 17 7 0 10 -262144 -1
-1 0 1;
#X obj 39 -88 tgl 15 0 empty \$0-v-c2r2 empty 17 7 0 10 -262144 -1
-1 0 1;
#X obj 61 -88 tgl 15 0 empty \$0-v-c3r2 empty 17 7 0 10 -262144 -1
-1 0 1;
#X obj 81 -88 tgl 15 0 empty \$0-v-c4r2 empty 17 7 0 10 -262144 -1
-1 0 1;
#X obj 103 -88 tgl 15 0 empty \$0-v-c5r2 empty 17 7 0 10 -262144 -1
-1 0 1;
#X obj 123 -88 tgl 15 0 empty \$0-v-c6r2 empty 17 7 0 10 -262144 -1
-1 0 1;
#X obj 145 -88 tgl 15 0 empty \$0-v-c7r2 empty 17 7 0 10 -262144 -1
-1 0 1;
#X obj 165 -88 tgl 15 0 empty \$0-v-c8r2 empty 17 7 0 10 -262144 -1
-1 0 1;
#X obj 18 -66 tgl 15 0 empty \$0-v-c1r3 empty 17 7 0 10 -262144 -1
-1 0 1;
#X obj 40 -66 tgl 15 0 empty \$0-v-c2r3 empty 17 7 0 10 -262144 -1
-1 0 1;
#X obj 62 -66 tgl 15 0 empty \$0-v-c3r3 empty 17 7 0 10 -262144 -1
-1 0 1;
#X obj 82 -66 tgl 15 0 empty \$0-v-c4r3 empty 17 7 0 10 -262144 -1
-1 0 1;
#X obj 104 -66 tgl 15 0 empty \$0-v-c5r3 empty 17 7 0 10 -262144 -1
-1 0 1;
#X obj 124 -66 tgl 15 0 empty \$0-v-c6r3 empty 17 7 0 10 -262144 -1
-1 0 1;
#X obj 146 -66 tgl 15 0 empty \$0-v-c7r3 empty 17 7 0 10 -262144 -1
-1 0 1;
#X obj 166 -66 tgl 15 0 empty \$0-v-c8r3 empty 17 7 0 10 -262144 -1
-1 0 1;
#X obj 17 -45 tgl 15 0 empty \$0-v-c1r4 empty 17 7 0 10 -262144 -1
-1 0 1;
#X obj 39 -45 tgl 15 0 empty \$0-v-c2r4 empty 17 7 0 10 -262144 -1
-1 0 1;
#X obj 61 -45 tgl 15 0 empty \$0-v-c3r4 empty 17 7 0 10 -262144 -1
-1 0 1;
#X obj 81 -45 tgl 15 0 empty \$0-v-c4r4 empty 17 7 0 10 -262144 -1
-1 0 1;
#X obj 103 -45 tgl 15 0 empty \$0-v-c5r4 empty 17 7 0 10 -262144 -1
-1 0 1;
#X obj 123 -45 tgl 15 0 empty \$0-v-c6r4 empty 17 7 0 10 -262144 -1
-1 0 1;
#X obj 145 -45 tgl 15 0 empty \$0-v-c7r4 empty 17 7 0 10 -262144 -1
-1 0 1;
#X obj 165 -45 tgl 15 0 empty \$0-v-c8r4 empty 17 7 0 10 -262144 -1
-1 0 1;
#X obj 16 -23 tgl 15 0 empty \$0-v-c1r5 empty 17 7 0 10 -262144 -1
-1 0 1;
#X obj 38 -23 tgl 15 0 empty \$0-v-c2r5 empty 17 7 0 10 -262144 -1
-1 0 1;
#X obj 60 -23 tgl 15 0 empty \$0-v-c3r5 empty 17 7 0 10 -262144 -1
-1 0 1;
#X obj 80 -23 tgl 15 0 empty \$0-v-c4r5 empty 17 7 0 10 -262144 -1
-1 0 1;
#X obj 102 -23 tgl 15 0 empty \$0-v-c5r5 empty 17 7 0 10 -262144 -1
-1 0 1;
#X obj 122 -23 tgl 15 0 empty \$0-v-c6r5 empty 17 7 0 10 -262144 -1
-1 0 1;
#X obj 144 -23 tgl 15 0 empty \$0-v-c7r5 empty 17 7 0 10 -262144 -1
-1 0 1;
#X obj 164 -23 tgl 15 0 empty \$0-v-c8r5 empty 17 7 0 10 -262144 -1
-1 0 1;
#X obj 15 -2 tgl 15 0 empty \$0-v-c1r6 empty 17 7 0 10 -262144 -1 -1
0 1;
#X obj 37 -2 tgl 15 0 empty \$0-v-c2r6 empty 17 7 0 10 -262144 -1 -1
0 1;
#X obj 59 -2 tgl 15 0 empty \$0-v-c3r6 empty 17 7 0 10 -262144 -1 -1
0 1;
#X obj 79 -2 tgl 15 0 empty \$0-v-c4r6 empty 17 7 0 10 -262144 -1 -1
0 1;
#X obj 101 -2 tgl 15 0 empty \$0-v-c5r6 empty 17 7 0 10 -262144 -1
-1 0 1;
#X obj 121 -2 tgl 15 0 empty \$0-v-c6r6 empty 17 7 0 10 -262144 -1
-1 0 1;
#X obj 143 -2 tgl 15 0 empty \$0-v-c7r6 empty 17 7 0 10 -262144 -1
-1 0 1;
#X obj 163 -2 tgl 15 0 empty \$0-v-c8r6 empty 17 7 0 10 -262144 -1
-1 0 1;
#X obj 16 20 tgl 15 0 empty \$0-v-c1r7 empty 17 7 0 10 -262144 -1 -1
0 1;
#X obj 38 20 tgl 15 0 empty \$0-v-c2r7 empty 17 7 0 10 -262144 -1 -1
0 1;
#X obj 60 20 tgl 15 0 empty \$0-v-c3r7 empty 17 7 0 10 -262144 -1 -1
0 1;
#X obj 80 20 tgl 15 0 empty \$0-v-c4r7 empty 17 7 0 10 -262144 -1 -1
0 1;
#X obj 102 20 tgl 15 0 empty \$0-v-c5r7 empty 17 7 0 10 -262144 -1
-1 0 1;
#X obj 122 20 tgl 15 0 empty \$0-v-c6r7 empty 17 7 0 10 -262144 -1
-1 0 1;
#X obj 144 20 tgl 15 0 empty \$0-v-c7r7 empty 17 7 0 10 -262144 -1
-1 0 1;
#X obj 164 20 tgl 15 0 empty \$0-v-c8r7 empty 17 7 0 10 -262144 -1
-1 0 1;
#X obj 15 41 tgl 15 0 empty \$0-v-c1r8 empty 17 7 0 10 -262144 -1 -1
0 1;
#X obj 37 41 tgl 15 0 empty \$0-v-c2r8 empty 17 7 0 10 -262144 -1 -1
0 1;
#X obj 59 41 tgl 15 0 empty \$0-v-c3r8 empty 17 7 0 10 -262144 -1 -1
0 1;
#X obj 79 41 tgl 15 0 empty \$0-v-c4r8 empty 17 7 0 10 -262144 -1 -1
0 1;
#X obj 101 41 tgl 15 0 empty \$0-v-c5r8 empty 17 7 0 10 -262144 -1
-1 0 1;
#X obj 121 41 tgl 15 0 empty \$0-v-c6r8 empty 17 7 0 10 -262144 -1
-1 0 1;
#X obj 143 41 tgl 15 0 empty \$0-v-c7r8 empty 17 7 0 10 -262144 -1
-1 0 1;
#X obj 163 41 tgl 15 0 empty \$0-v-c8r8 empty 17 7 0 10 -262144 -1
-1 0 1;
#X obj 26 565 route lpx_row1 lpx_row2 lpx_row3 lpx_row4 lpx_row5 lpx_row6
lpx_row7 lpx_row8, f 44;
#X obj 25 1039 unpack f f f f f f f f, f 90;
#X obj 13 1070 s \$0-v-c1r1;
#X obj 101 1068 s \$0-v-c2r1;
#X obj 470 1066 s \$0-v-c6r1;
#X obj 556 1066 s \$0-v-c7r1;
#X obj 646 1066 s \$0-v-c8r1;
#X obj 64 987 unpack f f f f f f f f, f 90;
#X obj 56 1013 s \$0-v-c1r2;
#X obj 150 1015 s \$0-v-c2r2;
#X obj 508 1015 s \$0-v-c6r2;
#X obj 594 1015 s \$0-v-c7r2;
#X obj 684 1015 s \$0-v-c8r2;
#X obj 239 1015 s \$0-v-c3r2;
#X obj 330 1015 s \$0-v-c4r2;
#X obj 419 1015 s \$0-v-c5r2;
#X obj 201 1066 s \$0-v-c3r1;
#X obj 291 1066 s \$0-v-c4r1;
#X obj 381 1066 s \$0-v-c5r1;
#X obj 101 933 unpack f f f f f f f f, f 90;
#X obj 98 960 s \$0-v-c1r3;
#X obj 188 960 s \$0-v-c2r3;
#X obj 546 960 s \$0-v-c6r3;
#X obj 632 960 s \$0-v-c7r3;
#X obj 722 960 s \$0-v-c8r3;
#X obj 139 875 unpack f f f f f f f f, f 90;
#X obj 139 902 s \$0-v-c1r4;
#X obj 226 902 s \$0-v-c2r4;
#X obj 584 902 s \$0-v-c6r4;
#X obj 670 902 s \$0-v-c7r4;
#X obj 760 902 s \$0-v-c8r4;
#X obj 177 820 unpack f f f f f f f f, f 90;
#X obj 177 847 s \$0-v-c1r5;
#X obj 264 847 s \$0-v-c2r5;
#X obj 622 847 s \$0-v-c6r5;
#X obj 708 847 s \$0-v-c7r5;
#X obj 798 847 s \$0-v-c8r5;
#X obj 215 763 unpack f f f f f f f f, f 90;
#X obj 215 790 s \$0-v-c1r6;
#X obj 302 790 s \$0-v-c2r6;
#X obj 660 790 s \$0-v-c6r6;
#X obj 746 790 s \$0-v-c7r6;
#X obj 836 790 s \$0-v-c8r6;
#X obj 253 707 unpack f f f f f f f f, f 90;
#X obj 253 734 s \$0-v-c1r7;
#X obj 340 734 s \$0-v-c2r7;
#X obj 698 734 s \$0-v-c6r7;
#X obj 784 734 s \$0-v-c7r7;
#X obj 874 734 s \$0-v-c8r7;
#X obj 291 650 unpack f f f f f f f f, f 90;
#X obj 291 677 s \$0-v-c1r8;
#X obj 378 677 s \$0-v-c2r8;
#X obj 736 677 s \$0-v-c6r8;
#X obj 822 677 s \$0-v-c7r8;
#X obj 912 677 s \$0-v-c8r8;
#X obj 277 960 s \$0-v-c3r3;
#X obj 367 960 s \$0-v-c4r3;
#X obj 457 960 s \$0-v-c5r3;
#X obj 315 902 s \$0-v-c3r4;
#X obj 405 902 s \$0-v-c4r4;
#X obj 495 902 s \$0-v-c5r4;
#X obj 353 847 s \$0-v-c3r5;
#X obj 443 847 s \$0-v-c4r5;
#X obj 533 847 s \$0-v-c5r5;
#X obj 391 790 s \$0-v-c3r6;
#X obj 481 790 s \$0-v-c4r6;
#X obj 571 790 s \$0-v-c5r6;
#X obj 429 734 s \$0-v-c3r7;
#X obj 519 734 s \$0-v-c4r7;
#X obj 609 734 s \$0-v-c5r7;
#X obj 467 677 s \$0-v-c3r8;
#X obj 557 677 s \$0-v-c4r8;
#X obj 647 677 s \$0-v-c5r8;
#X text 210 -89 Restore a saved state of the pad;
#X text 285 489 Save state of pad;
#X obj 341 6 inlet save;
#X obj 25 543 r \$0-textfile-left;
#X obj 187 542 print PAD;
#X connect 0 0 1 0;
#X connect 0 1 2 0;
#X connect 0 2 3 0;
#X connect 0 3 4 0;
#X connect 0 4 5 0;
#X connect 0 5 6 0;
#X connect 0 6 7 0;
#X connect 0 7 8 0;
#X connect 17 0 9 0;
#X connect 17 1 10 0;
#X connect 17 2 11 0;
#X connect 17 3 12 0;
#X connect 17 4 13 0;
#X connect 17 5 14 0;
#X connect 17 6 15 0;
#X connect 17 7 16 0;
#X connect 34 0 18 0;
#X connect 34 1 19 0;
#X connect 34 2 20 0;
#X connect 34 3 21 0;
#X connect 34 4 22 0;
#X connect 34 5 23 0;
#X connect 34 6 24 0;
#X connect 34 7 25 0;
#X connect 35 0 26 0;
#X connect 35 1 27 0;
#X connect 35 2 28 0;
#X connect 35 3 29 0;
#X connect 35 4 30 0;
#X connect 35 5 31 0;
#X connect 35 6 32 0;
#X connect 35 7 33 0;
#X connect 68 0 36 0;
#X connect 68 1 37 0;
#X connect 68 2 38 0;
#X connect 68 3 39 0;
#X connect 68 4 40 0;
#X connect 68 5 41 0;
#X connect 68 6 42 0;
#X connect 68 7 43 0;
#X connect 69 0 52 0;
#X connect 69 1 53 0;
#X connect 69 2 54 0;
#X connect 69 3 55 0;
#X connect 69 4 56 0;
#X connect 69 5 57 0;
#X connect 69 6 58 0;
#X connect 69 7 59 0;
#X connect 70 0 60 0;
#X connect 70 1 61 0;
#X connect 70 2 62 0;
#X connect 70 3 63 0;
#X connect 70 4 64 0;
#X connect 70 5 65 0;
#X connect 70 6 66 0;
#X connect 70 7 67 0;
#X connect 71 0 44 0;
#X connect 71 1 45 0;
#X connect 71 2 46 0;
#X connect 71 3 47 0;
#X connect 71 4 48 0;
#X connect 71 5 49 0;
#X connect 71 6 50 0;
#X connect 71 7 51 0;
#X connect 75 0 90 0;
#X connect 76 0 90 2;
#X connect 77 0 90 1;
#X connect 78 0 90 3;
#X connect 79 0 90 5;
#X connect 80 0 90 4;
#X connect 81 0 90 7;
#X connect 82 0 90 6;
#X connect 90 0 83 0;
#X connect 90 1 85 0;
#X connect 90 2 87 0;
#X connect 90 3 89 0;
#X connect 90 4 73 0;
#X connect 90 5 84 0;
#X connect 90 6 86 0;
#X connect 90 7 88 0;
#X connect 91 0 100 0;
#X connect 92 0 100 1;
#X connect 93 0 100 2;
#X connect 94 0 100 3;
#X connect 95 0 100 4;
#X connect 96 0 100 5;
#X connect 97 0 100 6;
#X connect 98 0 100 7;
#X connect 100 0 101 0;
#X connect 101 0 99 0;
#X connect 102 0 111 0;
#X connect 103 0 111 1;
#X connect 104 0 111 2;
#X connect 105 0 111 3;
#X connect 106 0 111 4;
#X connect 107 0 111 5;
#X connect 108 0 111 6;
#X connect 109 0 111 7;
#X connect 111 0 112 0;
#X connect 112 0 110 0;
#X connect 113 0 122 0;
#X connect 114 0 122 1;
#X connect 115 0 122 2;
#X connect 116 0 122 3;
#X connect 117 0 122 4;
#X connect 118 0 122 5;
#X connect 119 0 122 6;
#X connect 120 0 122 7;
#X connect 122 0 123 0;
#X connect 123 0 121 0;
#X connect 124 0 133 0;
#X connect 125 0 133 1;
#X connect 126 0 133 2;
#X connect 127 0 133 3;
#X connect 128 0 133 4;
#X connect 129 0 133 5;
#X connect 130 0 133 6;
#X connect 131 0 133 7;
#X connect 133 0 134 0;
#X connect 134 0 132 0;
#X connect 135 0 144 0;
#X connect 136 0 144 1;
#X connect 137 0 144 2;
#X connect 138 0 144 3;
#X connect 139 0 144 4;
#X connect 140 0 144 5;
#X connect 141 0 144 6;
#X connect 142 0 144 7;
#X connect 144 0 145 0;
#X connect 145 0 143 0;
#X connect 146 0 155 0;
#X connect 147 0 155 1;
#X connect 148 0 155 2;
#X connect 149 0 155 3;
#X connect 150 0 155 4;
#X connect 151 0 155 5;
#X connect 152 0 155 6;
#X connect 153 0 155 7;
#X connect 155 0 156 0;
#X connect 156 0 154 0;
#X connect 157 0 166 0;
#X connect 158 0 166 1;
#X connect 159 0 166 2;
#X connect 160 0 166 3;
#X connect 161 0 166 4;
#X connect 162 0 166 5;
#X connect 163 0 166 6;
#X connect 164 0 166 7;
#X connect 166 0 167 0;
#X connect 167 0 165 0;
#X connect 168 0 177 0;
#X connect 169 0 177 1;
#X connect 170 0 177 2;
#X connect 171 0 177 3;
#X connect 172 0 177 4;
#X connect 173 0 177 5;
#X connect 174 0 177 6;
#X connect 175 0 177 7;
#X connect 177 0 178 0;
#X connect 178 0 176 0;
#X connect 179 1 166 0;
#X connect 179 2 155 0;
#X connect 179 3 144 0;
#X connect 179 4 133 0;
#X connect 179 5 122 0;
#X connect 179 6 111 0;
#X connect 179 7 100 0;
#X connect 179 8 177 0;
#X connect 180 0 0 0;
#X connect 181 0 0 1;
#X connect 182 0 0 2;
#X connect 183 0 0 3;
#X connect 184 0 0 4;
#X connect 185 0 0 5;
#X connect 186 0 0 6;
#X connect 187 0 0 7;
#X connect 188 0 17 0;
#X connect 189 0 17 1;
#X connect 190 0 17 2;
#X connect 191 0 17 3;
#X connect 192 0 17 4;
#X connect 193 0 17 5;
#X connect 194 0 17 6;
#X connect 195 0 17 7;
#X connect 196 0 34 0;
#X connect 197 0 34 1;
#X connect 198 0 34 2;
#X connect 199 0 34 3;
#X connect 200 0 34 4;
#X connect 201 0 34 5;
#X connect 202 0 34 6;
#X connect 203 0 34 7;
#X connect 204 0 35 0;
#X connect 205 0 35 1;
#X connect 206 0 35 2;
#X connect 207 0 35 3;
#X connect 208 0 35 4;
#X connect 209 0 35 5;
#X connect 210 0 35 6;
#X connect 211 0 35 7;
#X connect 212 0 68 0;
#X connect 213 0 68 1;
#X connect 214 0 68 2;
#X connect 215 0 68 3;
#X connect 216 0 68 4;
#X connect 217 0 68 5;
#X connect 218 0 68 6;
#X connect 219 0 68 7;
#X connect 220 0 71 0;
#X connect 221 0 71 1;
#X connect 222 0 71 2;
#X connect 223 0 71 3;
#X connect 224 0 71 4;
#X connect 224 0 71 3;
#X connect 225 0 71 5;
#X connect 226 0 71 6;
#X connect 227 0 71 7;
#X connect 228 0 69 0;
#X connect 229 0 69 1;
#X connect 230 0 69 2;
#X connect 231 0 69 3;
#X connect 232 0 69 4;
#X connect 233 0 69 5;
#X connect 234 0 69 6;
#X connect 235 0 69 7;
#X connect 236 0 70 0;
#X connect 237 0 70 1;
#X connect 238 0 70 2;
#X connect 239 0 70 3;
#X connect 240 0 70 4;
#X connect 241 0 70 5;
#X connect 242 0 70 6;
#X connect 243 0 70 7;
#X connect 244 0 245 0;
#X connect 244 1 251 0;
#X connect 244 2 263 0;
#X connect 244 3 269 0;
#X connect 244 4 275 0;
#X connect 244 5 281 0;
#X connect 244 6 287 0;
#X connect 244 7 293 0;
#X connect 245 0 246 0;
#X connect 245 1 247 0;
#X connect 245 2 260 0;
#X connect 245 3 261 0;
#X connect 245 4 262 0;
#X connect 245 5 248 0;
#X connect 245 6 249 0;
#X connect 245 7 250 0;
#X connect 251 0 252 0;
#X connect 251 1 253 0;
#X connect 251 2 257 0;
#X connect 251 3 258 0;
#X connect 251 4 259 0;
#X connect 251 5 254 0;
#X connect 251 6 255 0;
#X connect 251 7 256 0;
#X connect 263 0 264 0;
#X connect 263 1 265 0;
#X connect 263 2 299 0;
#X connect 263 3 300 0;
#X connect 263 4 301 0;
#X connect 263 5 266 0;
#X connect 263 6 267 0;
#X connect 263 7 268 0;
#X connect 269 0 270 0;
#X connect 269 1 271 0;
#X connect 269 2 302 0;
#X connect 269 3 303 0;
#X connect 269 4 304 0;
#X connect 269 5 272 0;
#X connect 269 6 273 0;
#X connect 269 7 274 0;
#X connect 275 0 276 0;
#X connect 275 1 277 0;
#X connect 275 2 305 0;
#X connect 275 3 306 0;
#X connect 275 4 307 0;
#X connect 275 5 278 0;
#X connect 275 6 279 0;
#X connect 275 7 280 0;
#X connect 281 0 282 0;
#X connect 281 1 283 0;
#X connect 281 2 308 0;
#X connect 281 3 309 0;
#X connect 281 4 310 0;
#X connect 281 5 284 0;
#X connect 281 6 285 0;
#X connect 281 7 286 0;
#X connect 287 0 288 0;
#X connect 287 1 289 0;
#X connect 287 2 311 0;
#X connect 287 3 312 0;
#X connect 287 4 313 0;
#X connect 287 5 290 0;
#X connect 287 6 291 0;
#X connect 287 7 292 0;
#X connect 293 0 294 0;
#X connect 293 1 295 0;
#X connect 293 2 314 0;
#X connect 293 3 315 0;
#X connect 293 4 316 0;
#X connect 293 5 296 0;
#X connect 293 6 297 0;
#X connect 293 7 298 0;
#X connect 319 0 179 0;
#X connect 320 0 244 0;
#X connect 320 0 321 0;
#X coords 0 -1 1 1 320 260 2 10 60;
#X restore 213 145 pd control_pad;
#X obj 547 63 bng 15 250 50 0 empty empty empty 17 7 0 10 -262144 -1
-1;
#X obj 583 91 r \$0-textfile;
#X obj 583 240 textfile;
#X obj 583 308 s \$0-textfile-left;
#X obj 577 -17 t b b b b;
#X msg 727 24 clear;
#X obj 727 49 s \$0-textfile;
#X obj 575 69 s \$0-textfile;
#X obj 856 -79 bng 15 250 50 0 empty empty Restore 17 7 0 10 -262144
-1 -1;
#X msg 848 91 bang;
#X obj 1033 161 s \$0-textfile;
#X msg 1098 98 rewind;
#X obj 638 283 s \$0-textfile-right;
#X obj 682 -74 r \$0-textfile-right;
#X msg 1105 -32 clear;
#X obj 848 69 bng 15 250 50 0 empty empty empty 17 7 0 10 -262144 -1
-1;
#X msg 825 20 stop;
#X obj 682 -51 bng 15 250 50 0 empty empty empty 17 7 0 10 -262144
-1 -1;
#X obj 636 265 bng 15 250 50 0 empty empty empty 17 7 0 10 -262144
-1 -1;
#X obj 583 129 spigot;
#X obj 690 117 i 1;
#X obj 764 115 i 0;
#X obj 764 90 r \$0-tf0;
#X obj 856 -56 t b b b b b b b;
#X obj 690 92 r \$0-tf1;
#X obj 1010 -62 s \$0-tf0;
#X text 1008 -81 Stop text file getting commands;
#X obj 682 -32 t a a a;
#X obj 609 -74 loadbang;
#X obj 601 186 print @tf;
#X obj 573 154 t a a;
#X floatatom 764 140 5 0 0 0 - - -;
#X obj 984 -57 bng 15 250 50 0 empty empty empty 17 7 0 10 -262144
-1 -1;
#X msg 1115 74 read save/\$1.txt;
#X msg 575 44 write save/\$1.txt;
#X obj 848 45 metro 200;
#X obj 40 -100 inlet start-stop;
#X obj 1115 -6 symbol \$1;
#X obj 553 11 symbol \$1;
#X obj 856 -106 loadbang;
#X obj 285 457 bng 15 250 50 0 empty empty empty 17 7 0 10 -262144
-1 -1;
#X obj 304 457 bng 15 250 50 0 empty empty empty 17 7 0 10 -262144
-1 -1;
#X obj 324 457 bng 15 250 50 0 empty empty empty 17 7 0 10 -262144
-1 -1;
#X obj 343 457 bng 15 250 50 0 empty empty empty 17 7 0 10 -262144
-1 -1;
#X obj 402 457 bng 15 250 50 0 empty empty empty 17 7 0 10 -262144
-1 -1;
#X obj 363 457 bng 15 250 50 0 empty empty empty 17 7 0 10 -262144
-1 -1;
#X obj 382 457 bng 15 250 50 0 empty empty empty 17 7 0 10 -262144
-1 -1;
#X obj 422 457 bng 15 250 50 0 empty empty empty 17 7 0 10 -262144
-1 -1;
#X obj 345 1029 r \$0-sampler_1_fn;
#X obj 285 1053 WTSPlayer;
#X obj 285 1075 throw~ dac;
#X obj 304 984 WTSPlayer;
#X obj 304 1006 throw~ dac;
#X obj 324 915 WTSPlayer;
#X obj 324 937 throw~ dac;
#X obj 364 960 r \$0-sampler_2_fn;
#X obj 384 891 r \$0-sampler_3_fn;
#X obj 343 844 WTSPlayer;
#X obj 343 866 throw~ dac;
#X obj 362 775 WTSPlayer;
#X obj 362 797 throw~ dac;
#X obj 382 706 WTSPlayer;
#X obj 382 728 throw~ dac;
#X obj 402 632 WTSPlayer;
#X obj 402 654 throw~ dac;
#X obj 422 563 WTSPlayer;
#X obj 422 585 throw~ dac;
#X obj 403 820 r \$0-sampler_4_fn;
#X obj 422 751 r \$0-sampler_5_fn;
#X obj 442 682 r \$0-sampler_6_fn;
#X obj 462 608 r \$0-sampler_7_fn;
#X obj 482 539 r \$0-sampler_8_fn;
#X connect 0 0 2 0;
#X connect 1 0 9 0;
#X connect 2 0 3 0;
#X connect 2 0 4 0;
#X connect 3 0 2 1;
#X connect 4 0 8 0;
#X connect 5 0 7 0;
#X connect 6 0 2 1;
#X connect 7 0 10 0;
#X connect 8 0 5 0;
#X connect 9 0 0 0;
#X connect 10 0 19 0;
#X connect 10 0 14 0;
#X connect 11 0 13 0;
#X connect 12 0 9 1;
#X connect 13 0 12 0;
#X connect 15 0 26 0;
#X connect 16 0 44 1;
#X connect 16 1 44 2;
#X connect 16 2 44 3;
#X connect 16 3 44 4;
#X connect 16 4 44 5;
#X connect 16 5 44 6;
#X connect 16 6 44 7;
#X connect 16 7 44 8;
#X connect 17 0 21 0;
#X connect 17 0 22 0;
#X connect 20 0 16 0;
#X connect 21 0 18 1;
#X connect 22 0 18 0;
#X connect 23 0 21 1;
#X connect 23 0 22 1;
#X connect 24 0 25 0;
#X connect 25 0 23 0;
#X connect 26 0 11 0;
#X connect 28 0 29 0;
#X connect 28 0 33 0;
#X connect 28 0 34 0;
#X connect 28 0 30 0;
#X connect 28 0 35 0;
#X connect 28 0 31 0;
#X connect 28 0 36 0;
#X connect 28 0 32 0;
#X connect 37 0 28 0;
#X connect 40 0 41 0;
#X connect 41 0 39 0;
#X connect 43 0 49 0;
#X connect 44 0 85 0;
#X connect 44 1 86 0;
#X connect 44 2 87 0;
#X connect 44 3 88 0;
#X connect 44 4 90 0;
#X connect 44 5 91 0;
#X connect 44 6 89 0;
#X connect 44 7 92 0;
#X connect 45 0 44 0;
#X connect 46 0 64 0;
#X connect 47 0 48 0;
#X connect 47 1 63 0;
#X connect 49 0 83 0;
#X connect 49 1 45 0;
#X connect 49 2 38 0;
#X connect 49 3 50 0;
#X connect 50 0 51 0;
#X connect 53 0 68 0;
#X connect 54 0 47 0;
#X connect 56 0 55 0;
#X connect 58 0 62 0;
#X connect 59 0 55 0;
#X connect 60 0 54 0;
#X connect 61 0 80 0;
#X connect 62 0 72 0;
#X connect 63 0 57 0;
#X connect 64 0 75 0;
#X connect 65 0 64 1;
#X connect 66 0 64 1;
#X connect 66 0 76 0;
#X connect 67 0 66 0;
#X connect 68 1 80 0;
#X connect 68 3 77 0;
#X connect 68 4 56 0;
#X connect 68 5 82 0;
#X connect 68 6 59 0;
#X connect 69 0 65 0;
#X connect 72 1 65 0;
#X connect 72 2 61 0;
#X connect 73 0 72 0;
#X connect 75 0 47 0;
#X connect 75 1 74 0;
#X connect 77 0 70 0;
#X connect 78 0 55 0;
#X connect 79 0 52 0;
#X connect 80 0 60 0;
#X connect 81 0 1 0;
#X connect 82 0 78 0;
#X connect 83 0 79 0;
#X connect 84 0 53 0;
#X connect 85 0 94 0;
#X connect 86 0 96 0;
#X connect 87 0 98 0;
#X connect 88 0 102 0;
#X connect 89 0 108 0;
#X connect 90 0 104 0;
#X connect 91 0 106 0;
#X connect 92 0 110 0;
#X connect 93 0 94 1;
#X connect 94 0 95 0;
#X connect 96 0 97 0;
#X connect 98 0 99 0;
#X connect 100 0 96 1;
#X connect 101 0 98 1;
#X connect 102 0 103 0;
#X connect 104 0 105 0;
#X connect 106 0 107 0;
#X connect 108 0 109 0;
#X connect 110 0 111 0;
#X connect 112 0 102 1;
#X connect 113 0 104 1;
#X connect 114 0 106 1;
#X connect 115 0 108 1;
#X connect 116 0 110 1;
