#N canvas 42 92 1235 561 12;
#X obj 39 134 bng 15 250 50 0 empty empty empty 17 7 0 10 -262144 -1
-1;
#X obj 39 89 tgl 15 0 empty empty empty 17 7 0 10 -262144 -1 -1 1 1
;
#X obj 39 154 float;
#X obj 106 176 + 1;
#X floatatom 39 179 5 0 0 0 - - -;
#X floatatom 39 228 5 0 0 0 - - -;
#X msg 82 148 1;
#X obj 39 252 hradio 16 1 0 8 empty empty empty 0 -8 0 10 -262144 -1
-1 3;
#X obj 39 203 mod 8;
#X obj 40 110 metro 500;
#X floatatom 39 269 5 0 0 0 - - -;
#X obj 103 45 hsl 128 15 60 300 0 0 empty empty BPM 5 -8 0 10 -262144
-1 -1 6350 1;
#X obj 100 81 expr 60000/$f1;
#X floatatom 100 59 5 0 0 0 - - -;
#N canvas 91 145 944 513 guide_lights 0;
#X obj 41 3 inlet;
#X obj 39 41 select 0 1 2 3 4 5 6 7, f 41;
#X text 7 2 Make the top row of buttons flash in sequence;
#X floatatom 105 21 5 0 0 0 - - -;
#X obj 352 475 midiout;
#X obj 381 307 list prepend 240 0 32 41 2 12 3 0;
#X text 477 330 71 => black;
#X text 471 405 9 => Orange;
#X msg 39 101 91;
#X obj 381 283 r \$0b;
#X obj 380 356 r \$0o;
#X msg 26 141 98;
#X obj 286 449 s \$0b;
#X obj 24 451 s \$0o;
#X msg 74 101 92;
#X msg 65 141 91;
#X msg 100 141 92;
#X msg 110 101 93;
#X msg 147 141 93;
#X obj 17 82 bng 15 250 50 0 empty empty empty 17 7 0 10 -262144 -1
-1;
#X msg 162 101 94;
#X msg 188 141 94;
#X msg 197 101 95;
#X msg 223 141 95;
#X msg 233 101 96;
#X msg 270 141 96;
#X msg 284 101 97;
#X msg 310 141 97;
#X msg 320 101 98;
#X obj 380 381 list prepend 240 0 32 41 2 12 3 0;
#X obj 381 331 list 37 247;
#X obj 380 406 list 50 247;
#X connect 0 0 1 0;
#X connect 0 0 3 0;
#X connect 1 0 8 0;
#X connect 1 0 11 0;
#X connect 1 0 19 0;
#X connect 1 1 14 0;
#X connect 1 1 15 0;
#X connect 1 2 16 0;
#X connect 1 2 17 0;
#X connect 1 3 18 0;
#X connect 1 3 20 0;
#X connect 1 4 21 0;
#X connect 1 4 22 0;
#X connect 1 5 23 0;
#X connect 1 5 24 0;
#X connect 1 6 25 0;
#X connect 1 6 24 0;
#X connect 1 7 27 0;
#X connect 1 7 26 0;
#X connect 1 8 28 0;
#X connect 5 0 30 0;
#X connect 8 0 13 0;
#X connect 9 0 5 0;
#X connect 10 0 29 0;
#X connect 11 0 12 0;
#X connect 14 0 13 0;
#X connect 15 0 12 0;
#X connect 16 0 12 0;
#X connect 17 0 13 0;
#X connect 18 0 12 0;
#X connect 19 0 8 0;
#X connect 20 0 13 0;
#X connect 21 0 12 0;
#X connect 22 0 13 0;
#X connect 23 0 12 0;
#X connect 24 0 13 0;
#X connect 25 0 12 0;
#X connect 26 0 13 0;
#X connect 27 0 12 0;
#X connect 28 0 13 0;
#X connect 29 0 31 0;
#X connect 30 0 4 0;
#X connect 31 0 4 0;
#X restore 52 424 pd guide_lights;
#X obj 22 2 loadbang;
#X obj 210 95 select 0 1 2 3 4 5 6 7, f 23;
#X obj 285 457 bng 15 250 50 0 empty empty empty 17 7 0 10 -262144
-1 -1;
#X obj 304 457 bng 15 250 50 0 empty empty empty 17 7 0 10 -262144
-1 -1;
#X obj 324 457 bng 15 250 50 0 empty empty empty 17 7 0 10 -262144
-1 -1;
#X obj 343 457 bng 15 250 50 0 empty empty empty 17 7 0 10 -262144
-1 -1;
#X obj 402 457 bng 15 250 50 0 empty empty empty 17 7 0 10 -262144
-1 -1;
#X obj 363 457 bng 15 250 50 0 empty empty empty 17 7 0 10 -262144
-1 -1;
#X obj 382 457 bng 15 250 50 0 empty empty empty 17 7 0 10 -262144
-1 -1;
#X obj 422 457 bng 15 250 50 0 empty empty empty 17 7 0 10 -262144
-1 -1;
#N canvas 0 62 1280 658 sampler_2 0;
#X obj 503 238 r \$0-sampler_2_fn;
#N canvas 0 50 450 250 (subpatch) 0;
#X array sound_2_data 84237 float 2;
#X coords 0 1 84237 -1 200 140 1 0 0;
#X restore 262 399 graph;
#X msg 503 265 read -resize \$1 sound_2_data;
#X obj 503 290 soundfiler;
#X floatatom 104 98 15 0 0 0 - - -;
#X obj 29 436 tabread4~ sound_2_data;
#X obj 104 122 s sample_2_size;
#X obj 169 336 *~;
#X obj 187 303 r sample_2_size;
#X obj 379 271 tgl 15 0 empty empty empty 17 7 0 10 -262144 -1 -1 1
1;
#X obj 379 291 metro 50;
#X obj 379 316 snapshot~;
#X obj 533 401 /;
#X obj 533 341 r sample_2_size;
#X obj 265 546 hsl 196 15 0 1 0 0 empty empty empty -2 -8 0 10 -262144
-1 -1 5364 1;
#X obj 72 10 bng 15 250 50 0 empty empty Start 17 7 0 10 -262144 -1
-1;
#X obj 468 79 r sample_2_size;
#X floatatom 468 129 15 0 0 0 - - -;
#X obj 466 184 line~;
#X msg 463 154 1 \$1;
#X obj 104 73 array size sound_2_data;
#X obj 405 269 loadbang;
#X floatatom 379 341 14 0 0 0 - - -;
#X msg 339 32 0;
#X obj 72 47 t b b;
#X obj 147 9 inlet;
#X obj 29 461 outlet~;
#X obj 469 105 / 48;
#X connect 0 0 2 0;
#X connect 2 0 3 0;
#X connect 4 0 6 0;
#X connect 5 0 26 0;
#X connect 7 0 5 0;
#X connect 7 0 11 0;
#X connect 8 0 7 1;
#X connect 9 0 10 0;
#X connect 10 0 11 0;
#X connect 11 0 12 0;
#X connect 11 0 22 0;
#X connect 12 0 14 0;
#X connect 13 0 12 1;
#X connect 15 0 24 0;
#X connect 16 0 27 0;
#X connect 17 0 19 0;
#X connect 18 0 7 0;
#X connect 19 0 18 0;
#X connect 20 0 4 0;
#X connect 21 0 9 0;
#X connect 23 0 18 0;
#X connect 24 0 20 0;
#X connect 24 1 23 0;
#X connect 25 0 24 0;
#X connect 27 0 17 0;
#X restore 304 756 pd sampler_2;
#X obj 304 778 throw~ dac;
#X obj 640 364 catch~ dac;
#X obj 641 434 dac~;
#X obj 324 732 throw~ dac;
#N canvas 36 153 657 494 sampler_3 0;
#N canvas 0 50 450 250 (subpatch) 0;
#X array sound_3_data 18300 float 2;
#X coords 0 1 18300 -1 200 140 1 0 0;
#X restore 144 298 graph;
#X msg 438 178 read -resize \$1 sound_3_data;
#X obj 438 203 soundfiler;
#X floatatom 5 158 15 0 0 0 - - -;
#X obj 6 218 tabread4~ sound_3_data;
#X obj 5 182 s sample_3_size;
#X obj 179 180 *~;
#X obj 197 155 r sample_3_size;
#X obj 314 184 tgl 15 0 empty empty empty 17 7 0 10 -262144 -1 -1 1
1;
#X obj 314 204 metro 50;
#X obj 314 229 snapshot~;
#X obj 533 401 /;
#X obj 468 254 r sample_3_size;
#X obj 147 438 hsl 196 15 0 1 0 0 empty empty empty -2 -8 0 10 -262144
-1 -1 7662 1;
#X obj 72 10 bng 15 250 50 0 empty empty Start 17 7 0 10 -262144 -1
-1;
#X obj 196 9 r sample_3_size;
#X floatatom 196 59 15 0 0 0 - - -;
#X obj 180 133 line~;
#X msg 191 84 1 \$1;
#X obj 197 35 / 48;
#X obj 5 133 array size sound_3_data;
#X obj 340 182 loadbang;
#X floatatom 314 254 14 0 0 0 - - -;
#X msg 152 105 0;
#X obj 72 47 t b b;
#X obj 147 9 inlet;
#X obj 6 243 outlet~;
#X obj 438 151 r \$0-sampler_3_fn;
#X connect 1 0 2 0;
#X connect 3 0 5 0;
#X connect 4 0 26 0;
#X connect 6 0 4 0;
#X connect 6 0 10 0;
#X connect 7 0 6 1;
#X connect 8 0 9 0;
#X connect 9 0 10 0;
#X connect 10 0 11 0;
#X connect 10 0 22 0;
#X connect 11 0 13 0;
#X connect 12 0 11 1;
#X connect 14 0 24 0;
#X connect 15 0 19 0;
#X connect 16 0 18 0;
#X connect 17 0 6 0;
#X connect 18 0 17 0;
#X connect 19 0 16 0;
#X connect 20 0 3 0;
#X connect 21 0 8 0;
#X connect 23 0 17 0;
#X connect 24 0 20 0;
#X connect 24 1 23 0;
#X connect 25 0 24 0;
#X connect 27 0 1 0;
#X restore 324 710 pd sampler_3;
#X obj 39 293 s sequence;
#X obj 210 67 r sequence;
#N canvas 95 351 450 300 sampler_4 0;
#N canvas 0 50 450 250 (subpatch) 0;
#X array sound_4_data 13224 float 2;
#X coords 0 1 13224 -1 200 140 1 0 0;
#X restore 144 298 graph;
#X msg 438 178 read -resize \$1 sound_4_data;
#X obj 438 203 soundfiler;
#X floatatom 5 158 15 0 0 0 - - -;
#X obj 6 218 tabread4~ sound_4_data;
#X obj 5 182 s sample_4_size;
#X obj 179 180 *~;
#X obj 197 155 r sample_4_size;
#X obj 314 184 tgl 15 0 empty empty empty 17 7 0 10 -262144 -1 -1 1
1;
#X obj 314 204 metro 50;
#X obj 314 229 snapshot~;
#X obj 533 401 /;
#X obj 468 254 r sample_4_size;
#X obj 147 438 hsl 196 15 0 1 0 0 empty empty empty -2 -8 0 10 -262144
-1 -1 19500 1;
#X obj 72 10 bng 15 250 50 0 empty empty Start 17 7 0 10 -262144 -1
-1;
#X obj 196 9 r sample_4_size;
#X floatatom 196 59 15 0 0 0 - - -;
#X obj 180 133 line~;
#X msg 191 84 1 \$1;
#X obj 197 35 / 48;
#X obj 5 133 array size sound_4_data;
#X obj 340 182 loadbang;
#X floatatom 314 254 14 0 0 0 - - -;
#X msg 152 105 0;
#X obj 72 47 t b b;
#X obj 147 9 inlet;
#X obj 6 243 outlet~;
#X obj 438 151 r \$0-sampler_4_fn;
#X connect 1 0 2 0;
#X connect 3 0 5 0;
#X connect 4 0 26 0;
#X connect 6 0 4 0;
#X connect 6 0 10 0;
#X connect 7 0 6 1;
#X connect 8 0 9 0;
#X connect 9 0 10 0;
#X connect 10 0 11 0;
#X connect 10 0 22 0;
#X connect 11 0 13 0;
#X connect 12 0 11 1;
#X connect 14 0 24 0;
#X connect 15 0 19 0;
#X connect 16 0 18 0;
#X connect 17 0 6 0;
#X connect 18 0 17 0;
#X connect 19 0 16 0;
#X connect 20 0 3 0;
#X connect 21 0 8 0;
#X connect 23 0 17 0;
#X connect 24 0 20 0;
#X connect 24 1 23 0;
#X connect 25 0 24 0;
#X connect 27 0 1 0;
#X restore 343 663 pd sampler_4;
#X obj 344 686 throw~ dac;
#X obj 686 434 *~;
#X obj 599 431 *~;
#X obj 769 339 vsl 8 50 0 1 0 0 empty empty empty 0 -9 0 10 -262144
-1 -1 4075 1;
#X obj 364 640 throw~ dac;
#N canvas 95 156 700 495 sampler_5 0;
#N canvas 0 50 450 250 (subpatch) 0;
#X array sound_5_data 7119 float 2;
#X coords 0 1 7119 -1 200 140 1 0 0;
#X restore 144 298 graph;
#X msg 438 178 read -resize \$1 sound_5_data;
#X obj 438 203 soundfiler;
#X floatatom 5 158 15 0 0 0 - - -;
#X obj 6 218 tabread4~ sound_5_data;
#X obj 5 182 s sample_5_size;
#X obj 179 180 *~;
#X obj 197 155 r sample_5_size;
#X obj 314 184 tgl 15 0 empty empty empty 17 7 0 10 -262144 -1 -1 1
1;
#X obj 314 204 metro 50;
#X obj 314 229 snapshot~;
#X obj 533 401 /;
#X obj 468 254 r sample_5_size;
#X obj 147 438 hsl 196 15 0 1 0 0 empty empty empty -2 -8 0 10 -262144
-1 -1 19500 1;
#X obj 72 10 bng 15 250 50 0 empty empty Start 17 7 0 10 -262144 -1
-1;
#X obj 196 9 r sample_5_size;
#X floatatom 196 59 15 0 0 0 - - -;
#X obj 180 133 line~;
#X msg 191 84 1 \$1;
#X obj 197 35 / 48;
#X obj 5 133 array size sound_5_data;
#X obj 340 182 loadbang;
#X floatatom 314 254 14 0 0 0 - - -;
#X msg 152 105 0;
#X obj 72 47 t b b;
#X obj 147 9 inlet;
#X obj 6 243 outlet~;
#X obj 438 151 r \$0-sampler_5_fn;
#X connect 1 0 2 0;
#X connect 3 0 5 0;
#X connect 4 0 26 0;
#X connect 6 0 4 0;
#X connect 6 0 10 0;
#X connect 7 0 6 1;
#X connect 8 0 9 0;
#X connect 9 0 10 0;
#X connect 10 0 11 0;
#X connect 10 0 22 0;
#X connect 11 0 13 0;
#X connect 12 0 11 1;
#X connect 14 0 24 0;
#X connect 15 0 19 0;
#X connect 16 0 18 0;
#X connect 17 0 6 0;
#X connect 18 0 17 0;
#X connect 19 0 16 0;
#X connect 20 0 3 0;
#X connect 21 0 8 0;
#X connect 23 0 17 0;
#X connect 24 0 20 0;
#X connect 24 1 23 0;
#X connect 25 0 24 0;
#X connect 27 0 1 0;
#X restore 363 617 pd sampler_5;
#X obj 381 595 throw~ dac;
#N canvas 390 213 450 300 sampler_6 0;
#N canvas 0 50 450 250 (subpatch) 0;
#X array sound_6_data 71603 float 2;
#X coords 0 1 71603 -1 200 140 1 0 0;
#X restore 144 298 graph;
#X msg 438 178 read -resize \$1 sound_6_data;
#X obj 438 203 soundfiler;
#X floatatom 5 158 15 0 0 0 - - -;
#X obj 6 218 tabread4~ sound_6_data;
#X obj 5 182 s sample_6_size;
#X obj 179 180 *~;
#X obj 197 155 r sample_6_size;
#X obj 314 184 tgl 15 0 empty empty empty 17 7 0 10 -262144 -1 -1 1
1;
#X obj 314 204 metro 50;
#X obj 314 229 snapshot~;
#X obj 533 401 /;
#X obj 468 254 r sample_6_size;
#X obj 147 438 hsl 196 15 0 1 0 0 empty empty empty -2 -8 0 10 -262144
-1 -1 19395 1;
#X obj 72 10 bng 15 250 50 0 empty empty Start 17 7 0 10 -262144 -1
-1;
#X obj 196 9 r sample_6_size;
#X floatatom 196 59 15 0 0 0 - - -;
#X obj 180 133 line~;
#X msg 191 84 1 \$1;
#X obj 197 35 / 48;
#X obj 5 133 array size sound_6_data;
#X obj 340 182 loadbang;
#X floatatom 314 254 14 0 0 0 - - -;
#X msg 152 105 0;
#X obj 72 47 t b b;
#X obj 147 9 inlet;
#X obj 6 243 outlet~;
#X obj 438 151 r \$0-sampler_6_fn;
#X connect 1 0 2 0;
#X connect 3 0 5 0;
#X connect 4 0 26 0;
#X connect 6 0 4 0;
#X connect 6 0 10 0;
#X connect 7 0 6 1;
#X connect 8 0 9 0;
#X connect 9 0 10 0;
#X connect 10 0 11 0;
#X connect 10 0 22 0;
#X connect 11 0 13 0;
#X connect 12 0 11 1;
#X connect 14 0 24 0;
#X connect 15 0 19 0;
#X connect 16 0 18 0;
#X connect 17 0 6 0;
#X connect 18 0 17 0;
#X connect 19 0 16 0;
#X connect 20 0 3 0;
#X connect 21 0 8 0;
#X connect 23 0 17 0;
#X connect 24 0 20 0;
#X connect 24 1 23 0;
#X connect 25 0 24 0;
#X connect 27 0 1 0;
#X restore 382 573 pd sampler_6;
#X obj 801 311 loadbang;
#X msg 801 336 0.75;
#X obj 215 136 WTSLaunchpadX, f 20;
#X obj 401 552 throw~ dac;
#N canvas 215 85 858 601 sampler_7 0;
#N canvas 0 50 450 250 (subpatch) 0;
#X array sound_7_data 48007 float 2;
#X coords 0 1 48007 -1 200 140 1 0 0;
#X restore 144 298 graph;
#X obj 438 203 soundfiler;
#X floatatom 5 158 15 0 0 0 - - -;
#X obj 179 180 *~;
#X obj 314 184 tgl 15 0 empty empty empty 17 7 0 10 -262144 -1 -1 1
1;
#X obj 314 204 metro 50;
#X obj 314 229 snapshot~;
#X obj 533 401 /;
#X obj 147 438 hsl 196 15 0 1 0 0 empty empty empty -2 -8 0 10 -262144
-1 -1 0 1;
#X obj 72 10 bng 15 250 50 0 empty empty Start 17 7 0 10 -262144 -1
-1;
#X floatatom 196 59 15 0 0 0 - - -;
#X obj 180 133 line~;
#X msg 191 84 1 \$1;
#X obj 197 35 / 48;
#X obj 340 182 loadbang;
#X floatatom 314 254 14 0 0 0 - - -;
#X msg 152 105 0;
#X obj 72 47 t b b;
#X obj 147 9 inlet;
#X obj 6 243 outlet~;
#X obj 196 9 r sample_7_size;
#X obj 197 155 r sample_7_size;
#X obj 5 182 s sample_7_size;
#X obj 6 218 tabread4~ sound_7_data;
#X obj 463 259 r sample_7_size;
#X msg 438 178 read -resize \$1 sound_7_data;
#X obj 438 151 r \$0-sampler_7_fn;
#X obj 5 133 array size sound_7_data;
#X connect 2 0 22 0;
#X connect 3 0 6 0;
#X connect 3 0 23 0;
#X connect 4 0 5 0;
#X connect 5 0 6 0;
#X connect 6 0 7 0;
#X connect 6 0 15 0;
#X connect 7 0 8 0;
#X connect 9 0 17 0;
#X connect 10 0 12 0;
#X connect 11 0 3 0;
#X connect 12 0 11 0;
#X connect 13 0 10 0;
#X connect 14 0 4 0;
#X connect 16 0 11 0;
#X connect 17 0 27 0;
#X connect 17 1 16 0;
#X connect 18 0 17 0;
#X connect 20 0 13 0;
#X connect 21 0 3 1;
#X connect 23 0 19 0;
#X connect 24 0 7 1;
#X connect 25 0 1 0;
#X connect 26 0 25 0;
#X connect 27 0 2 0;
#X restore 402 526 pd sampler_7;
#X obj 423 504 throw~ dac;
#N canvas 18 99 891 621 sampler_8 0;
#N canvas 0 50 450 250 (subpatch) 0;
#X array sound_8_data 45550 float 2;
#X coords 0 1 45550 -1 200 140 1 0 0;
#X restore 144 298 graph;
#X obj 438 203 soundfiler;
#X floatatom 5 158 15 0 0 0 - - -;
#X obj 179 180 *~;
#X obj 314 184 tgl 15 0 empty empty empty 17 7 0 10 -262144 -1 -1 1
1;
#X obj 314 204 metro 50;
#X obj 314 229 snapshot~;
#X obj 533 401 /;
#X obj 147 438 hsl 196 15 0 1 0 0 empty empty empty -2 -8 0 10 -262144
-1 -1 0 1;
#X obj 72 10 bng 15 250 50 0 empty empty Start 17 7 0 10 -262144 -1
-1;
#X floatatom 196 59 15 0 0 0 - - -;
#X obj 180 133 line~;
#X msg 191 84 1 \$1;
#X obj 197 35 / 48;
#X obj 340 182 loadbang;
#X floatatom 314 254 14 0 0 0 - - -;
#X msg 152 105 0;
#X obj 72 47 t b b;
#X obj 147 9 inlet;
#X obj 6 243 outlet~;
#X obj 196 9 r sample_8_size;
#X obj 5 133 array size sound_8_data;
#X obj 5 182 s sample_8_size;
#X obj 6 218 tabread4~ sound_8_data;
#X obj 197 155 r sample_8_size;
#X obj 438 151 r \$0-sampler_8_fn;
#X msg 438 178 read -resize \$1 sound_8_data;
#X obj 466 261 r sample_8_size;
#X connect 2 0 22 0;
#X connect 3 0 6 0;
#X connect 3 0 23 0;
#X connect 4 0 5 0;
#X connect 5 0 6 0;
#X connect 6 0 7 0;
#X connect 6 0 15 0;
#X connect 7 0 8 0;
#X connect 9 0 17 0;
#X connect 10 0 12 0;
#X connect 11 0 3 0;
#X connect 12 0 11 0;
#X connect 13 0 10 0;
#X connect 14 0 4 0;
#X connect 16 0 11 0;
#X connect 17 0 21 0;
#X connect 17 1 16 0;
#X connect 18 0 17 0;
#X connect 20 0 13 0;
#X connect 21 0 2 0;
#X connect 23 0 19 0;
#X connect 24 0 3 1;
#X connect 25 0 26 0;
#X connect 26 0 1 0;
#X connect 27 0 7 1;
#X restore 422 481 pd sampler_8;
#X msg 100 3 180;
#X obj 285 828 throw~ dac;
#N canvas 0 62 1280 658 sampler_1 0;
#N canvas 0 50 450 250 (subpatch) 0;
#X array sound_1_data 12162 float 2;
#X coords 0 1 12162 -1 200 140 1 0 0;
#X restore 262 399 graph;
#X obj 503 290 soundfiler;
#X floatatom 104 98 15 0 0 0 - - -;
#X obj 169 336 *~;
#X obj 379 271 tgl 15 0 empty empty empty 17 7 0 10 -262144 -1 -1 1
1;
#X obj 379 291 metro 50;
#X obj 379 316 snapshot~;
#X obj 533 401 /;
#X obj 265 546 hsl 196 15 0 1 0 0 empty empty empty -2 -8 0 10 -262144
-1 -1 19500 1;
#X obj 72 10 bng 15 250 50 0 empty empty Start 17 7 0 10 -262144 -1
-1;
#X floatatom 468 129 15 0 0 0 - - -;
#X obj 466 184 line~;
#X msg 463 154 1 \$1;
#X obj 405 269 loadbang;
#X floatatom 379 341 14 0 0 0 - - -;
#X msg 339 32 0;
#X obj 72 47 t b b;
#X obj 147 9 inlet;
#X obj 29 461 outlet~;
#X obj 469 105 / 48;
#X obj 104 73 array size sound_1_data;
#X obj 187 303 r sample_1_size;
#X obj 29 436 tabread4~ sound_1_data;
#X obj 533 341 r sample_1_size;
#X msg 503 265 read -resize \$1 sound_1_data;
#X obj 503 238 r \$0-sampler_1_fn;
#X obj 468 79 r sample_1_size;
#X obj 104 122 s sample_1_size;
#X connect 2 0 27 0;
#X connect 3 0 6 0;
#X connect 3 0 22 0;
#X connect 4 0 5 0;
#X connect 5 0 6 0;
#X connect 6 0 7 0;
#X connect 6 0 14 0;
#X connect 7 0 8 0;
#X connect 9 0 16 0;
#X connect 10 0 12 0;
#X connect 11 0 3 0;
#X connect 12 0 11 0;
#X connect 13 0 4 0;
#X connect 15 0 11 0;
#X connect 16 0 20 0;
#X connect 16 1 15 0;
#X connect 17 0 16 0;
#X connect 19 0 10 0;
#X connect 20 0 2 0;
#X connect 21 0 3 1;
#X connect 22 0 18 0;
#X connect 23 0 7 1;
#X connect 24 0 1 0;
#X connect 25 0 24 0;
#X connect 26 0 19 0;
#X restore 285 806 pd sampler_1;
#X text 565 462 Reset samples on load;
#X msg 633 516 set;
#X obj 534 565 s \$0-ss1;
#X obj 601 565 s \$0-ss2;
#X obj 667 565 s \$0-ss3;
#X obj 732 565 s \$0-ss4;
#X obj 534 603 s \$0-ss5;
#X obj 601 603 s \$0-ss6;
#X obj 667 603 s \$0-ss7;
#X obj 732 603 s \$0-ss8;
#X obj 633 486 loadbang;
#N canvas 128 178 1273 435 samples 0;
#X obj 10 -87 bng 15 250 50 0 empty empty empty 17 7 0 10 -262144 -1
-1;
#X obj 39 -103 openpanel;
#X obj 38 -79 s \$0-sampler_2_fn;
#X obj 15 -19 bng 15 250 50 0 empty empty empty 17 7 0 10 -262144 -1
-1;
#X obj 44 -35 openpanel;
#X obj 43 -11 s \$0-sampler_3_fn;
#X msg 117 -34 set \$1;
#X msg 181 -35 /home/patch/Documents/Pd/samples/Unfuck/Cough.wav,
f 40;
#X msg 116 -104 set \$1;
#X msg 180 -105 /home/patch/Documents/Pd/samples/Unfuck/IfIWasARichMan.wav
, f 40;
#X obj 52 441 bng 15 250 50 0 empty empty empty 17 7 0 10 -262144 -1
-1;
#X obj 14 50 bng 15 250 50 0 empty empty empty 17 7 0 10 -262144 -1
-1;
#X obj 43 34 openpanel;
#X msg 116 35 set \$1;
#X msg 180 34 /home/patch/Documents/Pd/samples/Unfuck/Cymbol_1.wav
, f 40;
#X obj 42 58 s \$0-sampler_4_fn;
#X obj 15 117 bng 15 250 50 0 empty empty empty 17 7 0 10 -262144 -1
-1;
#X obj 44 101 openpanel;
#X msg 117 102 set \$1;
#X msg 181 101 /home/patch/Documents/Pd/samples/Unfuck/Drum_01.wav
, f 40;
#X obj 43 125 s \$0-sampler_5_fn;
#X obj 15 185 bng 15 250 50 0 empty empty empty 17 7 0 10 -262144 -1
-1;
#X obj 44 169 openpanel;
#X msg 117 170 set \$1;
#X msg 181 169 /home/patch/Documents/Pd/samples/Unfuck/Looser.wav,
f 40;
#X obj 43 193 s \$0-sampler_6_fn;
#X obj 14 250 bng 15 250 50 0 empty empty empty 17 7 0 10 -262144 -1
-1;
#X obj 43 234 openpanel;
#X msg 116 235 set \$1;
#X msg 180 234 /home/patch/Documents/Pd/samples/Unfuck/PieceOfShit.wav
, f 40;
#X obj 42 258 s \$0-sampler_7_fn;
#X obj 13 320 bng 15 250 50 0 empty empty empty 17 7 0 10 -262144 -1
-1;
#X obj 42 304 openpanel;
#X msg 115 305 set \$1;
#X msg 179 304 /home/patch/Documents/Pd/samples/Unfuck/WhatALooser.wav
, f 40;
#X obj 41 328 s \$0-sampler_8_fn;
#X obj 11 -153 bng 15 250 50 0 empty empty empty 17 7 0 10 -262144
-1 -1;
#X obj 40 -169 openpanel;
#X msg 117 -170 set \$1;
#X msg 181 -171 /home/patch/Documents/Pd/samples/Unfuck/Gasp.wav,
f 40;
#X obj 39 -145 s \$0-sampler_1_fn;
#X obj 578 -145 bng 15 250 50 0 empty empty Save_Samples 17 7 0 10
-262144 -1 -1;
#X obj 717 33 textfile;
#X obj 578 -125 t b b;
#X msg 613 -96 clear;
#X msg 663 -95 print;
#X obj 572 -9 r \$0-save-sample;
#X obj 351 -133 s \$0-save-sample;
#X obj 181 -134 pack s;
#X msg 237 -132 add sample_1 \$1;
#X obj 468 -163 r \$0-ss1;
#X obj 578 57 t b b b b b b b b b b;
#X obj 610 255 s \$0-ss1;
#X obj 626 233 s \$0-ss2;
#X obj 642 210 s \$0-ss3;
#X obj 658 187 s \$0-ss4;
#X obj 674 164 s \$0-ss5;
#X obj 690 141 s \$0-ss6;
#X obj 706 118 s \$0-ss7;
#X obj 722 95 s \$0-ss8;
#X msg 642 -32 rewind;
#X msg 726 -85 write save/samples.txt;
#X obj 350 -64 s \$0-save-sample;
#X obj 180 -64 pack s;
#X msg 236 -64 add sample_2 \$1;
#X obj 471 -28 r \$0-ss3;
#X obj 472 -99 r \$0-ss2;
#X obj 351 8 s \$0-save-sample;
#X obj 181 8 pack s;
#X msg 237 8 add sample_3 \$1;
#X obj 472 42 r \$0-ss4;
#X obj 350 76 s \$0-save-sample;
#X obj 180 76 pack s;
#X msg 236 76 add sample_4 \$1;
#X obj 351 141 s \$0-save-sample;
#X obj 181 141 pack s;
#X msg 237 141 add sample_5 \$1;
#X obj 473 107 r \$0-ss5;
#X obj 473 175 r \$0-ss6;
#X obj 351 207 s \$0-save-sample;
#X obj 181 207 pack s;
#X msg 237 207 add sample_6 \$1;
#X obj 350 273 s \$0-save-sample;
#X obj 180 273 pack s;
#X obj 474 238 r \$0-ss7;
#X msg 236 273 add sample_7 \$1;
#X obj 349 347 s \$0-save-sample;
#X obj 179 347 pack s;
#X obj 471 310 r \$0-ss8;
#X msg 235 347 add sample_8 \$1;
#X obj 580 -167 bng 15 250 50 0 empty empty Restore_Samples 17 7 0
10 -262144 -1 -1;
#X msg 727 -41 read save/samples.txt;
#X obj 718 -129 s \$0-b-tf;
#X obj 741 -11 r \$0-b-tf;
#X msg 831 11 bang;
#X obj 739 219 route sample_1 sample_2 sample_3 sample_4 sample_5 sample_6
sample_7 sample_8, f 66;
#X obj 737 442 s \$0-ss1;
#X msg 739 381 set \$1;
#X msg 796 283 set \$1;
#X obj 796 334 s \$0-ss2;
#X obj 796 261 unpack s;
#X obj 739 352 unpack s;
#X msg 853 379 set \$1;
#X obj 853 357 unpack s;
#X obj 853 437 s \$0-ss3;
#X msg 911 284 set \$1;
#X obj 911 262 unpack s;
#X obj 911 330 s \$0-ss4;
#X msg 968 378 set \$1;
#X obj 968 356 unpack s;
#X obj 968 427 s \$0-ss5;
#X msg 1025 285 set \$1;
#X obj 1025 263 unpack s;
#X msg 1083 381 set \$1;
#X obj 1083 359 unpack s;
#X obj 1025 332 s \$0-ss6;
#X obj 1083 438 s \$0-ss7;
#X msg 1141 286 set \$1;
#X obj 1141 264 unpack s;
#X obj 1141 330 s \$0-ss8;
#X obj 1235 282 print Lonely;
#X obj 951 31 bng 15 250 50 0 empty empty empty 17 7 0 10 -262144 -1
-1;
#X obj 996 104 float;
#X obj 1063 126 + 1;
#X floatatom 996 129 5 0 0 0 - - -;
#X msg 1039 98 1;
#X msg 1088 34 0;
#X obj 698 -169 t b b b b b b b b b b;
#X text 857 -126 Code to save and restore the samples;
#X obj 737 407 t b a;
#X obj 853 404 t b a;
#X obj 796 306 t b a;
#X obj 911 307 t b a;
#X obj 968 401 t b a;
#X obj 1025 308 t b a;
#X obj 1083 407 t b a;
#X obj 1141 308 t b a;
#X obj 680 -207 inlet restore;
#X connect 0 0 1 0;
#X connect 1 0 2 0;
#X connect 1 0 8 0;
#X connect 3 0 4 0;
#X connect 4 0 5 0;
#X connect 4 0 6 0;
#X connect 6 0 7 0;
#X connect 7 0 68 0;
#X connect 8 0 9 0;
#X connect 9 0 63 0;
#X connect 11 0 12 0;
#X connect 12 0 13 0;
#X connect 12 0 15 0;
#X connect 13 0 14 0;
#X connect 14 0 72 0;
#X connect 16 0 17 0;
#X connect 17 0 18 0;
#X connect 17 0 20 0;
#X connect 18 0 19 0;
#X connect 19 0 75 0;
#X connect 21 0 22 0;
#X connect 22 0 23 0;
#X connect 22 0 25 0;
#X connect 23 0 24 0;
#X connect 24 0 80 0;
#X connect 26 0 27 0;
#X connect 27 0 28 0;
#X connect 27 0 30 0;
#X connect 28 0 29 0;
#X connect 29 0 83 0;
#X connect 31 0 32 0;
#X connect 32 0 33 0;
#X connect 32 0 35 0;
#X connect 33 0 34 0;
#X connect 34 0 87 0;
#X connect 36 0 37 0;
#X connect 37 0 38 0;
#X connect 37 0 40 0;
#X connect 38 0 39 0;
#X connect 39 0 48 0;
#X connect 41 0 43 0;
#X connect 42 0 95 0;
#X connect 42 1 60 0;
#X connect 43 0 51 0;
#X connect 43 1 44 0;
#X connect 44 0 42 0;
#X connect 45 0 42 0;
#X connect 46 0 42 0;
#X connect 48 0 49 0;
#X connect 48 0 40 0;
#X connect 49 0 47 0;
#X connect 50 0 39 0;
#X connect 51 0 61 0;
#X connect 51 1 60 0;
#X connect 51 2 52 0;
#X connect 51 3 53 0;
#X connect 51 4 54 0;
#X connect 51 5 55 0;
#X connect 51 6 56 0;
#X connect 51 7 57 0;
#X connect 51 8 58 0;
#X connect 51 9 59 0;
#X connect 60 0 42 0;
#X connect 61 0 42 0;
#X connect 63 0 64 0;
#X connect 63 0 2 0;
#X connect 64 0 62 0;
#X connect 65 0 7 0;
#X connect 66 0 9 0;
#X connect 68 0 69 0;
#X connect 68 0 5 0;
#X connect 69 0 67 0;
#X connect 70 0 14 0;
#X connect 72 0 73 0;
#X connect 72 0 15 0;
#X connect 73 0 71 0;
#X connect 75 0 76 0;
#X connect 75 0 20 0;
#X connect 76 0 74 0;
#X connect 77 0 19 0;
#X connect 78 0 24 0;
#X connect 80 0 81 0;
#X connect 80 0 25 0;
#X connect 81 0 79 0;
#X connect 83 0 85 0;
#X connect 83 0 30 0;
#X connect 84 0 29 0;
#X connect 85 0 82 0;
#X connect 87 0 89 0;
#X connect 87 0 35 0;
#X connect 88 0 34 0;
#X connect 89 0 86 0;
#X connect 90 0 127 0;
#X connect 91 0 42 0;
#X connect 93 0 94 0;
#X connect 94 0 42 0;
#X connect 94 0 121 0;
#X connect 95 0 101 0;
#X connect 95 1 100 0;
#X connect 95 2 103 0;
#X connect 95 3 106 0;
#X connect 95 4 109 0;
#X connect 95 5 112 0;
#X connect 95 6 114 0;
#X connect 95 7 118 0;
#X connect 95 8 120 0;
#X connect 97 0 129 0;
#X connect 98 0 131 0;
#X connect 100 0 98 0;
#X connect 101 0 97 0;
#X connect 102 0 130 0;
#X connect 103 0 102 0;
#X connect 105 0 132 0;
#X connect 106 0 105 0;
#X connect 108 0 133 0;
#X connect 109 0 108 0;
#X connect 111 0 134 0;
#X connect 112 0 111 0;
#X connect 113 0 135 0;
#X connect 114 0 113 0;
#X connect 117 0 136 0;
#X connect 118 0 117 0;
#X connect 121 0 122 0;
#X connect 122 0 123 0;
#X connect 122 0 124 0;
#X connect 123 0 122 1;
#X connect 125 0 122 1;
#X connect 126 0 124 0;
#X connect 126 0 122 0;
#X connect 127 0 92 0;
#X connect 127 1 92 0;
#X connect 127 2 92 0;
#X connect 127 3 92 0;
#X connect 127 4 92 0;
#X connect 127 5 92 0;
#X connect 127 6 92 0;
#X connect 127 7 92 0;
#X connect 127 8 92 0;
#X connect 127 9 91 0;
#X connect 129 0 96 0;
#X connect 129 1 96 0;
#X connect 130 0 104 0;
#X connect 130 1 104 0;
#X connect 131 0 99 0;
#X connect 131 1 99 0;
#X connect 132 0 107 0;
#X connect 132 1 107 0;
#X connect 133 0 110 0;
#X connect 133 1 110 0;
#X connect 134 0 115 0;
#X connect 134 1 115 0;
#X connect 135 0 116 0;
#X connect 135 1 116 0;
#X connect 136 0 119 0;
#X connect 136 1 119 0;
#X connect 137 0 90 0;
#X restore 592 139 pd samples;
#X obj 607 293 midiout;
#X obj 607 244 bng 15 250 50 0 empty empty empty 17 7 0 10 -262144
-1 -1;
#X obj 608 267 list 240 0 32 41 2 12 0 127 247;
#X text 625 242 Set programmer mode;
#X obj 592 113 bng 15 250 50 0 empty empty Restore 17 7 0 10 -262144
-1 -1;
#X connect 0 0 2 0;
#X connect 1 0 9 0;
#X connect 2 0 3 0;
#X connect 2 0 4 0;
#X connect 3 0 2 1;
#X connect 4 0 8 0;
#X connect 5 0 7 0;
#X connect 6 0 2 1;
#X connect 7 0 10 0;
#X connect 8 0 5 0;
#X connect 9 0 0 0;
#X connect 10 0 31 0;
#X connect 10 0 14 0;
#X connect 11 0 13 0;
#X connect 12 0 9 1;
#X connect 13 0 12 0;
#X connect 15 0 1 0;
#X connect 15 0 49 0;
#X connect 16 0 44 0;
#X connect 16 1 44 1;
#X connect 16 2 44 2;
#X connect 16 3 44 3;
#X connect 16 4 44 4;
#X connect 16 5 44 5;
#X connect 16 6 44 6;
#X connect 16 7 44 7;
#X connect 17 0 51 0;
#X connect 18 0 25 0;
#X connect 19 0 30 0;
#X connect 20 0 33 0;
#X connect 21 0 46 0;
#X connect 22 0 39 0;
#X connect 23 0 41 0;
#X connect 24 0 48 0;
#X connect 25 0 26 0;
#X connect 27 0 35 0;
#X connect 27 0 36 0;
#X connect 30 0 29 0;
#X connect 32 0 16 0;
#X connect 33 0 34 0;
#X connect 35 0 28 1;
#X connect 36 0 28 0;
#X connect 37 0 35 1;
#X connect 37 0 36 1;
#X connect 39 0 38 0;
#X connect 41 0 40 0;
#X connect 42 0 43 0;
#X connect 43 0 37 0;
#X connect 44 0 17 0;
#X connect 44 1 18 0;
#X connect 44 2 19 0;
#X connect 44 3 20 0;
#X connect 44 4 22 0;
#X connect 44 5 23 0;
#X connect 44 6 21 0;
#X connect 44 7 24 0;
#X connect 46 0 45 0;
#X connect 48 0 47 0;
#X connect 49 0 11 0;
#X connect 51 0 50 0;
#X connect 53 0 54 0;
#X connect 53 0 58 0;
#X connect 53 0 59 0;
#X connect 53 0 55 0;
#X connect 53 0 60 0;
#X connect 53 0 56 0;
#X connect 53 0 61 0;
#X connect 53 0 57 0;
#X connect 62 0 53 0;
#X connect 65 0 66 0;
#X connect 66 0 64 0;
#X connect 68 0 63 0;
