#N canvas 607 95 717 561 12;
#X obj 37 111 bng 15 250 50 0 empty empty empty 17 7 0 10 -262144 -1
-1;
#X obj 37 66 tgl 15 0 empty empty empty 17 7 0 10 -262144 -1 -1 0 1
;
#X obj 37 131 float;
#X obj 104 153 + 1;
#X floatatom 37 156 5 0 0 0 - - -;
#X floatatom 37 205 5 0 0 0 - - -;
#X msg 80 125 1;
#X obj 37 229 hradio 16 1 0 8 empty empty empty 0 -8 0 10 -262144 -1
-1 0;
#X obj 37 180 mod 8;
#X obj 38 87 metro 500;
#X floatatom 37 246 5 0 0 0 - - -;
#X obj 101 22 hsl 128 15 60 300 0 0 empty empty BPM -2 -8 0 10 -262144
-1 -1 0 1;
#X obj 98 58 expr 60000/$f1;
#X floatatom 98 36 5 0 0 0 - - -;
#N canvas 280 127 586 513 guide_lights 0;
#X obj 37 37 inlet;
#X obj 35 75 select 0 1 2 3 4 5 6 7;
#X obj 10 423 s \$0-LPX;
#X msg 10 398 rgb 91 127 0 0;
#X obj 54 378 s \$0-LPX;
#X msg 56 359 rgb 91 0 0 127;
#X obj 135 425 s \$0-LPX;
#X obj 179 380 s \$0-LPX;
#X msg 135 400 rgb 92 127 0 0;
#X msg 181 361 rgb 92 0 0 127;
#X obj 79 336 s \$0-LPX;
#X obj 123 291 s \$0-LPX;
#X obj 204 338 s \$0-LPX;
#X obj 248 293 s \$0-LPX;
#X msg 125 272 rgb 93 0 0 127;
#X msg 80 311 rgb 93 127 0 0;
#X msg 251 274 rgb 94 0 0 127;
#X msg 203 313 rgb 94 127 0 0;
#X obj 160 248 s \$0-LPX;
#X obj 204 203 s \$0-LPX;
#X obj 285 250 s \$0-LPX;
#X obj 329 205 s \$0-LPX;
#X obj 229 161 s \$0-LPX;
#X obj 273 116 s \$0-LPX;
#X obj 354 163 s \$0-LPX;
#X obj 398 118 s \$0-LPX;
#X msg 160 223 rgb 95 127 0 0;
#X msg 206 184 rgb 95 0 0 127;
#X msg 230 136 rgb 97 127 0 0;
#X msg 275 97 rgb 97 0 0 127;
#X msg 401 99 rgb 98 0 0 127;
#X msg 353 138 rgb 98 127 0 0;
#X msg 331 186 rgb 96 0 0 127;
#X msg 285 225 rgb 96 127 0 0;
#X text 7 2 Make the top row of buttons flash in sequence;
#X floatatom 101 55 5 0 0 0 - - -;
#X connect 0 0 1 0;
#X connect 0 0 35 0;
#X connect 1 0 3 0;
#X connect 1 0 30 0;
#X connect 1 1 5 0;
#X connect 1 1 8 0;
#X connect 1 2 9 0;
#X connect 1 2 15 0;
#X connect 1 3 14 0;
#X connect 1 3 17 0;
#X connect 1 4 16 0;
#X connect 1 4 26 0;
#X connect 1 5 33 0;
#X connect 1 5 27 0;
#X connect 1 6 32 0;
#X connect 1 6 28 0;
#X connect 1 7 31 0;
#X connect 1 7 29 0;
#X connect 3 0 2 0;
#X connect 5 0 4 0;
#X connect 8 0 6 0;
#X connect 9 0 7 0;
#X connect 14 0 11 0;
#X connect 15 0 10 0;
#X connect 16 0 13 0;
#X connect 17 0 12 0;
#X connect 26 0 18 0;
#X connect 27 0 19 0;
#X connect 28 0 22 0;
#X connect 29 0 23 0;
#X connect 30 0 25 0;
#X connect 31 0 24 0;
#X connect 32 0 21 0;
#X connect 33 0 20 0;
#X restore 37 270 pd guide_lights;
#X obj 29 28 loadbang;
#X obj 208 299 select 0 1 2 3 4 5 6 7, f 23;
#X obj 213 340 WTSButtons64, f 20;
#X obj 213 391 bng 15 250 50 0 empty empty empty 17 7 0 10 -262144
-1 -1;
#X obj 232 391 bng 15 250 50 0 empty empty empty 17 7 0 10 -262144
-1 -1;
#X obj 252 391 bng 15 250 50 0 empty empty empty 17 7 0 10 -262144
-1 -1;
#X obj 271 391 bng 15 250 50 0 empty empty empty 17 7 0 10 -262144
-1 -1;
#X obj 330 391 bng 15 250 50 0 empty empty empty 17 7 0 10 -262144
-1 -1;
#X obj 291 391 bng 15 250 50 0 empty empty empty 17 7 0 10 -262144
-1 -1;
#X obj 310 391 bng 15 250 50 0 empty empty empty 17 7 0 10 -262144
-1 -1;
#X obj 350 391 bng 15 250 50 0 empty empty empty 17 7 0 10 -262144
-1 -1;
#N canvas 355 114 732 587 sampler_1 0;
#X obj 229 8 r \$0-sampler_1_fn;
#N canvas 0 50 450 250 (subpatch) 0;
#X array sound_data 504089 float 2;
#X coords 0 1 504089 -1 200 140 1;
#X restore 288 507 graph;
#X msg 229 44 read -resize \$1 sound_data;
#X obj 229 69 soundfiler;
#X obj 296 97 print;
#X floatatom 130 206 15 0 0 0 - - -;
#X obj 55 544 tabread4~ sound_data;
#X obj 8 50 s \$0-sampler_1_fn;
#X obj 8 4 bng 15 250 50 0 empty empty empty 17 7 0 10 -262144 -1 -1
;
#X obj 8 24 openpanel;
#X obj 289 263 expr 48000 / $f1;
#X obj 130 230 s sample_size;
#X obj 195 386 phasor~;
#X floatatom 289 286 5 0 0 0 - - -;
#X obj 195 444 *~;
#X obj 213 411 r sample_size;
#X obj 65 625 *~;
#X obj 118 625 *~;
#X obj 227 502 vsl 15 128 0.01 1 0 0 empty empty empty 0 -9 0 10 -262144
-1 -1 10800 1;
#X floatatom 227 638 5 0 0 0 - - -;
#X obj 80 661 dac~;
#X obj 405 379 tgl 15 0 empty empty empty 17 7 0 10 -262144 -1 -1 1
1;
#X obj 405 399 metro 50;
#X obj 405 424 snapshot~;
#X obj 559 509 /;
#X obj 559 449 r sample_size;
#X obj 291 654 hsl 196 15 0 1 0 0 empty empty empty -2 -8 0 10 -262144
-1 -1 0 1;
#X obj 250 341 hsl 128 15 -1 1 0 0 empty empty empty -2 -8 0 10 -262144
-1 -1 6955 1;
#X floatatom 247 361 5 0 0 0 - - -;
#X text 289 361 Playback speed;
#X msg 77 300 0;
#X msg 28 300 0;
#X text 103 301 Rewind;
#X obj 37 118 bng 15 250 50 0 empty empty Stop 17 7 0 10 -262144 -1
-1;
#X obj 37 258 t b b;
#X obj 98 118 bng 15 250 50 0 empty empty Start 17 7 0 10 -262144 -1
-1;
#X obj 477 54 r sample_size;
#X floatatom 477 104 5 0 0 0 - - -;
#X obj 475 159 line~;
#X msg 472 129 1 \$1;
#X obj 478 80 / 48;
#X obj 130 181 array size sound_data;
#X obj 98 155 t a;
#X obj 289 229 r sample_size;
#X connect 0 0 2 0;
#X connect 2 0 3 0;
#X connect 3 1 4 0;
#X connect 5 0 11 0;
#X connect 6 0 16 0;
#X connect 6 0 17 0;
#X connect 8 0 9 0;
#X connect 9 0 7 0;
#X connect 10 0 13 0;
#X connect 12 0 14 0;
#X connect 13 0 27 0;
#X connect 14 0 6 0;
#X connect 14 0 23 0;
#X connect 15 0 14 1;
#X connect 16 0 20 0;
#X connect 17 0 20 1;
#X connect 18 0 19 0;
#X connect 18 0 17 1;
#X connect 18 0 16 1;
#X connect 21 0 22 0;
#X connect 22 0 23 0;
#X connect 23 0 24 0;
#X connect 24 0 26 0;
#X connect 25 0 24 1;
#X connect 27 0 28 0;
#X connect 28 0 12 0;
#X connect 30 0 12 1;
#X connect 31 0 12 0;
#X connect 33 0 34 0;
#X connect 34 0 30 0;
#X connect 34 1 31 0;
#X connect 35 0 42 0;
#X connect 36 0 40 0;
#X connect 37 0 39 0;
#X connect 39 0 38 0;
#X connect 40 0 37 0;
#X connect 41 0 5 0;
#X connect 42 0 41 0;
#X connect 43 0 10 0;
#X restore 306 444 pd sampler_1;
#X obj 417 244 s \$0-sampler_1_fn;
#X obj 409 60 bng 15 250 50 0 empty empty empty 17 7 0 10 -262144 -1
-1;
#X obj 409 80 openpanel;
#X connect 0 0 2 0;
#X connect 1 0 9 0;
#X connect 2 0 3 0;
#X connect 2 0 4 0;
#X connect 3 0 2 1;
#X connect 4 0 8 0;
#X connect 5 0 7 0;
#X connect 6 0 2 1;
#X connect 7 0 10 0;
#X connect 8 0 5 0;
#X connect 9 0 0 0;
#X connect 10 0 14 0;
#X connect 10 0 16 0;
#X connect 11 0 13 0;
#X connect 12 0 9 1;
#X connect 13 0 12 0;
#X connect 15 0 1 0;
#X connect 16 0 17 0;
#X connect 16 1 17 1;
#X connect 16 2 17 2;
#X connect 16 3 17 3;
#X connect 16 4 17 4;
#X connect 16 5 17 5;
#X connect 16 6 17 6;
#X connect 16 7 17 7;
#X connect 17 0 18 0;
#X connect 17 1 19 0;
#X connect 17 2 20 0;
#X connect 17 3 21 0;
#X connect 17 4 23 0;
#X connect 17 5 24 0;
#X connect 17 6 22 0;
#X connect 17 7 25 0;
#X connect 28 0 29 0;
#X connect 29 0 27 0;
