#N canvas 90 121 679 514 12;
#X obj 17 132 metro;
#X obj 48 4 loadbang;
#X msg 55 24 120;
#X obj 51 54 hsl 64 10 0 280 0 0 empty empty tempo 4 4 0 10 -228856
-258113 -1 2700 1;
#X obj 17 157 bng 15 250 50 0 empty empty empty 17 7 0 10 -262144 -1
-1;
#X obj 49 112 expr 1000/($f1/60);
#X obj 17 112 tgl 15 0 empty empty empty 17 7 0 10 -262144 -1 -1 1
1;
#X obj 17 177 float;
#X obj 84 199 + 1;
#X floatatom 17 202 5 0 0 0 - - -;
#X floatatom 17 251 5 0 0 0 - - -;
#X msg 60 171 1;
#X obj 17 275 hradio 16 1 0 8 empty empty empty 0 -8 0 10 -262144 -1
-1 7;
#X obj 854 1082 WTSMidiElement;
#X obj 971 1082 WTSMidiElement;
#X obj 1097 1082 WTSMidiElement;
#X obj 1218 1082 WTSMidiElement;
#X floatatom 854 1262 5 0 0 0 - - -;
#X floatatom 971 1262 5 0 0 0 - - -;
#X floatatom 1097 1262 5 0 0 0 - - -;
#X floatatom 1218 1262 5 0 0 0 - - -;
#X floatatom 916 1260 5 0 0 0 - - -;
#X floatatom 1035 1260 5 0 0 0 - - -;
#X floatatom 1163 1260 5 0 0 0 - - -;
#X floatatom 1285 1260 5 0 0 0 - - -;
#X obj 850 1371 WTSBobEnv01;
#X obj 1212 1721 output~;
#X text 12 1081 Bottom;
#X obj 1211 1371 WTSBobEnv01;
#X obj 17 296 s \$0_select;
#X obj 17 226 mod 8;
#X obj 1219 521 bng 15 250 50 0 empty \$0-mdel7 empty 17 7 0 10 -262144
-1 -1;
#N canvas 20 115 1258 453 MidiElements 0;
#X obj 293 10 WTSMidiElement;
#X floatatom 294 190 5 0 0 0 - - -;
#X obj 277 250 f;
#X obj 414 11 WTSMidiElement;
#X floatatom 414 191 5 0 0 0 - - -;
#X obj 1219 198 bng 15 250 50 0 empty \$0-mdel7 empty 17 7 0 10 -262144
-1 -1;
#X obj 490 335 mtof;
#X obj 397 242 f;
#X obj 543 13 WTSMidiElement;
#X floatatom 543 193 5 0 0 0 - - -;
#X obj 524 249 f;
#X obj 651 13 WTSMidiElement;
#X floatatom 651 193 5 0 0 0 - - -;
#X obj 653 241 f;
#X floatatom 504 362 5 0 0 0 - - -;
#X obj 774 13 WTSMidiElement;
#X floatatom 774 197 5 0 0 0 - - -;
#X obj 774 256 f;
#X obj 895 14 WTSMidiElement;
#X floatatom 895 194 5 0 0 0 - - -;
#X obj 876 267 f;
#X obj 1024 16 WTSMidiElement;
#X floatatom 1024 196 5 0 0 0 - - -;
#X obj 1025 243 f;
#X obj 1132 16 WTSMidiElement;
#X floatatom 1132 196 5 0 0 0 - - -;
#X obj 1114 269 f;
#X obj 876 239 r \$0-mdel5;
#X obj 1025 217 r \$0-mdel6;
#X obj 774 230 r \$0-mdel4;
#X obj 653 216 r \$0-mdel3;
#X obj 524 221 r \$0-mdel2;
#X obj 398 217 r \$0-mdel1;
#X obj 277 215 r \$0-mdel0;
#X obj 1114 240 r \$0-mdel7;
#X obj 1110 196 bng 15 250 50 0 empty \$0-mdel6 empty 17 7 0 10 -262144
-1 -1;
#X obj 980 197 bng 15 250 50 0 empty \$0-mdel5 empty 17 7 0 10 -262144
-1 -1;
#X obj 862 195 bng 15 250 50 0 empty \$0-mdel4 empty 17 7 0 10 -262144
-1 -1;
#X obj 738 192 bng 15 250 50 0 empty \$0-mdel3 empty 17 7 0 10 -262144
-1 -1;
#X obj 631 192 bng 15 250 50 0 empty \$0-mdel2 empty 17 7 0 10 -262144
-1 -1;
#X obj 335 194 bng 15 250 50 0 empty \$0-mdel0 empty 17 7 0 10 -262144
-1 -1;
#X obj 501 191 bng 15 250 50 0 empty \$0-mdel1 empty 17 7 0 10 -262144
-1 -1;
#X obj 490 389 outlet frequency;
#X obj 324 -47 loadbang;
#X msg 324 -23 -2;
#X obj 445 -51 loadbang;
#X msg 445 -25 -2;
#X obj 574 -52 loadbang;
#X msg 574 -27 -2;
#X obj 682 -56 loadbang;
#X msg 682 -31 -2;
#X obj 805 -54 loadbang;
#X msg 805 -29 -2;
#X obj 926 -53 loadbang;
#X msg 926 -28 -2;
#X obj 1055 -54 loadbang;
#X msg 1055 -29 -2;
#X obj 1163 -53 loadbang;
#X msg 1163 -28 -2;
#X msg 1020 -29 7;
#X msg 293 -23 5;
#X msg 414 -26 7;
#X msg 543 -27 4;
#X msg 651 -31 3;
#X msg 774 -30 7;
#X msg 1132 -25 8;
#X msg 889 -28 5;
#X obj 9 13 r \$0_select;
#X obj 9 43 select 0 1 2 3 4 5 6 7;
#X obj 103 168 s \$0-mdel5;
#X obj 123 148 s \$0-mdel6;
#X obj 84 192 s \$0-mdel4;
#X obj 65 212 s \$0-mdel3;
#X obj 46 232 s \$0-mdel2;
#X obj 27 257 s \$0-mdel1;
#X obj 9 278 s \$0-mdel0;
#X obj 140 124 s \$0-mdel7;
#X connect 0 0 1 0;
#X connect 1 0 2 1;
#X connect 2 0 6 0;
#X connect 3 0 4 0;
#X connect 4 0 7 1;
#X connect 6 0 14 0;
#X connect 6 0 42 0;
#X connect 7 0 6 0;
#X connect 8 0 9 0;
#X connect 9 0 10 1;
#X connect 10 0 6 0;
#X connect 11 0 12 0;
#X connect 12 0 13 1;
#X connect 13 0 6 0;
#X connect 15 0 16 0;
#X connect 16 0 17 1;
#X connect 17 0 6 0;
#X connect 18 0 19 0;
#X connect 19 0 20 1;
#X connect 20 0 6 0;
#X connect 21 0 22 0;
#X connect 22 0 23 1;
#X connect 23 0 6 0;
#X connect 24 0 25 0;
#X connect 25 0 26 1;
#X connect 26 0 6 0;
#X connect 27 0 20 0;
#X connect 28 0 23 0;
#X connect 29 0 17 0;
#X connect 30 0 13 0;
#X connect 31 0 10 0;
#X connect 32 0 7 0;
#X connect 33 0 2 0;
#X connect 34 0 26 0;
#X connect 43 0 44 0;
#X connect 43 0 60 0;
#X connect 44 0 0 1;
#X connect 45 0 46 0;
#X connect 45 0 61 0;
#X connect 46 0 3 1;
#X connect 47 0 48 0;
#X connect 47 0 62 0;
#X connect 48 0 8 1;
#X connect 49 0 50 0;
#X connect 49 0 63 0;
#X connect 50 0 11 1;
#X connect 51 0 52 0;
#X connect 51 0 64 0;
#X connect 52 0 15 1;
#X connect 53 0 54 0;
#X connect 53 0 66 0;
#X connect 54 0 18 1;
#X connect 55 0 56 0;
#X connect 55 0 59 0;
#X connect 56 0 21 1;
#X connect 57 0 58 0;
#X connect 57 0 65 0;
#X connect 58 0 24 1;
#X connect 59 0 21 0;
#X connect 60 0 0 0;
#X connect 61 0 3 0;
#X connect 62 0 8 0;
#X connect 63 0 11 0;
#X connect 64 0 15 0;
#X connect 65 0 24 0;
#X connect 66 0 18 0;
#X connect 67 0 68 0;
#X connect 68 0 75 0;
#X connect 68 1 74 0;
#X connect 68 2 73 0;
#X connect 68 3 72 0;
#X connect 68 4 71 0;
#X connect 68 5 69 0;
#X connect 68 6 70 0;
#X connect 68 7 76 0;
#X restore 238 269 pd MidiElements;
#N canvas 442 153 831 465 SynthMoogish~ 0;
#X obj -77 72 WTSBob~;
#X floatatom -77 38 5 0 0 0 - - -;
#X obj -81 353 outlet~;
#X obj -77 5 inlet Frequency;
#X connect 0 0 2 0;
#X connect 1 0 0 0;
#X connect 3 0 1 0;
#X restore 238 304 pd SynthMoogish~;
#X obj 239 332 WTSOutput~;
#X obj 339 234 dac~;
#X obj 339 203 *~ 0.9;
#N canvas 499 222 532 451 DrumElements 0;
#X obj 9 13 r \$0_select;
#X floatatom 9 38 5 0 0 0 - - -;
#X obj 9 199 WTSDrum4~;
#X obj 9 79 select 0 1 2 3 4 5 6 7;
#X obj 9 183 bng 15 250 50 0 empty empty empty 17 7 0 10 -262144 -1
-1;
#X obj 73 419 outlet~;
#X obj 56 201 WTSDrum4~;
#X obj 56 185 bng 15 250 50 0 empty empty empty 17 7 0 10 -262144 -1
-1;
#X obj 106 204 WTSDrum4~;
#X obj 106 188 bng 15 250 50 0 empty empty empty 17 7 0 10 -262144
-1 -1;
#X obj 152 207 WTSDrum4~;
#X obj 152 191 bng 15 250 50 0 empty empty empty 17 7 0 10 -262144
-1 -1;
#X obj 200 211 WTSDrum4~;
#X obj 200 195 bng 15 250 50 0 empty empty empty 17 7 0 10 -262144
-1 -1;
#X obj 250 212 WTSDrum4~;
#X obj 250 196 bng 15 250 50 0 empty empty empty 17 7 0 10 -262144
-1 -1;
#X obj 302 219 WTSDrum4~;
#X obj 302 203 bng 15 250 50 0 empty empty empty 17 7 0 10 -262144
-1 -1;
#X obj 359 220 WTSDrum4~;
#X obj 359 204 bng 15 250 50 0 empty empty empty 17 7 0 10 -262144
-1 -1;
#X connect 0 0 1 0;
#X connect 1 0 3 0;
#X connect 2 0 5 0;
#X connect 3 0 4 0;
#X connect 3 1 7 0;
#X connect 3 2 9 0;
#X connect 3 3 11 0;
#X connect 3 4 13 0;
#X connect 3 5 15 0;
#X connect 3 6 17 0;
#X connect 3 7 19 0;
#X connect 4 0 2 0;
#X connect 6 0 5 0;
#X connect 7 0 6 0;
#X connect 8 0 5 0;
#X connect 9 0 8 0;
#X connect 10 0 5 0;
#X connect 11 0 10 0;
#X connect 12 0 5 0;
#X connect 13 0 12 0;
#X connect 14 0 5 0;
#X connect 15 0 14 0;
#X connect 16 0 5 0;
#X connect 17 0 16 0;
#X connect 18 0 5 0;
#X connect 19 0 18 0;
#X restore 338 164 pd DrumElements;
#X connect 0 0 4 0;
#X connect 1 0 2 0;
#X connect 1 0 6 0;
#X connect 2 0 3 0;
#X connect 3 0 5 0;
#X connect 4 0 7 0;
#X connect 5 0 0 1;
#X connect 6 0 0 0;
#X connect 7 0 8 0;
#X connect 7 0 9 0;
#X connect 8 0 7 1;
#X connect 9 0 30 0;
#X connect 10 0 12 0;
#X connect 11 0 7 1;
#X connect 12 0 29 0;
#X connect 13 0 17 0;
#X connect 13 1 21 0;
#X connect 14 0 18 0;
#X connect 14 1 22 0;
#X connect 15 0 19 0;
#X connect 15 1 23 0;
#X connect 16 0 20 0;
#X connect 16 1 24 0;
#X connect 17 0 25 0;
#X connect 19 0 28 0;
#X connect 21 0 25 1;
#X connect 23 0 28 1;
#X connect 25 0 26 0;
#X connect 25 0 26 1;
#X connect 28 0 26 0;
#X connect 28 0 26 1;
#X connect 30 0 10 0;
#X connect 32 0 33 0;
#X connect 33 0 34 0;
#X connect 36 0 35 0;
#X connect 36 0 35 1;
#X connect 37 0 36 0;
