#N canvas 42 92 1235 561 12;
#X obj 39 134 bng 15 250 50 0 empty empty empty 17 7 0 10 -262144 -1
-1;
#X obj 39 89 tgl 15 0 empty empty empty 17 7 0 10 -262144 -1 -1 1 1
;
#X obj 39 154 float;
#X obj 106 176 + 1;
#X floatatom 39 179 5 0 0 0 - - -;
#X floatatom 39 228 5 0 0 0 - - -;
#X msg 82 148 1;
#X obj 39 252 hradio 16 1 0 8 empty empty empty 0 -8 0 10 -262144 -1
-1 0;
#X obj 39 203 mod 8;
#X obj 40 110 metro 500;
#X floatatom 39 269 5 0 0 0 - - -;
#X obj 103 45 hsl 128 15 60 300 0 0 empty empty BPM 5 -8 0 10 -262144
-1 -1 6350 1;
#X obj 100 81 expr 60000/$f1;
#X floatatom 100 59 5 0 0 0 - - -;
#N canvas 280 127 586 513 guide_lights 0;
#X obj 37 37 inlet;
#X obj 35 75 select 0 1 2 3 4 5 6 7;
#X obj 10 423 s \$0-LPX;
#X msg 10 398 rgb 91 127 0 0;
#X obj 54 378 s \$0-LPX;
#X msg 56 359 rgb 91 0 0 127;
#X obj 135 425 s \$0-LPX;
#X obj 179 380 s \$0-LPX;
#X msg 135 400 rgb 92 127 0 0;
#X msg 181 361 rgb 92 0 0 127;
#X obj 79 336 s \$0-LPX;
#X obj 123 291 s \$0-LPX;
#X obj 204 338 s \$0-LPX;
#X obj 248 293 s \$0-LPX;
#X msg 125 272 rgb 93 0 0 127;
#X msg 80 311 rgb 93 127 0 0;
#X msg 251 274 rgb 94 0 0 127;
#X msg 203 313 rgb 94 127 0 0;
#X obj 160 248 s \$0-LPX;
#X obj 204 203 s \$0-LPX;
#X obj 285 250 s \$0-LPX;
#X obj 329 205 s \$0-LPX;
#X obj 229 161 s \$0-LPX;
#X obj 273 116 s \$0-LPX;
#X obj 354 163 s \$0-LPX;
#X obj 398 118 s \$0-LPX;
#X msg 160 223 rgb 95 127 0 0;
#X msg 206 184 rgb 95 0 0 127;
#X msg 230 136 rgb 97 127 0 0;
#X msg 275 97 rgb 97 0 0 127;
#X msg 401 99 rgb 98 0 0 127;
#X msg 353 138 rgb 98 127 0 0;
#X msg 331 186 rgb 96 0 0 127;
#X msg 285 225 rgb 96 127 0 0;
#X text 7 2 Make the top row of buttons flash in sequence;
#X floatatom 101 55 5 0 0 0 - - -;
#X connect 0 0 1 0;
#X connect 0 0 35 0;
#X connect 1 0 3 0;
#X connect 1 0 30 0;
#X connect 1 1 5 0;
#X connect 1 1 8 0;
#X connect 1 2 9 0;
#X connect 1 2 15 0;
#X connect 1 3 14 0;
#X connect 1 3 17 0;
#X connect 1 4 16 0;
#X connect 1 4 26 0;
#X connect 1 5 33 0;
#X connect 1 5 27 0;
#X connect 1 6 32 0;
#X connect 1 6 28 0;
#X connect 1 7 31 0;
#X connect 1 7 29 0;
#X connect 3 0 2 0;
#X connect 5 0 4 0;
#X connect 8 0 6 0;
#X connect 9 0 7 0;
#X connect 14 0 11 0;
#X connect 15 0 10 0;
#X connect 16 0 13 0;
#X connect 17 0 12 0;
#X connect 26 0 18 0;
#X connect 27 0 19 0;
#X connect 28 0 22 0;
#X connect 29 0 23 0;
#X connect 30 0 25 0;
#X connect 31 0 24 0;
#X connect 32 0 21 0;
#X connect 33 0 20 0;
#X restore 52 424 pd guide_lights;
#X obj 22 2 loadbang;
#X obj 210 95 select 0 1 2 3 4 5 6 7, f 23;
#X obj 285 457 bng 15 250 50 0 empty empty empty 17 7 0 10 -262144
-1 -1;
#X obj 304 457 bng 15 250 50 0 empty empty empty 17 7 0 10 -262144
-1 -1;
#X obj 324 457 bng 15 250 50 0 empty empty empty 17 7 0 10 -262144
-1 -1;
#X obj 343 457 bng 15 250 50 0 empty empty empty 17 7 0 10 -262144
-1 -1;
#X obj 402 457 bng 15 250 50 0 empty empty empty 17 7 0 10 -262144
-1 -1;
#X obj 363 457 bng 15 250 50 0 empty empty empty 17 7 0 10 -262144
-1 -1;
#X obj 382 457 bng 15 250 50 0 empty empty empty 17 7 0 10 -262144
-1 -1;
#X obj 422 457 bng 15 250 50 0 empty empty empty 17 7 0 10 -262144
-1 -1;
#N canvas 0 62 1280 658 sampler_2 0;
#X obj 503 238 r \$0-sampler_2_fn;
#N canvas 0 50 450 250 (subpatch) 0;
#X array sound_2_data 12162 float 2;
#X coords 0 1 12162 -1 200 140 1 0 0;
#X restore 262 399 graph;
#X msg 503 265 read -resize \$1 sound_2_data;
#X obj 503 290 soundfiler;
#X floatatom 104 98 15 0 0 0 - - -;
#X obj 29 436 tabread4~ sound_2_data;
#X obj 104 122 s sample_2_size;
#X obj 169 336 *~;
#X obj 187 303 r sample_2_size;
#X obj 379 271 tgl 15 0 empty empty empty 17 7 0 10 -262144 -1 -1 1
1;
#X obj 379 291 metro 50;
#X obj 379 316 snapshot~;
#X obj 533 401 /;
#X obj 533 341 r sample_2_size;
#X obj 265 546 hsl 196 15 0 1 0 0 empty empty empty -2 -8 0 10 -262144
-1 -1 19500 1;
#X obj 72 10 bng 15 250 50 0 empty empty Start 17 7 0 10 -262144 -1
-1;
#X obj 468 79 r sample_2_size;
#X floatatom 468 129 15 0 0 0 - - -;
#X obj 466 184 line~;
#X msg 463 154 1 \$1;
#X obj 104 73 array size sound_2_data;
#X obj 405 269 loadbang;
#X floatatom 379 341 14 0 0 0 - - -;
#X msg 339 32 0;
#X obj 72 47 t b b;
#X obj 147 9 inlet;
#X obj 29 461 outlet~;
#X obj 469 105 / 48;
#X connect 0 0 2 0;
#X connect 2 0 3 0;
#X connect 4 0 6 0;
#X connect 5 0 26 0;
#X connect 7 0 5 0;
#X connect 7 0 11 0;
#X connect 8 0 7 1;
#X connect 9 0 10 0;
#X connect 10 0 11 0;
#X connect 11 0 12 0;
#X connect 11 0 22 0;
#X connect 12 0 14 0;
#X connect 13 0 12 1;
#X connect 15 0 24 0;
#X connect 16 0 27 0;
#X connect 17 0 19 0;
#X connect 18 0 7 0;
#X connect 19 0 18 0;
#X connect 20 0 4 0;
#X connect 21 0 9 0;
#X connect 23 0 18 0;
#X connect 24 0 20 0;
#X connect 24 1 23 0;
#X connect 25 0 24 0;
#X connect 27 0 17 0;
#X restore 304 756 pd sampler_2;
#X obj 587 88 bng 15 250 50 0 empty empty empty 17 7 0 10 -262144 -1
-1;
#X obj 616 72 openpanel;
#X obj 615 96 s \$0-sampler_2_fn;
#X obj 304 778 throw~ dac;
#X obj 731 678 catch~ dac;
#X obj 732 748 dac~;
#X obj 324 732 throw~ dac;
#N canvas 36 153 657 494 sampler_3 0;
#N canvas 0 50 450 250 (subpatch) 0;
#X array sound_3_data 49580 float 2;
#X coords 0 1 49580 -1 200 140 1 0 0;
#X restore 144 298 graph;
#X msg 438 178 read -resize \$1 sound_3_data;
#X obj 438 203 soundfiler;
#X floatatom 5 158 15 0 0 0 - - -;
#X obj 6 218 tabread4~ sound_3_data;
#X obj 5 182 s sample_3_size;
#X obj 179 180 *~;
#X obj 197 155 r sample_3_size;
#X obj 314 184 tgl 15 0 empty empty empty 17 7 0 10 -262144 -1 -1 1
1;
#X obj 314 204 metro 50;
#X obj 314 229 snapshot~;
#X obj 533 401 /;
#X obj 468 254 r sample_3_size;
#X obj 147 438 hsl 196 15 0 1 0 0 empty empty empty -2 -8 0 10 -262144
-1 -1 19500 1;
#X obj 72 10 bng 15 250 50 0 empty empty Start 17 7 0 10 -262144 -1
-1;
#X obj 196 9 r sample_3_size;
#X floatatom 196 59 15 0 0 0 - - -;
#X obj 180 133 line~;
#X msg 191 84 1 \$1;
#X obj 197 35 / 48;
#X obj 5 133 array size sound_3_data;
#X obj 340 182 loadbang;
#X floatatom 314 254 14 0 0 0 - - -;
#X msg 152 105 0;
#X obj 72 47 t b b;
#X obj 147 9 inlet;
#X obj 6 243 outlet~;
#X obj 438 151 r \$0-sampler_3_fn;
#X connect 1 0 2 0;
#X connect 3 0 5 0;
#X connect 4 0 26 0;
#X connect 6 0 4 0;
#X connect 6 0 10 0;
#X connect 7 0 6 1;
#X connect 8 0 9 0;
#X connect 9 0 10 0;
#X connect 10 0 11 0;
#X connect 10 0 22 0;
#X connect 11 0 13 0;
#X connect 12 0 11 1;
#X connect 14 0 24 0;
#X connect 15 0 19 0;
#X connect 16 0 18 0;
#X connect 17 0 6 0;
#X connect 18 0 17 0;
#X connect 19 0 16 0;
#X connect 20 0 3 0;
#X connect 21 0 8 0;
#X connect 23 0 17 0;
#X connect 24 0 20 0;
#X connect 24 1 23 0;
#X connect 25 0 24 0;
#X connect 27 0 1 0;
#X restore 324 710 pd sampler_3;
#X obj 592 156 bng 15 250 50 0 empty empty empty 17 7 0 10 -262144
-1 -1;
#X obj 621 140 openpanel;
#X obj 620 164 s \$0-sampler_3_fn;
#X obj 39 293 s sequence;
#X obj 210 67 r sequence;
#N canvas 95 351 450 300 sampler_4 0;
#N canvas 0 50 450 250 (subpatch) 0;
#X array sound_4_data 49580 float 2;
#X coords 0 1 49580 -1 200 140 1 0 0;
#X restore 144 298 graph;
#X msg 438 178 read -resize \$1 sound_4_data;
#X obj 438 203 soundfiler;
#X floatatom 5 158 15 0 0 0 - - -;
#X obj 6 218 tabread4~ sound_4_data;
#X obj 5 182 s sample_4_size;
#X obj 179 180 *~;
#X obj 197 155 r sample_4_size;
#X obj 314 184 tgl 15 0 empty empty empty 17 7 0 10 -262144 -1 -1 1
1;
#X obj 314 204 metro 50;
#X obj 314 229 snapshot~;
#X obj 533 401 /;
#X obj 468 254 r sample_4_size;
#X obj 147 438 hsl 196 15 0 1 0 0 empty empty empty -2 -8 0 10 -262144
-1 -1 19500 1;
#X obj 72 10 bng 15 250 50 0 empty empty Start 17 7 0 10 -262144 -1
-1;
#X obj 196 9 r sample_4_size;
#X floatatom 196 59 15 0 0 0 - - -;
#X obj 180 133 line~;
#X msg 191 84 1 \$1;
#X obj 197 35 / 48;
#X obj 5 133 array size sound_4_data;
#X obj 340 182 loadbang;
#X floatatom 314 254 14 0 0 0 - - -;
#X msg 152 105 0;
#X obj 72 47 t b b;
#X obj 147 9 inlet;
#X obj 6 243 outlet~;
#X obj 438 151 r \$0-sampler_4_fn;
#X connect 1 0 2 0;
#X connect 3 0 5 0;
#X connect 4 0 26 0;
#X connect 6 0 4 0;
#X connect 6 0 10 0;
#X connect 7 0 6 1;
#X connect 8 0 9 0;
#X connect 9 0 10 0;
#X connect 10 0 11 0;
#X connect 10 0 22 0;
#X connect 11 0 13 0;
#X connect 12 0 11 1;
#X connect 14 0 24 0;
#X connect 15 0 19 0;
#X connect 16 0 18 0;
#X connect 17 0 6 0;
#X connect 18 0 17 0;
#X connect 19 0 16 0;
#X connect 20 0 3 0;
#X connect 21 0 8 0;
#X connect 23 0 17 0;
#X connect 24 0 20 0;
#X connect 24 1 23 0;
#X connect 25 0 24 0;
#X connect 27 0 1 0;
#X restore 343 663 pd sampler_4;
#X obj 344 686 throw~ dac;
#X msg 694 141 set \$1;
#X msg 758 140 /home/patch/Documents/Pd/samples/Piano_G.wav, f 40
;
#X msg 693 71 set \$1;
#X msg 757 70 /home/patch/Documents/Pd/samples/Unfuck/Gasp.wav, f
40;
#X obj 632 645 list 240 0 32 41 2 12 14 1;
#X obj 632 670 midiout;
#X obj 629 616 bng 15 250 50 0 empty empty empty 17 7 0 10 -262144
-1 -1;
#X obj 777 748 *~;
#X obj 690 745 *~;
#X obj 860 653 vsl 8 50 0 1 0 0 empty empty empty 0 -9 0 10 -262144
-1 -1 3675 1;
#X obj 591 225 bng 15 250 50 0 empty empty empty 17 7 0 10 -262144
-1 -1;
#X obj 620 209 openpanel;
#X msg 693 210 set \$1;
#X msg 757 209 /home/patch/Documents/Pd/samples/A_Piece_of_Shitb.wav
, f 40;
#X obj 619 233 s \$0-sampler_4_fn;
#X obj 592 292 bng 15 250 50 0 empty empty empty 17 7 0 10 -262144
-1 -1;
#X obj 621 276 openpanel;
#X msg 694 277 set \$1;
#X msg 758 276 /home/patch/Documents/Pd/samples/Unfuck/Gasp.wav, f
40;
#X obj 620 300 s \$0-sampler_5_fn;
#X obj 364 640 throw~ dac;
#N canvas 95 156 700 495 sampler_5 0;
#N canvas 0 50 450 250 (subpatch) 0;
#X array sound_5_data 12162 float 2;
#X coords 0 1 12162 -1 200 140 1 0 0;
#X restore 144 298 graph;
#X msg 438 178 read -resize \$1 sound_5_data;
#X obj 438 203 soundfiler;
#X floatatom 5 158 15 0 0 0 - - -;
#X obj 6 218 tabread4~ sound_5_data;
#X obj 5 182 s sample_5_size;
#X obj 179 180 *~;
#X obj 197 155 r sample_5_size;
#X obj 314 184 tgl 15 0 empty empty empty 17 7 0 10 -262144 -1 -1 1
1;
#X obj 314 204 metro 50;
#X obj 314 229 snapshot~;
#X obj 533 401 /;
#X obj 468 254 r sample_5_size;
#X obj 147 438 hsl 196 15 0 1 0 0 empty empty empty -2 -8 0 10 -262144
-1 -1 19500 1;
#X obj 72 10 bng 15 250 50 0 empty empty Start 17 7 0 10 -262144 -1
-1;
#X obj 196 9 r sample_5_size;
#X floatatom 196 59 15 0 0 0 - - -;
#X obj 180 133 line~;
#X msg 191 84 1 \$1;
#X obj 197 35 / 48;
#X obj 5 133 array size sound_5_data;
#X obj 340 182 loadbang;
#X floatatom 314 254 14 0 0 0 - - -;
#X msg 152 105 0;
#X obj 72 47 t b b;
#X obj 147 9 inlet;
#X obj 6 243 outlet~;
#X obj 438 151 r \$0-sampler_5_fn;
#X connect 1 0 2 0;
#X connect 3 0 5 0;
#X connect 4 0 26 0;
#X connect 6 0 4 0;
#X connect 6 0 10 0;
#X connect 7 0 6 1;
#X connect 8 0 9 0;
#X connect 9 0 10 0;
#X connect 10 0 11 0;
#X connect 10 0 22 0;
#X connect 11 0 13 0;
#X connect 12 0 11 1;
#X connect 14 0 24 0;
#X connect 15 0 19 0;
#X connect 16 0 18 0;
#X connect 17 0 6 0;
#X connect 18 0 17 0;
#X connect 19 0 16 0;
#X connect 20 0 3 0;
#X connect 21 0 8 0;
#X connect 23 0 17 0;
#X connect 24 0 20 0;
#X connect 24 1 23 0;
#X connect 25 0 24 0;
#X connect 27 0 1 0;
#X restore 363 617 pd sampler_5;
#X obj 592 360 bng 15 250 50 0 empty empty empty 17 7 0 10 -262144
-1 -1;
#X obj 621 344 openpanel;
#X msg 694 345 set \$1;
#X msg 758 344 /home/patch/Documents/Pd/samples/Drum_01.wav, f 40
;
#X obj 620 368 s \$0-sampler_6_fn;
#X obj 381 595 throw~ dac;
#X obj 591 425 bng 15 250 50 0 empty empty empty 17 7 0 10 -262144
-1 -1;
#X obj 620 409 openpanel;
#X msg 693 410 set \$1;
#X msg 757 409 /home/patch/Documents/Pd/samples/Guitar_01wav.wav,
f 40;
#X obj 619 433 s \$0-sampler_7_fn;
#N canvas 390 213 450 300 sampler_6 0;
#N canvas 0 50 450 250 (subpatch) 0;
#X array sound_6_data 6541 float 2;
#X coords 0 1 6541 -1 200 140 1 0 0;
#X restore 144 298 graph;
#X msg 438 178 read -resize \$1 sound_6_data;
#X obj 438 203 soundfiler;
#X floatatom 5 158 15 0 0 0 - - -;
#X obj 6 218 tabread4~ sound_6_data;
#X obj 5 182 s sample_6_size;
#X obj 179 180 *~;
#X obj 197 155 r sample_6_size;
#X obj 314 184 tgl 15 0 empty empty empty 17 7 0 10 -262144 -1 -1 1
1;
#X obj 314 204 metro 50;
#X obj 314 229 snapshot~;
#X obj 533 401 /;
#X obj 468 254 r sample_6_size;
#X obj 147 438 hsl 196 15 0 1 0 0 empty empty empty -2 -8 0 10 -262144
-1 -1 19500 1;
#X obj 72 10 bng 15 250 50 0 empty empty Start 17 7 0 10 -262144 -1
-1;
#X obj 196 9 r sample_6_size;
#X floatatom 196 59 15 0 0 0 - - -;
#X obj 180 133 line~;
#X msg 191 84 1 \$1;
#X obj 197 35 / 48;
#X obj 5 133 array size sound_6_data;
#X obj 340 182 loadbang;
#X floatatom 314 254 14 0 0 0 - - -;
#X msg 152 105 0;
#X obj 72 47 t b b;
#X obj 147 9 inlet;
#X obj 6 243 outlet~;
#X obj 438 151 r \$0-sampler_6_fn;
#X connect 1 0 2 0;
#X connect 3 0 5 0;
#X connect 4 0 26 0;
#X connect 6 0 4 0;
#X connect 6 0 10 0;
#X connect 7 0 6 1;
#X connect 8 0 9 0;
#X connect 9 0 10 0;
#X connect 10 0 11 0;
#X connect 10 0 22 0;
#X connect 11 0 13 0;
#X connect 12 0 11 1;
#X connect 14 0 24 0;
#X connect 15 0 19 0;
#X connect 16 0 18 0;
#X connect 17 0 6 0;
#X connect 18 0 17 0;
#X connect 19 0 16 0;
#X connect 20 0 3 0;
#X connect 21 0 8 0;
#X connect 23 0 17 0;
#X connect 24 0 20 0;
#X connect 24 1 23 0;
#X connect 25 0 24 0;
#X connect 27 0 1 0;
#X restore 382 573 pd sampler_6;
#X obj 892 625 loadbang;
#X msg 892 650 0.75;
#X obj 215 136 WTSLaunchpadX, f 20;
#X obj 401 552 throw~ dac;
#N canvas 215 85 858 601 sampler_7 0;
#N canvas 0 50 450 250 (subpatch) 0;
#X array sound_7_data 17707 float 2;
#X coords 0 1 17707 -1 200 140 1 0 0;
#X restore 144 298 graph;
#X obj 438 203 soundfiler;
#X floatatom 5 158 15 0 0 0 - - -;
#X obj 179 180 *~;
#X obj 314 184 tgl 15 0 empty empty empty 17 7 0 10 -262144 -1 -1 1
1;
#X obj 314 204 metro 50;
#X obj 314 229 snapshot~;
#X obj 533 401 /;
#X obj 147 438 hsl 196 15 0 1 0 0 empty empty empty -2 -8 0 10 -262144
-1 -1 19500 1;
#X obj 72 10 bng 15 250 50 0 empty empty Start 17 7 0 10 -262144 -1
-1;
#X floatatom 196 59 15 0 0 0 - - -;
#X obj 180 133 line~;
#X msg 191 84 1 \$1;
#X obj 197 35 / 48;
#X obj 340 182 loadbang;
#X floatatom 314 254 14 0 0 0 - - -;
#X msg 152 105 0;
#X obj 72 47 t b b;
#X obj 147 9 inlet;
#X obj 6 243 outlet~;
#X obj 196 9 r sample_7_size;
#X obj 197 155 r sample_7_size;
#X obj 5 182 s sample_7_size;
#X obj 6 218 tabread4~ sound_7_data;
#X obj 463 259 r sample_7_size;
#X msg 438 178 read -resize \$1 sound_7_data;
#X obj 438 151 r \$0-sampler_7_fn;
#X obj 5 133 array size sound_7_data;
#X connect 2 0 22 0;
#X connect 3 0 6 0;
#X connect 3 0 23 0;
#X connect 4 0 5 0;
#X connect 5 0 6 0;
#X connect 6 0 7 0;
#X connect 6 0 15 0;
#X connect 7 0 8 0;
#X connect 9 0 17 0;
#X connect 10 0 12 0;
#X connect 11 0 3 0;
#X connect 12 0 11 0;
#X connect 13 0 10 0;
#X connect 14 0 4 0;
#X connect 16 0 11 0;
#X connect 17 0 27 0;
#X connect 17 1 16 0;
#X connect 18 0 17 0;
#X connect 20 0 13 0;
#X connect 21 0 3 1;
#X connect 23 0 19 0;
#X connect 24 0 7 1;
#X connect 25 0 1 0;
#X connect 26 0 25 0;
#X connect 27 0 2 0;
#X restore 402 526 pd sampler_7;
#X obj 590 495 bng 15 250 50 0 empty empty empty 17 7 0 10 -262144
-1 -1;
#X obj 619 479 openpanel;
#X msg 692 480 set \$1;
#X msg 756 479 /home/patch/Documents/Pd/samples/Piano_C.wav, f 40
;
#X obj 618 503 s \$0-sampler_8_fn;
#X obj 423 504 throw~ dac;
#N canvas 18 99 891 621 sampler_8 0;
#N canvas 0 50 450 250 (subpatch) 0;
#X array sound_8_data 75435 float 2;
#X coords 0 1 75435 -1 200 140 1 0 0;
#X restore 144 298 graph;
#X obj 438 203 soundfiler;
#X floatatom 5 158 15 0 0 0 - - -;
#X obj 179 180 *~;
#X obj 314 184 tgl 15 0 empty empty empty 17 7 0 10 -262144 -1 -1 1
1;
#X obj 314 204 metro 50;
#X obj 314 229 snapshot~;
#X obj 533 401 /;
#X obj 147 438 hsl 196 15 0 1 0 0 empty empty empty -2 -8 0 10 -262144
-1 -1 5164 1;
#X obj 72 10 bng 15 250 50 0 empty empty Start 17 7 0 10 -262144 -1
-1;
#X floatatom 196 59 15 0 0 0 - - -;
#X obj 180 133 line~;
#X msg 191 84 1 \$1;
#X obj 197 35 / 48;
#X obj 340 182 loadbang;
#X floatatom 314 254 14 0 0 0 - - -;
#X msg 152 105 0;
#X obj 72 47 t b b;
#X obj 147 9 inlet;
#X obj 6 243 outlet~;
#X obj 196 9 r sample_8_size;
#X obj 5 133 array size sound_8_data;
#X obj 5 182 s sample_8_size;
#X obj 6 218 tabread4~ sound_8_data;
#X obj 197 155 r sample_8_size;
#X obj 438 151 r \$0-sampler_8_fn;
#X msg 438 178 read -resize \$1 sound_8_data;
#X obj 466 261 r sample_8_size;
#X connect 2 0 22 0;
#X connect 3 0 6 0;
#X connect 3 0 23 0;
#X connect 4 0 5 0;
#X connect 5 0 6 0;
#X connect 6 0 7 0;
#X connect 6 0 15 0;
#X connect 7 0 8 0;
#X connect 9 0 17 0;
#X connect 10 0 12 0;
#X connect 11 0 3 0;
#X connect 12 0 11 0;
#X connect 13 0 10 0;
#X connect 14 0 4 0;
#X connect 16 0 11 0;
#X connect 17 0 21 0;
#X connect 17 1 16 0;
#X connect 18 0 17 0;
#X connect 20 0 13 0;
#X connect 21 0 2 0;
#X connect 23 0 19 0;
#X connect 24 0 3 1;
#X connect 25 0 26 0;
#X connect 26 0 1 0;
#X connect 27 0 7 1;
#X restore 422 481 pd sampler_8;
#X msg 100 3 180;
#X obj 588 22 bng 15 250 50 0 empty empty empty 17 7 0 10 -262144 -1
-1;
#X obj 617 6 openpanel;
#X msg 694 5 set \$1;
#X msg 758 4 /home/patch/Documents/Pd/samples/Guitar_01wav.wav, f
40;
#X obj 616 30 s \$0-sampler_1_fn;
#X obj 285 828 throw~ dac;
#N canvas 0 62 1280 658 sampler_1 0;
#N canvas 0 50 450 250 (subpatch) 0;
#X array sound_1_data 75435 float 2;
#X coords 0 1 75435 -1 200 140 1 0 0;
#X restore 262 399 graph;
#X obj 503 290 soundfiler;
#X floatatom 104 98 15 0 0 0 - - -;
#X obj 169 336 *~;
#X obj 379 271 tgl 15 0 empty empty empty 17 7 0 10 -262144 -1 -1 1
1;
#X obj 379 291 metro 50;
#X obj 379 316 snapshot~;
#X obj 533 401 /;
#X obj 265 546 hsl 196 15 0 1 0 0 empty empty empty -2 -8 0 10 -262144
-1 -1 1026 1;
#X obj 72 10 bng 15 250 50 0 empty empty Start 17 7 0 10 -262144 -1
-1;
#X floatatom 468 129 15 0 0 0 - - -;
#X obj 466 184 line~;
#X msg 463 154 1 \$1;
#X obj 405 269 loadbang;
#X floatatom 379 341 14 0 0 0 - - -;
#X msg 339 32 0;
#X obj 72 47 t b b;
#X obj 147 9 inlet;
#X obj 29 461 outlet~;
#X obj 469 105 / 48;
#X obj 104 73 array size sound_1_data;
#X obj 187 303 r sample_1_size;
#X obj 29 436 tabread4~ sound_1_data;
#X obj 533 341 r sample_1_size;
#X msg 503 265 read -resize \$1 sound_1_data;
#X obj 503 238 r \$0-sampler_1_fn;
#X obj 468 79 r sample_1_size;
#X obj 104 122 s sample_1_size;
#X connect 2 0 27 0;
#X connect 3 0 6 0;
#X connect 3 0 22 0;
#X connect 4 0 5 0;
#X connect 5 0 6 0;
#X connect 6 0 7 0;
#X connect 6 0 14 0;
#X connect 7 0 8 0;
#X connect 9 0 16 0;
#X connect 10 0 12 0;
#X connect 11 0 3 0;
#X connect 12 0 11 0;
#X connect 13 0 4 0;
#X connect 15 0 11 0;
#X connect 16 0 20 0;
#X connect 16 1 15 0;
#X connect 17 0 16 0;
#X connect 19 0 10 0;
#X connect 20 0 2 0;
#X connect 21 0 3 1;
#X connect 22 0 18 0;
#X connect 23 0 7 1;
#X connect 24 0 1 0;
#X connect 25 0 24 0;
#X connect 26 0 19 0;
#X restore 285 806 pd sampler_1;
#X obj 1155 30 bng 15 250 50 0 empty empty Save_Samples 17 7 0 10 -262144
-1 -1;
#X obj 1294 208 textfile;
#X obj 1155 50 t b b;
#X msg 1190 79 clear;
#X msg 1240 80 print;
#X obj 1149 166 r \$0-save-sample;
#X obj 928 42 s \$0-save-sample;
#X obj 758 41 pack s;
#X msg 814 43 add sample_1 \$1;
#X obj 1045 12 r \$0-ss1;
#X obj 1155 232 t b b b b b b b b b b;
#X obj 1187 430 s \$0-ss1;
#X obj 1203 408 s \$0-ss2;
#X obj 1219 385 s \$0-ss3;
#X obj 1235 362 s \$0-ss4;
#X obj 1251 339 s \$0-ss5;
#X obj 1267 316 s \$0-ss6;
#X obj 1283 293 s \$0-ss7;
#X obj 1299 270 s \$0-ss8;
#X msg 1219 143 rewind;
#X msg 1303 90 write save/samples.txt;
#X obj 927 111 s \$0-save-sample;
#X obj 757 111 pack s;
#X msg 813 111 add sample_2 \$1;
#X obj 1048 147 r \$0-ss3;
#X obj 1049 76 r \$0-ss2;
#X obj 928 183 s \$0-save-sample;
#X obj 758 183 pack s;
#X msg 814 183 add sample_3 \$1;
#X obj 1049 217 r \$0-ss4;
#X obj 927 251 s \$0-save-sample;
#X obj 757 251 pack s;
#X msg 813 251 add sample_4 \$1;
#X obj 928 316 s \$0-save-sample;
#X obj 758 316 pack s;
#X msg 814 316 add sample_5 \$1;
#X obj 1050 282 r \$0-ss5;
#X obj 1050 350 r \$0-ss6;
#X obj 928 382 s \$0-save-sample;
#X obj 758 382 pack s;
#X msg 814 382 add sample_6 \$1;
#X obj 927 448 s \$0-save-sample;
#X obj 757 448 pack s;
#X obj 1051 413 r \$0-ss7;
#X msg 813 448 add sample_7 \$1;
#X obj 926 522 s \$0-save-sample;
#X obj 756 522 pack s;
#X obj 1048 485 r \$0-ss8;
#X msg 812 522 add sample_8 \$1;
#X obj 1157 8 bng 15 250 50 0 empty empty Restore_Samples 17 7 0 10
-262144 -1 -1;
#X msg 1304 134 read save/samples.txt;
#X obj 1295 46 s \$0-b-tf;
#X obj 1318 164 r \$0-b-tf;
#X msg 1408 186 bang;
#X obj 1316 394 route sample_1 sample_2 sample_3 sample_4 sample_5
sample_6 sample_7 sample_8, f 66;
#X obj 1316 580 s \$0-ss1;
#X msg 1316 556 set \$1;
#X msg 1373 458 set \$1;
#X obj 1373 482 s \$0-ss2;
#X obj 1330 504 print SET 2;
#X obj 1373 436 unpack s;
#X obj 1316 527 unpack s;
#X obj 1296 608 print SET 1;
#X msg 1430 554 set \$1;
#X obj 1430 532 unpack s;
#X obj 1429 600 print SET 3;
#X obj 1430 578 s \$0-ss3;
#X msg 1488 459 set \$1;
#X obj 1488 437 unpack s;
#X obj 1488 483 s \$0-ss4;
#X obj 1487 505 print SET 4;
#X msg 1545 553 set \$1;
#X obj 1545 531 unpack s;
#X obj 1545 577 s \$0-ss5;
#X obj 1544 599 print SET 5;
#X msg 1602 460 set \$1;
#X obj 1602 438 unpack s;
#X msg 1659 554 set \$1;
#X obj 1659 532 unpack s;
#X obj 1602 484 s \$0-ss6;
#X obj 1601 506 print SET 6;
#X obj 1659 578 s \$0-ss7;
#X obj 1658 600 print SET 7;
#X msg 1718 461 set \$1;
#X obj 1718 439 unpack s;
#X obj 1718 485 s \$0-ss8;
#X obj 1717 507 print SET 8;
#X obj 1812 457 print Lonely;
#X obj 1528 206 bng 15 250 50 0 empty empty empty 17 7 0 10 -262144
-1 -1;
#X obj 1573 279 float;
#X obj 1640 301 + 1;
#X floatatom 1573 304 5 0 0 0 - - -;
#X msg 1616 273 1;
#X msg 1665 209 0;
#X obj 1275 6 t b b b b b b b b b b;
#X text 1434 49 Code to save and restore the samples;
#X text 1212 678 Reset samples on load;
#X msg 1280 732 set;
#X obj 1181 781 s \$0-ss1;
#X obj 1248 781 s \$0-ss2;
#X obj 1314 781 s \$0-ss3;
#X obj 1379 781 s \$0-ss4;
#X obj 1181 819 s \$0-ss5;
#X obj 1248 819 s \$0-ss6;
#X obj 1314 819 s \$0-ss7;
#X obj 1379 819 s \$0-ss8;
#X obj 1280 702 loadbang;
#X connect 0 0 2 0;
#X connect 1 0 9 0;
#X connect 2 0 3 0;
#X connect 2 0 4 0;
#X connect 3 0 2 1;
#X connect 4 0 8 0;
#X connect 5 0 7 0;
#X connect 6 0 2 1;
#X connect 7 0 10 0;
#X connect 8 0 5 0;
#X connect 9 0 0 0;
#X connect 10 0 37 0;
#X connect 10 0 14 0;
#X connect 11 0 13 0;
#X connect 12 0 9 1;
#X connect 13 0 12 0;
#X connect 15 0 1 0;
#X connect 15 0 87 0;
#X connect 16 0 77 0;
#X connect 16 1 77 1;
#X connect 16 2 77 2;
#X connect 16 3 77 3;
#X connect 16 4 77 4;
#X connect 16 5 77 5;
#X connect 16 6 77 6;
#X connect 16 7 77 7;
#X connect 17 0 94 0;
#X connect 18 0 25 0;
#X connect 19 0 33 0;
#X connect 20 0 39 0;
#X connect 21 0 79 0;
#X connect 22 0 62 0;
#X connect 23 0 74 0;
#X connect 24 0 86 0;
#X connect 25 0 29 0;
#X connect 26 0 27 0;
#X connect 27 0 28 0;
#X connect 27 0 43 0;
#X connect 30 0 48 0;
#X connect 30 0 49 0;
#X connect 33 0 32 0;
#X connect 34 0 35 0;
#X connect 35 0 36 0;
#X connect 35 0 41 0;
#X connect 38 0 16 0;
#X connect 39 0 40 0;
#X connect 41 0 42 0;
#X connect 42 0 122 0;
#X connect 43 0 44 0;
#X connect 44 0 117 0;
#X connect 45 0 46 0;
#X connect 47 0 45 0;
#X connect 48 0 31 1;
#X connect 49 0 31 0;
#X connect 50 0 48 1;
#X connect 50 0 49 1;
#X connect 51 0 52 0;
#X connect 52 0 53 0;
#X connect 52 0 55 0;
#X connect 53 0 54 0;
#X connect 54 0 126 0;
#X connect 56 0 57 0;
#X connect 57 0 58 0;
#X connect 57 0 60 0;
#X connect 58 0 59 0;
#X connect 59 0 129 0;
#X connect 62 0 61 0;
#X connect 63 0 64 0;
#X connect 64 0 65 0;
#X connect 64 0 67 0;
#X connect 65 0 66 0;
#X connect 66 0 134 0;
#X connect 69 0 70 0;
#X connect 70 0 71 0;
#X connect 70 0 73 0;
#X connect 71 0 72 0;
#X connect 72 0 137 0;
#X connect 74 0 68 0;
#X connect 75 0 76 0;
#X connect 76 0 50 0;
#X connect 77 0 17 0;
#X connect 77 1 18 0;
#X connect 77 2 19 0;
#X connect 77 3 20 0;
#X connect 77 4 22 0;
#X connect 77 5 23 0;
#X connect 77 6 21 0;
#X connect 77 7 24 0;
#X connect 79 0 78 0;
#X connect 80 0 81 0;
#X connect 81 0 82 0;
#X connect 81 0 84 0;
#X connect 82 0 83 0;
#X connect 83 0 141 0;
#X connect 86 0 85 0;
#X connect 87 0 11 0;
#X connect 88 0 89 0;
#X connect 89 0 90 0;
#X connect 89 0 92 0;
#X connect 90 0 91 0;
#X connect 91 0 102 0;
#X connect 94 0 93 0;
#X connect 95 0 97 0;
#X connect 96 0 149 0;
#X connect 96 1 114 0;
#X connect 97 0 105 0;
#X connect 97 1 98 0;
#X connect 98 0 96 0;
#X connect 99 0 96 0;
#X connect 100 0 96 0;
#X connect 102 0 103 0;
#X connect 103 0 101 0;
#X connect 104 0 91 0;
#X connect 105 0 115 0;
#X connect 105 1 114 0;
#X connect 105 2 106 0;
#X connect 105 3 107 0;
#X connect 105 4 108 0;
#X connect 105 5 109 0;
#X connect 105 6 110 0;
#X connect 105 7 111 0;
#X connect 105 8 112 0;
#X connect 105 9 113 0;
#X connect 114 0 96 0;
#X connect 115 0 96 0;
#X connect 117 0 118 0;
#X connect 118 0 116 0;
#X connect 119 0 42 0;
#X connect 120 0 44 0;
#X connect 122 0 123 0;
#X connect 123 0 121 0;
#X connect 124 0 54 0;
#X connect 126 0 127 0;
#X connect 127 0 125 0;
#X connect 129 0 130 0;
#X connect 130 0 128 0;
#X connect 131 0 59 0;
#X connect 132 0 66 0;
#X connect 134 0 135 0;
#X connect 135 0 133 0;
#X connect 137 0 139 0;
#X connect 138 0 72 0;
#X connect 139 0 136 0;
#X connect 141 0 143 0;
#X connect 142 0 83 0;
#X connect 143 0 140 0;
#X connect 144 0 189 0;
#X connect 145 0 96 0;
#X connect 147 0 148 0;
#X connect 148 0 96 0;
#X connect 148 0 183 0;
#X connect 149 0 156 0;
#X connect 149 1 155 0;
#X connect 149 2 159 0;
#X connect 149 3 163 0;
#X connect 149 4 167 0;
#X connect 149 5 171 0;
#X connect 149 6 173 0;
#X connect 149 7 179 0;
#X connect 149 8 182 0;
#X connect 151 0 150 0;
#X connect 151 0 157 0;
#X connect 152 0 153 0;
#X connect 152 0 154 0;
#X connect 155 0 152 0;
#X connect 156 0 151 0;
#X connect 158 0 160 0;
#X connect 158 0 161 0;
#X connect 159 0 158 0;
#X connect 162 0 164 0;
#X connect 162 0 165 0;
#X connect 163 0 162 0;
#X connect 166 0 168 0;
#X connect 166 0 169 0;
#X connect 167 0 166 0;
#X connect 170 0 174 0;
#X connect 170 0 175 0;
#X connect 171 0 170 0;
#X connect 172 0 176 0;
#X connect 172 0 177 0;
#X connect 173 0 172 0;
#X connect 178 0 180 0;
#X connect 178 0 181 0;
#X connect 179 0 178 0;
#X connect 183 0 184 0;
#X connect 184 0 185 0;
#X connect 184 0 186 0;
#X connect 185 0 184 1;
#X connect 187 0 184 1;
#X connect 188 0 186 0;
#X connect 188 0 184 0;
#X connect 189 0 146 0;
#X connect 189 1 146 0;
#X connect 189 2 146 0;
#X connect 189 3 146 0;
#X connect 189 4 146 0;
#X connect 189 5 146 0;
#X connect 189 6 146 0;
#X connect 189 7 146 0;
#X connect 189 8 146 0;
#X connect 189 9 145 0;
#X connect 192 0 193 0;
#X connect 192 0 197 0;
#X connect 192 0 198 0;
#X connect 192 0 194 0;
#X connect 192 0 199 0;
#X connect 192 0 195 0;
#X connect 192 0 200 0;
#X connect 192 0 196 0;
#X connect 201 0 192 0;
