#N canvas 0 0 450 300 12;
#X obj 43 10 inlet;
#X obj 149 5 inlet;
#X text 6 12 Note;
#X text 101 4 Volume;
#X floatatom 43 48 5 0 0 0 - - - 0;
#X obj 44 87 mtof;
#X obj 66 162 osc~;
#X floatatom 43 107 5 0 0 0 - - - 0;
#X obj 167 165 vline~;
#X obj 149 43 select 0;
#X obj 192 82 bng 15 250 50 0 empty empty empty 17 7 0 10 #fcfcfc #000000
#000000;
#X obj 148 78 bng 15 250 50 0 empty empty empty 17 7 0 10 #fcfcfc #000000
#000000;
#X obj 123 198 *~;
#X floatatom 103 130 5 0 0 0 - - - 0;
#X msg 192 135 0 300;
#X msg 146 105 1 200 \, 0.2 1000 200;
#X obj 123 246 outlet~;
#X connect 0 0 4 0;
#X connect 1 0 9 0;
#X connect 4 0 5 0;
#X connect 5 0 7 0;
#X connect 6 0 12 0;
#X connect 7 0 6 0;
#X connect 8 0 12 1;
#X connect 9 0 10 0;
#X connect 9 1 11 0;
#X connect 10 0 14 0;
#X connect 11 0 15 0;
#X connect 11 0 13 0;
#X connect 12 0 16 0;
#X connect 13 0 6 1;
#X connect 14 0 8 0;
#X connect 15 0 8 0;
