#N canvas 800 111 450 300 12;
#X obj 71 1 inlet;
#X text 27 68 Note;
#X text 176 45 Volume;
#X floatatom 71 70 5 0 0 0 - - - 0;
#X obj 72 109 mtof;
#X obj 94 184 osc~;
#X floatatom 71 129 5 0 0 0 - - - 0;
#X obj 195 187 vline~;
#X obj 177 65 select 0;
#X obj 220 104 bng 15 250 50 0 empty empty empty 17 7 0 10 #fcfcfc
#000000 #000000;
#X obj 176 100 bng 15 250 50 0 empty empty empty 17 7 0 10 #fcfcfc
#000000 #000000;
#X obj 151 220 *~;
#X floatatom 131 152 5 0 0 0 - - - 0;
#X obj 151 268 outlet~;
#X obj 70 37 unpack 0 0;
#X msg 174 127 1 20 \, 0.2 40 200;
#X msg 220 157 0 30;
#X connect 0 0 14 0;
#X connect 3 0 4 0;
#X connect 4 0 6 0;
#X connect 5 0 11 0;
#X connect 6 0 5 0;
#X connect 7 0 11 1;
#X connect 8 0 9 0;
#X connect 8 1 10 0;
#X connect 9 0 16 0;
#X connect 10 0 15 0;
#X connect 10 0 12 0;
#X connect 11 0 13 0;
#X connect 12 0 5 1;
#X connect 14 0 3 0;
#X connect 14 1 8 0;
#X connect 15 0 7 0;
#X connect 16 0 7 0;
