#N canvas 145 91 1135 605 12;
#X obj 71 1 inlet;
#X floatatom 67 83 5 0 0 2 Note - -;
#X obj 70 37 unpack 0 0;
#X obj 241 110 s vel;
#X obj 222 176 WTSWaveTableOsc~;
#X obj 286 41 vsl 15 128 0 127 0 0 empty empty empty 0 -9 0 10 -262144
-1 -1 0 1;
#X obj 350 38 vsl 15 128 0 127 0 0 empty empty empty 0 -9 0 10 -262144
-1 -1 0 1;
#X obj 415 36 vsl 15 128 0 127 0 0 empty empty empty 0 -9 0 10 -262144
-1 -1 0 1;
#X obj 284 514 outlet~;
#N canvas 0 0 367 272 envelope 0;
#X obj 165 9 inlet Velocity;
#X obj 165 197 outlet~;
#X obj 124 166 *~;
#X obj 11 9 inlet~ Audio signal;
#X obj 165 34 WTSVelocityToShape;
#X connect 0 0 4 0;
#X connect 2 0 1 0;
#X connect 3 0 2 0;
#X connect 4 0 2 1;
#X restore 287 482 pd envelope;
#X obj 361 442 r vel;
#X connect 0 0 2 0;
#X connect 1 0 4 0;
#X connect 2 0 1 0;
#X connect 2 1 3 0;
#X connect 4 0 9 0;
#X connect 5 0 4 1;
#X connect 6 0 4 2;
#X connect 7 0 4 3;
#X connect 9 0 8 0;
#X connect 10 0 9 1;
#X coords 0 -1 1 1 50 60 1 60 50;
