#N canvas 156 163 474 377 12;
#X obj 4 69 s nte;
#X obj 30 49 s vel;
#X obj 123 41 WTSBob~;
#X obj 123 6 r nte;
#X obj 148 217 r~ shape;
#X obj 124 247 *~;
#X obj 124 272 outlet~;
#X obj 4 1 inlet;
#X obj 30 22 inlet;
#X obj 7 219 WTSVelocityToShape;
#X obj 11 175 r vel;
#X obj 8 253 s~ shape;
#X connect 2 0 5 0;
#X connect 3 0 2 0;
#X connect 4 0 5 1;
#X connect 5 0 6 0;
#X connect 7 0 0 0;
#X connect 8 0 1 0;
#X connect 9 0 11 0;
#X connect 10 0 9 0;
#X coords 0 -1 1 1 340 200 1 120 18;
