#N canvas 319 123 840 541 12;
#X obj 35 7 notein 1;
#X floatatom 35 32 5 0 0 0 - - -;
#X floatatom 82 88 5 0 0 0 - - -;
#X floatatom 26 88 5 0 0 0 - - -;
#X obj 107 42 != 0;
#X floatatom 28 140 5 0 0 0 - - -;
#X obj 28 112 expr if($i1 == 1 && $i2 == 1 \, 1 \, 0);
#X text 69 139 1 iff pad is pressed;
#X obj 26 205 route 1;
#X obj 28 243 bng 15 250 50 0 empty empty empty 17 7 0 10 -262144 -1
-1;
#X obj 74 244 bng 15 250 50 0 empty empty empty 17 7 0 10 -262144 -1
-1;
#X text 94 239 <- Bangs on pad release;
#X obj 307 92 tgl 15 0 \$0-Pad-\$1 empty \$1 17 7 1 10 -1 -258113 -1
0 1;
#X obj 333 46 expr if($i2 == 1 \, 0 \, 1);
#X obj 98 201 spigot;
#X obj 18 164 t a a;
#X obj 353 136 route 1;
#X obj 353 171 bng 15 250 50 0 empty empty empty 17 7 0 10 -262144
-1 -1;
#X obj 407 170 bng 15 250 50 0 empty empty empty 17 7 0 10 -262144
-1 -1;
#X obj 383 273 midiout;
#X text 675 202 71 => red;
#X text 675 239 21 => green;
#X obj 35 56 == \$1;
#X obj 408 205 list 240 0 32 41 2 12 3 0 \$1 72 247;
#X obj 416 238 list 240 0 32 41 2 12 3 0 \$1 21 247;
#X obj 74 264 s \$0-release;
#X obj 350 22 r \$0-release;
#X obj 307 112 t f f;
#X obj 307 362 outlet;
#X obj 207 10 loadbang;
#X msg 207 35 0;
#X obj 295 8 inlet;
#X connect 0 0 1 0;
#X connect 0 1 4 0;
#X connect 1 0 22 0;
#X connect 2 0 6 1;
#X connect 3 0 6 0;
#X connect 4 0 2 0;
#X connect 5 0 15 0;
#X connect 6 0 5 0;
#X connect 8 0 9 0;
#X connect 8 1 14 0;
#X connect 10 0 25 0;
#X connect 12 0 13 1;
#X connect 12 0 27 0;
#X connect 13 0 12 0;
#X connect 14 0 10 0;
#X connect 15 0 14 1;
#X connect 15 1 8 0;
#X connect 16 0 17 0;
#X connect 16 1 18 0;
#X connect 17 0 24 0;
#X connect 18 0 23 0;
#X connect 22 0 3 0;
#X connect 23 0 19 0;
#X connect 24 0 19 0;
#X connect 26 0 13 0;
#X connect 27 0 28 0;
#X connect 27 1 16 0;
#X connect 29 0 30 0;
#X connect 30 0 27 0;
#X connect 31 0 12 0;
#X coords 0 -1 1 1 40 20 2 300 90;
