#N canvas 273 143 1100 552 12;
#X obj 49 10 WTSButton8 81 82 83 84 85 86 87 88;
#X obj 49 38 tgl 15 0 \$0-c1r1 empty empty 17 7 0 10 -262144 -1 -1
0 1;
#X obj 84 38 tgl 15 0 \$0-c2r1 empty empty 17 7 0 10 -262144 -1 -1
0 1;
#X obj 117 38 tgl 15 0 \$0-c3r1 empty empty 17 7 0 10 -262144 -1 -1
0 1;
#X obj 150 38 tgl 15 0 \$0-c4r1 empty empty 17 7 0 10 -262144 -1 -1
0 1;
#X obj 184 38 tgl 15 0 \$0-c5r1 empty empty 17 7 0 10 -262144 -1 -1
0 1;
#X obj 215 38 tgl 15 0 \$0-c6r1 empty empty 17 7 0 10 -262144 -1 -1
0 1;
#X obj 247 38 tgl 15 0 \$0-c7r1 empty empty 17 7 0 10 -262144 -1 -1
0 1;
#X obj 284 38 tgl 15 0 \$0-c8r1 empty empty 17 7 0 10 -262144 -1 -1
1 1;
#X obj 49 89 tgl 15 0 \$0-c1r2 empty empty 17 7 0 10 -262144 -1 -1
0 1;
#X obj 82 89 tgl 15 0 \$0-c2r2 empty empty 17 7 0 10 -262144 -1 -1
1 1;
#X obj 115 89 tgl 15 0 \$0-c3r2 empty empty 17 7 0 10 -262144 -1 -1
0 1;
#X obj 148 89 tgl 15 0 \$0-c4r2 empty empty 17 7 0 10 -262144 -1 -1
1 1;
#X obj 182 89 tgl 15 0 \$0-c5r2 empty empty 17 7 0 10 -262144 -1 -1
0 1;
#X obj 213 89 tgl 15 0 \$0-c6r2 empty empty 17 7 0 10 -262144 -1 -1
0 1;
#X obj 245 89 tgl 15 0 \$0-c7r2 empty empty 17 7 0 10 -262144 -1 -1
0 1;
#X obj 282 89 tgl 15 0 \$0-c8r2 empty empty 17 7 0 10 -262144 -1 -1
0 1;
#X obj 49 61 WTSButton8 71 72 73 74 75 76 77 78;
#X obj 49 140 tgl 15 0 \$0-c1r3 empty empty 17 7 0 10 -262144 -1 -1
0 1;
#X obj 83 142 tgl 15 0 \$0-c2r3 empty empty 17 7 0 10 -262144 -1 -1
0 1;
#X obj 116 141 tgl 15 0 \$0-c3r3 empty empty 17 7 0 10 -262144 -1 -1
0 1;
#X obj 149 143 tgl 15 0 \$0-c4r3 empty empty 17 7 0 10 -262144 -1 -1
0 1;
#X obj 183 141 tgl 15 0 \$0-c5r3 empty empty 17 7 0 10 -262144 -1 -1
1 1;
#X obj 214 143 tgl 15 0 \$0-c6r3 empty empty 17 7 0 10 -262144 -1 -1
0 1;
#X obj 246 141 tgl 15 0 \$0-c7r3 empty empty 17 7 0 10 -262144 -1 -1
0 1;
#X obj 283 139 tgl 15 0 \$0-c8r3 empty empty 17 7 0 10 -262144 -1 -1
0 1;
#X obj 49 191 tgl 15 0 \$0-c1r4 empty empty 17 7 0 10 -262144 -1 -1
0 1;
#X obj 81 191 tgl 15 0 \$0-c2r4 empty empty 17 7 0 10 -262144 -1 -1
0 1;
#X obj 123 191 tgl 15 0 \$0-c3r4 empty empty 17 7 0 10 -262144 -1 -1
1 1;
#X obj 156 191 tgl 15 0 \$0-c4r4 empty empty 17 7 0 10 -262144 -1 -1
1 1;
#X obj 200 191 tgl 15 0 \$0-c5r4 empty empty 17 7 0 10 -262144 -1 -1
1 1;
#X obj 231 191 tgl 15 0 \$0-c6r4 empty empty 17 7 0 10 -262144 -1 -1
1 1;
#X obj 265 191 tgl 15 0 \$0-c7r4 empty empty 17 7 0 10 -262144 -1 -1
1 1;
#X obj 306 191 tgl 15 0 \$0-c8r4 empty empty 17 7 0 10 -262144 -1 -1
0 1;
#X obj 49 112 WTSButton8 61 62 63 64 65 66 67 68;
#X obj 49 163 WTSButton8 51 52 53 54 55 56 57 58;
#X obj 49 242 tgl 15 0 \$0-c1r5 empty empty 17 7 0 10 -262144 -1 -1
0 1;
#X obj 90 242 tgl 15 0 \$0-c2r5 empty empty 17 7 0 10 -262144 -1 -1
0 1;
#X obj 124 242 tgl 15 0 \$0-c3r5 empty empty 17 7 0 10 -262144 -1 -1
0 1;
#X obj 157 242 tgl 15 0 \$0-c4r5 empty empty 17 7 0 10 -262144 -1 -1
0 1;
#X obj 196 242 tgl 15 0 \$0-c5r5 empty empty 17 7 0 10 -262144 -1 -1
1 1;
#X obj 230 242 tgl 15 0 \$0-c6r5 empty empty 17 7 0 10 -262144 -1 -1
1 1;
#X obj 264 242 tgl 15 0 \$0-c7r5 empty empty 17 7 0 10 -262144 -1 -1
1 1;
#X obj 305 242 tgl 15 0 \$0-c8r5 empty empty 17 7 0 10 -262144 -1 -1
0 1;
#X obj 49 293 tgl 15 0 \$0-c1r6 empty empty 17 7 0 10 -262144 -1 -1
0 1;
#X obj 88 298 tgl 15 0 \$0-c2r6 empty empty 17 7 0 10 -262144 -1 -1
0 1;
#X obj 125 295 tgl 15 0 \$0-c3r6 empty empty 17 7 0 10 -262144 -1 -1
1 1;
#X obj 170 295 tgl 15 0 \$0-c4r6 empty empty 17 7 0 10 -262144 -1 -1
1 1;
#X obj 200 296 tgl 15 0 \$0-c5r6 empty empty 17 7 0 10 -262144 -1 -1
0 1;
#X obj 229 298 tgl 15 0 \$0-c6r6 empty empty 17 7 0 10 -262144 -1 -1
0 1;
#X obj 264 299 tgl 15 0 \$0-c7r6 empty empty 17 7 0 10 -262144 -1 -1
0 1;
#X obj 303 298 tgl 15 0 \$0-c8r6 empty empty 17 7 0 10 -262144 -1 -1
0 1;
#X obj 49 344 tgl 15 0 \$0-c1r7 empty empty 17 7 0 10 -262144 -1 -1
1 1;
#X obj 87 345 tgl 15 0 \$0-c2r7 empty empty 17 7 0 10 -262144 -1 -1
0 1;
#X obj 124 343 tgl 15 0 \$0-c3r7 empty empty 17 7 0 10 -262144 -1 -1
1 1;
#X obj 160 343 tgl 15 0 \$0-c4r7 empty empty 17 7 0 10 -262144 -1 -1
0 1;
#X obj 200 345 tgl 15 0 \$0-c5r7 empty empty 17 7 0 10 -262144 -1 -1
0 1;
#X obj 233 345 tgl 15 0 \$0-c6r7 empty empty 17 7 0 10 -262144 -1 -1
0 1;
#X obj 267 342 tgl 15 0 \$0-c7r7 empty empty 17 7 0 10 -262144 -1 -1
0 1;
#X obj 305 344 tgl 15 0 \$0-c8r7 empty empty 17 7 0 10 -262144 -1 -1
0 1;
#X obj 49 395 tgl 15 0 \$0-c1r8 empty empty 17 7 0 10 -262144 -1 -1
1 1;
#X obj 83 395 tgl 15 0 \$0-c2r8 empty empty 17 7 0 10 -262144 -1 -1
0 1;
#X obj 114 395 tgl 15 0 \$0-c2r8 empty empty 17 7 0 10 -262144 -1 -1
0 1;
#X obj 152 395 tgl 15 0 \$0-c2r8 empty empty 17 7 0 10 -262144 -1 -1
0 1;
#X obj 183 395 tgl 15 0 \$0-c2r8 empty empty 17 7 0 10 -262144 -1 -1
0 1;
#X obj 216 395 tgl 15 0 \$0-c2r8 empty empty 17 7 0 10 -262144 -1 -1
0 1;
#X obj 244 395 tgl 15 0 \$0-c2r8 empty empty 17 7 0 10 -262144 -1 -1
0 1;
#X obj 281 395 tgl 15 0 \$0-c2r8 empty empty 17 7 0 10 -262144 -1 -1
0 1;
#X obj 49 214 WTSButton8 41 42 43 44 45 46 47 48;
#X obj 49 316 WTSButton8 21 22 23 24 25 26 27 28;
#X obj 49 367 WTSButton8 11 12 13 14 15 16 17 18;
#X obj 49 265 WTSButton8 31 32 33 34 35 36 37 38;
#X text 505 39 Eight outlets for instruments;
#X obj 669 15 outlet;
#X text 436 -67 Eight inlets for beats;
#X obj 383 -38 inlet;
#X obj 524 -38 inlet;
#X obj 453 -38 inlet;
#X obj 596 -38 inlet;
#X obj 740 -38 inlet;
#X obj 669 -38 inlet;
#X obj 885 -38 inlet;
#X obj 812 -38 inlet;
#X obj 383 15 outlet;
#X obj 740 15 outlet;
#X obj 454 15 outlet;
#X obj 812 15 outlet;
#X obj 526 15 outlet;
#X obj 884 15 outlet;
#X obj 597 15 outlet;
#N canvas 656 74 598 646 match_input_output 0;
#X obj 13 744 outlet;
#X obj 13 720 spigot;
#X obj 12 671 r \$0-c1r8;
#X obj 13 695 r \$0-i1;
#X obj 84 743 outlet;
#X obj 84 719 spigot;
#X obj 83 670 r \$0-c2r8;
#X obj 84 694 r \$0-i2;
#X obj 156 742 outlet;
#X obj 156 718 spigot;
#X obj 155 669 r \$0-c3r8;
#X obj 156 693 r \$0-i1;
#X obj 227 741 outlet;
#X obj 227 717 spigot;
#X obj 226 668 r \$0-c4r8;
#X obj 227 692 r \$0-i2;
#X obj 298 741 outlet;
#X obj 298 717 spigot;
#X obj 297 668 r \$0-c5r8;
#X obj 298 692 r \$0-i1;
#X obj 369 740 outlet;
#X obj 369 716 spigot;
#X obj 368 667 r \$0-c6r8;
#X obj 369 691 r \$0-i2;
#X obj 441 739 outlet;
#X obj 441 715 spigot;
#X obj 440 666 r \$0-c7r8;
#X obj 441 690 r \$0-i1;
#X obj 512 738 outlet;
#X obj 512 714 spigot;
#X obj 511 665 r \$0-c8r8;
#X obj 512 689 r \$0-i2;
#X obj 12 639 spigot;
#X obj 11 590 r \$0-c1r7;
#X obj 12 614 r \$0-i1;
#X obj 83 638 spigot;
#X obj 82 589 r \$0-c2r7;
#X obj 83 613 r \$0-i2;
#X obj 155 637 spigot;
#X obj 154 588 r \$0-c3r7;
#X obj 155 612 r \$0-i1;
#X obj 226 636 spigot;
#X obj 225 587 r \$0-c4r7;
#X obj 226 611 r \$0-i2;
#X obj 297 636 spigot;
#X obj 296 587 r \$0-c5r7;
#X obj 297 611 r \$0-i1;
#X obj 368 635 spigot;
#X obj 367 586 r \$0-c6r7;
#X obj 368 610 r \$0-i2;
#X obj 440 634 spigot;
#X obj 439 585 r \$0-c7r7;
#X obj 440 609 r \$0-i1;
#X obj 511 633 spigot;
#X obj 510 584 r \$0-c8r7;
#X obj 511 608 r \$0-i2;
#X obj 12 562 spigot;
#X obj 11 513 r \$0-c1r6;
#X obj 12 537 r \$0-i1;
#X obj 83 561 spigot;
#X obj 82 512 r \$0-c2r6;
#X obj 83 536 r \$0-i2;
#X obj 155 560 spigot;
#X obj 154 511 r \$0-c3r6;
#X obj 155 535 r \$0-i1;
#X obj 226 559 spigot;
#X obj 225 510 r \$0-c4r6;
#X obj 226 534 r \$0-i2;
#X obj 297 559 spigot;
#X obj 296 510 r \$0-c5r6;
#X obj 297 534 r \$0-i1;
#X obj 368 558 spigot;
#X obj 367 509 r \$0-c6r6;
#X obj 368 533 r \$0-i2;
#X obj 440 557 spigot;
#X obj 439 508 r \$0-c7r6;
#X obj 440 532 r \$0-i1;
#X obj 511 556 spigot;
#X obj 510 507 r \$0-c8r6;
#X obj 511 531 r \$0-i2;
#X obj 12 485 spigot;
#X obj 11 436 r \$0-c1r5;
#X obj 12 460 r \$0-i1;
#X obj 83 484 spigot;
#X obj 82 435 r \$0-c2r5;
#X obj 83 459 r \$0-i2;
#X obj 155 483 spigot;
#X obj 154 434 r \$0-c3r5;
#X obj 155 458 r \$0-i1;
#X obj 226 482 spigot;
#X obj 225 433 r \$0-c4r5;
#X obj 226 457 r \$0-i2;
#X obj 297 482 spigot;
#X obj 296 433 r \$0-c5r5;
#X obj 297 457 r \$0-i1;
#X obj 368 481 spigot;
#X obj 367 432 r \$0-c6r5;
#X obj 368 456 r \$0-i2;
#X obj 440 480 spigot;
#X obj 439 431 r \$0-c7r5;
#X obj 440 455 r \$0-i1;
#X obj 511 479 spigot;
#X obj 510 430 r \$0-c8r5;
#X obj 511 454 r \$0-i2;
#X obj 11 407 spigot;
#X obj 10 358 r \$0-c1r4;
#X obj 11 382 r \$0-i1;
#X obj 82 406 spigot;
#X obj 81 357 r \$0-c2r4;
#X obj 82 381 r \$0-i2;
#X obj 154 405 spigot;
#X obj 153 356 r \$0-c3r4;
#X obj 154 380 r \$0-i1;
#X obj 225 404 spigot;
#X obj 224 355 r \$0-c4r4;
#X obj 225 379 r \$0-i2;
#X obj 296 404 spigot;
#X obj 295 355 r \$0-c5r4;
#X obj 296 379 r \$0-i1;
#X obj 367 403 spigot;
#X obj 366 354 r \$0-c6r4;
#X obj 367 378 r \$0-i2;
#X obj 439 402 spigot;
#X obj 438 353 r \$0-c7r4;
#X obj 439 377 r \$0-i1;
#X obj 510 401 spigot;
#X obj 509 352 r \$0-c8r4;
#X obj 510 376 r \$0-i2;
#X obj 10 332 spigot;
#X obj 9 283 r \$0-c1r3;
#X obj 10 307 r \$0-i1;
#X obj 81 331 spigot;
#X obj 80 282 r \$0-c2r3;
#X obj 81 306 r \$0-i2;
#X obj 153 330 spigot;
#X obj 152 281 r \$0-c3r3;
#X obj 153 305 r \$0-i1;
#X obj 224 329 spigot;
#X obj 223 280 r \$0-c4r3;
#X obj 224 304 r \$0-i2;
#X obj 295 329 spigot;
#X obj 294 280 r \$0-c5r3;
#X obj 295 304 r \$0-i1;
#X obj 366 328 spigot;
#X obj 365 279 r \$0-c6r3;
#X obj 366 303 r \$0-i2;
#X obj 438 327 spigot;
#X obj 437 278 r \$0-c7r3;
#X obj 438 302 r \$0-i1;
#X obj 509 326 spigot;
#X obj 508 277 r \$0-c8r3;
#X obj 509 301 r \$0-i2;
#X obj 10 254 spigot;
#X obj 9 205 r \$0-c1r2;
#X obj 10 229 r \$0-i1;
#X obj 81 253 spigot;
#X obj 80 204 r \$0-c2r2;
#X obj 81 228 r \$0-i2;
#X obj 153 252 spigot;
#X obj 152 203 r \$0-c3r2;
#X obj 153 227 r \$0-i1;
#X obj 224 251 spigot;
#X obj 223 202 r \$0-c4r2;
#X obj 224 226 r \$0-i2;
#X obj 295 251 spigot;
#X obj 294 202 r \$0-c5r2;
#X obj 295 226 r \$0-i1;
#X obj 366 250 spigot;
#X obj 365 201 r \$0-c6r2;
#X obj 366 225 r \$0-i2;
#X obj 438 249 spigot;
#X obj 437 200 r \$0-c7r2;
#X obj 438 224 r \$0-i1;
#X obj 509 248 spigot;
#X obj 508 199 r \$0-c8r2;
#X obj 509 223 r \$0-i2;
#X obj 9 174 spigot;
#X obj 8 125 r \$0-c1r1;
#X obj 9 149 r \$0-i1;
#X obj 80 173 spigot;
#X obj 79 124 r \$0-c2r1;
#X obj 80 148 r \$0-i2;
#X obj 152 172 spigot;
#X obj 151 123 r \$0-c3r1;
#X obj 152 147 r \$0-i1;
#X obj 223 171 spigot;
#X obj 222 122 r \$0-c4r1;
#X obj 223 146 r \$0-i2;
#X obj 294 171 spigot;
#X obj 293 122 r \$0-c5r1;
#X obj 294 146 r \$0-i1;
#X obj 365 170 spigot;
#X obj 364 121 r \$0-c6r1;
#X obj 365 145 r \$0-i2;
#X obj 437 169 spigot;
#X obj 436 120 r \$0-c7r1;
#X obj 437 144 r \$0-i1;
#X obj 508 168 spigot;
#X obj 507 119 r \$0-c8r1;
#X obj 508 143 r \$0-i2;
#X obj 8 9 inlet;
#X obj 136 9 inlet;
#X obj 8 34 s \$0-i1;
#X obj 68 9 inlet;
#X obj 68 34 s \$0-i2;
#X obj 136 34 s \$0-i3;
#X obj 197 9 inlet;
#X obj 325 9 inlet;
#X obj 257 9 inlet;
#X obj 197 34 s \$0-i4;
#X obj 257 34 s \$0-i5;
#X obj 325 34 s \$0-i6;
#X obj 455 9 inlet;
#X obj 387 9 inlet;
#X obj 387 34 s \$0-i7;
#X obj 455 34 s \$0-i8;
#X connect 1 0 0 0;
#X connect 2 0 1 1;
#X connect 3 0 1 0;
#X connect 5 0 4 0;
#X connect 6 0 5 1;
#X connect 7 0 5 0;
#X connect 9 0 8 0;
#X connect 10 0 9 1;
#X connect 11 0 9 0;
#X connect 13 0 12 0;
#X connect 14 0 13 1;
#X connect 15 0 13 0;
#X connect 17 0 16 0;
#X connect 18 0 17 1;
#X connect 19 0 17 0;
#X connect 21 0 20 0;
#X connect 22 0 21 1;
#X connect 23 0 21 0;
#X connect 25 0 24 0;
#X connect 26 0 25 1;
#X connect 27 0 25 0;
#X connect 29 0 28 0;
#X connect 30 0 29 1;
#X connect 31 0 29 0;
#X connect 32 0 0 0;
#X connect 33 0 32 1;
#X connect 34 0 32 0;
#X connect 35 0 4 0;
#X connect 36 0 35 1;
#X connect 37 0 35 0;
#X connect 38 0 8 0;
#X connect 39 0 38 1;
#X connect 40 0 38 0;
#X connect 41 0 12 0;
#X connect 42 0 41 1;
#X connect 43 0 41 0;
#X connect 44 0 16 0;
#X connect 45 0 44 1;
#X connect 46 0 44 0;
#X connect 47 0 20 0;
#X connect 48 0 47 1;
#X connect 49 0 47 0;
#X connect 50 0 24 0;
#X connect 51 0 50 1;
#X connect 52 0 50 0;
#X connect 53 0 28 0;
#X connect 54 0 53 1;
#X connect 55 0 53 0;
#X connect 56 0 0 0;
#X connect 57 0 56 1;
#X connect 58 0 56 0;
#X connect 59 0 4 0;
#X connect 60 0 59 1;
#X connect 61 0 59 0;
#X connect 62 0 8 0;
#X connect 63 0 62 1;
#X connect 64 0 62 0;
#X connect 65 0 12 0;
#X connect 66 0 65 1;
#X connect 67 0 65 0;
#X connect 68 0 16 0;
#X connect 69 0 68 1;
#X connect 70 0 68 0;
#X connect 71 0 20 0;
#X connect 72 0 71 1;
#X connect 73 0 71 0;
#X connect 74 0 24 0;
#X connect 75 0 74 1;
#X connect 76 0 74 0;
#X connect 77 0 28 0;
#X connect 78 0 77 1;
#X connect 79 0 77 0;
#X connect 80 0 0 0;
#X connect 81 0 80 1;
#X connect 82 0 80 0;
#X connect 83 0 4 0;
#X connect 84 0 83 1;
#X connect 85 0 83 0;
#X connect 86 0 8 0;
#X connect 87 0 86 1;
#X connect 88 0 86 0;
#X connect 89 0 12 0;
#X connect 90 0 89 1;
#X connect 91 0 89 0;
#X connect 92 0 16 0;
#X connect 93 0 92 1;
#X connect 94 0 92 0;
#X connect 95 0 20 0;
#X connect 96 0 95 1;
#X connect 97 0 95 0;
#X connect 98 0 24 0;
#X connect 99 0 98 1;
#X connect 100 0 98 0;
#X connect 101 0 28 0;
#X connect 102 0 101 1;
#X connect 103 0 101 0;
#X connect 104 0 0 0;
#X connect 105 0 104 1;
#X connect 106 0 104 0;
#X connect 107 0 4 0;
#X connect 108 0 107 1;
#X connect 109 0 107 0;
#X connect 110 0 8 0;
#X connect 111 0 110 1;
#X connect 112 0 110 0;
#X connect 113 0 12 0;
#X connect 114 0 113 1;
#X connect 115 0 113 0;
#X connect 116 0 16 0;
#X connect 117 0 116 1;
#X connect 118 0 116 0;
#X connect 119 0 20 0;
#X connect 120 0 119 1;
#X connect 121 0 119 0;
#X connect 122 0 24 0;
#X connect 123 0 122 1;
#X connect 124 0 122 0;
#X connect 125 0 28 0;
#X connect 126 0 125 1;
#X connect 127 0 125 0;
#X connect 128 0 0 0;
#X connect 129 0 128 1;
#X connect 130 0 128 0;
#X connect 131 0 4 0;
#X connect 132 0 131 1;
#X connect 133 0 131 0;
#X connect 134 0 8 0;
#X connect 135 0 134 1;
#X connect 136 0 134 0;
#X connect 137 0 12 0;
#X connect 138 0 137 1;
#X connect 139 0 137 0;
#X connect 140 0 16 0;
#X connect 141 0 140 1;
#X connect 142 0 140 0;
#X connect 143 0 20 0;
#X connect 144 0 143 1;
#X connect 145 0 143 0;
#X connect 146 0 24 0;
#X connect 147 0 146 1;
#X connect 148 0 146 0;
#X connect 149 0 28 0;
#X connect 150 0 149 1;
#X connect 151 0 149 0;
#X connect 152 0 0 0;
#X connect 153 0 152 1;
#X connect 154 0 152 0;
#X connect 155 0 4 0;
#X connect 156 0 155 1;
#X connect 157 0 155 0;
#X connect 158 0 8 0;
#X connect 159 0 158 1;
#X connect 160 0 158 0;
#X connect 161 0 12 0;
#X connect 162 0 161 1;
#X connect 163 0 161 0;
#X connect 164 0 16 0;
#X connect 165 0 164 1;
#X connect 166 0 164 0;
#X connect 167 0 20 0;
#X connect 168 0 167 1;
#X connect 169 0 167 0;
#X connect 170 0 24 0;
#X connect 171 0 170 1;
#X connect 172 0 170 0;
#X connect 173 0 28 0;
#X connect 174 0 173 1;
#X connect 175 0 173 0;
#X connect 176 0 0 0;
#X connect 177 0 176 1;
#X connect 178 0 176 0;
#X connect 179 0 4 0;
#X connect 180 0 179 1;
#X connect 181 0 179 0;
#X connect 182 0 8 0;
#X connect 183 0 182 1;
#X connect 184 0 182 0;
#X connect 185 0 12 0;
#X connect 186 0 185 1;
#X connect 187 0 185 0;
#X connect 188 0 16 0;
#X connect 189 0 188 1;
#X connect 190 0 188 0;
#X connect 191 0 20 0;
#X connect 192 0 191 1;
#X connect 193 0 191 0;
#X connect 194 0 24 0;
#X connect 195 0 194 1;
#X connect 196 0 194 0;
#X connect 197 0 28 0;
#X connect 198 0 197 1;
#X connect 199 0 197 0;
#X connect 200 0 202 0;
#X connect 201 0 205 0;
#X connect 203 0 204 0;
#X connect 206 0 209 0;
#X connect 207 0 211 0;
#X connect 208 0 210 0;
#X connect 212 0 215 0;
#X connect 213 0 214 0;
#X restore 383 -9 pd match_input_output;
#X f 72;
#X connect 0 0 1 0;
#X connect 0 1 2 0;
#X connect 0 2 3 0;
#X connect 0 3 4 0;
#X connect 0 4 5 0;
#X connect 0 5 6 0;
#X connect 0 6 7 0;
#X connect 0 7 8 0;
#X connect 17 0 9 0;
#X connect 17 1 10 0;
#X connect 17 2 11 0;
#X connect 17 3 12 0;
#X connect 17 4 13 0;
#X connect 17 5 14 0;
#X connect 17 6 15 0;
#X connect 17 7 16 0;
#X connect 34 0 18 0;
#X connect 34 1 19 0;
#X connect 34 2 20 0;
#X connect 34 3 21 0;
#X connect 34 4 22 0;
#X connect 34 5 23 0;
#X connect 34 6 24 0;
#X connect 34 7 25 0;
#X connect 35 0 26 0;
#X connect 35 1 27 0;
#X connect 35 2 28 0;
#X connect 35 3 29 0;
#X connect 35 4 30 0;
#X connect 35 5 31 0;
#X connect 35 6 32 0;
#X connect 35 7 33 0;
#X connect 68 0 36 0;
#X connect 68 1 37 0;
#X connect 68 2 38 0;
#X connect 68 3 39 0;
#X connect 68 4 40 0;
#X connect 68 5 41 0;
#X connect 68 6 42 0;
#X connect 68 7 43 0;
#X connect 69 0 52 0;
#X connect 69 1 53 0;
#X connect 69 2 54 0;
#X connect 69 3 55 0;
#X connect 69 4 56 0;
#X connect 69 5 57 0;
#X connect 69 6 58 0;
#X connect 69 7 59 0;
#X connect 70 0 60 0;
#X connect 70 1 61 0;
#X connect 70 2 62 0;
#X connect 70 3 63 0;
#X connect 70 4 64 0;
#X connect 70 5 65 0;
#X connect 70 6 66 0;
#X connect 70 7 67 0;
#X connect 71 0 44 0;
#X connect 71 1 45 0;
#X connect 71 2 46 0;
#X connect 71 3 47 0;
#X connect 71 4 48 0;
#X connect 71 5 49 0;
#X connect 71 6 50 0;
#X connect 71 7 51 0;
#X connect 75 0 90 0;
#X connect 76 0 90 2;
#X connect 77 0 90 1;
#X connect 78 0 90 3;
#X connect 79 0 90 5;
#X connect 80 0 90 4;
#X connect 81 0 90 7;
#X connect 82 0 90 6;
#X connect 90 0 83 0;
#X connect 90 1 85 0;
#X connect 90 2 87 0;
#X connect 90 3 89 0;
#X connect 90 4 73 0;
#X connect 90 5 84 0;
#X connect 90 6 86 0;
#X connect 90 7 88 0;
