#N canvas -35 117 1100 550 12;
#X obj 49 10 WTSButton8 81 82 83 84 85 86 87 88;
#X obj 49 38 tgl 15 0 \$0-c1r1 empty empty 17 7 0 10 -262144 -1 -1
1 1;
#X obj 84 38 tgl 15 0 \$0-c2r1 empty empty 17 7 0 10 -262144 -1 -1
1 1;
#X obj 117 38 tgl 15 0 \$0-c3r1 empty empty 17 7 0 10 -262144 -1 -1
1 1;
#X obj 150 38 tgl 15 0 \$0-c4r1 empty empty 17 7 0 10 -262144 -1 -1
0 1;
#X obj 184 38 tgl 15 0 \$0-c5r1 empty empty 17 7 0 10 -262144 -1 -1
1 1;
#X obj 215 38 tgl 15 0 \$0-c6r1 empty empty 17 7 0 10 -262144 -1 -1
1 1;
#X obj 247 38 tgl 15 0 \$0-c7r1 empty empty 17 7 0 10 -262144 -1 -1
1 1;
#X obj 284 38 tgl 15 0 \$0-c8r1 empty empty 17 7 0 10 -262144 -1 -1
0 1;
#X obj 49 89 tgl 15 0 \$0-c1r2 empty empty 17 7 0 10 -262144 -1 -1
0 1;
#X obj 82 89 tgl 15 0 \$0-c2r2 empty empty 17 7 0 10 -262144 -1 -1
0 1;
#X obj 115 89 tgl 15 0 \$0-c3r2 empty empty 17 7 0 10 -262144 -1 -1
0 1;
#X obj 148 89 tgl 15 0 \$0-c4r2 empty empty 17 7 0 10 -262144 -1 -1
0 1;
#X obj 182 89 tgl 15 0 \$0-c5r2 empty empty 17 7 0 10 -262144 -1 -1
0 1;
#X obj 213 89 tgl 15 0 \$0-c6r2 empty empty 17 7 0 10 -262144 -1 -1
0 1;
#X obj 245 89 tgl 15 0 \$0-c7r2 empty empty 17 7 0 10 -262144 -1 -1
0 1;
#X obj 282 89 tgl 15 0 \$0-c8r2 empty empty 17 7 0 10 -262144 -1 -1
0 1;
#X obj 49 61 WTSButton8 71 72 73 74 75 76 77 78;
#X obj 49 140 tgl 15 0 \$0-c1r3 empty empty 17 7 0 10 -262144 -1 -1
0 1;
#X obj 83 142 tgl 15 0 \$0-c2r3 empty empty 17 7 0 10 -262144 -1 -1
1 1;
#X obj 116 141 tgl 15 0 \$0-c3r3 empty empty 17 7 0 10 -262144 -1 -1
0 1;
#X obj 149 143 tgl 15 0 \$0-c4r3 empty empty 17 7 0 10 -262144 -1 -1
1 1;
#X obj 183 141 tgl 15 0 \$0-c5r3 empty empty 17 7 0 10 -262144 -1 -1
1 1;
#X obj 214 143 tgl 15 0 \$0-c6r3 empty empty 17 7 0 10 -262144 -1 -1
1 1;
#X obj 246 141 tgl 15 0 \$0-c7r3 empty empty 17 7 0 10 -262144 -1 -1
0 1;
#X obj 283 139 tgl 15 0 \$0-c8r3 empty empty 17 7 0 10 -262144 -1 -1
1 1;
#X obj 49 191 tgl 15 0 \$0-c1r4 empty empty 17 7 0 10 -262144 -1 -1
0 1;
#X obj 81 191 tgl 15 0 \$0-c2r4 empty empty 17 7 0 10 -262144 -1 -1
0 1;
#X obj 123 191 tgl 15 0 \$0-c3r4 empty empty 17 7 0 10 -262144 -1 -1
1 1;
#X obj 156 191 tgl 15 0 \$0-c4r4 empty empty 17 7 0 10 -262144 -1 -1
0 1;
#X obj 200 191 tgl 15 0 \$0-c5r4 empty empty 17 7 0 10 -262144 -1 -1
0 1;
#X obj 231 191 tgl 15 0 \$0-c6r4 empty empty 17 7 0 10 -262144 -1 -1
0 1;
#X obj 265 191 tgl 15 0 \$0-c7r4 empty empty 17 7 0 10 -262144 -1 -1
1 1;
#X obj 306 191 tgl 15 0 \$0-c8r4 empty empty 17 7 0 10 -262144 -1 -1
0 1;
#X obj 49 112 WTSButton8 61 62 63 64 65 66 67 68;
#X obj 49 163 WTSButton8 51 52 53 54 55 56 57 58;
#X obj 49 242 tgl 15 0 \$0-c1r5 empty empty 17 7 0 10 -262144 -1 -1
1 1;
#X obj 90 242 tgl 15 0 \$0-c2r5 empty empty 17 7 0 10 -262144 -1 -1
0 1;
#X obj 124 242 tgl 15 0 \$0-c3r5 empty empty 17 7 0 10 -262144 -1 -1
1 1;
#X obj 157 242 tgl 15 0 \$0-c4r5 empty empty 17 7 0 10 -262144 -1 -1
0 1;
#X obj 196 242 tgl 15 0 \$0-c5r5 empty empty 17 7 0 10 -262144 -1 -1
0 1;
#X obj 230 242 tgl 15 0 \$0-c6r5 empty empty 17 7 0 10 -262144 -1 -1
0 1;
#X obj 264 242 tgl 15 0 \$0-c7r5 empty empty 17 7 0 10 -262144 -1 -1
0 1;
#X obj 305 242 tgl 15 0 \$0-c8r5 empty empty 17 7 0 10 -262144 -1 -1
0 1;
#X obj 49 293 tgl 15 0 \$0-c1r6 empty empty 17 7 0 10 -262144 -1 -1
1 1;
#X obj 88 298 tgl 15 0 \$0-c2r6 empty empty 17 7 0 10 -262144 -1 -1
0 1;
#X obj 125 295 tgl 15 0 \$0-c3r6 empty empty 17 7 0 10 -262144 -1 -1
1 1;
#X obj 170 295 tgl 15 0 \$0-c4r6 empty empty 17 7 0 10 -262144 -1 -1
0 1;
#X obj 200 296 tgl 15 0 \$0-c5r6 empty empty 17 7 0 10 -262144 -1 -1
1 1;
#X obj 229 298 tgl 15 0 \$0-c6r6 empty empty 17 7 0 10 -262144 -1 -1
0 1;
#X obj 264 299 tgl 15 0 \$0-c7r6 empty empty 17 7 0 10 -262144 -1 -1
0 1;
#X obj 303 298 tgl 15 0 \$0-c8r6 empty empty 17 7 0 10 -262144 -1 -1
1 1;
#X obj 49 344 tgl 15 0 \$0-c1r7 empty empty 17 7 0 10 -262144 -1 -1
0 1;
#X obj 87 345 tgl 15 0 \$0-c2r7 empty empty 17 7 0 10 -262144 -1 -1
0 1;
#X obj 124 343 tgl 15 0 \$0-c3r7 empty empty 17 7 0 10 -262144 -1 -1
0 1;
#X obj 160 343 tgl 15 0 \$0-c4r7 empty empty 17 7 0 10 -262144 -1 -1
0 1;
#X obj 200 345 tgl 15 0 \$0-c5r7 empty empty 17 7 0 10 -262144 -1 -1
0 1;
#X obj 233 345 tgl 15 0 \$0-c6r7 empty empty 17 7 0 10 -262144 -1 -1
0 1;
#X obj 267 342 tgl 15 0 \$0-c7r7 empty empty 17 7 0 10 -262144 -1 -1
0 1;
#X obj 305 344 tgl 15 0 \$0-c8r7 empty empty 17 7 0 10 -262144 -1 -1
1 1;
#X obj 49 395 tgl 15 0 \$0-c1r8 empty empty 17 7 0 10 -262144 -1 -1
1 1;
#X obj 83 395 tgl 15 0 \$0-c2r8 empty empty 17 7 0 10 -262144 -1 -1
1 1;
#X obj 114 395 tgl 15 0 \$0-c3r8 empty empty 17 7 0 10 -262144 -1 -1
1 1;
#X obj 152 395 tgl 15 0 \$0-c4r8 empty empty 17 7 0 10 -262144 -1 -1
1 1;
#X obj 183 395 tgl 15 0 \$0-c5r8 empty empty 17 7 0 10 -262144 -1 -1
0 1;
#X obj 216 395 tgl 15 0 \$0-c6r8 empty empty 17 7 0 10 -262144 -1 -1
0 1;
#X obj 244 395 tgl 15 0 \$0-c7r8 empty empty 17 7 0 10 -262144 -1 -1
0 1;
#X obj 281 395 tgl 15 0 \$0-c8r8 empty empty 17 7 0 10 -262144 -1 -1
0 1;
#X obj 49 214 WTSButton8 41 42 43 44 45 46 47 48;
#X obj 49 316 WTSButton8 21 22 23 24 25 26 27 28;
#X obj 49 367 WTSButton8 11 12 13 14 15 16 17 18;
#X obj 49 265 WTSButton8 31 32 33 34 35 36 37 38;
#X text 544 184 Eight outlets for instruments;
#X obj 681 156 outlet;
#X text 448 62 Eight inlets for beats;
#X obj 395 91 inlet;
#X obj 536 91 inlet;
#X obj 465 91 inlet;
#X obj 608 91 inlet;
#X obj 752 91 inlet;
#X obj 681 91 inlet;
#X obj 897 91 inlet;
#X obj 824 91 inlet;
#X obj 395 156 outlet;
#X obj 752 156 outlet;
#X obj 466 156 outlet;
#X obj 824 156 outlet;
#X obj 538 156 outlet;
#X obj 896 156 outlet;
#X obj 609 156 outlet;
#N canvas 549 69 693 646 match_input_output 0;
#X obj 15 166 outlet;
#X obj 8 6 inlet;
#X obj 136 6 inlet;
#X obj 8 60 s \$0-i1;
#X obj 68 6 inlet;
#X obj 68 60 s \$0-i2;
#X obj 136 60 s \$0-i3;
#X obj 197 6 inlet;
#X obj 325 6 inlet;
#X obj 257 6 inlet;
#X obj 197 60 s \$0-i4;
#X obj 257 60 s \$0-i5;
#X obj 325 60 s \$0-i6;
#X obj 455 6 inlet;
#X obj 387 6 inlet;
#X obj 387 60 s \$0-i7;
#X obj 455 60 s \$0-i8;
#X obj 18 768 bng 15 250 50 0 empty empty empty 17 7 0 10 -262144 -1
-1;
#X text 10 -29 Inlet N gets bang! at time N;
#X text 177 681 Outlet M bangs! to fire sample M;
#X text 11 92 cNrM => at time N bangh! sample M;
#N canvas 299 213 575 300 sample1 0;
#X obj 9 171 spigot;
#X obj 8 122 r \$0-c1r1;
#X obj 9 146 r \$0-i1;
#X obj 80 170 spigot;
#X obj 79 121 r \$0-c2r1;
#X obj 152 169 spigot;
#X obj 151 120 r \$0-c3r1;
#X obj 223 168 spigot;
#X obj 222 119 r \$0-c4r1;
#X obj 294 168 spigot;
#X obj 293 119 r \$0-c5r1;
#X obj 365 167 spigot;
#X obj 364 118 r \$0-c6r1;
#X obj 437 166 spigot;
#X obj 436 117 r \$0-c7r1;
#X obj 508 165 spigot;
#X obj 507 116 r \$0-c8r1;
#X obj 508 140 r \$0-i8;
#X obj 80 145 r \$0-i2;
#X obj 152 144 r \$0-i3;
#X obj 223 143 r \$0-i4;
#X obj 294 143 r \$0-i5;
#X obj 365 142 r \$0-i6;
#X obj 437 141 r \$0-i7;
#X obj 255 239 outlet;
#X connect 0 0 24 0;
#X connect 1 0 0 1;
#X connect 2 0 0 0;
#X connect 3 0 24 0;
#X connect 4 0 3 1;
#X connect 5 0 24 0;
#X connect 6 0 5 1;
#X connect 7 0 24 0;
#X connect 8 0 7 1;
#X connect 9 0 24 0;
#X connect 10 0 9 1;
#X connect 11 0 24 0;
#X connect 12 0 11 1;
#X connect 13 0 24 0;
#X connect 14 0 13 1;
#X connect 15 0 24 0;
#X connect 16 0 15 1;
#X connect 17 0 15 0;
#X connect 18 0 3 0;
#X connect 19 0 5 0;
#X connect 20 0 7 0;
#X connect 21 0 9 0;
#X connect 22 0 11 0;
#X connect 23 0 13 0;
#X restore 15 136 pd sample1;
#N canvas 272 108 575 300 sample2 0;
#X obj 1 69 spigot;
#X obj 0 18 r \$0-c1r2;
#X obj 72 68 spigot;
#X obj 71 17 r \$0-c2r2;
#X obj 144 67 spigot;
#X obj 143 16 r \$0-c3r2;
#X obj 215 66 spigot;
#X obj 214 15 r \$0-c4r2;
#X obj 286 66 spigot;
#X obj 285 15 r \$0-c5r2;
#X obj 357 65 spigot;
#X obj 356 14 r \$0-c6r2;
#X obj 429 64 spigot;
#X obj 428 13 r \$0-c7r2;
#X obj 500 63 spigot;
#X obj 499 12 r \$0-c8r2;
#X obj 500 36 r \$0-i8;
#X obj 1 42 r \$0-i1;
#X obj 72 41 r \$0-i2;
#X obj 144 40 r \$0-i3;
#X obj 215 39 r \$0-i4;
#X obj 286 39 r \$0-i5;
#X obj 357 38 r \$0-i6;
#X obj 429 37 r \$0-i7;
#X obj 247 135 outlet;
#X connect 0 0 24 0;
#X connect 1 0 0 1;
#X connect 2 0 24 0;
#X connect 3 0 2 1;
#X connect 4 0 24 0;
#X connect 5 0 4 1;
#X connect 6 0 24 0;
#X connect 7 0 6 1;
#X connect 8 0 24 0;
#X connect 9 0 8 1;
#X connect 10 0 24 0;
#X connect 11 0 10 1;
#X connect 12 0 24 0;
#X connect 13 0 12 1;
#X connect 14 0 24 0;
#X connect 15 0 14 1;
#X connect 16 0 14 0;
#X connect 17 0 0 0;
#X connect 18 0 2 0;
#X connect 19 0 4 0;
#X connect 20 0 6 0;
#X connect 21 0 8 0;
#X connect 22 0 10 0;
#X connect 23 0 12 0;
#X restore 93 137 pd sample2;
#X obj 93 163 outlet;
#X obj 177 163 outlet;
#N canvas 565 269 663 151 sample3 0;
#X obj 11 60 spigot;
#X obj 10 9 r \$0-c1r3;
#X obj 82 59 spigot;
#X obj 81 8 r \$0-c2r3;
#X obj 154 58 spigot;
#X obj 153 7 r \$0-c3r3;
#X obj 225 57 spigot;
#X obj 224 6 r \$0-c4r3;
#X obj 296 57 spigot;
#X obj 295 6 r \$0-c5r3;
#X obj 367 56 spigot;
#X obj 366 5 r \$0-c6r3;
#X obj 439 55 spigot;
#X obj 438 4 r \$0-c7r3;
#X obj 510 54 spigot;
#X obj 509 3 r \$0-c8r3;
#X obj 510 27 r \$0-i8;
#X obj 11 33 r \$0-i1;
#X obj 82 32 r \$0-i2;
#X obj 154 31 r \$0-i3;
#X obj 225 30 r \$0-i4;
#X obj 296 30 r \$0-i5;
#X obj 367 29 r \$0-i6;
#X obj 439 28 r \$0-i7;
#X obj 257 126 outlet;
#X obj 76 121 bng 15 250 50 0 empty empty empty 17 7 0 10 -262144 -1
-1;
#X obj 158 118 bng 15 250 50 0 empty empty empty 17 7 0 10 -262144
-1 -1;
#X connect 0 0 24 0;
#X connect 1 0 0 1;
#X connect 2 0 24 0;
#X connect 3 0 2 1;
#X connect 4 0 24 0;
#X connect 4 0 26 0;
#X connect 5 0 4 1;
#X connect 6 0 24 0;
#X connect 7 0 6 1;
#X connect 8 0 24 0;
#X connect 9 0 8 1;
#X connect 10 0 24 0;
#X connect 11 0 10 1;
#X connect 12 0 24 0;
#X connect 13 0 12 1;
#X connect 14 0 24 0;
#X connect 15 0 14 1;
#X connect 16 0 14 0;
#X connect 17 0 0 0;
#X connect 18 0 2 0;
#X connect 19 0 4 0;
#X connect 19 0 25 0;
#X connect 20 0 6 0;
#X connect 21 0 8 0;
#X connect 22 0 10 0;
#X connect 23 0 12 0;
#X restore 177 137 pd sample3;
#X obj 259 164 outlet;
#N canvas 272 108 575 300 sample4 0;
#X obj 11 60 spigot;
#X obj 10 9 r \$0-c1r4;
#X obj 82 59 spigot;
#X obj 81 8 r \$0-c2r4;
#X obj 154 58 spigot;
#X obj 153 7 r \$0-c3r4;
#X obj 225 57 spigot;
#X obj 224 6 r \$0-c4r4;
#X obj 296 57 spigot;
#X obj 295 6 r \$0-c5r4;
#X obj 367 56 spigot;
#X obj 366 5 r \$0-c6r4;
#X obj 439 55 spigot;
#X obj 438 4 r \$0-c7r4;
#X obj 510 54 spigot;
#X obj 509 3 r \$0-c8r4;
#X obj 510 27 r \$0-i8;
#X obj 11 33 r \$0-i1;
#X obj 82 32 r \$0-i2;
#X obj 154 31 r \$0-i3;
#X obj 225 30 r \$0-i4;
#X obj 296 30 r \$0-i5;
#X obj 367 29 r \$0-i6;
#X obj 439 28 r \$0-i7;
#X obj 257 126 outlet;
#X connect 0 0 24 0;
#X connect 1 0 0 1;
#X connect 2 0 24 0;
#X connect 3 0 2 1;
#X connect 4 0 24 0;
#X connect 5 0 4 1;
#X connect 6 0 24 0;
#X connect 7 0 6 1;
#X connect 8 0 24 0;
#X connect 9 0 8 1;
#X connect 10 0 24 0;
#X connect 11 0 10 1;
#X connect 12 0 24 0;
#X connect 13 0 12 1;
#X connect 14 0 24 0;
#X connect 15 0 14 1;
#X connect 16 0 14 0;
#X connect 17 0 0 0;
#X connect 18 0 2 0;
#X connect 19 0 4 0;
#X connect 20 0 6 0;
#X connect 21 0 8 0;
#X connect 22 0 10 0;
#X connect 23 0 12 0;
#X restore 259 138 pd sample4;
#X obj 343 167 outlet;
#X obj 421 164 outlet;
#X obj 505 164 outlet;
#X obj 587 165 outlet;
#N canvas 299 213 575 300 sample5 0;
#X obj 11 60 spigot;
#X obj 10 9 r \$0-c1r5;
#X obj 82 59 spigot;
#X obj 81 8 r \$0-c2r5;
#X obj 154 58 spigot;
#X obj 153 7 r \$0-c3r5;
#X obj 225 57 spigot;
#X obj 224 6 r \$0-c4r5;
#X obj 296 57 spigot;
#X obj 295 6 r \$0-c5r5;
#X obj 367 56 spigot;
#X obj 366 5 r \$0-c6r5;
#X obj 439 55 spigot;
#X obj 438 4 r \$0-c7r5;
#X obj 510 54 spigot;
#X obj 509 3 r \$0-c8r5;
#X obj 510 27 r \$0-i8;
#X obj 11 33 r \$0-i1;
#X obj 82 32 r \$0-i2;
#X obj 154 31 r \$0-i3;
#X obj 225 30 r \$0-i4;
#X obj 296 30 r \$0-i5;
#X obj 367 29 r \$0-i6;
#X obj 439 28 r \$0-i7;
#X obj 257 126 outlet;
#X connect 0 0 24 0;
#X connect 1 0 0 1;
#X connect 2 0 24 0;
#X connect 3 0 2 1;
#X connect 4 0 24 0;
#X connect 5 0 4 1;
#X connect 6 0 24 0;
#X connect 7 0 6 1;
#X connect 8 0 24 0;
#X connect 9 0 8 1;
#X connect 10 0 24 0;
#X connect 11 0 10 1;
#X connect 12 0 24 0;
#X connect 13 0 12 1;
#X connect 14 0 24 0;
#X connect 15 0 14 1;
#X connect 16 0 14 0;
#X connect 17 0 0 0;
#X connect 18 0 2 0;
#X connect 19 0 4 0;
#X connect 20 0 6 0;
#X connect 21 0 8 0;
#X connect 22 0 10 0;
#X connect 23 0 12 0;
#X restore 343 137 pd sample5;
#N canvas 272 108 575 300 sample6 0;
#X obj 11 60 spigot;
#X obj 10 9 r \$0-c1r6;
#X obj 82 59 spigot;
#X obj 81 8 r \$0-c2r6;
#X obj 154 58 spigot;
#X obj 153 7 r \$0-c3r6;
#X obj 225 57 spigot;
#X obj 224 6 r \$0-c4r6;
#X obj 296 57 spigot;
#X obj 295 6 r \$0-c5r6;
#X obj 367 56 spigot;
#X obj 366 5 r \$0-c6r6;
#X obj 439 55 spigot;
#X obj 438 4 r \$0-c7r6;
#X obj 510 54 spigot;
#X obj 509 3 r \$0-c8r6;
#X obj 510 27 r \$0-i8;
#X obj 11 33 r \$0-i1;
#X obj 82 32 r \$0-i2;
#X obj 154 31 r \$0-i3;
#X obj 225 30 r \$0-i4;
#X obj 296 30 r \$0-i5;
#X obj 367 29 r \$0-i6;
#X obj 439 28 r \$0-i7;
#X obj 257 126 outlet;
#X connect 0 0 24 0;
#X connect 1 0 0 1;
#X connect 2 0 24 0;
#X connect 3 0 2 1;
#X connect 4 0 24 0;
#X connect 5 0 4 1;
#X connect 6 0 24 0;
#X connect 7 0 6 1;
#X connect 8 0 24 0;
#X connect 9 0 8 1;
#X connect 10 0 24 0;
#X connect 11 0 10 1;
#X connect 12 0 24 0;
#X connect 13 0 12 1;
#X connect 14 0 24 0;
#X connect 15 0 14 1;
#X connect 16 0 14 0;
#X connect 17 0 0 0;
#X connect 18 0 2 0;
#X connect 19 0 4 0;
#X connect 20 0 6 0;
#X connect 21 0 8 0;
#X connect 22 0 10 0;
#X connect 23 0 12 0;
#X restore 421 138 pd sample6;
#N canvas 565 269 663 151 sample7 0;
#X obj 11 60 spigot;
#X obj 10 9 r \$0-c1r7;
#X obj 82 59 spigot;
#X obj 81 8 r \$0-c2r7;
#X obj 154 58 spigot;
#X obj 153 7 r \$0-c3r7;
#X obj 225 57 spigot;
#X obj 224 6 r \$0-c4r7;
#X obj 296 57 spigot;
#X obj 295 6 r \$0-c5r7;
#X obj 367 56 spigot;
#X obj 366 5 r \$0-c6r7;
#X obj 439 55 spigot;
#X obj 438 4 r \$0-c7r7;
#X obj 510 54 spigot;
#X obj 509 3 r \$0-c8r7;
#X obj 510 27 r \$0-i8;
#X obj 11 33 r \$0-i1;
#X obj 82 32 r \$0-i2;
#X obj 154 31 r \$0-i3;
#X obj 225 30 r \$0-i4;
#X obj 296 30 r \$0-i5;
#X obj 367 29 r \$0-i6;
#X obj 439 28 r \$0-i7;
#X obj 257 126 outlet;
#X connect 0 0 24 0;
#X connect 1 0 0 1;
#X connect 2 0 24 0;
#X connect 3 0 2 1;
#X connect 4 0 24 0;
#X connect 5 0 4 1;
#X connect 6 0 24 0;
#X connect 7 0 6 1;
#X connect 8 0 24 0;
#X connect 9 0 8 1;
#X connect 10 0 24 0;
#X connect 11 0 10 1;
#X connect 12 0 24 0;
#X connect 13 0 12 1;
#X connect 14 0 24 0;
#X connect 15 0 14 1;
#X connect 16 0 14 0;
#X connect 17 0 0 0;
#X connect 18 0 2 0;
#X connect 19 0 4 0;
#X connect 20 0 6 0;
#X connect 21 0 8 0;
#X connect 22 0 10 0;
#X connect 23 0 12 0;
#X restore 505 138 pd sample7;
#N canvas 272 108 575 300 sample8 0;
#X obj 11 60 spigot;
#X obj 10 9 r \$0-c1r8;
#X obj 82 59 spigot;
#X obj 81 8 r \$0-c2r8;
#X obj 154 58 spigot;
#X obj 153 7 r \$0-c3r8;
#X obj 225 57 spigot;
#X obj 224 6 r \$0-c4r8;
#X obj 296 57 spigot;
#X obj 295 6 r \$0-c5r8;
#X obj 367 56 spigot;
#X obj 366 5 r \$0-c6r8;
#X obj 439 55 spigot;
#X obj 438 4 r \$0-c7r8;
#X obj 510 54 spigot;
#X obj 509 3 r \$0-c8r8;
#X obj 510 27 r \$0-i8;
#X obj 11 33 r \$0-i1;
#X obj 82 32 r \$0-i2;
#X obj 154 31 r \$0-i3;
#X obj 225 30 r \$0-i4;
#X obj 296 30 r \$0-i5;
#X obj 367 29 r \$0-i6;
#X obj 439 28 r \$0-i7;
#X obj 257 126 outlet;
#X connect 0 0 24 0;
#X connect 1 0 0 1;
#X connect 2 0 24 0;
#X connect 3 0 2 1;
#X connect 4 0 24 0;
#X connect 5 0 4 1;
#X connect 6 0 24 0;
#X connect 7 0 6 1;
#X connect 8 0 24 0;
#X connect 9 0 8 1;
#X connect 10 0 24 0;
#X connect 11 0 10 1;
#X connect 12 0 24 0;
#X connect 13 0 12 1;
#X connect 14 0 24 0;
#X connect 15 0 14 1;
#X connect 16 0 14 0;
#X connect 17 0 0 0;
#X connect 18 0 2 0;
#X connect 19 0 4 0;
#X connect 20 0 6 0;
#X connect 21 0 8 0;
#X connect 22 0 10 0;
#X connect 23 0 12 0;
#X restore 587 139 pd sample8;
#X connect 1 0 3 0;
#X connect 2 0 6 0;
#X connect 4 0 5 0;
#X connect 7 0 10 0;
#X connect 8 0 12 0;
#X connect 9 0 11 0;
#X connect 13 0 16 0;
#X connect 14 0 15 0;
#X connect 21 0 0 0;
#X connect 22 0 23 0;
#X connect 25 0 24 0;
#X connect 27 0 26 0;
#X connect 32 0 28 0;
#X connect 33 0 29 0;
#X connect 34 0 30 0;
#X connect 35 0 31 0;
#X restore 395 120 pd match_input_output;
#X f 72;
#X obj 68 468 savestate;
#X obj 207 478 pack f f f f f f f f;
#X obj 375 305 unpack f f f f f f f f;
#X obj 173 569 print FOO;
#X obj 305 552 textfile;
#X obj 95 563 print BAZ;
#X obj 44 432 t b f;
#X msg 178 505 add;
#X obj 188 538 list prepend;
#X obj 207 528 print BAR;
#X msg 208 503 add \$1 \$2 \$3 \$4 \$5 \$6 \$7 \$8;
#X connect 0 0 1 0;
#X connect 0 1 2 0;
#X connect 0 2 3 0;
#X connect 0 3 4 0;
#X connect 0 4 5 0;
#X connect 0 5 6 0;
#X connect 0 6 7 0;
#X connect 0 7 8 0;
#X connect 17 0 9 0;
#X connect 17 1 10 0;
#X connect 17 2 11 0;
#X connect 17 3 12 0;
#X connect 17 4 13 0;
#X connect 17 5 14 0;
#X connect 17 6 15 0;
#X connect 17 7 16 0;
#X connect 34 0 18 0;
#X connect 34 1 19 0;
#X connect 34 2 20 0;
#X connect 34 3 21 0;
#X connect 34 4 22 0;
#X connect 34 5 23 0;
#X connect 34 6 24 0;
#X connect 34 7 25 0;
#X connect 35 0 26 0;
#X connect 35 1 27 0;
#X connect 35 2 28 0;
#X connect 35 3 29 0;
#X connect 35 4 30 0;
#X connect 35 5 31 0;
#X connect 35 6 32 0;
#X connect 35 7 33 0;
#X connect 68 0 36 0;
#X connect 68 1 37 0;
#X connect 68 2 38 0;
#X connect 68 3 39 0;
#X connect 68 4 40 0;
#X connect 68 5 41 0;
#X connect 68 6 42 0;
#X connect 68 7 43 0;
#X connect 69 0 52 0;
#X connect 69 1 53 0;
#X connect 69 2 54 0;
#X connect 69 3 55 0;
#X connect 69 4 56 0;
#X connect 69 5 57 0;
#X connect 69 6 58 0;
#X connect 69 7 59 0;
#X connect 70 0 60 0;
#X connect 70 0 97 0;
#X connect 70 1 61 0;
#X connect 70 1 92 1;
#X connect 70 2 62 0;
#X connect 70 2 92 2;
#X connect 70 3 63 0;
#X connect 70 3 92 3;
#X connect 70 4 64 0;
#X connect 70 4 92 4;
#X connect 70 5 65 0;
#X connect 70 5 92 5;
#X connect 70 6 66 0;
#X connect 70 6 92 6;
#X connect 70 7 67 0;
#X connect 70 7 92 7;
#X connect 71 0 44 0;
#X connect 71 1 45 0;
#X connect 71 2 46 0;
#X connect 71 3 47 0;
#X connect 71 4 48 0;
#X connect 71 5 49 0;
#X connect 71 6 50 0;
#X connect 71 7 51 0;
#X connect 75 0 90 0;
#X connect 76 0 90 2;
#X connect 77 0 90 1;
#X connect 78 0 90 3;
#X connect 79 0 90 5;
#X connect 80 0 90 4;
#X connect 81 0 90 7;
#X connect 82 0 90 6;
#X connect 90 0 83 0;
#X connect 90 1 85 0;
#X connect 90 2 87 0;
#X connect 90 3 89 0;
#X connect 90 4 73 0;
#X connect 90 5 84 0;
#X connect 90 6 86 0;
#X connect 90 7 88 0;
#X connect 91 0 93 0;
#X connect 92 0 91 0;
#X connect 92 0 101 0;
#X connect 93 0 70 0;
#X connect 93 1 70 1;
#X connect 93 2 70 2;
#X connect 93 3 70 3;
#X connect 93 4 70 4;
#X connect 93 5 70 5;
#X connect 93 6 70 6;
#X connect 93 7 70 7;
#X connect 97 0 98 0;
#X connect 97 1 92 0;
#X connect 98 0 99 1;
#X connect 98 0 96 0;
#X connect 99 0 94 0;
#X connect 101 0 100 0;
