#N canvas 118 122 1100 552 12;
#X obj 49 10 WTSButton8 81 82 83 84 85 86 87 88;
#X obj 50 38 tgl 15 0 \$0-c1rt1 empty empty 17 7 0 10 -262144 -1 -1
0 1;
#X obj 84 37 tgl 15 0 \$0-c2r1 empty empty 17 7 0 10 -262144 -1 -1
0 1;
#X obj 117 36 tgl 15 0 \$0-c3r1 empty empty 17 7 0 10 -262144 -1 -1
0 1;
#X obj 150 38 tgl 15 0 \$0-c4r1 empty empty 17 7 0 10 -262144 -1 -1
0 1;
#X obj 184 36 tgl 15 0 \$0-c5r1 empty empty 17 7 0 10 -262144 -1 -1
0 1;
#X obj 215 38 tgl 15 0 \$0-c6r1 empty empty 17 7 0 10 -262144 -1 -1
0 1;
#X obj 247 36 tgl 15 0 \$0-c7r1 empty empty 17 7 0 10 -262144 -1 -1
0 1;
#X obj 284 34 tgl 15 0 \$0-c8r1 empty empty 17 7 0 10 -262144 -1 -1
0 1;
#X obj 48 90 tgl 15 0 \$0-c1r2 empty empty 17 7 0 10 -262144 -1 -1
0 1;
#X obj 82 89 tgl 15 0 \$0-c2r2 empty empty 17 7 0 10 -262144 -1 -1
0 1;
#X obj 115 88 tgl 15 0 \$0-c3r2 empty empty 17 7 0 10 -262144 -1 -1
0 1;
#X obj 148 90 tgl 15 0 \$0-c4r2 empty empty 17 7 0 10 -262144 -1 -1
0 1;
#X obj 182 88 tgl 15 0 \$0-c5r2 empty empty 17 7 0 10 -262144 -1 -1
0 1;
#X obj 213 90 tgl 15 0 \$0-c6r2 empty empty 17 7 0 10 -262144 -1 -1
0 1;
#X obj 245 88 tgl 15 0 \$0-c7r2 empty empty 17 7 0 10 -262144 -1 -1
0 1;
#X obj 282 86 tgl 15 0 \$0-c8r2 empty empty 17 7 0 10 -262144 -1 -1
0 1;
#X obj 47 62 WTSButton8 71 72 73 74 75 76 77 78;
#X obj 49 143 tgl 15 0 \$0-c1r3 empty empty 17 7 0 10 -262144 -1 -1
0 1;
#X obj 83 142 tgl 15 0 \$0-c2r3 empty empty 17 7 0 10 -262144 -1 -1
0 1;
#X obj 116 141 tgl 15 0 \$0-c3r3 empty empty 17 7 0 10 -262144 -1 -1
0 1;
#X obj 149 143 tgl 15 0 \$0-c4r3 empty empty 17 7 0 10 -262144 -1 -1
0 1;
#X obj 183 141 tgl 15 0 \$0-c5r3 empty empty 17 7 0 10 -262144 -1 -1
0 1;
#X obj 214 143 tgl 15 0 \$0-c6r3 empty empty 17 7 0 10 -262144 -1 -1
0 1;
#X obj 246 141 tgl 15 0 \$0-c7r3 empty empty 17 7 0 10 -262144 -1 -1
0 1;
#X obj 283 139 tgl 15 0 \$0-c8r3 empty empty 17 7 0 10 -262144 -1 -1
0 1;
#X obj 47 195 tgl 15 0 \$0-c1r4 empty empty 17 7 0 10 -262144 -1 -1
0 1;
#X obj 81 194 tgl 15 0 \$0-c2r4 empty empty 17 7 0 10 -262144 -1 -1
0 1;
#X obj 114 193 tgl 15 0 \$0-c3r4 empty empty 17 7 0 10 -262144 -1 -1
1 1;
#X obj 147 195 tgl 15 0 \$0-c4r4 empty empty 17 7 0 10 -262144 -1 -1
0 1;
#X obj 181 193 tgl 15 0 \$0-c5r4 empty empty 17 7 0 10 -262144 -1 -1
0 1;
#X obj 212 195 tgl 15 0 \$0-c6r4 empty empty 17 7 0 10 -262144 -1 -1
0 1;
#X obj 244 193 tgl 15 0 \$0-c7r4 empty empty 17 7 0 10 -262144 -1 -1
0 1;
#X obj 281 191 tgl 15 0 \$0-c8r4 empty empty 17 7 0 10 -262144 -1 -1
0 1;
#X obj 48 115 WTSButton8 61 62 63 64 65 66 67 68;
#X obj 46 167 WTSButton8 51 52 53 54 55 56 57 58;
#X obj 51 254 tgl 15 0 \$0-c1r5 empty empty 17 7 0 10 -262144 -1 -1
0 1;
#X obj 85 253 tgl 15 0 \$0-c2r5 empty empty 17 7 0 10 -262144 -1 -1
0 1;
#X obj 118 252 tgl 15 0 \$0-c3r5 empty empty 17 7 0 10 -262144 -1 -1
0 1;
#X obj 151 254 tgl 15 0 \$0-c4r5 empty empty 17 7 0 10 -262144 -1 -1
0 1;
#X obj 185 252 tgl 15 0 \$0-c5r5 empty empty 17 7 0 10 -262144 -1 -1
0 1;
#X obj 216 254 tgl 15 0 \$0-c6r5 empty empty 17 7 0 10 -262144 -1 -1
0 1;
#X obj 248 252 tgl 15 0 \$0-c7r5 empty empty 17 7 0 10 -262144 -1 -1
0 1;
#X obj 285 250 tgl 15 0 \$0-c8r5 empty empty 17 7 0 10 -262144 -1 -1
0 1;
#X obj 49 306 tgl 15 0 \$0-c1r6 empty empty 17 7 0 10 -262144 -1 -1
0 1;
#X obj 83 305 tgl 15 0 \$0-c2r6 empty empty 17 7 0 10 -262144 -1 -1
0 1;
#X obj 116 304 tgl 15 0 \$0-c3r6 empty empty 17 7 0 10 -262144 -1 -1
0 1;
#X obj 149 306 tgl 15 0 \$0-c4r6 empty empty 17 7 0 10 -262144 -1 -1
0 1;
#X obj 183 304 tgl 15 0 \$0-c5r6 empty empty 17 7 0 10 -262144 -1 -1
0 1;
#X obj 214 306 tgl 15 0 \$0-c6r6 empty empty 17 7 0 10 -262144 -1 -1
0 1;
#X obj 246 304 tgl 15 0 \$0-c7r6 empty empty 17 7 0 10 -262144 -1 -1
0 1;
#X obj 283 302 tgl 15 0 \$0-c8r6 empty empty 17 7 0 10 -262144 -1 -1
0 1;
#X obj 50 359 tgl 15 0 \$0-c1r7 empty empty 17 7 0 10 -262144 -1 -1
0 1;
#X obj 84 358 tgl 15 0 \$0-c2r7 empty empty 17 7 0 10 -262144 -1 -1
0 1;
#X obj 117 357 tgl 15 0 \$0-c3r7 empty empty 17 7 0 10 -262144 -1 -1
0 1;
#X obj 150 359 tgl 15 0 \$0-c4r7 empty empty 17 7 0 10 -262144 -1 -1
0 1;
#X obj 184 357 tgl 15 0 \$0-c5r7 empty empty 17 7 0 10 -262144 -1 -1
0 1;
#X obj 215 359 tgl 15 0 \$0-c6r7 empty empty 17 7 0 10 -262144 -1 -1
0 1;
#X obj 247 357 tgl 15 0 \$0-c7r7 empty empty 17 7 0 10 -262144 -1 -1
0 1;
#X obj 284 355 tgl 15 0 \$0-c8r7 empty empty 17 7 0 10 -262144 -1 -1
0 1;
#X obj 48 411 tgl 15 0 \$0-c1r8 empty empty 17 7 0 10 -262144 -1 -1
0 1;
#X obj 82 410 tgl 15 0 \$0-c2r8 empty empty 17 7 0 10 -262144 -1 -1
0 1;
#X obj 115 409 tgl 15 0 \$0-c2r8 empty empty 17 7 0 10 -262144 -1 -1
0 1;
#X obj 148 411 tgl 15 0 \$0-c2r8 empty empty 17 7 0 10 -262144 -1 -1
0 1;
#X obj 182 409 tgl 15 0 \$0-c2r8 empty empty 17 7 0 10 -262144 -1 -1
0 1;
#X obj 213 411 tgl 15 0 \$0-c2r8 empty empty 17 7 0 10 -262144 -1 -1
0 1;
#X obj 245 409 tgl 15 0 \$0-c2r8 empty empty 17 7 0 10 -262144 -1 -1
0 1;
#X obj 282 407 tgl 15 0 \$0-c2r8 empty empty 17 7 0 10 -262144 -1 -1
0 1;
#X obj 50 226 WTSButton8 41 42 43 44 45 46 47 48;
#X obj 49 331 WTSButton8 21 22 23 24 25 26 27 28;
#X obj 47 383 WTSButton8 11 12 13 14 15 16 17 18;
#X obj 48 278 WTSButton8 31 32 33 34 35 36 37 38;
#X text 421 423 Eight outlets for instruments;
#X obj 377 402 outlet;
#X obj 429 401 outlet;
#X obj 481 400 outlet;
#X obj 746 396 outlet;
#X obj 319 402 outlet;
#X obj 529 402 outlet;
#X obj 587 401 outlet;
#X obj 644 399 outlet;
#X obj 698 397 outlet;
#X text 436 -67 Eight inlets for beats;
#X obj 383 -38 inlet;
#X obj 511 -37 inlet;
#X obj 383 -13 s \$0-i1;
#X obj 443 -36 inlet;
#X obj 443 -11 s \$0-i2;
#X obj 511 -11 s \$0-i3;
#X obj 572 -41 inlet;
#X obj 700 -40 inlet;
#X obj 632 -39 inlet;
#X obj 572 -16 s \$0-i4;
#X obj 632 -14 s \$0-i5;
#X obj 702 -9 s \$0-i6;
#X obj 830 -34 inlet;
#X obj 762 -33 inlet;
#X obj 762 -8 s \$0-i7;
#X obj 830 -10 s \$0-i8;
#X obj 355 -42 bng 15 250 50 0 empty empty empty 17 7 0 10 -262144
-1 -1;
#X obj 318 318 r \$0-i1;
#X obj 493 311 r \$0-c1r1;
#X obj 321 346 expr if($i1 && $i2 \, 1 \, 0);
#X obj 334 375 bng 15 250 50 0 empty empty empty 17 7 0 10 -262144
-1 -1;
#X floatatom 513 342 5 0 0 0 - - -;
#X obj 589 328 print \$0-c1r1;
#X connect 0 0 1 0;
#X connect 0 1 2 0;
#X connect 0 2 3 0;
#X connect 0 3 4 0;
#X connect 0 4 5 0;
#X connect 0 5 6 0;
#X connect 0 6 7 0;
#X connect 0 7 8 0;
#X connect 17 0 9 0;
#X connect 17 1 10 0;
#X connect 17 2 11 0;
#X connect 17 3 12 0;
#X connect 17 4 13 0;
#X connect 17 5 14 0;
#X connect 17 6 15 0;
#X connect 17 7 16 0;
#X connect 34 0 18 0;
#X connect 34 1 19 0;
#X connect 34 2 20 0;
#X connect 34 3 21 0;
#X connect 34 4 22 0;
#X connect 34 5 23 0;
#X connect 34 6 24 0;
#X connect 34 7 25 0;
#X connect 35 0 26 0;
#X connect 35 1 27 0;
#X connect 35 2 28 0;
#X connect 35 3 29 0;
#X connect 35 4 30 0;
#X connect 35 5 31 0;
#X connect 35 6 32 0;
#X connect 35 7 33 0;
#X connect 68 0 36 0;
#X connect 68 1 37 0;
#X connect 68 2 38 0;
#X connect 68 3 39 0;
#X connect 68 4 40 0;
#X connect 68 5 41 0;
#X connect 68 6 42 0;
#X connect 68 7 43 0;
#X connect 69 0 52 0;
#X connect 69 1 53 0;
#X connect 69 2 54 0;
#X connect 69 3 55 0;
#X connect 69 4 56 0;
#X connect 69 5 57 0;
#X connect 69 6 58 0;
#X connect 69 7 59 0;
#X connect 70 0 60 0;
#X connect 70 1 61 0;
#X connect 70 2 62 0;
#X connect 70 3 63 0;
#X connect 70 4 64 0;
#X connect 70 5 65 0;
#X connect 70 6 66 0;
#X connect 70 7 67 0;
#X connect 71 0 44 0;
#X connect 71 1 45 0;
#X connect 71 2 46 0;
#X connect 71 3 47 0;
#X connect 71 4 48 0;
#X connect 71 5 49 0;
#X connect 71 6 50 0;
#X connect 71 7 51 0;
#X connect 83 0 85 0;
#X connect 84 0 88 0;
#X connect 86 0 87 0;
#X connect 89 0 92 0;
#X connect 90 0 94 0;
#X connect 91 0 93 0;
#X connect 95 0 98 0;
#X connect 96 0 97 0;
#X connect 99 0 85 0;
#X connect 100 0 102 0;
#X connect 101 0 102 1;
#X connect 101 0 104 0;
#X connect 101 0 105 0;
#X connect 102 0 103 0;
#X connect 102 0 77 0;
