#N canvas 212 334 846 300 12;
#X obj 2 21 WTSButton \$1;
#X obj 36 21 WTSButton \$2;
#X obj 72 21 WTSButton \$3;
#X obj 109 21 WTSButton \$4;
#X obj 146 21 WTSButton \$5;
#X obj 181 21 WTSButton \$6;
#X obj 216 21 WTSButton \$7;
#X obj 253 21 WTSButton \$8;
#X obj 1 72 outlet;
#X obj 36 51 outlet;
#X obj 72 71 outlet;
#X obj 109 51 outlet;
#X obj 146 72 outlet;
#X obj 181 49 outlet;
#X obj 216 72 outlet;
#X obj 253 49 outlet;
#X obj 2 -11 inlet;
#X obj 46 -11 inlet;
#X obj 91 -11 inlet;
#X obj 135 -11 inlet;
#X obj 179 -11 inlet;
#X obj 224 -11 inlet;
#X obj 274 -11 inlet;
#X obj 319 -11 inlet;
#X connect 0 0 8 0;
#X connect 1 0 9 0;
#X connect 2 0 10 0;
#X connect 3 0 11 0;
#X connect 4 0 12 0;
#X connect 5 0 13 0;
#X connect 6 0 14 0;
#X connect 7 0 15 0;
#X connect 16 0 0 0;
#X connect 17 0 1 0;
#X connect 18 0 2 0;
#X connect 19 0 3 0;
#X connect 20 0 4 0;
#X connect 21 0 5 0;
#X connect 22 0 6 0;
#X connect 23 0 7 0;
#X coords 0 -1 1 1 295 24 2 0 18;
