#N canvas 499 184 654 484 12;
#X obj 174 455 midiout;
#X obj 201 349 bng 15 250 50 0 empty empty Off 17 7 0 10 -262144 -1
-1;
#X obj 157 348 bng 15 250 50 0 empty empty On 17 7 0 10 -262144 -1
-1;
#X floatatom 153 113 5 0 0 0 - - -;
#X obj 153 26 expr if($f1 == 0 \, 0 \, 1);
#X obj 152 176 i 1;
#X obj 156 305 route 1;
#X obj 57 238 tgl 15 0 empty empty \$1 17 7 0 10 -262144 -1 -1 0 1
;
#X obj 56 305 outlet state;
#X obj 206 387 list 240 0 32 41 2 12 3 0 \$1 72 247;
#X obj 206 420 list 240 0 32 41 2 12 3 0 \$1 21 247;
#X obj 153 137 expr if($i1 != $i2 \, 0 \, 1);
#X floatatom 62 24 0 0 0 0 - - -;
#X obj 100 -3 notein 1;
#X obj 153 88 spigot;
#X obj 13 53 expr if($i1 == \$1 \, 1 \, 0);
#X text 466 384 71 => red;
#X text 466 421 21 => green;
#X obj 78 156 loadbang;
#X msg 78 181 0;
#X obj 169 228 t a a a;
#X connect 1 0 9 0;
#X connect 2 0 10 0;
#X connect 3 0 11 0;
#X connect 4 0 14 0;
#X connect 5 0 7 0;
#X connect 6 0 2 0;
#X connect 6 1 1 0;
#X connect 7 0 20 0;
#X connect 9 0 0 0;
#X connect 10 0 0 0;
#X connect 11 0 5 0;
#X connect 11 0 5 1;
#X connect 12 0 15 0;
#X connect 13 0 12 0;
#X connect 13 1 4 0;
#X connect 14 0 3 0;
#X connect 15 0 14 1;
#X connect 18 0 19 0;
#X connect 19 0 6 0;
#X connect 20 0 11 1;
#X connect 20 1 8 0;
#X connect 20 2 6 0;
#X coords 0 -1 1 1 32 20 2 55 235;
