#N canvas 321 129 545 427 12;
#X obj 186 124 pack f f f;
#X obj 186 252 clip~ -1 1;
#X obj 186 273 hip~ 3;
#X obj 14 167 tgl 15 1 empty empty empty 17 7 0 10 -262144 -1 -1 1
1;
#X obj 14 187 metro 50;
#X obj 14 213 tabwrite~ \$0-scope;
#N canvas 0 22 450 278 (subpatch) 0;
#X array \$0-scope 441 float 0;
#X coords 0 1 441 -1 200 140 1;
#X restore -57 248 graph;
#X obj 187 212 *~ 1;
#X obj 186 104 poly 6 1;
#X obj 186 294 *~ 1;
#X obj 186 5 notein;
#X floatatom 227 30 5 0 0 0 - - -;
#X obj 187 373 outlet~;
#X obj 186 166 clone -s 1 cello 6;
#X connect 0 0 13 0;
#X connect 1 0 2 0;
#X connect 2 0 9 0;
#X connect 3 0 4 0;
#X connect 4 0 5 0;
#X connect 7 0 1 0;
#X connect 8 0 0 0;
#X connect 8 1 0 1;
#X connect 8 2 0 2;
#X connect 9 0 12 0;
#X connect 10 0 8 0;
#X connect 10 1 8 1;
#X connect 10 2 11 0;
#X connect 13 0 5 0;
#X connect 13 0 7 0;
#X coords 0 427 1 426 200 140 0;
