#N canvas 116 113 929 601 12;
#X obj 12 508 hip~ 3;
#X obj 12 530 clip~ -1 1;
#X obj 12 421 /~ 2;
#X obj 12 551 *~ 1;
#X obj 12 486 *~ 0.9;
#X obj 13 262 pack f f f;
#X obj 13 283 s \$0-poly;
#X obj 12 316 r \$0-poly;
#X obj 12 337 route 1;
#X obj 13 215 notein;
#X obj 92 379 mtof;
#X obj 92 421 /~ 2;
#X obj 92 316 r \$0-poly;
#X obj 92 358 unpack f f;
#X obj 92 337 route 2;
#X obj 172 379 mtof;
#X obj 172 421 /~ 2;
#X obj 172 316 r \$0-poly;
#X obj 172 358 unpack f f;
#X obj 252 379 mtof;
#X obj 252 421 /~ 2;
#X obj 252 316 r \$0-poly;
#X obj 252 358 unpack f f;
#X obj 172 337 route 3;
#X obj 252 337 route 4;
#X obj 332 379 mtof;
#X obj 332 421 /~ 2;
#X obj 332 316 r \$0-poly;
#X obj 332 358 unpack f f;
#X obj 412 379 mtof;
#X obj 412 421 /~ 2;
#X obj 412 316 r \$0-poly;
#X obj 412 358 unpack f f;
#X obj 332 337 route 5;
#X obj 412 337 route 6;
#X obj 13 241 poly 6 1;
#X text 432 513 Email: mianmogra94@gmail.com;
#X text 432 528 GitHub: github.com/MikeMorenoAudio;
#X text 448 665 Facebook: fb.com/MikeMorenoAudio;
#X text 448 695 WordPress: mikemorenoaudio.wordpress.com;
#X text 448 710 PatchStorage: patchstorage.com/author/mianmogra;
#N canvas 351 87 432 373 spectrolog 0;
#N canvas 556 61 872 789 FFT_Analyse 0;
#X obj 101 102 inlet~;
#X obj 101 332 *~;
#X obj 132 331 *~;
#X obj 101 356 +~;
#X obj 102 377 powtodb~;
#N canvas 0 22 346 535 init_input_window 0;
#X obj 73 217 / 10;
#X obj 55 278 line 0 0.1;
#X msg 119 246 0;
#X obj 54 176 t f f b;
#X obj 54 239 pack;
#X obj 55 301 t f f;
#X obj 54 152 - 1;
#X obj 74 114 t f f;
#X obj 55 359 * 3.14159;
#X obj 55 381 sin;
#X msg 55 401 \$1 \$1;
#X obj 55 423 *;
#X text 119 334 0...0.99;
#X text 128 359 0...pi;
#X text 79 423 hanning;
#X msg 55 88 4096;
#X obj 100 88 f 4096;
#X obj 99 60 bng 15 250 50 0 empty empty empty 0 -6 0 8 -262144 -1
-1;
#X obj 99 39 loadbang;
#X obj 74 333 / 4096;
#X obj 55 448 tabwrite \$0-window;
#X text 86 381 half-sine;
#X connect 0 0 4 1;
#X connect 1 0 5 0;
#X connect 2 0 1 0;
#X connect 3 0 4 0;
#X connect 3 1 0 0;
#X connect 3 2 2 0;
#X connect 4 0 1 0;
#X connect 5 0 19 0;
#X connect 5 1 20 1;
#X connect 6 0 3 0;
#X connect 7 0 6 0;
#X connect 7 1 19 1;
#X connect 8 0 9 0;
#X connect 9 0 10 0;
#X connect 10 0 11 0;
#X connect 11 0 20 0;
#X connect 15 0 7 0;
#X connect 16 0 7 0;
#X connect 17 0 16 0;
#X connect 18 0 17 0;
#X connect 19 0 8 0;
#X restore 161 276 pd init_input_window;
#N canvas 0 22 450 300 (subpatch) 0;
#X array \$0-lin_scope 2048 float 0;
#X coords 0 100 2047 0 200 140 1;
#X restore 110 621 graph;
#N canvas 0 22 822 328 init_norm 0;
#X obj 43 230 outlet;
#X obj 43 187 - 100;
#X floatatom 43 208 9 0 0 0 - - -;
#X text 108 169 leistung - techn. dB;
#X msg 43 69 4096;
#X obj 80 68 f 4096;
#X obj 80 47 bng 15 250 50 0 empty empty empty 0 -6 0 8 -262144 -1
-1;
#X obj 80 26 loadbang;
#X obj 43 167 rmstodb;
#X obj 43 110 / 4;
#X text 74 103 faktor 2 wegen hanning;
#X text 74 114 weiterer faktor 2 \, weil wir nur die;
#X text 73 124 erste haelfte des konjungiert komplexen spektrum sehen
;
#X text 108 135 bzw. bearbeiten \, somit nur die haelfte der spektralen
energie;
#X connect 1 0 2 0;
#X connect 2 0 0 0;
#X connect 4 0 9 0;
#X connect 5 0 9 0;
#X connect 6 0 5 0;
#X connect 7 0 6 0;
#X connect 8 0 1 0;
#X connect 9 0 8 0;
#X restore 153 421 pd init_norm;
#X obj 100 231 *~;
#X obj 102 443 -~ 60.206;
#X obj 113 517 *~ 0.98;
#X obj 100 539 +~;
#X obj 101 471 *~ 0.02;
#X msg 314 481 1 \$1;
#X obj 314 502 -;
#X obj 314 458 clip 0 1;
#X obj 314 437 / 100;
#X floatatom 314 413 5 0.5 100 0 - - -;
#X obj 333 366 loadbang;
#X obj 100 277 fft~;
#X obj 463 557 line 0 0.1;
#X obj 463 602 / 2;
#X obj 463 622 mtof;
#X msg 463 536 6 \, 273 26.7;
#X obj 463 580 t f f;
#X obj 494 602 - 6;
#X obj 463 642 / 44100;
#X obj 463 663 * 4096;
#X msg 656 633 6;
#X obj 656 653 / 2;
#X obj 656 673 mtof;
#X floatatom 656 693 9 0 0 0 - - -;
#X text 723 694 Hz;
#X obj 754 654 / 2;
#X obj 754 673 mtof;
#X floatatom 754 693 9 0 0 0 - - -;
#X text 822 693 Hz;
#X msg 754 634 273;
#X obj 656 612 t b b;
#X obj 463 498 tgl 15 0 empty empty empty 0 -6 0 8 -262144 -1 -1 1
1;
#X obj 463 458 loadbang;
#X msg 463 478 1;
#X obj 656 592 loadbang;
#X obj 468 245 loadbang;
#X obj 703 102 inlet;
#X obj 130 253 table \$0-window 4096;
#X obj 137 214 tabreceive~ \$0-window;
#X text 353 403 temporal lowpass;
#X text 355 415 parameter between 0 .. 100 %;
#X text 23 23 spectrum~;
#X text 120 23 draws the power of a spectrum in a logarithmic scale
;
#X text 118 36 (by Thomas Musil);
#X obj 113 496 tabreceive~ \$0-lin_scope;
#X obj 100 564 tabsend~ \$0-lin_scope;
#X obj 463 685 tabread4 \$0-lin_scope;
#X obj 468 267 f \$0;
#X text 553 536 transformation to log scale;
#X msg 333 385 100;
#X obj 314 341 max 0.5;
#X obj 314 319 min 100;
#X obj 440 107 inlet;
#X text 96 81 audio sig;
#X text 700 81 ON/OFF;
#X text 427 86 (0 .. 100);
#X text 408 72 temporal lowpass;
#X obj 533 244 bng 15 250 50 0 empty empty empty 0 -6 0 8 -262144 -1
-1;
#X obj 463 735 tabwrite \$0-s;
#X msg 468 296 \; \$1-s xticks 0 12 2;
#X msg 491 330 \; \$1-s yticks 0 5 2;
#X obj 462 516 metro 100;
#X obj 704 166 switch~ 4096 2;
#X obj 463 711 clip 0 100;
#X obj 773 101 loadbang;
#X msg 773 123 1;
#X connect 0 0 8 0;
#X connect 1 0 3 0;
#X connect 2 0 3 1;
#X connect 3 0 4 0;
#X connect 4 0 9 0;
#X connect 7 0 9 1;
#X connect 8 0 19 0;
#X connect 9 0 12 0;
#X connect 10 0 11 1;
#X connect 11 0 53 0;
#X connect 12 0 11 0;
#X connect 13 0 14 0;
#X connect 14 0 10 1;
#X connect 15 0 13 0;
#X connect 15 0 12 1;
#X connect 16 0 15 0;
#X connect 17 0 16 0;
#X connect 18 0 57 0;
#X connect 19 0 1 0;
#X connect 19 0 1 1;
#X connect 19 1 2 0;
#X connect 19 1 2 1;
#X connect 20 0 24 0;
#X connect 21 0 22 0;
#X connect 22 0 26 0;
#X connect 23 0 20 0;
#X connect 24 0 21 0;
#X connect 24 1 25 0;
#X connect 25 0 66 1;
#X connect 26 0 27 0;
#X connect 27 0 54 0;
#X connect 28 0 29 0;
#X connect 29 0 30 0;
#X connect 30 0 31 0;
#X connect 33 0 34 0;
#X connect 34 0 35 0;
#X connect 37 0 33 0;
#X connect 38 0 28 0;
#X connect 38 1 37 0;
#X connect 39 0 69 0;
#X connect 40 0 41 0;
#X connect 41 0 39 0;
#X connect 42 0 38 0;
#X connect 43 0 55 0;
#X connect 44 0 70 0;
#X connect 46 0 8 1;
#X connect 52 0 10 0;
#X connect 54 0 71 0;
#X connect 55 0 67 0;
#X connect 55 0 68 0;
#X connect 57 0 17 0;
#X connect 58 0 17 0;
#X connect 59 0 58 0;
#X connect 60 0 59 0;
#X connect 65 0 55 0;
#X connect 69 0 23 0;
#X connect 71 0 66 0;
#X connect 72 0 73 0;
#X connect 73 0 70 0;
#X restore 17 320 pd FFT_Analyse;
#X obj 63 299 inlet;
#X obj 17 299 inlet~;
#X obj 110 299 inlet;
#N canvas 0 22 450 300 (subpatch) 0;
#X array \$0-s 268 float 0;
#X coords 0 100 267 0 267 140 1;
#X restore 23 27 graph;
#X obj 297 42 cnv 15 1 1 empty empty -10 0 0 0 10 -262144 -1 0;
#X obj 297 154 cnv 15 1 1 empty empty -90 0 0 0 10 -262144 -1 0;
#X obj 297 98 cnv 15 1 1 empty empty -50 0 0 0 10 -262144 -1 0;
#X obj 297 70 cnv 15 1 1 empty empty -30 0 0 0 10 -262144 -1 0;
#X obj 297 126 cnv 15 1 1 empty empty -70 0 0 0 10 -262144 -1 0;
#X obj 18 171 cnv 15 1 1 empty empty 10 0 5 0 10 -262144 -1 0;
#X obj 66 171 cnv 15 1 1 empty empty 40 0 5 0 10 -262144 -1 0;
#X obj 115 171 cnv 15 1 1 empty empty 160 0 5 0 10 -262144 -1 0;
#X obj 162 171 cnv 15 1 1 empty empty 640 0 5 0 10 -262144 -1 0;
#X obj 210 171 cnv 15 1 1 empty empty 2k56 0 5 0 10 -262144 -1 0;
#X obj 258 171 cnv 15 1 1 empty empty 10k2 0 5 0 10 -262144 -1 0;
#X obj 138 184 cnv 15 1 1 empty empty 320 0 5 0 10 -262144 -1 0;
#X obj 282 184 cnv 15 1 1 empty empty 20k5 0 5 0 10 -262144 -1 0;
#X obj 42 181 cnv 15 1 1 empty empty 20 0 9 0 10 -262144 -1 0;
#X obj 90 184 cnv 15 1 1 empty empty 80 0 5 0 10 -262144 -1 0;
#X obj 186 184 cnv 15 1 1 empty empty 1k28 0 5 0 10 -262144 -1 0;
#X obj 234 184 cnv 15 1 1 empty empty 5k12 0 5 0 10 -262144 -1 0;
#X obj 46 168 cnv 15 1 1 empty empty | 0 7 0 10 -262144 -1 0;
#X obj 94 168 cnv 15 1 1 empty empty | 0 7 0 10 -262144 -1 0;
#X obj 142 168 cnv 15 1 1 empty empty | 0 7 0 10 -262144 -1 0;
#X obj 190 168 cnv 15 1 1 empty empty | 0 7 0 10 -262144 -1 0;
#X obj 238 168 cnv 15 1 1 empty empty | 0 7 0 10 -262144 -1 0;
#X obj 286 168 cnv 15 1 1 empty empty | 0 7 0 10 -262144 -1 0;
#X connect 1 0 0 1;
#X connect 2 0 0 0;
#X connect 3 0 0 2;
#X coords 0 -1 1 1 330 210 1 0 0;
#X restore 91 479 pd spectrolog;
#X text 98 217 INLET 1: Frequency;
#X text 98 253 INLET 2: Trigger / Velocity;
#X text 108 269 Trigger the instrument by sending a number from 1 to
127;
#X text 108 232 An incoming float or signal sets the frequency.;
#X obj 12 400 mkmr/06-Instruments/harp~;
#X obj 12 379 mtof;
#X obj 12 358 unpack f f;
#X obj 92 400 mkmr/06-Instruments/harp~;
#X obj 172 400 mkmr/06-Instruments/harp~;
#X obj 252 400 mkmr/06-Instruments/harp~;
#X obj 332 400 mkmr/06-Instruments/harp~;
#X obj 412 400 mkmr/06-Instruments/harp~;
#X text 432 498 Miguel Moreno 2019;
#X text 346 135 [harp~];
#X obj 12 442 throw~ \$0-M;
#X obj 92 442 throw~ \$0-M;
#X obj 172 442 throw~ \$0-M;
#X obj 252 442 throw~ \$0-M;
#X obj 332 442 throw~ \$0-M;
#X obj 412 442 throw~ \$0-M;
#X obj 12 465 catch~ \$0-M;
#X text 448 680 Youtube: youtube.com/c/mikemorenoaudio;
#X text 432 478 [harp~] version 1;
#X text 356 150 A synthesized harp instrument using karplus.;
#X obj 12 590 outlet~;
#X connect 0 0 1 0;
#X connect 1 0 3 0;
#X connect 2 0 56 0;
#X connect 3 0 66 0;
#X connect 4 0 0 0;
#X connect 5 0 6 0;
#X connect 7 0 8 0;
#X connect 8 0 48 0;
#X connect 9 0 35 0;
#X connect 9 1 35 1;
#X connect 10 0 49 0;
#X connect 11 0 57 0;
#X connect 12 0 14 0;
#X connect 13 0 10 0;
#X connect 13 1 49 1;
#X connect 14 0 13 0;
#X connect 15 0 50 0;
#X connect 16 0 58 0;
#X connect 17 0 23 0;
#X connect 18 0 15 0;
#X connect 18 1 50 1;
#X connect 19 0 51 0;
#X connect 20 0 59 0;
#X connect 21 0 24 0;
#X connect 22 0 19 0;
#X connect 22 1 51 1;
#X connect 23 0 18 0;
#X connect 24 0 22 0;
#X connect 25 0 52 0;
#X connect 26 0 60 0;
#X connect 27 0 33 0;
#X connect 28 0 25 0;
#X connect 28 1 52 1;
#X connect 29 0 53 0;
#X connect 30 0 61 0;
#X connect 31 0 34 0;
#X connect 32 0 29 0;
#X connect 32 1 53 1;
#X connect 33 0 28 0;
#X connect 34 0 32 0;
#X connect 35 0 5 0;
#X connect 35 1 5 1;
#X connect 35 2 5 2;
#X connect 46 0 2 0;
#X connect 47 0 46 0;
#X connect 48 0 47 0;
#X connect 48 1 46 1;
#X connect 49 0 11 0;
#X connect 50 0 16 0;
#X connect 51 0 20 0;
#X connect 52 0 26 0;
#X connect 53 0 30 0;
#X connect 62 0 4 0;
#X connect 62 0 41 0;
#X coords 0 -1 1 1 330 210 2 91 479;
