#N canvas 496 240 778 536 12;
#X obj 126 98 vradio 12 1 0 12 empty empty empty 0 -8 0 10 -262144
-1 -1 0;
#X obj 166 101 vsl 15 128 0 127 0 0 empty empty empty 0 -9 0 10 -262144
-1 -1 0 1;
#X floatatom 165 232 5 0 0 0 - - #0_velocity;
#X obj 144 100 vradio 15 1 0 5 empty empty empty 0 -8 0 10 -262144
-1 -1 4;
#X floatatom 199 204 5 0 0 0 - - -;
#X obj 126 263 expr (11 - $f1) + 57;
#X obj 199 174 expr (2 - $f1) * 12;
#X obj 163 315 +;
#X obj 183 286 r \$0_octave;
#X obj 199 232 s \$0_octave;
#X floatatom 163 340 5 0 0 0 - - -;
#X obj 215 139 bng 15 250 50 0 empty empty empty 17 7 0 10 -262144
-1 -1;
#X obj 215 95 t b;
#X obj 163 404 outlet MIDI note;
#X floatatom 146 184 2 0 0 0 - - -;
#X obj 331 133 expr 2 - $f1;
#X obj 463 16 inlet Toggle for note;
#X obj 463 46 tgl 15 0 empty empty empty 17 7 0 10 -262144 -1 -1 0
1;
#X floatatom 540 134 5 0 0 0 - - -;
#X obj 540 109 r \$0_velocity;
#X obj 495 103 bng 15 250 50 0 empty empty empty 17 7 0 10 -262144
-1 -1;
#X obj 463 70 t f b;
#X floatatom 463 139 5 0 0 0 - - -;
#X obj 453 400 outlet velocity;
#X floatatom 453 268 5 0 0 0 - - -;
#X obj 453 243 *;
#X obj 12 24 inlet note;
#X obj 283 26 inlet velocity;
#X obj 144 0 inlet octave;
#X obj 144 27 expr $i1 * -1 + 2;
#X connect 0 0 5 0;
#X connect 1 0 2 0;
#X connect 3 0 6 0;
#X connect 3 0 12 0;
#X connect 3 0 15 0;
#X connect 4 0 9 0;
#X connect 5 0 7 0;
#X connect 6 0 4 0;
#X connect 7 0 10 0;
#X connect 8 0 7 1;
#X connect 10 0 13 0;
#X connect 11 0 0 0;
#X connect 12 0 11 0;
#X connect 15 0 14 0;
#X connect 16 0 17 0;
#X connect 17 0 21 0;
#X connect 18 0 25 1;
#X connect 19 0 18 0;
#X connect 20 0 25 0;
#X connect 21 0 22 0;
#X connect 21 1 20 0;
#X connect 22 0 25 0;
#X connect 24 0 23 0;
#X connect 25 0 24 0;
#X connect 26 0 0 0;
#X connect 27 0 1 0;
#X connect 28 0 29 0;
#X connect 29 0 3 0;
#X coords 0 -1 1 1 75 175 1 120 80;
