#N canvas 425 113 450 300 12;
#X obj 127 210 output~;
#X obj 182 6 loadbang;
#X msg 55 86 100;
#X msg 147 73 50;
#X obj 130 260 dac~;
#X obj 138 152 hsl 128 15 0 100 0 0 empty empty Volume 10 8 0 8 -228856
-258113 -1 12700 1;
#X floatatom 135 168 5 0 0 0 - - -;
#X obj 138 135 hsl 128 15 0 100 0 0 empty empty Pan 10 8 0 8 -228856
-258113 -1 6350 1;
#X obj 135 119 tgl 15 0 empty empty Mute 17 9 0 8 -228856 -258113 -1
0 1;
#X msg 95 73 0;
#X obj 13 15 inlet~ Signal;
#X obj 243 36 metro 200;
#X obj 243 61 snapshot~;
#X floatatom 232 116 5 0 0 0 - - -;
#X obj 204 246 +~;
#X obj 204 271 /~ 2;
#X connect 0 0 4 0;
#X connect 0 0 14 0;
#X connect 0 1 4 1;
#X connect 0 1 14 1;
#X connect 1 0 2 0;
#X connect 1 0 3 0;
#X connect 1 0 9 0;
#X connect 1 0 11 0;
#X connect 2 0 5 0;
#X connect 3 0 7 0;
#X connect 5 0 6 0;
#X connect 6 0 0 1;
#X connect 7 0 0 3;
#X connect 8 0 0 2;
#X connect 9 0 8 0;
#X connect 10 0 0 0;
#X connect 11 0 12 0;
#X connect 12 0 13 0;
#X connect 14 0 15 0;
#X connect 15 0 12 0;
#X coords 0 -1 1 1 135 68 1 133 101;
