#N canvas 272 82 659 453 12;
#X obj 502 348 *~;
#X obj 304 332 tabwrite~ array1;
#X obj 257 302 bng 18 250 50 0 empty empty empty 17 7 0 10 #fcfcfc
#000000 #000000;
#X obj 287 253 osc~ 220;
#X floatatom 487 53 5 0 0 0 - - - 0;
#X floatatom 517 260 5 0 0 0 - - - 0;
#X obj 231 154 mtof;
#X obj 517 235 / 60;
#X obj 386 252 osc~;
#X obj 521 299 osc~;
#X floatatom 221 223 5 0 0 0 - - - 0;
#X obj 92 10 inlet;
#X text 21 11 Midi note;
#X obj 383 392 outlet~;
#X msg 433 212 0.25;
#X obj 419 22 loadbang;
#X obj 492 7 inlet;
#X text 543 8 Vibrato;
#X obj 200 23 tgl 15 0 empty empty empty 17 7 0 10 #fcfcfc #000000
#000000 0 1;
#X obj 139 95 *;
#X floatatom 91 57 5 0 0 0 - - - 0;
#X floatatom 139 120 5 0 0 0 - - - 0;
#X floatatom 200 43 5 0 0 0 - - - 0;
#X connect 0 0 13 0;
#X connect 2 0 1 0;
#X connect 3 0 0 0;
#X connect 4 0 7 0;
#X connect 5 0 9 0;
#X connect 6 0 10 0;
#X connect 7 0 5 0;
#X connect 8 0 0 0;
#X connect 9 0 0 1;
#X connect 10 0 3 0;
#X connect 10 0 8 0;
#X connect 11 0 20 0;
#X connect 14 0 8 1;
#X connect 15 0 14 0;
#X connect 16 0 4 0;
#X connect 18 0 22 0;
#X connect 19 0 21 0;
#X connect 20 0 19 0;
#X connect 21 0 6 0;
#X connect 22 0 19 1;
