#N canvas 116 68 450 480 12;
#X obj 64 253 sigmund~ pitch notes env peaks tracks;
#X floatatom 64 288 5 0 0 0 - - - 0;
#X floatatom 128 288 5 0 0 0 - - - 0;
#X floatatom 192 288 5 0 0 0 - - - 0;
#X floatatom 252 288 5 0 0 0 - - - 0;
#X floatatom 305 288 5 0 0 0 - - - 0;
#X obj 87 71 phasor~ 220;
#X floatatom 97 32 5 0 0 0 - - - 0;
#X obj 12 79 metro 500;
#X obj 15 43 bng 15 250 50 0 empty empty empty 17 7 0 10 #fcfcfc #000000
#000000;
#X obj 13 123 bng 15 250 50 0 empty empty empty 17 7 0 10 #fcfcfc #000000
#000000;
#X msg 49 47 stop;
#X obj 26 151 tgl 15 0 empty empty empty 17 7 0 10 #fcfcfc #000000
#000000 0 1;
#X obj 26 171 sig~;
#X obj 32 211 *~;
#X obj 128 312 mtof;
#X floatatom 128 337 5 0 0 0 - - - 0;
#X obj 67 324 mtof;
#X floatatom 67 349 5 0 0 0 - - - 0;
#X obj 66 376 osc~;
#X obj 70 439 dac~ 1 2;
#X obj 245 58 adc~;
#X obj 132 392 *~;
#X obj 192 312 sig~;
#X connect 0 0 1 0;
#X connect 0 1 2 0;
#X connect 0 2 3 0;
#X connect 0 3 4 0;
#X connect 0 4 5 0;
#X connect 1 0 17 0;
#X connect 2 0 15 0;
#X connect 3 0 23 0;
#X connect 6 0 14 1;
#X connect 7 0 6 0;
#X connect 8 0 10 0;
#X connect 9 0 8 0;
#X connect 10 0 12 0;
#X connect 11 0 8 0;
#X connect 12 0 13 0;
#X connect 13 0 14 0;
#X connect 14 0 0 0;
#X connect 15 0 16 0;
#X connect 17 0 18 0;
#X connect 18 0 19 0;
#X connect 19 0 22 0;
#X connect 21 0 0 0;
#X connect 21 1 0 0;
#X connect 22 0 20 0;
#X connect 22 0 20 1;
#X connect 23 0 22 1;
