#N canvas 381 167 642 449 12;
#X declare -path r_cycle;
#X obj 1 -1 declare -path r_cycle;
#X obj 118 124 bng 15 250 50 0 empty empty empty 17 7 0 10 -262144
-1 -1;
#X floatatom 164 61 5 0 0 1 status - -;
#X obj 164 85 route 1;
#X obj 118 175 bng 15 250 50 0 empty empty empty 17 7 0 10 -262144
-1 -1;
#X obj 178 171 bng 15 250 50 0 empty empty empty 17 7 0 10 -262144
-1 -1;
#N canvas 0 50 450 300 toggle 0;
#X obj 37 37 inlet;
#X obj 36 64 f 1;
#X obj 36 89 expr if($f1 == 1 \, 0 \, 1);
#X floatatom 36 114 5 0 0 0 - - -;
#X obj 36 151 route 1;
#X obj 83 235 outlet;
#X obj 36 176 outlet;
#X connect 0 0 1 0;
#X connect 1 0 2 0;
#X connect 2 0 1 1;
#X connect 2 0 3 0;
#X connect 3 0 4 0;
#X connect 4 0 6 0;
#X connect 4 1 5 0;
#X restore 118 144 pd toggle;
#X text 15 64 Toggle button 71;
#X msg 204 204 rgb;
#X obj 136 307 route list;
#X obj 154 394 outlet;
#X msg 118 195 rgb;
#X obj 427 173 loadbang;
#X msg 427 198 rgb;
#X obj 427 223 list append \$1 127 40 50;
#X obj 11 37 BUTTON \$1 6 but_1 -1;
#X obj 240 231 list append \$1 20 19 127;
#X obj 13 231 list append \$1 64 0 0;
#X connect 1 0 6 0;
#X connect 2 0 3 0;
#X connect 3 0 1 0;
#X connect 4 0 11 0;
#X connect 5 0 8 0;
#X connect 6 0 4 0;
#X connect 6 1 5 0;
#X connect 8 0 16 0;
#X connect 9 0 10 0;
#X connect 11 0 17 0;
#X connect 12 0 13 0;
#X connect 13 0 14 0;
#X connect 14 0 9 0;
#X connect 15 1 2 0;
#X connect 16 0 9 0;
#X connect 17 0 9 0;
