#N canvas 254 217 642 449 12;
#X declare -path r_cycle;
#X obj 1 -1 declare -path r_cycle;
#X obj 118 118 bng 15 250 50 0 empty empty empty 17 7 0 10 -262144
-1 -1;
#X floatatom 164 65 5 0 0 1 status - -;
#X obj 164 102 route 1;
#X obj 118 189 bng 15 250 50 0 empty empty empty 17 7 0 10 -262144
-1 -1;
#X obj 160 172 bng 15 250 50 0 empty empty empty 17 7 0 10 -262144
-1 -1;
#N canvas 0 50 450 300 toggle 0;
#X obj 37 37 inlet;
#X obj 36 64 f 1;
#X floatatom 36 126 5 0 0 0 - - -;
#X obj 36 151 route 1;
#X obj 93 176 outlet;
#X obj 36 176 outlet;
#X obj 36 89 expr if($f1 == 1 \, 0 \, 1) \; if($f1 == 1 \, 1 \, 0)
, f 54;
#X obj 311 212 outlet;
#X text 280 228 Outputs state;
#X text 46 201 These are XOR;
#X text 30 216 Bang on inlet toggles;
#X connect 0 0 1 0;
#X connect 1 0 6 0;
#X connect 2 0 3 0;
#X connect 3 0 5 0;
#X connect 3 1 4 0;
#X connect 6 0 1 1;
#X connect 6 0 2 0;
#X connect 6 1 7 0;
#X restore 118 151 pd toggle;
#X text 1 74 Toggle button 71;
#X obj 329 75 expr (\$1-11)%10 \; (\$1/10)-1;
#X floatatom 329 128 5 0 0 2 Step - -;
#X floatatom 433 144 5 0 0 2 Instrument - -;
#X text 177 171 On;
#X text 85 171 Off;
#X msg 204 -1 color_bg 21;
#X msg 329 -1 toggle 1;
#X msg 329 37 toggle 0;
#X msg 1 110 color_bg 72;
#X obj 26 44 BUTTON \$1 72 \$1 -1;
#X obj 246 236 outlet;
#X obj 33 309 midiout;
#X obj 166 286 list 240 0 32 41 2 12 3 0 \$1 72 247;
#X obj 180 347 list 240 0 32 41 2 12 3 0 \$1 21 247;
#X obj 166 311 print OFF;
#X obj 180 372 print ON;
#X connect 1 0 6 0;
#X connect 2 0 3 0;
#X connect 3 0 1 0;
#X connect 3 0 8 0;
#X connect 4 0 20 0;
#X connect 5 0 21 0;
#X connect 6 0 4 0;
#X connect 6 1 5 0;
#X connect 6 2 18 0;
#X connect 8 0 9 0;
#X connect 8 1 10 0;
#X connect 13 0 17 0;
#X connect 14 0 17 0;
#X connect 15 0 17 0;
#X connect 17 1 2 0;
#X connect 20 0 19 0;
#X connect 20 0 22 0;
#X connect 21 0 19 0;
#X connect 21 0 23 0;
