#N canvas 785 276 109 189 12;
#X obj 10 37 / 127;
#X floatatom 10 62 5 0 0 0 - - - 0;
#X obj 10 86 pack 0 50;
#X obj 10 111 line~;
#X obj 10 12 inlet;
#X obj 10 136 outlet~;
#X connect 0 0 1 0;
#X connect 1 0 2 0;
#X connect 2 0 3 0;
#X connect 3 0 5 0;
#X connect 4 0 0 0;
