#N canvas 239 122 893 483 12;
#X obj 109 242 WTSWaveTableOcs~;
#X obj 270 105 -~ 0.5;
#X obj 345 145 +~;
#X obj 435 98 sig~;
#X obj 342 190 snapshot~;
#X obj 98 169 metro 10;
#X obj 34 121 loadbang;
#X obj 106 138 bng 15 250 50 0 empty empty empty 17 7 0 10 #fcfcfc
#000000 #000000;
#X obj 309 78 r \$0-depth;
#X obj 331 -3 inlet Vebrato Freq;
#X obj 435 17 inlet WT Position Centre;
#X obj 271 54 phasor~ 7;
#X msg 467 74 3;
#X obj 474 46 loadbang;
#X obj 494 164 / 10;
#X obj 491 205 s \$0-depth;
#X obj 506 91 inlet Depth;
#X obj 615 93 loadbang;
#X msg 608 122 10;
#X obj 108 459 outlet~;
#X obj 110 17 inlet;
#X floatatom 200 222 5 0 0 2 Center \$0-center - 0;
#X obj 349 47 s \$0-center;
#X floatatom 140 220 5 0 0 2 V.\ Freq \$0-vfreq - 0;
#X obj 250 23 s \$0-vfreq;
#X floatatom 253 222 5 0 0 2 Depth \$0-depth - 0;
#X connect 0 0 19 0;
#X connect 1 0 2 0;
#X connect 2 0 4 0;
#X connect 3 0 2 1;
#X connect 4 0 0 1;
#X connect 5 0 4 0;
#X connect 6 0 5 0;
#X connect 7 0 5 0;
#X connect 8 0 1 1;
#X connect 9 0 11 1;
#X connect 9 0 24 0;
#X connect 10 0 3 0;
#X connect 10 0 22 0;
#X connect 11 0 1 0;
#X connect 12 0 3 0;
#X connect 13 0 12 0;
#X connect 14 0 15 0;
#X connect 16 0 14 0;
#X connect 17 0 18 0;
#X connect 18 0 14 0;
#X connect 20 0 0 0;
#X coords 0 -1 1 1 200 260 1 100 190;
