#N canvas 3 62 1914 985 10;
#X obj 101 101 cnv 15 184 114 empty empty EQ-5 2 12 0 14 -233017 -66577
0;
#N canvas 3 55 1265 718 workings 0;
#X obj -143 353 *~;
#X floatatom -63 314 5 0 1 0 - eq5_1 -;
#X obj -8 350 *~;
#X floatatom 76 323 5 0 1 0 - eq5_2 -;
#X obj 465 376 *~;
#X floatatom 569 341 5 0 1 0 - eq5_5 -;
#X obj -96 117 mtof;
#X floatatom -96 98 5 0 0 0 - - -;
#X floatatom -96 140 10 0 0 0 - - -;
#X obj -149 159 lop~;
#X msg -96 73 100;
#X obj -96 49 loadbang;
#X text -166 45 Pre EQ;
#X text -261 65 (deja la voz audible);
#X obj 139 357 *~;
#X floatatom 224 327 5 0 1 0 - eq5_3 -;
#X obj 309 357 *~;
#X floatatom 389 336 5 0 1 0 - eq5_4 -;
#X obj -148 573 lop~ 150;
#X obj -8 555 lop~ 625;
#X obj -6 523 hip~ 150;
#X obj 139 562 lop~ 2500;
#X obj 141 530 hip~ 625;
#X obj 314 527 hip~ 2500;
#X obj 309 562 lop~ 10000;
#X obj 466 563 hip~ 10000;
#X obj -135 397 loadbang;
#X msg -65 404 set \$1;
#X msg -97 449 1.6;
#X obj 15 397 loadbang;
#X msg 85 404 set \$1;
#X msg 53 449 1;
#X obj 165 397 loadbang;
#X msg 235 404 set \$1;
#X msg 203 449 0.8;
#X obj 335 397 loadbang;
#X msg 405 404 set \$1;
#X msg 373 449 1;
#X obj 515 397 loadbang;
#X msg 585 404 set \$1;
#X msg 553 449 1.6;
#X msg 207 81 1;
#X obj 267 110 s eq5_init_1;
#X obj 268 145 s eq5_init_2;
#X obj 266 175 s eq5_init_3;
#X obj 268 203 s eq5_init_4;
#X obj 270 237 s eq5_init_5;
#X obj -125 479 s eq5_init_1;
#X obj 32 487 s eq5_init_2;
#X obj 172 493 s eq5_init_3;
#X obj 344 494 s eq5_init_4;
#X obj 504 496 s eq5_init_5;
#X obj 100 55 r eq5_reset;
#X floatatom -5 144 5 0 1 0 - eq5_pre -;
#X obj -33 200 loadbang;
#X msg 47 189 set \$1;
#X msg 15 234 1;
#X obj -133 219 *~;
#X obj -14 262 s eq5_init_pre;
#X text 4 122 Pre-AMP;
#X obj 266 73 s eq5_init_pre;
#X obj -199 93 inlet~;
#X obj 376 131 outlet~;
#X obj -146 253 s~ \$0-a_eq5;
#X obj -156 305 r~ \$0-a_eq5;
#X obj -9 304 r~ \$0-a_eq5;
#X obj 141 305 r~ \$0-a_eq5;
#X obj 311 305 r~ \$0-a_eq5;
#X obj 480 309 r~ \$0-a_eq5;
#X obj -148 601 throw~ \$0-de_eq5;
#X obj -10 601 throw~ \$0-de_eq5;
#X obj 142 617 throw~ \$0-de_eq5;
#X obj 312 601 throw~ \$0-de_eq5;
#X obj 462 601 throw~ \$0-de_eq5;
#X obj 375 90 catch~ \$0-de_eq5;
#X connect 0 0 18 0;
#X connect 1 0 0 1;
#X connect 1 0 27 0;
#X connect 2 0 20 0;
#X connect 3 0 2 1;
#X connect 3 0 30 0;
#X connect 4 0 25 0;
#X connect 5 0 4 1;
#X connect 5 0 39 0;
#X connect 6 0 8 0;
#X connect 7 0 6 0;
#X connect 8 0 9 1;
#X connect 9 0 57 0;
#X connect 10 0 7 0;
#X connect 11 0 10 0;
#X connect 14 0 22 0;
#X connect 15 0 14 1;
#X connect 15 0 33 0;
#X connect 16 0 23 0;
#X connect 17 0 16 1;
#X connect 17 0 36 0;
#X connect 18 0 69 0;
#X connect 19 0 70 0;
#X connect 20 0 19 0;
#X connect 21 0 71 0;
#X connect 22 0 21 0;
#X connect 23 0 24 0;
#X connect 24 0 72 0;
#X connect 25 0 73 0;
#X connect 26 0 28 0;
#X connect 27 0 28 0;
#X connect 28 0 47 0;
#X connect 29 0 31 0;
#X connect 30 0 31 0;
#X connect 31 0 48 0;
#X connect 32 0 34 0;
#X connect 33 0 34 0;
#X connect 34 0 49 0;
#X connect 35 0 37 0;
#X connect 36 0 37 0;
#X connect 37 0 50 0;
#X connect 38 0 40 0;
#X connect 39 0 40 0;
#X connect 40 0 51 0;
#X connect 41 0 42 0;
#X connect 41 0 43 0;
#X connect 41 0 44 0;
#X connect 41 0 45 0;
#X connect 41 0 46 0;
#X connect 41 0 60 0;
#X connect 52 0 41 0;
#X connect 53 0 55 0;
#X connect 53 0 57 1;
#X connect 54 0 56 0;
#X connect 55 0 56 0;
#X connect 56 0 58 0;
#X connect 57 0 63 0;
#X connect 61 0 9 0;
#X connect 64 0 0 0;
#X connect 65 0 2 0;
#X connect 66 0 14 0;
#X connect 67 0 16 0;
#X connect 68 0 4 0;
#X connect 74 0 62 0;
#X restore 42 408 pd workings;
#X obj 377 503 vsl 10 128 0 2 0 0 eq5_2 eq5_init_2 empty 0 -9 0 10
-262144 -1 -1 6350 0;
#X obj 290 503 vsl 10 128 0 2 0 0 eq5_3 eq5_init_3 empty 0 -9 0 10
-262144 -1 -1 5080 0;
#X obj 204 503 vsl 10 128 0 2 0 0 eq5_4 eq5_init_4 empty 0 -9 0 10
-262144 -1 -1 6350 0;
#X obj 124 503 vsl 10 128 0 2 0 0 eq5_5 eq5_init_5 empty 0 -9 0 10
-262144 -1 -1 10160 0;
#X text 74 379 EQ;
#X obj 464 503 vsl 10 128 0 2 0 0 eq5_1 eq5_init_1 empty 0 -9 0 10
-262144 -1 -1 10160 0;
#X text 456 641 EQ1;
#X text 121 650 EQ5;
#X obj 539 469 expr 2*$f1;
#X obj 43 143 *~ 1;
#X obj 539 503 vsl 15 128 0 2 0 0 eq5_pre eq5_init_pre empty 0 -9 0
10 -262144 -1 -1 6350 1;
#X obj 42 512 outlet~;
#X obj 43 98 inlet~;
#X obj 41 464 *~ 1;
#X obj 210 371 *~;
#X obj 226 294 tgl 15 0 empty empty empty 17 7 0 10 -262144 -1 -1 0
1;
#X obj 122 283 tgl 15 0 empty empty empty 17 7 0 10 -262144 -1 -1 1
1;
#X obj 122 260 == 0;
#X obj 220 268 == 1;
#X obj 122 332 line~;
#X obj 122 306 pack 1 50;
#X obj 42 365 *~;
#X obj 220 341 line~;
#X obj 220 316 pack 1 50;
#X obj 248 126 tgl 15 0 empty empty by 17 7 0 10 -262144 -1 -1 0 1
;
#X obj 343 22 loadbang;
#X msg 341 94 0;
#X obj 122 469 expr 2*$f1;
#X obj 204 469 expr 2*$f1;
#X obj 290 469 expr 2*$f1;
#X obj 375 469 expr 2*$f1;
#X obj 464 469 expr 2*$f1;
#X obj 179 197 hsl 60 10 0 1 0 0 empty empty empty -2 -8 0 10 -262144
-1 -1 2950 1;
#X obj 180 213 hsl 60 10 0 1 0 0 empty empty empty -2 -8 0 10 -262144
-1 -1 4720 1;
#X obj 179 183 hsl 60 10 0 1 0 0 empty empty empty -2 -8 0 10 -262144
-1 -1 2360 1;
#X obj 176 152 hsl 60 10 0 1 0 0 empty empty empty -2 -8 0 10 -262144
-1 -1 4720 1;
#X obj 177 168 hsl 60 10 0 1 0 0 empty empty empty -2 -8 0 10 -262144
-1 -1 2950 1;
#X text 144 152 lo;
#X text 153 213 hi;
#X text 533 647 pre;
#X obj 175 130 hsl 60 10 0 1 0 0 empty empty empty -2 -8 0 10 -262144
-1 -1 2950 1;
#X text 145 128 pre;
#X msg 872 110 clear;
#X obj 814 194 tof/pmenu 1 1 black white red;
#X obj 157 103 bng 15 250 50 0 empty empty O 4 8 0 10 -262144 -1 -1
;
#X obj 176 103 bng 15 250 50 0 empty empty S 4 8 0 10 -262144 -1 -1
;
#X msg 819 150 add 0 1 2 3 4 5 6 7 8 9;
#X floatatom 814 217 5 0 0 0 - - -;
#X msg 1059 115 clear;
#X obj 819 46 loadbang;
#X obj 819 69 t b b b b;
#X msg 732 320 set \$1;
#X floatatom 195 103 5 0 0 0 - - -;
#X msg 620 307 1, f 4;
#X floatatom 657 472 5 0 0 0 - - -;
#X obj 620 441 t b a b;
#X msg 620 410 \$2 \$2 \$4 \$5 \$6 \$7 \$8 \$9;
#X obj 179 23 r \$0-eq5-list;
#X obj 620 502 text set \$0-mono-EQ5;
#X obj 614 551 s \$0-saveeq5;
#X obj 810 273 s \$0-eq5-list;
#X obj 814 244 text get \$0-mono-EQ5;
#X obj 1012 264 text define -k \$0-mono-EQ5;
#A set;
#X msg 1008 196 read -c mono-EQ5-w-menu-pres.txt;
#X msg 1119 140 write -c mono-EQ5-w-menu-pres.txt;
#X obj 1116 111 r \$0-saveeq5;
#X obj 175 56 unpack f f f f f f;
#X obj 620 388 pack f f f f f f f f;
#X connect 1 0 15 0;
#X connect 10 0 12 0;
#X connect 11 0 16 0;
#X connect 11 0 23 0;
#X connect 14 0 11 0;
#X connect 15 0 13 0;
#X connect 16 0 15 0;
#X connect 17 0 25 0;
#X connect 18 0 22 0;
#X connect 19 0 18 0;
#X connect 20 0 17 0;
#X connect 21 0 23 1;
#X connect 22 0 21 0;
#X connect 23 0 1 0;
#X connect 24 0 16 1;
#X connect 25 0 24 0;
#X connect 26 0 19 0;
#X connect 26 0 20 0;
#X connect 27 0 28 0;
#X connect 28 0 26 0;
#X connect 29 0 5 0;
#X connect 30 0 4 0;
#X connect 31 0 3 0;
#X connect 32 0 2 0;
#X connect 33 0 7 0;
#X connect 34 0 30 0;
#X connect 34 0 69 5;
#X connect 35 0 29 0;
#X connect 35 0 69 6;
#X connect 36 0 31 0;
#X connect 36 0 69 4;
#X connect 37 0 33 0;
#X connect 37 0 69 2;
#X connect 38 0 32 0;
#X connect 38 0 69 3;
#X connect 42 0 10 0;
#X connect 42 0 69 1;
#X connect 44 0 45 0;
#X connect 45 0 49 0;
#X connect 46 0 45 0;
#X connect 47 0 55 0;
#X connect 48 0 45 0;
#X connect 49 0 53 0;
#X connect 49 0 54 0;
#X connect 49 0 63 0;
#X connect 50 0 64 0;
#X connect 51 0 52 0;
#X connect 52 0 48 0;
#X connect 52 1 44 0;
#X connect 52 2 65 0;
#X connect 52 3 50 0;
#X connect 53 0 56 0;
#X connect 55 0 69 0;
#X connect 56 0 60 1;
#X connect 57 0 61 0;
#X connect 57 1 60 0;
#X connect 57 2 56 0;
#X connect 58 0 57 0;
#X connect 59 0 68 0;
#X connect 63 0 62 0;
#X connect 65 0 64 0;
#X connect 66 0 64 0;
#X connect 67 0 66 0;
#X connect 68 0 42 0;
#X connect 68 1 37 0;
#X connect 68 2 38 0;
#X connect 68 3 36 0;
#X connect 68 4 34 0;
#X connect 68 5 35 0;
#X connect 69 0 58 0;
#X coords 0 -1 1 1 186 116 2 100 100;
