#N canvas 0 0 450 300 12;
#X obj 47 6 inlet;
#X obj 119 6 inlet;
#X text 175 5 If the left inlet is 1 then the value on the right inlet
is passed to the outlet. Else it is not;
#X obj 50 200 outlet;
#X obj 50 95 expr if($i2 == 1 \, $i1 \, 0);
#X obj 62 122 route 0;
#X connect 0 0 4 1;
#X connect 1 0 4 0;
#X connect 4 0 5 0;
#X connect 5 1 3 0;
