#N canvas 79 93 450 454 12;
#X obj 69 286 chorus_sdd_320;
#X obj 70 190 WTSPhasing;
#X floatatom 144 127 5 0 0 0 BPM - - 0;
#X obj 22 32 inlet;
#X obj 117 75 loadbang;
#X obj 93 25 inlet;
#X obj 71 377 outlet~;
#X obj 195 381 outlet~;
#X floatatom 22 57 5 0 0 0 - - - 0;
#X floatatom 93 59 5 0 0 0 - - - 0;
#X connect 0 0 6 0;
#X connect 0 1 7 0;
#X connect 1 0 0 0;
#X connect 1 0 0 1;
#X connect 2 0 1 1;
#X connect 3 0 1 0;
#X connect 3 0 8 0;
#X connect 4 0 2 0;
#X connect 5 0 9 0;
#X connect 9 0 1 1;
