#N canvas -10 99 701 605 12;
#X obj 285 179 bng 16 250 50 0 empty empty empty 17 7 0 10 #00fc04
#000000 #000000;
#X obj 285 200 f \$0;
#X obj 285 242 soundfiler;
#X obj 285 263 array define -k \$0-sine-to-saw;
#A resize 81923;
#X msg 285 221 read -resize ./sine-to-saw.wav \$1-sine-to-saw;
#X obj 489 50 hsl 128 16 1 40 0 1 \$0-wt empty WAVETABLE-POSITION -2
-6 0 12 #7c7c7c #fcfcfc #000000 1354 1;
#X obj 131 222 line~;
#X obj 66 243 os.wavetable~ \$0-sine-to-saw 2048;
#X obj 66 140 phasor~ 440;
#N canvas 0 22 450 278 (subpatch) 0;
#X array \$0-scope 64 float 0;
#X coords 0 1 63 -1 128 64 1 0 0;
#X restore 479 116 graph;
#X obj 86 264 tabsend~ \$0-scope;
#X obj 66 406 *~;
#X obj 285 158 loadbang;
#X text 285 138 // Load wavetable;
#X floatatom 212 196 0 0 0 0 - - - 0;
#X msg 131 201 \$1 20;
#X obj 72 47 inlet;
#X obj 72 72 mtof;
#X obj 66 431 outlet~;
#X floatatom 603 19 5 0 0 0 - - - 0;
#X msg 101 363 0.5;
#X obj 117 325 loadbang;
#X obj 211 42 inlet Wave Table Position;
#X connect 0 0 1 0;
#X connect 1 0 4 0;
#X connect 4 0 2 0;
#X connect 5 0 14 0;
#X connect 5 0 15 0;
#X connect 5 0 19 0;
#X connect 6 0 7 1;
#X connect 7 0 10 0;
#X connect 7 0 11 0;
#X connect 8 0 7 0;
#X connect 11 0 18 0;
#X connect 12 0 0 0;
#X connect 15 0 6 0;
#X connect 16 0 17 0;
#X connect 17 0 8 0;
#X connect 20 0 11 1;
#X connect 21 0 20 0;
#X connect 22 0 15 0;
#X connect 22 0 5 0;
#X coords 0 -1 1 1 185 180 1 460 15;
