#N canvas 1406 223 719 337 10;
#X text 234 7 mute;
#X obj 83 59 dbtorms;
#X obj 22 28 inlet~;
#X obj 83 29 inlet;
#X text 83 6 level;
#X obj 83 105 line~;
#X obj 22 212 *~;
#X obj 210 286 dac~;
#X obj 83 82 pack 0 50;
#X text 20 5 audio;
#X obj 206 260 panner;
#X text 254 258 <-- this should come from the AccessLib;
#X obj 233 26 inlet;
#X obj 422 24 inlet;
#X text 421 6 panning;
#X obj 141 151 *~;
#X obj 233 59 < 1;
#X text 238 77 negoiting the input;
#X obj 157 4 loadbang;
#X msg 157 30 0;
#X connect 1 0 8 0;
#X connect 2 0 6 0;
#X connect 3 0 1 0;
#X connect 5 0 15 0;
#X connect 6 0 10 0;
#X connect 8 0 5 0;
#X connect 10 0 7 0;
#X connect 10 1 7 1;
#X connect 12 0 16 0;
#X connect 13 0 10 1;
#X connect 15 0 6 1;
#X connect 16 0 15 1;
#X connect 18 0 19 0;
#X connect 19 0 16 0;
