#N canvas 1406 223 723 341 10;
#X text 234 7 mute;
#X obj 83 59 dbtorms;
#X obj 22 28 inlet~;
#X obj 83 29 inlet;
#X text 83 6 level;
#X obj 83 105 line~;
#X obj 22 212 *~;
#X obj 83 82 pack 0 50;
#X text 20 5 audio;
#X obj 206 260 panner;
#X text 254 258 <-- this should come from the AccessLib;
#X obj 233 26 inlet;
#X obj 422 24 inlet;
#X text 421 6 panning;
#X obj 141 151 *~;
#X obj 233 59 < 1;
#X text 238 77 negoiting the input;
#X obj 185 291 outlet~;
#X obj 247 291 outlet~;
#X text 298 195 This ouput is ment in case where several signals got
to be mixed;
#X obj 157 4 loadbang;
#X msg 157 30 0;
#X connect 1 0 7 0;
#X connect 2 0 6 0;
#X connect 3 0 1 0;
#X connect 5 0 14 0;
#X connect 6 0 9 0;
#X connect 7 0 5 0;
#X connect 9 0 17 0;
#X connect 9 1 18 0;
#X connect 11 0 15 0;
#X connect 12 0 9 1;
#X connect 14 0 6 1;
#X connect 15 0 14 1;
#X connect 20 0 21 0;
#X connect 21 0 15 0;
