#N canvas 519 309 510 304 10;
#X obj 14 224 outlet~;
#X obj 72 224 outlet~;
#X obj 9 5 inlet~;
#X obj 170 7 inlet;
#X obj 91 6 loadbang;
#X text 168 175 This is a panning module. The mono input will be destributed
to the 2 outputs according to the second inlet \, which has to be something
between 0 (left) and 1 (right).;
#X text 106 274 by Malte Steiner \, Access Space Sheffield \, UK;
#X obj 29 151 *~;
#X obj 72 151 *~;
#X obj 91 97 -;
#X obj 91 69 int 1;
#X obj 170 80 / 127;
#X msg 131 33 bang;
#X connect 2 0 7 0;
#X connect 2 0 8 0;
#X connect 3 0 12 0;
#X connect 3 0 11 0;
#X connect 4 0 10 0;
#X connect 7 0 0 0;
#X connect 8 0 1 0;
#X connect 9 0 7 1;
#X connect 10 0 9 0;
#X connect 11 0 9 1;
#X connect 11 0 8 1;
#X connect 12 0 10 0;
