#N canvas 253 137 450 300 10;
#X obj 214 18 route 0 1;
#X obj 215 43 bng 15 250 50 0 empty empty empty 17 7 0 10 -262144 -1
-1;
#X obj 240 44 bng 15 250 50 0 empty empty empty 17 7 0 10 -262144 -1
-1;
#X msg 188 85 1;
#X msg 215 85 0;
#X msg 240 85 0;
#X msg 266 85 1;
#X obj 94 238 outlet~;
#X obj 215 -13 inlet;
#X obj 95 -13 inlet~;
#X obj 158 -13 inlet~;
#N canvas 628 268 450 300 pot~ 0;
#X obj -126 98 line~;
#X obj -163 177 *~;
#X obj -125 137 *~;
#X msg -126 71 \$1 20;
#X obj -164 22 inlet~;
#X obj -164 207 outlet~;
#X obj -126 45 inlet;
#X connect 0 0 2 0;
#X connect 0 0 2 1;
#X connect 1 0 5 0;
#X connect 2 0 1 1;
#X connect 3 0 0 0;
#X connect 4 0 1 0;
#X connect 6 0 3 0;
#X restore 94 158 pd pot~;
#N canvas 630 270 450 300 pot~ 0;
#X obj -183 96 line~;
#X obj -182 135 *~;
#X msg -183 69 \$1 20;
#X obj -221 20 inlet~;
#X obj -221 205 outlet~;
#X obj -183 43 inlet;
#X obj -220 175 *~ 0.5;
#X connect 0 0 1 0;
#X connect 0 0 1 1;
#X connect 1 0 6 1;
#X connect 2 0 0 0;
#X connect 3 0 6 0;
#X connect 5 0 2 0;
#X connect 6 0 4 0;
#X restore 157 158 pd pot~;
#X obj 388 3 tgl 15 0 empty empty empty 17 7 0 10 -262144 -1 -1 0 1
;
#X obj 36 -11 inlet~;
#N canvas 735 270 450 300 pot~ 0;
#X obj -126 98 line~;
#X obj -163 177 *~;
#X obj -125 137 *~;
#X msg -126 71 \$1 20;
#X obj -164 22 inlet~;
#X obj -164 207 outlet~;
#X obj -126 45 inlet;
#X connect 0 0 2 0;
#X connect 0 0 2 1;
#X connect 1 0 5 0;
#X connect 2 0 1 1;
#X connect 3 0 0 0;
#X connect 4 0 1 0;
#X connect 6 0 3 0;
#X restore 35 160 pd pot~;
#X obj 37 237 outlet~;
#X connect 0 0 1 0;
#X connect 0 1 2 0;
#X connect 1 0 3 0;
#X connect 1 0 4 0;
#X connect 2 0 5 0;
#X connect 2 0 6 0;
#X connect 3 0 11 1;
#X connect 3 0 15 1;
#X connect 4 0 12 1;
#X connect 5 0 11 1;
#X connect 5 0 15 1;
#X connect 6 0 12 1;
#X connect 8 0 0 0;
#X connect 9 0 11 0;
#X connect 10 0 12 0;
#X connect 11 0 7 0;
#X connect 12 0 7 0;
#X connect 12 0 16 0;
#X connect 13 0 0 0;
#X connect 14 0 15 0;
#X connect 15 0 16 0;
