#N canvas 393 305 773 406 10;
#X obj 406 257 * 2;
#X obj 282 276 * 2;
#X obj 406 279 clip 0 1;
#X obj 282 298 clip 0 1;
#X obj 282 233 swap 1;
#X obj 282 255 -;
#X obj 345 189 inlet;
#X obj 206 154 inlet~;
#X obj 205 213 *~;
#X obj 76 154 inlet~;
#X obj 75 213 *~;
#X obj 146 271 outlet~;
#X obj 93 187 r~ \$0-leftlevel;
#X obj 223 187 r~ \$0-rightlevel;
#X obj 406 353 s~ \$0-rightlevel;
#X obj 282 373 s~ \$0-leftlevel;
#X obj 282 347 line~;
#X obj 406 325 line~;
#X msg 406 301 \$1 20;
#X msg 282 323 \$1 20;
#X connect 0 0 2 0;
#X connect 1 0 3 0;
#X connect 2 0 18 0;
#X connect 3 0 19 0;
#X connect 4 0 5 0;
#X connect 4 1 5 1;
#X connect 5 0 1 0;
#X connect 6 0 0 0;
#X connect 6 0 4 0;
#X connect 7 0 8 0;
#X connect 8 0 11 0;
#X connect 9 0 10 0;
#X connect 10 0 11 0;
#X connect 12 0 10 1;
#X connect 13 0 8 1;
#X connect 16 0 15 0;
#X connect 17 0 14 0;
#X connect 18 0 17 0;
#X connect 19 0 16 0;
