#N canvas 190 335 461 404 10;
#X obj 307 4 ctlin;
#X obj 306 184 pack f f f;
#X msg 252 32 bang;
#X obj 306 212 route 1;
#X obj 306 316 outlet;
#X obj 307 279 / 127;
#X floatatom 242 320 5 0 0 0 - - - 0;
#X obj 252 57 bng 15 250 50 0 empty empty empty 17 7 0 10 #fcfcfc #000000
#000000;
#X floatatom 322 147 5 0 0 0 - - - 0;
#X floatatom 343 121 5 0 0 0 - - - 0;
#X obj 307 244 route 75;
#X floatatom 354 63 5 0 0 0 - - - 0;
#X connect 0 0 2 0;
#X connect 0 0 9 0;
#X connect 0 1 8 0;
#X connect 0 2 11 0;
#X connect 1 0 3 0;
#X connect 2 0 7 0;
#X connect 3 0 10 0;
#X connect 5 0 4 0;
#X connect 5 0 6 0;
#X connect 7 0 1 0;
#X connect 8 0 1 1;
#X connect 9 0 1 2;
#X connect 10 0 5 0;
#X connect 11 0 1 0;
