#N canvas 244 120 1247 691 10;
#X obj 112 136 hsl 128 15 1 12 0 1 \$0-rate \$0-rate-set Rate -2 -8
0 10 -262144 -1 -1 1228 1;
#X obj 112 183 hsl 128 15 0 1 0 1 \$0-depth \$0-depth-set Depth -2
-8 0 10 -262144 -1 -1 11650 1;
#X floatatom 123 151 5 0 0 0 - - -;
#X floatatom 123 198 5 0 0 0 - - -;
#X obj 190 335 tgl 15 1 \$0-bypass-toggle \$0-bypass-toggle-set Bypass
17 7 0 10 -262144 -1 -1 0 1;
#X obj 108 335 tgl 15 1 \$0-expression-toggle \$0-expression-toggle-set
Expression 17 7 0 10 -262144 -1 -1 1 1;
#X obj 577 -5 inlet~;
#X obj 513 -5 r~ \$1;
#X obj 646 385 expression;
#X obj 646 410 spigot;
#X obj 727 385 r \$0-expression-toggle;
#X obj 646 512 s \$0-rate-set;
#X msg 766 470 1;
#X msg 819 470 0;
#X obj 792 530 s \$0-bypass-toggle-set;
#X text 706 549 Bypass when pedal is in heel down position;
#X obj 646 461 * 9;
#X obj 646 491 + 1;
#X obj 212 405 r \$1;
#X obj 10 515 route rate;
#X obj 10 544 s \$0-rate-set;
#X obj 110 515 route depth;
#X obj 110 544 s \$0-depth-set;
#X obj 219 515 route expression;
#X obj 411 515 route bypass;
#X obj 219 544 s \$0-expression-toggle-set;
#X obj 411 544 s \$0-bypass-toggle-set;
#X obj 112 231 hsl 128 15 0 1 0 1 \$0-modulation \$0-modulation-set
Modulation -2 -8 0 10 -262144 -1 -1 11610 1;
#X floatatom 123 246 5 0 0 0 - - -;
#X obj 411 455 route modulation;
#X obj 411 484 s \$0-modulation-set;
#N canvas 5 48 1247 691 effect 0;
#X obj 122 74 r \$0-depth;
#X msg 122 100 \$1 35;
#X obj 122 124 line~;
#X obj 122 148 s~ \$0-depth-smooth;
#X text 323 -1 Left wet;
#X obj 481 96 *~;
#X text 501 26 Dry;
#X obj 296 74 *~;
#X obj 296 128 *~;
#X obj 342 22 r~ \$0-lfo;
#X obj 342 46 expr~ 1-$v1;
#X obj 296 225 vd~ \$0-vibr-l;
#X obj 296 178 delwrite~ \$0-vibr-l 100;
#X obj 499 69 expr~ 1-$v1;
#X obj 295 201 r~ \$0-lfo-vibr;
#X obj 345 254 r \$0-modulation;
#X obj 656 74 *~;
#X obj 656 128 *~;
#X obj 702 22 r~ \$0-lfo;
#X obj 702 46 expr~ 1-$v1;
#X obj 655 201 r~ \$0-lfo-vibr;
#X obj 705 254 r \$0-modulation;
#X text 683 -1 Right wet;
#X obj 656 178 delwrite~ \$0-vibr-r 100;
#X obj 656 225 vd~ \$0-vibr-r;
#X obj 296 151 +~;
#X obj 638 151 +~;
#X obj 266 260 abswitch~;
#X obj 626 260 abswitch~;
#X obj 499 45 r~ \$0-depth-smooth;
#X obj 337 97 r~ \$0-depth-smooth;
#X obj 697 97 r~ \$0-depth-smooth;
#X obj 267 288 outlet~;
#X obj 626 287 outlet~;
#X obj 484 -64 inlet~;
#X obj 898 73 phasor~;
#X obj 897 97 cos~;
#X obj 897 118 *~ 0.5;
#X obj 896 143 +~ 0.5;
#X obj 898 8 r \$0-rate;
#X msg 898 29 \$1 35;
#X obj 897 170 s~ \$0-lfo;
#X text 888 -12 LFO Generator;
#X obj 974 102 cos~;
#X obj 974 124 *~ 0.5;
#X obj 974 148 +~ 0.5;
#X obj 974 190 +~ 1.45;
#X obj 1050 86 r \$0-modulation;
#X obj 975 170 *~;
#X obj 1050 132 line~;
#X msg 1050 107 \$1 20;
#X obj 974 218 s~ \$0-lfo-vibr;
#X obj 1051 153 *~ 2;
#X obj 1134 312 switch~;
#X obj 1134 223 inlet;
#X obj 1134 253 route 0;
#X msg 1134 280 1;
#X msg 1180 280 0;
#X obj 898 52 line~;
#X msg 1173 56 0;
#X connect 0 0 1 0;
#X connect 1 0 2 0;
#X connect 2 0 3 0;
#X connect 5 0 25 1;
#X connect 5 0 26 0;
#X connect 7 0 8 0;
#X connect 8 0 25 0;
#X connect 9 0 10 0;
#X connect 10 0 7 1;
#X connect 11 0 27 1;
#X connect 13 0 5 1;
#X connect 14 0 11 0;
#X connect 15 0 27 2;
#X connect 16 0 17 0;
#X connect 17 0 26 1;
#X connect 18 0 19 0;
#X connect 19 0 16 1;
#X connect 20 0 24 0;
#X connect 21 0 28 2;
#X connect 24 0 28 1;
#X connect 25 0 12 0;
#X connect 25 0 27 0;
#X connect 26 0 23 0;
#X connect 26 0 28 0;
#X connect 27 0 32 0;
#X connect 28 0 33 0;
#X connect 29 0 13 0;
#X connect 30 0 8 1;
#X connect 31 0 17 1;
#X connect 34 0 7 0;
#X connect 34 0 5 0;
#X connect 34 0 16 0;
#X connect 35 0 36 0;
#X connect 35 0 43 0;
#X connect 36 0 37 0;
#X connect 37 0 38 0;
#X connect 38 0 41 0;
#X connect 39 0 40 0;
#X connect 40 0 58 0;
#X connect 43 0 44 0;
#X connect 44 0 45 0;
#X connect 45 0 48 0;
#X connect 46 0 51 0;
#X connect 47 0 50 0;
#X connect 48 0 46 0;
#X connect 49 0 52 0;
#X connect 50 0 49 0;
#X connect 52 0 48 1;
#X connect 54 0 55 0;
#X connect 55 0 56 0;
#X connect 55 0 59 0;
#X connect 55 1 57 0;
#X connect 56 0 53 0;
#X connect 57 0 53 0;
#X connect 58 0 35 0;
#X restore 423 90 pd effect;
#X obj 448 355 outlet~;
#X obj 365 355 s~ \$1-out1;
#X obj 655 349 outlet~;
#X obj 572 349 s~ \$1-out1;
#X obj 540 33 +~;
#N canvas 50 265 550 390 bypass_control 0;
#X obj 152 92 r \$0-bypass-toggle;
#X obj 152 112 pack;
#X obj 152 214 t f f;
#X obj 228 214 t f f;
#X obj 152 132 route 0;
#X obj 158 324 outlet;
#X obj 217 324 outlet;
#X text 155 353 effect;
#X text 218 350 switcher;
#X text 105 36 sequences bypass and effect disable;
#X text 106 50 to prevent clicks when switching;
#X msg 98 214 clear;
#X msg 272 214 clear;
#X obj 152 262 pipe 10;
#X obj 228 262 pipe 100;
#X text 2 225 effect on;
#X text 335 223 effect off;
#X connect 0 0 1 1;
#X connect 0 0 1 0;
#X connect 1 0 4 0;
#X connect 2 0 13 0;
#X connect 2 1 5 0;
#X connect 3 0 14 0;
#X connect 3 1 6 0;
#X connect 4 0 2 0;
#X connect 4 0 12 0;
#X connect 4 1 3 0;
#X connect 4 1 11 0;
#X connect 11 0 13 0;
#X connect 12 0 14 0;
#X connect 13 0 6 0;
#X connect 14 0 5 0;
#X restore 673 38 pd bypass_control;
#X obj 766 442 select 0;
#X obj 551 438 expr $f1*$f1*$f1*$f1*$f1;
#N canvas 0 22 450 300 newswitchtest~ 0;
#X obj 144 17 inlet~;
#X obj 202 17 inlet~;
#X obj 158 245 outlet~;
#X obj 314 165 line~;
#X obj 201 182 *~;
#X obj 314 85 route 0;
#X msg 360 113 1;
#X obj 313 197 expr~ 1-$v1;
#X obj 143 213 *~;
#X msg 314 139 \$1 200;
#X obj 314 55 pack;
#X obj 314 26 inlet;
#X connect 0 0 8 0;
#X connect 1 0 4 0;
#X connect 3 0 4 1;
#X connect 3 0 7 0;
#X connect 4 0 2 0;
#X connect 5 0 9 0;
#X connect 5 1 6 0;
#X connect 6 0 9 0;
#X connect 7 0 8 1;
#X connect 8 0 2 0;
#X connect 9 0 3 0;
#X connect 10 0 5 0;
#X connect 11 0 10 0;
#X connect 11 0 10 1;
#X restore 611 308 pd newswitchtest~;
#N canvas 0 22 450 300 newswitchtest~ 0;
#X obj 144 17 inlet~;
#X obj 202 17 inlet~;
#X obj 158 245 outlet~;
#X obj 314 26 inlet;
#X obj 314 165 line~;
#X obj 314 85 route 0;
#X msg 360 113 1;
#X obj 313 197 expr~ 1-$v1;
#X msg 314 139 \$1 200;
#X obj 314 55 pack;
#X obj 143 213 *~ 1;
#X obj 203 177 *~ 1;
#X connect 0 0 10 0;
#X connect 1 0 11 0;
#X connect 3 0 9 0;
#X connect 3 0 9 1;
#X connect 4 0 7 0;
#X connect 4 0 11 1;
#X connect 5 0 8 0;
#X connect 5 1 6 0;
#X connect 6 0 8 0;
#X connect 7 0 10 1;
#X connect 8 0 4 0;
#X connect 9 0 5 0;
#X connect 10 0 2 0;
#X connect 11 0 2 0;
#X restore 433 299 pd newswitchtest~;
#X obj 31 119 r lesrate;
#X obj 32 161 r lesdepth;
#X obj 31 215 r lesmod;
#X connect 0 0 2 0;
#X connect 1 0 3 0;
#X connect 6 0 36 0;
#X connect 7 0 36 0;
#X connect 8 0 9 0;
#X connect 9 0 38 0;
#X connect 9 0 39 0;
#X connect 10 0 9 1;
#X connect 12 0 14 0;
#X connect 13 0 14 0;
#X connect 16 0 17 0;
#X connect 17 0 11 0;
#X connect 18 0 19 0;
#X connect 18 0 21 0;
#X connect 18 0 23 0;
#X connect 18 0 24 0;
#X connect 18 0 29 0;
#X connect 19 0 20 0;
#X connect 21 0 22 0;
#X connect 23 0 25 0;
#X connect 24 0 26 0;
#X connect 27 0 28 0;
#X connect 29 0 30 0;
#X connect 31 0 41 0;
#X connect 31 1 40 0;
#X connect 36 0 31 0;
#X connect 36 0 41 1;
#X connect 36 0 40 1;
#X connect 37 0 31 1;
#X connect 37 1 41 2;
#X connect 38 0 12 0;
#X connect 38 1 13 0;
#X connect 39 0 16 0;
#X connect 40 0 35 0;
#X connect 40 0 34 0;
#X connect 41 0 33 0;
#X connect 41 0 32 0;
#X connect 42 0 0 0;
#X connect 43 0 1 0;
#X connect 44 0 27 0;
#X coords 0 -1 1 1 150 200 1 100 100;
