#N canvas 191 128 1003 669 10;
#X obj 210 115 *~;
#X obj 52 -112 vsl 15 128 0.01 1 0 0 empty empty empty 0 -9 0 10 -262144
-1 -1 0 1;
#X msg 44 132 \$1 50;
#X obj 44 154 line~;
#X obj 214 34 pan~;
#X obj 232 -100 hsl 128 15 -45 45 0 0 empty empty empty -2 -8 0 10
-262144 -1 -1 0 1;
#X obj 264 36 pan~;
#X text 207 -129 tape;
#X text 328 -129 direct input;
#X obj 143 202 delwrite~ tape 10000;
#X obj 150 56 /~ 0.5;
#X obj 178 -21 +~;
#X text 160 33 Mono.;
#X obj 266 116 *~;
#X text 231 -158 OUTPUT MIXER;
#X text 44 -134 FEEDBACK;
#X obj 377 -1 delread~ tape 1200;
#X obj 385 -67 hsl 128 15 0 2000 0 0 empty empty empty -2 -8 0 10 -262144
-1 -1 0 1;
#N canvas 624 179 610 439 chorus 1;
#X obj 37 45 inlet~;
#X obj 198 394 outlet~;
#X obj 270 394 outlet~;
#X obj 476 305 vd~ \$0-chorus;
#X msg 521 157 0;
#X obj 476 186 osc~ 0.5;
#X obj 476 277 *~;
#X obj 476 216 +~ 2;
#X obj 146 306 vd~ \$0-chorus;
#X msg 191 156 0.35;
#X obj 146 185 osc~ 0.2;
#X obj 146 214 +~ 2;
#X obj 146 276 *~;
#X obj 184 67 vsl 12 50 0.01 5 0 0 empty empty speed -8 -9 1 10 -262144
-1 -1 0 1;
#X obj 215 67 vsl 12 50 0 5 0 0 empty empty depth -8 -9 1 10 -262144
-1 -1 0 1;
#X obj 371 307 vd~ \$0-chorus;
#X obj 371 188 osc~ 0.5;
#X obj 371 245 *~ 2;
#X obj 371 276 *~;
#X obj 371 217 +~ 2;
#X msg 416 158 0.75;
#X obj 146 241 *~ 2;
#X obj 476 244 *~ 2;
#X obj 256 305 vd~ \$0-chorus;
#X obj 256 186 osc~ 0.5;
#X obj 256 243 *~ 2;
#X obj 256 274 *~;
#X obj 256 215 +~ 2;
#X msg 301 156 0.65;
#X obj 371 158 * 0.3;
#X obj 256 156 * 0.2;
#X text 144 105 chorus;
#X obj 329 77 loadbang;
#X obj 182 8 inlet;
#X obj 251 8 inlet;
#X obj 146 132 r chspeed;
#X obj 256 130 r chspeed;
#X obj 371 132 r chspeed;
#X obj 476 132 r chspeed;
#X obj 177 253 r chdepth;
#X obj 287 254 r chdepth;
#X obj 402 256 r chdepth;
#X obj 507 254 r chdepth;
#X obj 251 30 s chdepth;
#X obj 182 30 s chspeed;
#X obj -19 155 delwrite~ \$0-chorus 2000;
#X obj 146 337 *~ 0.5;
#X obj 256 337 *~ 0.5;
#X obj 371 340 *~ 0.5;
#X obj 472 341 *~ 0.5;
#X connect 0 0 45 0;
#X connect 3 0 49 0;
#X connect 4 0 5 1;
#X connect 5 0 7 0;
#X connect 6 0 3 0;
#X connect 7 0 22 0;
#X connect 8 0 46 0;
#X connect 9 0 10 1;
#X connect 10 0 11 0;
#X connect 11 0 21 0;
#X connect 12 0 8 0;
#X connect 13 0 44 0;
#X connect 14 0 43 0;
#X connect 15 0 48 0;
#X connect 16 0 19 0;
#X connect 17 0 18 0;
#X connect 18 0 15 0;
#X connect 19 0 17 0;
#X connect 20 0 16 1;
#X connect 21 0 12 0;
#X connect 22 0 6 0;
#X connect 23 0 47 0;
#X connect 24 0 27 0;
#X connect 25 0 26 0;
#X connect 26 0 23 0;
#X connect 27 0 25 0;
#X connect 28 0 24 1;
#X connect 29 0 16 0;
#X connect 30 0 24 0;
#X connect 32 0 9 0;
#X connect 32 0 4 0;
#X connect 32 0 20 0;
#X connect 32 0 28 0;
#X connect 33 0 44 0;
#X connect 34 0 43 0;
#X connect 35 0 10 0;
#X connect 36 0 30 0;
#X connect 37 0 29 0;
#X connect 38 0 5 0;
#X connect 39 0 12 1;
#X connect 40 0 26 1;
#X connect 41 0 18 1;
#X connect 42 0 6 1;
#X connect 46 0 1 0;
#X connect 47 0 2 0;
#X connect 48 0 1 0;
#X connect 49 0 2 0;
#X restore 351 67 pd chorus;
#X obj 481 57 tgl 15 0 empty empty empty 17 7 0 10 -262144 -1 -1 1
1;
#X obj 413 94 bypassstereo~;
#X obj 495 344 tgl 15 0 empty empty empty 17 7 0 10 -262144 -1 -1 1
1;
#X obj 364 127 leslie~ les1;
#X obj 604 9 snapshot~;
#X msg 604 104 rate \$1;
#X obj 604 81 + 1;
#X obj 678 -6 metro 10;
#X obj 678 -36 tgl 15 1 empty empty empty 17 7 0 10 -262144 -1 -1 0
1;
#X obj 567 -70 hsl 128 15 0.1 1.5 0 1 empty empty empty -2 -8 0 10
-262144 -1 -1 3700 1;
#X floatatom 568 -44 5 0 0 0 - - -;
#X obj 678 -136 r autoles;
#X obj 678 -97 route bypass;
#X obj 562 -97 route rate;
#X obj 564 -20 osc~ 0.3;
#X obj 604 129 s les1;
#X obj 604 36 + 1;
#X obj 604 59 * 3;
#N canvas 212 43 1007 717 shimmer 0;
#X obj 285 239 *~;
#X obj 376 192 hsl 128 15 0 0.8 0 0 empty empty empty -2 -8 0 10 -262144
-1 -1 12700 1;
#X obj 156 111 inlet~;
#N canvas 391 243 695 570 pitchshift 0;
#X obj 112 388 *~;
#X obj 235 325 line~;
#X floatatom 267 142 0 0 0 0 - - -;
#X text 98 39 PITCH SHIFTER;
#X obj 235 299 pack 0 200;
#X obj 267 116 r window;
#X floatatom 49 203 6 0 0 0 - - -;
#X obj 49 289 /;
#X obj 176 219 * 0.001;
#X obj 344 395 line~;
#X obj 344 370 pack 0 200;
#X floatatom 344 319 0 0 0 0 - - -;
#X obj 344 293 r delay;
#X obj 112 414 +~;
#X obj 49 440 cos~;
#X obj 49 467 *~;
#X obj 49 496 +~;
#X obj 136 347 wrap~;
#X obj 281 390 *~;
#X obj 281 423 +~;
#X obj 218 450 cos~;
#X obj 218 477 *~;
#X obj 176 246 t b f;
#X floatatom 49 315 6 0 0 0 - - -;
#X obj 136 320 +~ 0.5;
#X obj 49 388 -~ 0.5;
#X obj 49 414 *~ 0.5;
#X obj 218 389 -~ 0.5;
#X obj 218 422 *~ 0.5;
#X obj 49 226 - 1;
#X obj 49 252 * -1;
#X text 112 193 speed;
#X text 111 207 change;
#X text 311 141 <--window (msec);
#X text 84 282 tape head;
#X obj 49 346 phasor~;
#X obj 344 346 max 1.5;
#X text 347 252 delay;
#X text 344 270 (msec);
#X obj 267 169 max 1;
#X text 85 295 rotation freq;
#X obj 237 46 inlet~;
#X obj 150 528 outlet~;
#X obj 294 72 delwrite~ jane 5000;
#X obj 281 452 vd~ jane;
#X obj 112 440 vd~ jane;
#X obj 104 174 2;
#X obj 51 135 loadbang;
#X obj 512 50 loadbang;
#X msg 512 76 \; window 100 \; delay 0;
#X connect 0 0 13 0;
#X connect 1 0 0 1;
#X connect 1 0 18 1;
#X connect 2 0 39 0;
#X connect 4 0 1 0;
#X connect 5 0 2 0;
#X connect 6 0 29 0;
#X connect 7 0 23 0;
#X connect 8 0 22 0;
#X connect 9 0 13 1;
#X connect 9 0 19 1;
#X connect 10 0 9 0;
#X connect 11 0 36 0;
#X connect 12 0 11 0;
#X connect 13 0 45 0;
#X connect 14 0 15 0;
#X connect 15 0 16 0;
#X connect 16 0 42 0;
#X connect 17 0 18 0;
#X connect 17 0 27 0;
#X connect 18 0 19 0;
#X connect 19 0 44 0;
#X connect 20 0 21 0;
#X connect 21 0 16 1;
#X connect 22 0 7 0;
#X connect 22 1 7 1;
#X connect 23 0 35 0;
#X connect 24 0 17 0;
#X connect 25 0 26 0;
#X connect 26 0 14 0;
#X connect 27 0 28 0;
#X connect 28 0 20 0;
#X connect 29 0 30 0;
#X connect 30 0 7 0;
#X connect 35 0 0 0;
#X connect 35 0 25 0;
#X connect 35 0 24 0;
#X connect 36 0 10 0;
#X connect 39 0 8 0;
#X connect 39 0 4 0;
#X connect 41 0 43 0;
#X connect 41 0 42 0;
#X connect 44 0 21 1;
#X connect 45 0 15 1;
#X connect 46 0 6 0;
#X connect 47 0 46 0;
#X connect 48 0 49 0;
#X restore 190 175 pd pitchshift;
#X obj 202 338 outlet~;
#X obj 274 336 outlet~;
#X obj 453 262 hsl 128 15 0 1 0 0 empty empty empty -2 -8 0 10 -262144
-1 -1 600 1;
#X obj 489 313 hsl 128 15 0 1 0 0 empty empty empty -2 -8 0 10 -262144
-1 -1 0 1;
#X obj 700 260 freeverb~;
#X obj 624 55 r roomsize;
#X msg 623 84 roomsize \$1;
#X msg 732 87 damping \$1;
#X obj 621 118 r wet;
#X msg 621 140 wet \$1;
#X obj 623 181 r dry;
#X msg 623 203 dry \$1;
#X msg 806 123 freeze \$1;
#X obj 806 101 r freeze;
#X floatatom 678 139 5 0 0 0 - - -;
#X floatatom 685 204 5 0 0 0 - - -;
#X obj 411 285 s wet;
#X obj 420 332 s roomsize;
#X obj 429 369 s damping;
#X obj 732 65 r damping;
#X obj 435 400 s freeze;
#X obj 495 377 hsl 128 15 0 1 0 0 empty empty empty -2 -8 0 10 -262144
-1 -1 0 1;
#X obj 846 251 s dry;
#X obj 808 176 bng 15 250 50 0 empty empty empty 17 7 0 10 -262144
-1 -1;
#X obj 826 194 -;
#X obj 850 222 + 1;
#X obj 290 171 *~;
#X obj 383 137 hsl 128 15 0 0.4 0 0 empty empty empty -2 -8 0 10 -262144
-1 -1 0 1;
#X obj 383 233 s drypitch;
#X obj 296 35 bng 15 250 50 0 empty empty empty 17 7 0 10 -262144 -1
-1;
#X obj 314 53 -;
#X obj 447 102 r octmix;
#X obj 338 81 + 0.4;
#X connect 0 0 8 0;
#X connect 0 0 8 1;
#X connect 1 0 0 1;
#X connect 1 0 34 1;
#X connect 1 0 33 0;
#X connect 2 0 3 0;
#X connect 2 0 30 0;
#X connect 3 0 0 0;
#X connect 6 0 20 0;
#X connect 7 0 21 0;
#X connect 8 0 4 0;
#X connect 8 1 5 0;
#X connect 9 0 10 0;
#X connect 10 0 8 0;
#X connect 11 0 8 0;
#X connect 12 0 13 0;
#X connect 12 0 18 0;
#X connect 12 0 27 0;
#X connect 12 0 28 1;
#X connect 13 0 8 0;
#X connect 14 0 15 0;
#X connect 14 0 19 0;
#X connect 15 0 8 0;
#X connect 16 0 8 0;
#X connect 17 0 16 0;
#X connect 23 0 11 0;
#X connect 25 0 24 0;
#X connect 27 0 28 0;
#X connect 28 0 29 0;
#X connect 29 0 26 0;
#X connect 30 0 8 0;
#X connect 30 0 8 1;
#X connect 31 0 30 1;
#X connect 33 0 34 0;
#X connect 34 0 36 0;
#X connect 35 0 1 0;
#X connect 36 0 31 0;
#X restore 370 403 pd shimmer;
#X obj 363 360 bypassstereo~;
#X obj 377 453 bypassstereo~;
#X obj 490 408 tgl 15 0 empty empty empty 17 7 0 10 -262144 -1 -1 1
1;
#X floatatom 603 251 5 0 0 0 - - -;
#X obj 653 301 spigot;
#X floatatom 701 253 5 0 0 0 - - -;
#X obj 649 205 r notes;
#X obj 653 229 unpack 0 0;
#X obj 647 270 pipe 50;
#X obj 653 330 select 60 62 63 64;
#N canvas 200 23 1164 665 controls 1;
#X obj 37 -337 override;
#X obj 116 -343 override;
#X obj 190 -329 override;
#X obj 37 -363 r knob1;
#X obj 116 -369 r knob2;
#X obj 190 -355 r knob3;
#X obj 486 -315 r knob1;
#X obj 580 -311 r knob2;
#X obj 731 -336 r knob3;
#X obj 863 -328 r knob4;
#X obj 490 -281 override;
#X obj 613 -274 override;
#X obj 751 -305 override;
#X obj 881 -288 override;
#X obj 235 -105 override;
#X obj 318 -101 override;
#X obj 314 -12 s chdepth;
#X obj 344 -54 * 5;
#X obj 261 -58 * 5;
#X obj 272 -34 + 0.01;
#X obj 259 20 s chspeed;
#X obj 271 -334 override;
#X obj 271 -360 r knob4;
#X obj 507 -82 override;
#X obj 586 -88 override;
#X obj 665 -95 override;
#X obj 507 -108 r knob1;
#X obj 586 -114 r knob2;
#X obj 665 -121 r knob3;
#X obj 746 -100 override;
#X obj 746 -126 r knob4;
#X msg 227 -253 \; screenLine3 2: Delay Mix \$1 \;;
#X msg 224 -209 \; screenLine4 3: Feedback \$1 \;;
#X obj 160 -294 * 0.99;
#X obj 170 -268 + 0.01;
#X obj 162 -239 s feedback;
#X obj 90 -236 s delmix;
#X obj 27 -253 s deltime;
#X obj 109 -296 * 0.9;
#X obj 111 -263 - 0.45;
#X obj 40 -305 * 2000;
#X msg 282 -172 \; screenLine5 4: PreVerb \$1 \;;
#X obj 401 -325 s prewet;
#X obj 235 -131 r knob1;
#X obj 318 -127 r knob2;
#X obj 83 -395 r r1;
#X obj 605 -381 r r3;
#X obj 138 -159 r r2;
#X obj 103 7 loadbang;
#X msg 531 150 \; screenLine1 Leslie \; screenLine2 1: Rate \; screenLine3
2: Depth \; screenLine4 3: Modulation \; screenLine5 4: AutoSpeed(LowDb)
\;;
#X msg 939 -266 \; screenLine2 1: Rate \$1 \;;
#X msg 941 -228 \; screenLine3 2: Depth \$1 \;;
#X msg 932 -188 \; screenLine4 3: Modulation \$1 \;;
#X msg 931 -149 \; screenLine5 4: AutoSpeed(LowDb) \$1 \;;
#X obj 504 -247 * 11;
#X obj 515 -215 + 1;
#X obj 503 -174 s lesrate;
#X obj 746 -225 s lesmod;
#X obj 581 -235 s lesdepth;
#X obj 827 -213 * 1.4;
#X obj 826 -189 + 0.1;
#X obj 843 -147 s lesautorate;
#X obj 497 2 s octmix;
#X obj 540 35 s roomsize;
#X obj 590 -29 * 100;
#X msg 840 2 \; screenLine2 1: OctaveMix \$1 \;;
#X obj 618 23 s wet;
#X obj 670 -53 * 100;
#X msg 840 75 \; screenLine4 3: Wet / Dry \$1 \;;
#X msg 843 36 \; screenLine3 2: RoomSize \$1 \;;
#X obj 709 29 s damping;
#X obj 795 -56 * 100;
#X msg 850 114 \; screenLine5 4: Damping \$1 \;;
#X msg 748 154 \; screenLine1 Shimmer \; screenLine2 1: OctaveMix \;
screenLine3 2: RoomSize \; screenLine4 3: Wet / Dry \; screenLine5
4: Damping \;;
#X obj 553 -140 r r4;
#X obj 382 -102 override;
#X obj 382 -128 r knob3;
#X obj 387 -41 override;
#X obj 387 -67 r knob3;
#X msg 41 -108 \; screenLine2 1: Chorus \$1 \;;
#X msg 33 -60 \; screenLine3 2: Ch Depth \$1 \;;
#X obj 378 69 route 0 1;
#X floatatom 416 47 5 0 0 0 - - -;
#X obj 328 35 r rout2;
#X obj 309 98 s r2;
#X obj 222 244 s r1;
#X obj 597 83 route 0 1;
#X floatatom 643 61 5 0 0 0 - - -;
#X obj 546 110 s r3;
#X obj 392 242 s r2;
#X obj 598 237 s r3;
#X obj 794 244 s r4;
#X obj 764 91 route 0 1;
#X floatatom 784 66 5 0 0 0 - - -;
#X obj 714 57 r rout4;
#X obj 546 62 r rout3;
#X obj 712 116 s r4;
#X floatatom 451 91 5 0 0 0 - - -;
#X obj 382 108 + 1;
#X obj 597 125 + 1;
#X obj 767 126 + 1;
#X obj 138 35 1;
#X obj 193 121 0;
#X obj 236 125 + 1;
#X obj 510 -50 * 0.8;
#X obj 526 -26 * 125;
#X msg 458 -23 0.5;
#X msg 314 152 \; screenLine1 Chorus \; screenLine2 1: Chorus Rate
\; screenLine3 2: Chorus Depth \; screenLine4 3: N/A \; screenLine5
4: N/A \;;
#X msg 225 -291 \; screenLine2 1: Delay(ms) \$1 \;;
#X msg 72 152 \; screenLine1 DORIS_DELAY \; screenLine2 1: Delay (ms)
\; screenLine3 2: Delay Mix \; screenLine4 3: Feedback \; screenLine5
4: Preverb \;;
#X connect 0 0 40 0;
#X connect 1 0 38 0;
#X connect 2 0 33 0;
#X connect 3 0 0 0;
#X connect 4 0 1 0;
#X connect 5 0 2 0;
#X connect 6 0 10 0;
#X connect 7 0 11 0;
#X connect 8 0 12 0;
#X connect 9 0 13 0;
#X connect 10 0 54 0;
#X connect 11 0 51 0;
#X connect 11 0 58 0;
#X connect 12 0 52 0;
#X connect 12 0 57 0;
#X connect 13 0 59 0;
#X connect 13 0 61 0;
#X connect 14 0 18 0;
#X connect 15 0 17 0;
#X connect 17 0 16 0;
#X connect 17 0 80 0;
#X connect 18 0 19 0;
#X connect 19 0 20 0;
#X connect 19 0 79 0;
#X connect 21 0 41 0;
#X connect 21 0 42 0;
#X connect 22 0 21 0;
#X connect 23 0 104 0;
#X connect 24 0 69 0;
#X connect 24 0 63 0;
#X connect 24 0 64 0;
#X connect 25 0 66 0;
#X connect 25 0 67 0;
#X connect 26 0 23 0;
#X connect 27 0 24 0;
#X connect 28 0 25 0;
#X connect 29 0 70 0;
#X connect 29 0 71 0;
#X connect 30 0 29 0;
#X connect 33 0 34 0;
#X connect 34 0 32 0;
#X connect 34 0 35 0;
#X connect 38 0 39 0;
#X connect 39 0 36 0;
#X connect 39 0 31 0;
#X connect 40 0 37 0;
#X connect 40 0 108 0;
#X connect 43 0 14 0;
#X connect 44 0 15 0;
#X connect 45 0 0 1;
#X connect 45 0 1 1;
#X connect 45 0 2 1;
#X connect 45 0 21 1;
#X connect 46 0 10 1;
#X connect 46 0 11 1;
#X connect 46 0 12 1;
#X connect 46 0 13 1;
#X connect 47 0 14 1;
#X connect 47 0 15 1;
#X connect 48 0 106 0;
#X connect 48 0 101 0;
#X connect 54 0 55 0;
#X connect 55 0 56 0;
#X connect 55 0 50 0;
#X connect 59 0 60 0;
#X connect 60 0 61 0;
#X connect 60 0 53 0;
#X connect 64 0 69 0;
#X connect 67 0 68 0;
#X connect 71 0 72 0;
#X connect 74 0 23 1;
#X connect 74 0 24 1;
#X connect 74 0 25 1;
#X connect 74 0 29 1;
#X connect 76 0 75 0;
#X connect 78 0 77 0;
#X connect 81 0 107 0;
#X connect 81 0 84 0;
#X connect 81 0 98 0;
#X connect 81 1 102 0;
#X connect 83 0 81 0;
#X connect 83 0 82 0;
#X connect 86 0 49 0;
#X connect 86 0 88 0;
#X connect 86 0 99 0;
#X connect 86 1 102 0;
#X connect 92 0 96 0;
#X connect 92 0 73 0;
#X connect 92 0 100 0;
#X connect 92 1 102 0;
#X connect 94 0 92 0;
#X connect 94 0 93 0;
#X connect 95 0 86 0;
#X connect 95 0 87 0;
#X connect 98 0 97 0;
#X connect 98 0 85 0;
#X connect 98 0 90 0;
#X connect 98 0 91 0;
#X connect 99 0 91 0;
#X connect 99 0 89 0;
#X connect 99 0 85 0;
#X connect 100 0 90 0;
#X connect 100 0 89 0;
#X connect 100 0 85 0;
#X connect 102 0 109 0;
#X connect 102 0 85 0;
#X connect 102 0 103 0;
#X connect 103 0 89 0;
#X connect 103 0 90 0;
#X connect 103 0 91 0;
#X connect 104 0 62 0;
#X connect 104 0 105 0;
#X connect 105 0 65 0;
#X connect 106 0 62 0;
#X restore 131 -101 pd controls;
#N canvas 358 44 471 346 preverb 1;
#X obj 377 131 inlet~;
#X obj 186 290 outlet~;
#X obj 254 240 freeverb~;
#X msg 177 64 roomsize \$1;
#X msg 286 67 damping \$1;
#X msg 184 135 wet \$1;
#X msg 177 183 dry \$1;
#X obj 38 186 bng 15 250 50 0 empty empty empty 17 7 0 10 -262144 -1
-1;
#X obj 56 204 -;
#X obj 80 232 + 1;
#X obj 30 11 loadbang;
#X msg 40 39 0.5;
#X obj 86 165 r prewet;
#X obj 76 261 s predry;
#X obj 178 94 r prewet;
#X obj 183 155 r predry;
#X floatatom 305 124 5 0 0 0 - - -;
#X floatatom 294 163 5 0 0 0 - - -;
#X obj 54 297 hsl 60 15 0 1 0 0 empty empty empty -2 -8 0 10 -262144
-1 -1 0 1;
#X obj 4 322 s prewet;
#X connect 0 0 2 0;
#X connect 2 0 1 0;
#X connect 3 0 2 0;
#X connect 4 0 2 0;
#X connect 5 0 2 0;
#X connect 6 0 2 0;
#X connect 7 0 8 0;
#X connect 8 0 9 0;
#X connect 9 0 13 0;
#X connect 10 0 11 0;
#X connect 11 0 3 0;
#X connect 11 0 4 0;
#X connect 11 0 5 0;
#X connect 11 0 6 0;
#X connect 12 0 8 1;
#X connect 12 0 7 0;
#X connect 14 0 5 0;
#X connect 14 0 16 0;
#X connect 15 0 6 0;
#X connect 15 0 17 0;
#X connect 18 0 19 0;
#X restore 114 3 pd preverb;
#X obj 113 -69 r~ inL;
#X obj 165 -68 r~ inR;
#X obj 138 495 throw~ outL;
#X obj 216 495 throw~ outR;
#X floatatom 548 44 5 0 0 0 - - -;
#X obj 392 -99 r deltime;
#X obj 244 -139 r delmix;
#X obj 12 -92 r feedback;
#X obj 941 135 s rout1;
#X obj 942 185 s rout2;
#X obj 945 287 s rout4;
#X obj 944 236 s rout3;
#X obj 748 50 loadbang;
#X msg 548 210 1;
#X connect 0 0 9 0;
#X connect 1 0 2 0;
#X connect 2 0 3 0;
#X connect 3 0 0 0;
#X connect 3 0 13 0;
#X connect 4 0 52 0;
#X connect 4 0 53 0;
#X connect 5 0 4 1;
#X connect 5 0 6 1;
#X connect 6 1 13 1;
#X connect 10 0 4 0;
#X connect 10 0 9 0;
#X connect 13 0 52 0;
#X connect 13 0 53 0;
#X connect 16 0 0 1;
#X connect 16 0 6 0;
#X connect 16 0 18 0;
#X connect 16 0 20 2;
#X connect 17 0 16 0;
#X connect 18 0 20 0;
#X connect 18 1 20 1;
#X connect 19 0 20 3;
#X connect 19 0 54 0;
#X connect 19 0 59 0;
#X connect 20 0 22 0;
#X connect 20 0 38 2;
#X connect 20 1 22 0;
#X connect 21 0 38 3;
#X connect 21 0 61 0;
#X connect 22 0 38 0;
#X connect 22 1 38 1;
#X connect 23 0 35 0;
#X connect 24 0 34 0;
#X connect 25 0 24 0;
#X connect 26 0 23 0;
#X connect 27 0 26 0;
#X connect 28 0 29 0;
#X connect 29 0 33 0;
#X connect 30 0 31 0;
#X connect 30 0 32 0;
#X connect 31 0 27 0;
#X connect 32 0 28 0;
#X connect 33 0 23 0;
#X connect 35 0 36 0;
#X connect 36 0 25 0;
#X connect 37 0 39 0;
#X connect 37 1 39 1;
#X connect 38 0 37 0;
#X connect 38 0 39 2;
#X connect 38 1 37 0;
#X connect 39 0 52 0;
#X connect 39 1 53 0;
#X connect 40 0 39 3;
#X connect 40 0 60 0;
#X connect 42 0 47 0;
#X connect 44 0 45 0;
#X connect 45 0 41 0;
#X connect 45 0 46 0;
#X connect 45 1 42 1;
#X connect 45 1 43 0;
#X connect 46 0 42 0;
#X connect 47 0 19 0;
#X connect 47 1 21 0;
#X connect 47 2 27 0;
#X connect 47 3 40 0;
#X connect 49 0 10 0;
#X connect 50 0 49 0;
#X connect 51 0 49 0;
#X connect 55 0 17 0;
#X connect 56 0 5 0;
#X connect 57 0 1 0;
#X connect 62 0 63 0;
#X connect 63 0 19 0;
#X connect 63 0 21 0;
#X connect 63 0 40 0;
