#N canvas 504 62 1366 676 12;
#X obj 100 185 adc~, f 8;
#X obj 316 641 dac~;
#X obj 244 295 tgl 15 0 empty empty empty 17 7 0 10 -262144 -1 -1 1
1;
#X obj 244 186 loadbang;
#X obj 317 39 fx3000~ 0;
#X obj 631 39 fx3000~ 1;
#X obj 944 40 fx3000~ 2;
#X obj 316 481 abs/recorder~;
#X obj 41 406 abs/zexy(booter-limiter)~;
#X obj 40 217 abs/abs_bypass(s)~;
#X obj 40 40 fx3000~/fx3000~/playsample~;
#X obj 40 483 s~ MSTIN~;
#N canvas 0 64 1366 676 ROUTING 0;
#X obj 113 359 s~ fx3000-in-0;
#X obj 114 318 r~ MSTIN~;
#X obj 171 49 hradio 32 1 0 3 empty empty IN|2|3 0 -8 0 10 -262144
-1 -1 0;
#X obj 281 49 hradio 32 1 0 3 empty empty IN|1|3 0 -8 0 10 -262144
-1 -1 0;
#X obj 395 49 hradio 32 1 0 3 empty empty IN|1|2 0 -8 0 10 -262144
-1 -1 0;
#X obj 171 108 hradio 32 1 0 3 empty empty OUT|2|3 0 -8 0 10 -262144
-1 -1 0;
#X obj 281 108 hradio 32 1 0 3 empty empty OUT|1|3 0 -8 0 10 -262144
-1 -1 0;
#X obj 395 108 hradio 32 1 0 3 empty empty OUT|1|2 0 -8 0 10 -262144
-1 -1 0;
#X text 204 15 ONE;
#X text 323 15 TWO;
#X text 424 16 THREE;
#X msg 129 286 set fx3000-\$1-OUT;
#X obj 112 168 sel 0 1 2;
#X floatatom 129 259 5 0 0 0 - - -;
#X obj 263 323 r~ MSTIN~;
#X msg 278 291 set fx3000-\$1-OUT;
#X obj 261 168 sel 0 1 2;
#X floatatom 278 264 5 0 0 0 - - -;
#X obj 409 328 r~ MSTIN~;
#X msg 424 296 set fx3000-\$1-OUT;
#X obj 412 168 sel 0 1 2;
#X floatatom 424 269 5 0 0 0 - - -;
#X obj 263 360 s~ fx3000-in-1;
#X obj 408 361 s~ fx3000-in-2;
#X obj 209 402 sel 0 1 2;
#X text 110 56 IN FROM;
#X text 112 111 OUT TO;
#X obj 209 458 tgl 15 0 empty empty empty 17 7 0 10 -262144 -1 -1 0
1;
#X msg 209 430 0;
#X obj 113 529 abs/dry-wet(s);
#X obj 114 489 r~ fx3000-0-OUT;
#X obj 208 560 abs/dry-wet(s);
#X obj 209 618 s~ fx3000-in-1;
#X obj 318 618 s~ fx3000-in-2;
#X msg 249 430 1;
#X obj 305 529 tgl 15 0 empty empty empty 17 7 0 10 -262144 -1 -1 0
1;
#X msg 284 430 0;
#X msg 329 430 1;
#X obj 547 395 sel 0 1 2;
#X obj 547 458 tgl 15 0 empty empty empty 17 7 0 10 -262144 -1 -1 0
1;
#X msg 547 430 0;
#X obj 451 529 abs/dry-wet(s);
#X obj 546 560 abs/dry-wet(s);
#X msg 587 430 1;
#X obj 643 529 tgl 15 0 empty empty empty 17 7 0 10 -262144 -1 -1 0
1;
#X msg 622 430 0;
#X msg 667 430 1;
#X obj 883 394 sel 0 1 2;
#X obj 883 458 tgl 15 0 empty empty empty 17 7 0 10 -262144 -1 -1 0
1;
#X msg 883 430 0;
#X obj 787 529 abs/dry-wet(s);
#X obj 882 560 abs/dry-wet(s);
#X msg 923 430 1;
#X obj 979 514 tgl 15 0 empty empty empty 17 7 0 10 -262144 -1 -1 0
1;
#X msg 958 430 0;
#X msg 1003 430 1;
#X obj 452 489 r~ fx3000-1-OUT;
#X obj 788 489 r~ fx3000-2-OUT;
#X obj 548 618 s~ fx3000-in-0;
#X obj 656 618 s~ fx3000-in-2;
#X obj 883 618 s~ fx3000-in-0;
#X obj 992 618 s~ fx3000-in-1;
#X msg 21 41 0;
#X obj 21 16 loadbang;
#X msg 114 230 set MSTIN~;
#X msg 263 230 set MSTIN~;
#X msg 409 230 set MSTIN~;
#X msg 130 197 1;
#X msg 167 197 2;
#X msg 279 197 0;
#X msg 316 197 2;
#X msg 425 197 0;
#X msg 462 197 1;
#X obj 436 807 s~ TOTRANSPORT;
#X obj 1122 470 env~;
#X obj 1122 495 > 0;
#X obj 1183 471 env~;
#X obj 1183 496 > 0;
#X obj 1239 470 env~;
#X obj 1239 495 > 0;
#X obj 1122 520 +;
#X obj 1122 545 +;
#X obj 434 688 +~;
#X obj 435 720 +~;
#X obj 436 773 *~;
#X obj 1122 570 t b f;
#X msg 1122 595 1;
#X obj 1122 628 /;
#X floatatom 1122 653 5 0 0 0 - - -;
#X obj 1122 677 change;
#X connect 1 0 0 0;
#X connect 2 0 12 0;
#X connect 3 0 16 0;
#X connect 4 0 20 0;
#X connect 5 0 24 0;
#X connect 6 0 38 0;
#X connect 7 0 47 0;
#X connect 11 0 1 0;
#X connect 12 0 64 0;
#X connect 12 1 67 0;
#X connect 12 2 68 0;
#X connect 13 0 11 0;
#X connect 14 0 22 0;
#X connect 15 0 14 0;
#X connect 16 0 65 0;
#X connect 16 1 69 0;
#X connect 16 2 70 0;
#X connect 17 0 15 0;
#X connect 18 0 23 0;
#X connect 19 0 18 0;
#X connect 20 0 66 0;
#X connect 20 1 71 0;
#X connect 20 2 72 0;
#X connect 21 0 19 0;
#X connect 24 0 28 0;
#X connect 24 1 36 0;
#X connect 24 1 34 0;
#X connect 24 2 37 0;
#X connect 27 0 29 2;
#X connect 28 0 27 0;
#X connect 29 0 74 0;
#X connect 29 0 82 0;
#X connect 29 1 31 0;
#X connect 29 1 31 1;
#X connect 30 0 29 0;
#X connect 30 0 29 1;
#X connect 31 0 32 0;
#X connect 31 1 33 0;
#X connect 34 0 27 0;
#X connect 35 0 31 2;
#X connect 36 0 35 0;
#X connect 37 0 27 0;
#X connect 37 0 35 0;
#X connect 38 0 40 0;
#X connect 38 1 45 0;
#X connect 38 1 43 0;
#X connect 38 2 46 0;
#X connect 39 0 41 2;
#X connect 40 0 39 0;
#X connect 41 0 76 0;
#X connect 41 0 82 1;
#X connect 41 1 42 0;
#X connect 41 1 42 1;
#X connect 42 0 58 0;
#X connect 42 1 59 0;
#X connect 43 0 39 0;
#X connect 44 0 42 2;
#X connect 45 0 44 0;
#X connect 46 0 39 0;
#X connect 46 0 44 0;
#X connect 47 0 49 0;
#X connect 47 1 54 0;
#X connect 47 1 52 0;
#X connect 47 2 55 0;
#X connect 48 0 50 2;
#X connect 49 0 48 0;
#X connect 50 0 78 0;
#X connect 50 0 83 1;
#X connect 50 1 51 0;
#X connect 50 1 51 1;
#X connect 51 0 60 0;
#X connect 51 1 61 0;
#X connect 52 0 48 0;
#X connect 53 0 51 2;
#X connect 54 0 53 0;
#X connect 55 0 48 0;
#X connect 55 0 53 0;
#X connect 56 0 41 0;
#X connect 56 0 41 1;
#X connect 57 0 50 0;
#X connect 57 0 50 1;
#X connect 62 0 2 0;
#X connect 62 0 3 0;
#X connect 62 0 4 0;
#X connect 62 0 5 0;
#X connect 62 0 6 0;
#X connect 62 0 7 0;
#X connect 63 0 62 0;
#X connect 64 0 1 0;
#X connect 65 0 14 0;
#X connect 66 0 18 0;
#X connect 67 0 13 0;
#X connect 68 0 13 0;
#X connect 69 0 17 0;
#X connect 70 0 17 0;
#X connect 71 0 21 0;
#X connect 72 0 21 0;
#X connect 74 0 75 0;
#X connect 75 0 80 0;
#X connect 76 0 77 0;
#X connect 77 0 80 1;
#X connect 78 0 79 0;
#X connect 79 0 81 1;
#X connect 80 0 81 0;
#X connect 81 0 85 0;
#X connect 82 0 83 0;
#X connect 83 0 84 0;
#X connect 84 0 73 0;
#X connect 85 0 86 0;
#X connect 85 1 87 1;
#X connect 86 0 87 0;
#X connect 87 0 88 0;
#X connect 88 0 89 0;
#X connect 89 0 84 1;
#X coords 0 -1 1 1 400 142 2 100 10;
#X restore 675 480 pd ROUTING;
#X obj 168 188 tgl 15 0 empty empty empty 17 7 0 10 -262144 -1 -1 0
1;
#X msg 191 186 0;
#X obj 316 453 r~ TOTRANSPORT;
#X obj 40 255 eq5(v)-w-menu/eq5(v)-w-menu;
#X connect 0 0 9 1;
#X connect 2 0 8 1;
#X connect 3 0 2 0;
#X connect 3 0 14 0;
#X connect 7 0 1 0;
#X connect 7 0 1 1;
#X connect 8 0 11 0;
#X connect 9 0 16 0;
#X connect 10 0 9 0;
#X connect 13 0 9 2;
#X connect 14 0 13 0;
#X connect 15 0 7 0;
#X connect 16 0 8 0;
#X coords 0 676 1 675 860 300 0;
