#N canvas 569 141 976 825 10;
#N canvas 1 78 450 250 (subpatch) 0;
#X array \$0display 256 float 0;
#X coords 0 1 255 0 320 24 2 0 0;
#X restore 101 115 graph;
#X obj 199 280 int;
#X obj 197 257 until;
#X obj 231 282 + 1;
#X msg 236 257 0;
#X obj 253 773 tabwrite \$0display;
#X obj 95 278 delay 100;
#X obj 526 309 inlet;
#X obj 423 452 inlet;
#X text 421 431 samplelen;
#X text 105 222 redraw;
#X obj 9 27 inlet;
#X text 8 11 filename;
#X obj 190 233 t f b;
#X obj 196 485 int;
#X obj 190 460 until;
#X obj 227 491 + 1;
#X msg 261 450 0;
#X obj 239 625 tabread;
#X obj 239 648 abs;
#X obj 239 585 *;
#X obj 243 558 +;
#X obj 195 530 t b f;
#X obj 140 726 float;
#X obj 182 397 t b b f b;
#X obj 221 318 t f f;
#X obj 113 241 t b;
#X obj 89 308 t b b;
#X msg 6 368 \; \$1display normalize 1;
#X obj 11 344 \$0;
#X text 524 290 sampletablename;
#X msg 448 402 set \$1;
#X msg 174 209 256;
#X obj 381 552 / 256;
#X msg 191 434 5;
#X obj 196 509 / 5;
#X text 151 44 waveformdisplay abs for sampler2smallflat;
#X text 14 518 max of some samples;
#X obj 182 684 max;
#X obj 154 673 f;
#X obj 101 101 cnv 10 220 12 empty \$0fn empty 2 7 0 14 -262144 -99865
0;
#X obj 320 102 cnv 10 100 12 empty \$0ln 0 2 7 0 14 -262144 -99865
0;
#X msg 8 234 \; \$2fn label \$1;
#X obj 6 203 pack s f;
#X obj 12 101 t a b;
#X obj 54 168 \$0;
#X obj 718 227 \$0;
#X obj 663 281 pack s f;
#X msg 671 320 \; \$2ln label \$1;
#X obj 678 199 t f b;
#X obj 600 231 makefilename %s;
#N canvas 1 81 603 564 lastcharsofstring 0;
#X obj 63 1 inlet;
#X obj 96 381 outlet;
#X obj 79 44 list fromsymbol;
#X obj 174 127 list length;
#X obj 179 199 clip 0 255;
#X obj 82 89 t a a;
#X obj 110 225 list split;
#X obj 106 342 list tosymbol;
#X obj 180 167 - 51;
#X connect 0 0 2 0;
#X connect 2 0 5 0;
#X connect 3 0 8 0;
#X connect 4 0 6 1;
#X connect 5 0 6 0;
#X connect 5 1 3 0;
#X connect 6 1 7 0;
#X connect 7 0 1 0;
#X connect 8 0 4 0;
#X restore 11 71 pd lastcharsofstring;
#X connect 1 0 3 0;
#X connect 1 0 25 0;
#X connect 2 0 1 0;
#X connect 3 0 1 1;
#X connect 4 0 1 1;
#X connect 6 0 27 0;
#X connect 7 0 31 0;
#X connect 8 0 26 0;
#X connect 8 0 33 0;
#X connect 8 0 49 0;
#X connect 11 0 51 0;
#X connect 13 0 2 0;
#X connect 13 1 4 0;
#X connect 14 0 16 0;
#X connect 14 0 35 0;
#X connect 15 0 14 0;
#X connect 16 0 14 1;
#X connect 17 0 14 1;
#X connect 17 0 38 1;
#X connect 17 0 39 1;
#X connect 18 0 19 0;
#X connect 19 0 38 1;
#X connect 20 0 18 0;
#X connect 21 0 20 0;
#X connect 22 0 39 0;
#X connect 22 1 21 0;
#X connect 23 0 5 0;
#X connect 24 0 23 0;
#X connect 24 1 34 0;
#X connect 24 2 21 1;
#X connect 24 3 17 0;
#X connect 25 0 24 0;
#X connect 25 1 5 1;
#X connect 26 0 6 0;
#X connect 27 0 29 0;
#X connect 27 1 32 0;
#X connect 29 0 28 0;
#X connect 31 0 18 0;
#X connect 32 0 13 0;
#X connect 33 0 20 1;
#X connect 34 0 15 0;
#X connect 35 0 22 0;
#X connect 38 0 23 1;
#X connect 38 0 39 1;
#X connect 39 0 38 0;
#X connect 43 0 42 0;
#X connect 44 0 43 0;
#X connect 44 1 45 0;
#X connect 45 0 43 1;
#X connect 46 0 47 1;
#X connect 47 0 48 0;
#X connect 49 0 50 0;
#X connect 49 1 46 0;
#X connect 50 0 47 0;
#X connect 51 0 44 0;
#X coords 0 -1 1 1 321 40 2 100 100;
