#N canvas 591 81 1328 998 12;
#X obj 68 -30 inlet;
#X obj 622 671 outlet;
#X text 72 -52 clock;
#X obj 241 1245 outlet;
#X obj 195 181 + 1;
#X obj 174 258 mod 16;
#X text 623 693 tracknr/pos;
#X obj 644 534 t b f;
#X obj 620 631 pack f f;
#X obj 187 220 div 1;
#X obj 177 -30 inlet;
#X text 181 -51 reset;
#X obj 178 2 t b;
#X obj 436 -13 inlet;
#X obj 518 -13 inlet;
#X obj 606 -13 inlet;
#X text 453 -54 table-ids (seq \, params \, notes);
#X obj 132 750 tabread;
#X obj 339 601 tabread;
#X obj 49 704 tabread;
#X obj 81 443 until;
#X obj 81 471 f;
#X obj 112 473 + 1;
#X obj 131 652 +;
#X obj 66 545 * 16;
#X obj 114 583 +;
#X obj 76 511 t f f;
#X obj 146 302 change;
#X obj 129 779 moses 0.0001;
#X obj 622 590 int;
#X obj 203 612 * 2048;
#X obj 570 285 loadbang;
#X msg 431 78 set \$1;
#X msg 526 78 set \$1;
#X msg 622 78 set \$1;
#X msg 117 416 0;
#X obj 415 522 * 32;
#X obj 371 562 +;
#X obj 166 884 f;
#X msg 81 416 16;
#X obj 347 -21 inlet;
#X obj 120 84 t b b;
#X obj 267 186 until;
#X obj 267 214 f;
#X obj 306 211 + 1;
#X msg 303 159 0;
#X obj 272 130 t b b;
#X obj 261 259 t f f;
#X obj 324 644 pack f f;
#X obj 302 731 clip 1 128;
#X text 384 734 length;
#X text 412 767 div;
#X text 420 793 steplength;
#X text 449 817 velocity;
#X text 484 877 transpose;
#X text 495 905 len-mod;
#X text 471 849 velo-mod;
#X obj 350 790 clip 1 16;
#X text 346 -44 steplen;
#X obj 373 816 clip 0 127;
#X obj 402 875 clip -36 36;
#X obj 172 914 +;
#X obj 51 784 + 48;
#X msg 181 59 0;
#X obj 400 946 * 125;
#X obj 232 1212 pack f f f;
#X obj 228 1101 makenote 64 125;
#X obj 195 1144 t b f;
#X obj 195 1181 int;
#N canvas 202 163 890 780 modfunc 0;
#X obj 137 33 inlet;
#X obj 100 667 outlet;
#X obj 280 71 inlet;
#X obj 113 382 *;
#X text 134 12 mod amount (-1..1);
#X text 287 48 mod (velocity \, 0..1);
#X obj 536 41 inlet;
#X obj 108 510 *;
#X text 540 19 standard;
#X obj 110 585 +;
#X msg 609 175 1;
#X msg 684 182 16;
#X text 653 119 min/max;
#X obj 572 260 -;
#X obj 554 146 t f b;
#X obj 607 219 * 0.5;
#X obj 681 150 t b f;
#X obj 697 218 -;
#X obj 108 420 moses 0;
#X obj 500 81 t f f f;
#X obj 143 510 *;
#X obj 275 141 t f f;
#X obj 271 185 *;
#X connect 0 0 3 1;
#X connect 2 0 21 0;
#X connect 3 0 18 0;
#X connect 6 0 19 0;
#X connect 7 0 9 0;
#X connect 9 0 1 0;
#X connect 10 0 15 0;
#X connect 11 0 17 0;
#X connect 13 0 7 1;
#X connect 14 0 13 0;
#X connect 14 1 10 0;
#X connect 15 0 13 1;
#X connect 16 0 11 0;
#X connect 16 1 17 1;
#X connect 17 0 20 1;
#X connect 18 0 7 0;
#X connect 18 1 20 0;
#X connect 19 0 9 1;
#X connect 19 1 14 0;
#X connect 19 2 16 0;
#X connect 20 0 9 0;
#X connect 21 0 22 0;
#X connect 21 1 22 1;
#X connect 22 0 3 0;
#X restore 412 903 pd modfunc;
#X text 296 1243 chan-noteevents;
#X obj 558 332 \$1;
#N canvas 202 163 890 780 modfunc 0;
#X obj 137 33 inlet;
#X obj 100 667 outlet;
#X obj 280 71 inlet;
#X obj 113 382 *;
#X text 134 12 mod amount (-1..1);
#X text 287 48 mod (velocity \, 0..1);
#X obj 567 26 inlet;
#X text 571 4 standard;
#X obj 110 585 +;
#X obj 113 516 *;
#X text 635 127 min/max;
#X obj 554 268 -;
#X obj 536 154 t f b;
#X obj 589 227 * 0.5;
#X obj 663 158 t b f;
#X obj 679 226 -;
#X obj 113 426 moses 0;
#X obj 482 89 t f f f;
#X obj 148 516 *;
#X obj 250 191 t f f;
#X obj 240 222 *;
#X msg 591 183 2;
#X msg 666 190 127;
#X connect 0 0 3 1;
#X connect 2 0 19 0;
#X connect 3 0 16 0;
#X connect 6 0 17 0;
#X connect 8 0 1 0;
#X connect 9 0 8 0;
#X connect 11 0 9 1;
#X connect 12 0 11 0;
#X connect 12 1 21 0;
#X connect 13 0 11 1;
#X connect 14 0 22 0;
#X connect 14 1 15 1;
#X connect 15 0 18 1;
#X connect 16 0 9 0;
#X connect 16 1 18 0;
#X connect 17 0 8 1;
#X connect 17 1 12 0;
#X connect 17 2 14 0;
#X connect 18 0 8 0;
#X connect 19 0 20 0;
#X connect 19 1 20 1;
#X connect 20 0 3 0;
#X connect 21 0 13 0;
#X connect 22 0 15 0;
#X restore 385 848 pd modfunc;
#X obj 203 822 t b f f;
#X obj 286 1070 int;
#X obj 118 372 t b b f f;
#X obj 175 412 div 16;
#X obj 177 474 * 256;
#X obj 141 621 +;
#X obj 137 154 int -1;
#X obj 886 85 inlet;
#X text 889 60 transpose;
#X obj 199 946 +;
#X obj 339 763 clip 1 32;
#X obj 1068 199 inlet;
#X text 1076 176 mute;
#X obj 199 1012 spigot 1;
#X obj 225 918 spigot;
#X obj 318 701 route 0 1 2 3 4 5 6 7;
#X text 232 938 tp or not;
#X obj 278 894 == 0;
#X msg 267 159 8;
#X connect 0 0 41 0;
#X connect 4 0 79 1;
#X connect 5 0 27 0;
#X connect 7 0 29 0;
#X connect 7 1 8 1;
#X connect 8 0 1 0;
#X connect 9 0 5 0;
#X connect 10 0 12 0;
#X connect 12 0 63 0;
#X connect 13 0 32 0;
#X connect 14 0 33 0;
#X connect 15 0 34 0;
#X connect 17 0 28 0;
#X connect 18 0 48 1;
#X connect 19 0 62 0;
#X connect 20 0 21 0;
#X connect 21 0 22 0;
#X connect 21 0 26 0;
#X connect 22 0 21 1;
#X connect 23 0 17 0;
#X connect 24 0 25 0;
#X connect 25 0 78 0;
#X connect 26 0 24 0;
#X connect 26 1 19 0;
#X connect 27 0 7 0;
#X connect 27 0 75 0;
#X connect 28 1 73 0;
#X connect 29 0 8 0;
#X connect 30 0 23 1;
#X connect 31 0 71 0;
#X connect 32 0 17 0;
#X connect 33 0 18 0;
#X connect 34 0 19 0;
#X connect 35 0 21 1;
#X connect 36 0 37 1;
#X connect 37 0 18 0;
#X connect 38 0 61 0;
#X connect 39 0 20 0;
#X connect 40 0 64 1;
#X connect 41 0 79 0;
#X connect 41 1 46 0;
#X connect 42 0 43 0;
#X connect 43 0 44 0;
#X connect 43 0 47 0;
#X connect 44 0 43 1;
#X connect 45 0 43 1;
#X connect 46 0 91 0;
#X connect 46 1 45 0;
#X connect 47 0 48 0;
#X connect 47 1 37 0;
#X connect 48 0 88 0;
#X connect 49 0 5 1;
#X connect 57 0 69 2;
#X connect 59 0 72 2;
#X connect 60 0 61 1;
#X connect 61 0 82 0;
#X connect 62 0 38 1;
#X connect 63 0 79 1;
#X connect 64 0 66 2;
#X connect 65 0 3 0;
#X connect 66 0 67 0;
#X connect 66 1 65 2;
#X connect 67 0 68 0;
#X connect 67 1 65 1;
#X connect 68 0 65 0;
#X connect 69 0 64 0;
#X connect 71 0 29 1;
#X connect 71 0 36 0;
#X connect 71 0 30 0;
#X connect 71 0 68 1;
#X connect 72 0 74 0;
#X connect 73 0 38 0;
#X connect 73 1 69 1;
#X connect 73 2 72 1;
#X connect 74 0 66 1;
#X connect 75 0 39 0;
#X connect 75 1 35 0;
#X connect 75 2 25 1;
#X connect 75 3 76 0;
#X connect 76 0 77 0;
#X connect 77 0 78 1;
#X connect 78 0 23 0;
#X connect 79 0 4 0;
#X connect 79 0 9 0;
#X connect 80 0 87 0;
#X connect 82 0 86 0;
#X connect 83 0 9 1;
#X connect 84 0 86 1;
#X connect 86 0 66 0;
#X connect 87 0 82 1;
#X connect 88 0 5 1;
#X connect 88 0 49 0;
#X connect 88 1 83 0;
#X connect 88 2 57 0;
#X connect 88 3 59 0;
#X connect 88 4 60 0;
#X connect 88 5 72 0;
#X connect 88 6 69 0;
#X connect 88 7 90 0;
#X connect 90 0 87 1;
#X connect 91 0 42 0;
