#N canvas 297 173 713 802 10;
#N canvas 1 79 450 250 (subpatch) 0;
#X array \$0display 128 float 0;
#X coords 0 1 127 0 256 64 2 0 0;
#X restore 101 115 graph;
#X obj 199 280 int;
#X obj 197 257 until;
#X obj 231 282 + 1;
#X msg 236 257 0;
#X msg 327 329 set \$1mnbrbloop1;
#X obj 302 772 tabwrite \$0display;
#X msg 174 209 128;
#X obj 381 552 / 128;
#X obj 96 337 / 100;
#X obj 106 361 *;
#X obj 113 241 t b;
#X obj 112 267 delay 100;
#X obj 488 220 inlet;
#X text 486 201 beatloop\$0;
#X obj 38 287 inlet;
#X text 1 270 startpercent;
#X obj 458 447 inlet;
#X text 456 426 samplelen;
#X obj 338 228 inlet;
#X obj 295 225 inlet;
#X obj 347 291 /;
#X obj 296 257 t b f;
#X text 258 205 original length \, loop length;
#X obj 393 502 *;
#X obj 386 467 t b f;
#X text 105 222 redraw;
#X obj 14 62 inlet;
#X text 13 46 filename;
#X obj 190 233 t f b;
#X obj 196 485 int;
#X obj 190 460 until;
#X obj 227 491 + 1;
#X msg 261 450 0;
#X msg 191 434 10;
#X obj 239 625 tabread;
#X obj 239 648 abs;
#X obj 196 509 / 10;
#X obj 239 581 *;
#X obj 239 603 +;
#X obj 243 558 +;
#X obj 193 530 t b f;
#X obj 140 726 float;
#X obj 182 397 t b b f b;
#X obj 221 318 t f f;
#X text 151 43 waveformdisplay abs for beatloop;
#X text 59 495 max of 10 samples;
#X obj 184 667 max;
#X obj 163 633 f;
#X obj 102 102 cnv 10 250 12 empty \$0fn empty 2 7 0 14 -262144 -99865
0;
#X msg -59 322 \; \$2fn label \$1;
#X obj -59 270 pack s f;
#X obj -47 174 t a b;
#X obj -5 241 \$0;
#X connect 1 0 3 0;
#X connect 1 0 44 0;
#X connect 2 0 1 0;
#X connect 3 0 1 1;
#X connect 4 0 1 1;
#X connect 5 0 35 0;
#X connect 7 0 29 0;
#X connect 8 0 38 1;
#X connect 9 0 10 0;
#X connect 10 0 39 1;
#X connect 11 0 12 0;
#X connect 12 0 7 0;
#X connect 13 0 5 0;
#X connect 15 0 9 0;
#X connect 15 0 11 0;
#X connect 17 0 10 1;
#X connect 17 0 24 0;
#X connect 19 0 21 0;
#X connect 20 0 22 0;
#X connect 21 0 25 0;
#X connect 22 0 21 0;
#X connect 22 1 21 1;
#X connect 24 0 8 0;
#X connect 24 0 11 0;
#X connect 25 0 24 0;
#X connect 25 1 24 1;
#X connect 27 0 52 0;
#X connect 29 0 2 0;
#X connect 29 1 4 0;
#X connect 30 0 32 0;
#X connect 30 0 37 0;
#X connect 31 0 30 0;
#X connect 32 0 30 1;
#X connect 33 0 30 1;
#X connect 33 0 47 1;
#X connect 33 0 48 1;
#X connect 34 0 31 0;
#X connect 35 0 36 0;
#X connect 36 0 47 1;
#X connect 37 0 41 0;
#X connect 38 0 39 0;
#X connect 39 0 35 0;
#X connect 40 0 38 0;
#X connect 41 0 48 0;
#X connect 41 1 40 0;
#X connect 42 0 6 0;
#X connect 43 0 42 0;
#X connect 43 1 34 0;
#X connect 43 2 40 1;
#X connect 43 3 33 0;
#X connect 44 0 43 0;
#X connect 44 1 6 1;
#X connect 47 0 42 1;
#X connect 47 0 48 1;
#X connect 48 0 47 0;
#X connect 51 0 50 0;
#X connect 52 0 51 0;
#X connect 52 1 53 0;
#X connect 53 0 51 1;
#X coords 0 -1 1 1 258 80 2 100 100;
