#N canvas 344 122 912 877 10;
#N canvas 1 79 450 250 (subpatch) 0;
#X array \$0display 128 float 0;
#X coords 0 1 127 0 256 80 2 0 0;
#X restore 101 118 graph;
#X obj 199 300 int;
#X obj 197 277 until;
#X obj 231 302 + 1;
#X msg 236 277 0;
#X obj 270 803 tabwrite \$0display;
#X msg 174 229 128;
#X obj 381 572 / 128;
#X obj 96 357 / 100;
#X obj 106 381 *;
#X obj 113 261 t b;
#X obj 112 287 delay 100;
#X obj 544 232 inlet;
#X obj 38 307 inlet;
#X text 1 290 startpercent;
#X obj 458 467 inlet;
#X text 456 446 samplelen;
#X obj 365 248 inlet;
#X obj 295 245 inlet;
#X obj 347 311 /;
#X obj 296 277 t b f;
#X text 258 225 original length \, loop length;
#X obj 393 522 *;
#X obj 386 487 t b f;
#X text 105 242 redraw;
#X obj -31 70 inlet;
#X text -32 54 filename;
#X obj 190 253 t f b;
#X obj 196 505 int;
#X obj 190 480 until;
#X obj 227 511 + 1;
#X msg 261 470 0;
#X msg 191 454 10;
#X obj 239 645 tabread;
#X obj 239 668 abs;
#X obj 196 529 / 10;
#X obj 239 601 *;
#X obj 239 623 +;
#X obj 243 578 +;
#X obj 193 550 t b f;
#X obj 140 746 float;
#X obj 182 417 t b b f b;
#X obj 221 338 t f f;
#X text 59 515 max of 10 samples;
#X obj 184 687 max;
#X obj 163 653 f;
#X text 542 214 tableid/name;
#X msg 404 350 set \$1;
#X text 151 43 waveformdisplay abs 256x80;
#X obj 102 103 cnv 10 250 12 empty \$0fn empty 2 7 0 14 -262144 -99865
0;
#X msg -59 322 \; \$2fn label \$1;
#X obj -59 270 pack s f;
#X obj -47 174 t a b;
#X obj -5 241 \$0;
#N canvas 1 81 603 564 lastcharsofstring 0;
#X obj 63 1 inlet;
#X obj 96 381 outlet;
#X obj 79 44 list fromsymbol;
#X obj 174 127 list length;
#X obj 179 199 clip 0 255;
#X obj 82 89 t a a;
#X obj 110 225 list split;
#X obj 106 342 list tosymbol;
#X obj 179 166 - 31;
#X connect 0 0 2 0;
#X connect 2 0 5 0;
#X connect 3 0 8 0;
#X connect 4 0 6 1;
#X connect 5 0 6 0;
#X connect 5 1 3 0;
#X connect 6 1 7 0;
#X connect 7 0 1 0;
#X connect 8 0 4 0;
#X restore -48 144 pd lastcharsofstring;
#X text 375 102 31 chars filename;
#X connect 1 0 3 0;
#X connect 1 0 42 0;
#X connect 2 0 1 0;
#X connect 3 0 1 1;
#X connect 4 0 1 1;
#X connect 6 0 27 0;
#X connect 7 0 36 1;
#X connect 8 0 9 0;
#X connect 9 0 37 1;
#X connect 10 0 11 0;
#X connect 11 0 6 0;
#X connect 12 0 47 0;
#X connect 13 0 8 0;
#X connect 13 0 10 0;
#X connect 15 0 9 1;
#X connect 15 0 22 0;
#X connect 17 0 19 0;
#X connect 18 0 20 0;
#X connect 19 0 23 0;
#X connect 20 0 19 0;
#X connect 20 1 19 1;
#X connect 22 0 7 0;
#X connect 22 0 10 0;
#X connect 23 0 22 0;
#X connect 23 1 22 1;
#X connect 25 0 54 0;
#X connect 27 0 2 0;
#X connect 27 1 4 0;
#X connect 28 0 30 0;
#X connect 28 0 35 0;
#X connect 29 0 28 0;
#X connect 30 0 28 1;
#X connect 31 0 28 1;
#X connect 31 0 44 1;
#X connect 31 0 45 1;
#X connect 32 0 29 0;
#X connect 33 0 34 0;
#X connect 34 0 44 1;
#X connect 35 0 39 0;
#X connect 36 0 37 0;
#X connect 37 0 33 0;
#X connect 38 0 36 0;
#X connect 39 0 45 0;
#X connect 39 1 38 0;
#X connect 40 0 5 0;
#X connect 41 0 40 0;
#X connect 41 1 32 0;
#X connect 41 2 38 1;
#X connect 41 3 31 0;
#X connect 42 0 41 0;
#X connect 42 1 5 1;
#X connect 44 0 40 1;
#X connect 44 0 45 1;
#X connect 45 0 44 0;
#X connect 47 0 33 0;
#X connect 51 0 50 0;
#X connect 52 0 51 0;
#X connect 52 1 53 0;
#X connect 53 0 51 1;
#X connect 54 0 52 0;
#X coords 0 -1 1 1 258 100 1 100 100;
