#N canvas 270 146 1059 933 12;
#X obj 106 109 vsl 18 12 0 0.999 0 0 \$0fs \$0fr0 empty 0 -9 0 10 -262144
-262144 -1 0 0;
#X obj 126 109 vsl 18 12 1 1.999 0 0 \$0fs \$0fr1 empty 0 -9 0 10 -262144
-262144 -1 0 0;
#X obj 146 109 vsl 18 12 2 2.999 0 0 \$0fs \$0fr2 empty 0 -9 0 10 -262144
-262144 -1 0 0;
#X obj 166 109 vsl 18 12 3 3.999 0 0 \$0fs \$0fr3 empty 0 -9 0 10 -262144
-262144 -1 0 0;
#X obj 186 109 vsl 18 12 4 4.999 0 0 \$0fs \$0fr4 empty 0 -9 0 10 -262144
-262144 -1 0 0;
#X obj 206 109 vsl 18 12 5 5.999 0 0 \$0fs \$0fr5 empty 0 -9 0 10 -262144
-262144 -1 0 0;
#X obj 226 109 vsl 18 12 6 6.999 0 0 \$0fs \$0fr6 empty 0 -9 0 10 -262144
-262144 -1 0 0;
#X obj 246 109 vsl 18 12 7 7.999 0 0 \$0fs \$0fr7 empty 0 -9 0 10 -262144
-262144 -1 0 0;
#X obj 266 109 vsl 18 12 8 8.999 0 0 \$0fs \$0fr8 empty 0 -9 0 10 -262144
-262144 -1 0 0;
#X obj 286 109 vsl 18 12 9 9.999 0 0 \$0fs \$0fr9 empty 0 -9 0 10 -262144
-262144 -1 0 0;
#X obj 306 109 vsl 18 12 10 10.999 0 0 \$0fs \$0fr10 empty 0 -9 0 10
-262144 -262144 -1 0 0;
#X obj 326 109 vsl 18 12 11 11.999 0 0 \$0fs \$0fr11 empty 0 -9 0 10
-262144 -262144 -1 0 0;
#X obj 346 109 vsl 18 12 12 12.999 0 0 \$0fs \$0fr12 empty 0 -9 0 10
-262144 -262144 -1 0 0;
#X obj 366 109 vsl 18 12 13 13.999 0 0 \$0fs \$0fr13 empty 0 -9 0 10
-262144 -262144 -1 0 0;
#X obj 386 109 vsl 18 12 14 14.999 0 0 \$0fs \$0fr14 empty 0 -9 0 10
-262144 -262144 -1 0 0;
#X obj 406 109 vsl 18 12 15 15.999 0 0 \$0fs \$0fr15 empty 0 -9 0 10
-262144 -262144 -1 0 0;
#X obj 106 129 vsl 18 12 16 16.999 0 0 \$0fs \$0fr16 empty 0 -9 0 10
-262144 -262144 -1 0 0;
#X obj 126 129 vsl 18 12 17 17.999 0 0 \$0fs \$0fr17 empty 0 -9 0 10
-262144 -262144 -1 0 0;
#X obj 146 129 vsl 18 12 18 18.999 0 0 \$0fs \$0fr18 empty 0 -9 0 10
-262144 -262144 -1 0 0;
#X obj 166 129 vsl 18 12 19 19.999 0 0 \$0fs \$0fr19 empty 0 -9 0 10
-262144 -262144 -1 0 0;
#X obj 186 129 vsl 18 12 20 20.999 0 0 \$0fs \$0fr20 empty 0 -9 0 10
-262144 -262144 -1 0 0;
#X obj 206 129 vsl 18 12 21 21.999 0 0 \$0fs \$0fr21 empty 0 -9 0 10
-262144 -262144 -1 0 0;
#X obj 226 129 vsl 18 12 22 22.999 0 0 \$0fs \$0fr22 empty 0 -9 0 10
-262144 -262144 -1 0 0;
#X obj 246 129 vsl 18 12 23 23.999 0 0 \$0fs \$0fr23 empty 0 -9 0 10
-262144 -262144 -1 0 0;
#X obj 266 129 vsl 18 12 24 24.999 0 0 \$0fs \$0fr24 empty 0 -9 0 10
-262144 -262144 -1 0 0;
#X obj 286 129 vsl 18 12 25 25.999 0 0 \$0fs \$0fr25 empty 0 -9 0 10
-262144 -262144 -1 0 0;
#X obj 306 129 vsl 18 12 26 26.999 0 0 \$0fs \$0fr26 empty 0 -9 0 10
-262144 -262144 -1 0 0;
#X obj 326 129 vsl 18 12 27 27.999 0 0 \$0fs \$0fr27 empty 0 -9 0 10
-262144 -262144 -1 0 0;
#X obj 346 129 vsl 18 12 28 28.999 0 0 \$0fs \$0fr28 empty 0 -9 0 10
-262144 -262144 -1 0 0;
#X obj 366 129 vsl 18 12 29 29.999 0 0 \$0fs \$0fr29 empty 0 -9 0 10
-262144 -262144 -1 0 0;
#X obj 386 129 vsl 18 12 30 30.999 0 0 \$0fs \$0fr30 empty 0 -9 0 10
-262144 -262144 -1 0 0;
#X obj 406 129 vsl 18 12 31 31.999 0 0 \$0fs \$0fr31 empty 0 -9 0 10
-262144 -262144 -1 0 0;
#X obj 106 149 vsl 18 12 32 32.999 0 0 \$0fs \$0fr32 empty 0 -9 0 10
-262144 -262144 -1 0 0;
#X obj 126 149 vsl 18 12 33 33.999 0 0 \$0fs \$0fr33 empty 0 -9 0 10
-262144 -262144 -1 0 0;
#X obj 146 149 vsl 18 12 34 34.999 0 0 \$0fs \$0fr34 empty 0 -9 0 10
-262144 -262144 -1 0 0;
#X obj 166 149 vsl 18 12 35 35.999 0 0 \$0fs \$0fr35 empty 0 -9 0 10
-262144 -262144 -1 0 0;
#X obj 186 149 vsl 18 12 36 36.999 0 0 \$0fs \$0fr36 empty 0 -9 0 10
-262144 -262144 -1 0 0;
#X obj 206 149 vsl 18 12 37 37.999 0 0 \$0fs \$0fr37 empty 0 -9 0 10
-262144 -262144 -1 0 0;
#X obj 226 149 vsl 18 12 38 38.999 0 0 \$0fs \$0fr38 empty 0 -9 0 10
-262144 -262144 -1 0 0;
#X obj 246 149 vsl 18 12 39 39.999 0 0 \$0fs \$0fr39 empty 0 -9 0 10
-262144 -262144 -1 0 0;
#X obj 266 149 vsl 18 12 40 40.999 0 0 \$0fs \$0fr40 empty 0 -9 0 10
-262144 -262144 -1 0 0;
#X obj 286 149 vsl 18 12 41 41.999 0 0 \$0fs \$0fr41 empty 0 -9 0 10
-262144 -262144 -1 0 0;
#X obj 306 149 vsl 18 12 42 42.999 0 0 \$0fs \$0fr42 empty 0 -9 0 10
-262144 -262144 -1 0 0;
#X obj 326 149 vsl 18 12 43 43.999 0 0 \$0fs \$0fr43 empty 0 -9 0 10
-262144 -262144 -1 0 0;
#X obj 346 149 vsl 18 12 44 44.999 0 0 \$0fs \$0fr44 empty 0 -9 0 10
-262144 -262144 -1 0 0;
#X obj 366 149 vsl 18 12 45 45.999 0 0 \$0fs \$0fr45 empty 0 -9 0 10
-262144 -262144 -1 0 0;
#X obj 386 149 vsl 18 12 46 46.999 0 0 \$0fs \$0fr46 empty 0 -9 0 10
-262144 -262144 -1 0 0;
#X obj 406 149 vsl 18 12 47 47.999 0 0 \$0fs \$0fr47 empty 0 -9 0 10
-262144 -262144 -1 0 0;
#X obj 106 169 vsl 18 12 48 48.999 0 0 \$0fs \$0fr48 empty 0 -9 0 10
-262144 -262144 -1 0 0;
#X obj 126 169 vsl 18 12 49 49.999 0 0 \$0fs \$0fr49 empty 0 -9 0 10
-262144 -262144 -1 0 0;
#X obj 146 169 vsl 18 12 50 50.999 0 0 \$0fs \$0fr50 empty 0 -9 0 10
-262144 -262144 -1 0 0;
#X obj 166 169 vsl 18 12 51 51.999 0 0 \$0fs \$0fr51 empty 0 -9 0 10
-262144 -262144 -1 0 0;
#X obj 186 169 vsl 18 12 52 52.999 0 0 \$0fs \$0fr52 empty 0 -9 0 10
-262144 -262144 -1 0 0;
#X obj 206 169 vsl 18 12 53 53.999 0 0 \$0fs \$0fr53 empty 0 -9 0 10
-262144 -262144 -1 0 0;
#X obj 226 169 vsl 18 12 54 54.999 0 0 \$0fs \$0fr54 empty 0 -9 0 10
-262144 -262144 -1 0 0;
#X obj 246 169 vsl 18 12 55 55.999 0 0 \$0fs \$0fr55 empty 0 -9 0 10
-262144 -262144 -1 0 0;
#X obj 266 169 vsl 18 12 56 56.999 0 0 \$0fs \$0fr56 empty 0 -9 0 10
-262144 -262144 -1 0 0;
#X obj 286 169 vsl 18 12 57 57.999 0 0 \$0fs \$0fr57 empty 0 -9 0 10
-262144 -262144 -1 0 0;
#X obj 306 169 vsl 18 12 58 58.999 0 0 \$0fs \$0fr58 empty 0 -9 0 10
-262144 -262144 -1 0 0;
#X obj 326 169 vsl 18 12 59 59.999 0 0 \$0fs \$0fr59 empty 0 -9 0 10
-262144 -262144 -1 0 0;
#X obj 346 169 vsl 18 12 60 60.999 0 0 \$0fs \$0fr60 empty 0 -9 0 10
-262144 -262144 -1 0 0;
#X obj 366 169 vsl 18 12 61 61.999 0 0 \$0fs \$0fr61 empty 0 -9 0 10
-262144 -262144 -1 0 0;
#X obj 386 169 vsl 18 12 62 62.999 0 0 \$0fs \$0fr62 empty 0 -9 0 10
-262144 -262144 -1 0 0;
#X obj 406 169 vsl 18 12 63 63.999 0 0 \$0fs \$0fr63 empty 0 -9 0 10
-262144 -262144 -1 0 0;
#X obj 106 189 vsl 18 12 64 64.999 0 0 \$0fs \$0fr64 empty 0 -9 0 10
-262144 -262144 -1 0 0;
#X obj 126 189 vsl 18 12 65 65.999 0 0 \$0fs \$0fr65 empty 0 -9 0 10
-262144 -262144 -1 0 0;
#X obj 146 189 vsl 18 12 66 66.999 0 0 \$0fs \$0fr66 empty 0 -9 0 10
-262144 -262144 -1 0 0;
#X obj 166 189 vsl 18 12 67 67.999 0 0 \$0fs \$0fr67 empty 0 -9 0 10
-262144 -262144 -1 0 0;
#X obj 186 189 vsl 18 12 68 68.999 0 0 \$0fs \$0fr68 empty 0 -9 0 10
-262144 -262144 -1 0 0;
#X obj 206 189 vsl 18 12 69 69.999 0 0 \$0fs \$0fr69 empty 0 -9 0 10
-262144 -262144 -1 0 0;
#X obj 226 189 vsl 18 12 70 70.999 0 0 \$0fs \$0fr70 empty 0 -9 0 10
-262144 -262144 -1 0 0;
#X obj 246 189 vsl 18 12 71 71.999 0 0 \$0fs \$0fr71 empty 0 -9 0 10
-262144 -262144 -1 0 0;
#X obj 266 189 vsl 18 12 72 72.999 0 0 \$0fs \$0fr72 empty 0 -9 0 10
-262144 -262144 -1 0 0;
#X obj 286 189 vsl 18 12 73 73.999 0 0 \$0fs \$0fr73 empty 0 -9 0 10
-262144 -262144 -1 0 0;
#X obj 306 189 vsl 18 12 74 74.999 0 0 \$0fs \$0fr74 empty 0 -9 0 10
-262144 -262144 -1 0 0;
#X obj 326 189 vsl 18 12 75 75.999 0 0 \$0fs \$0fr75 empty 0 -9 0 10
-262144 -262144 -1 0 0;
#X obj 346 189 vsl 18 12 76 76.999 0 0 \$0fs \$0fr76 empty 0 -9 0 10
-262144 -262144 -1 0 0;
#X obj 366 189 vsl 18 12 77 77.999 0 0 \$0fs \$0fr77 empty 0 -9 0 10
-262144 -262144 -1 0 0;
#X obj 386 189 vsl 18 12 78 78.999 0 0 \$0fs \$0fr78 empty 0 -9 0 10
-262144 -262144 -1 0 0;
#X obj 406 189 vsl 18 12 79 79.999 0 0 \$0fs \$0fr79 empty 0 -9 0 10
-262144 -262144 -1 0 0;
#X obj 106 209 vsl 18 12 80 80.999 0 0 \$0fs \$0fr80 empty 0 -9 0 10
-262144 -262144 -1 0 0;
#X obj 126 209 vsl 18 12 81 81.999 0 0 \$0fs \$0fr81 empty 0 -9 0 10
-262144 -262144 -1 0 0;
#X obj 146 209 vsl 18 12 82 82.999 0 0 \$0fs \$0fr82 empty 0 -9 0 10
-262144 -262144 -1 0 0;
#X obj 166 209 vsl 18 12 83 83.999 0 0 \$0fs \$0fr83 empty 0 -9 0 10
-262144 -262144 -1 0 0;
#X obj 186 209 vsl 18 12 84 84.999 0 0 \$0fs \$0fr84 empty 0 -9 0 10
-262144 -262144 -1 0 0;
#X obj 206 209 vsl 18 12 85 85.999 0 0 \$0fs \$0fr85 empty 0 -9 0 10
-262144 -262144 -1 0 0;
#X obj 226 209 vsl 18 12 86 86.999 0 0 \$0fs \$0fr86 empty 0 -9 0 10
-262144 -262144 -1 0 0;
#X obj 246 209 vsl 18 12 87 87.999 0 0 \$0fs \$0fr87 empty 0 -9 0 10
-262144 -262144 -1 0 0;
#X obj 266 209 vsl 18 12 88 88.999 0 0 \$0fs \$0fr88 empty 0 -9 0 10
-262144 -262144 -1 0 0;
#X obj 286 209 vsl 18 12 89 89.999 0 0 \$0fs \$0fr89 empty 0 -9 0 10
-262144 -262144 -1 0 0;
#X obj 306 209 vsl 18 12 90 90.999 0 0 \$0fs \$0fr90 empty 0 -9 0 10
-262144 -262144 -1 0 0;
#X obj 326 209 vsl 18 12 91 91.999 0 0 \$0fs \$0fr91 empty 0 -9 0 10
-262144 -262144 -1 0 0;
#X obj 346 209 vsl 18 12 92 92.999 0 0 \$0fs \$0fr92 empty 0 -9 0 10
-262144 -262144 -1 0 0;
#X obj 366 209 vsl 18 12 93 93.999 0 0 \$0fs \$0fr93 empty 0 -9 0 10
-262144 -262144 -1 0 0;
#X obj 386 209 vsl 18 12 94 94.999 0 0 \$0fs \$0fr94 empty 0 -9 0 10
-262144 -262144 -1 0 0;
#X obj 406 209 vsl 18 12 95 95.999 0 0 \$0fs \$0fr95 empty 0 -9 0 10
-262144 -262144 -1 0 0;
#X obj 106 229 vsl 18 12 96 96.999 0 0 \$0fs \$0fr96 empty 0 -9 0 10
-262144 -262144 -1 0 0;
#X obj 126 229 vsl 18 12 97 97.999 0 0 \$0fs \$0fr97 empty 0 -9 0 10
-262144 -262144 -1 0 0;
#X obj 146 229 vsl 18 12 98 98.999 0 0 \$0fs \$0fr98 empty 0 -9 0 10
-262144 -262144 -1 0 0;
#X obj 166 229 vsl 18 12 99 99.999 0 0 \$0fs \$0fr99 empty 0 -9 0 10
-262144 -262144 -1 0 0;
#X obj 186 229 vsl 18 12 100 100.999 0 0 \$0fs \$0fr100 empty 0 -9
0 10 -262144 -262144 -1 0 0;
#X obj 206 229 vsl 18 12 101 101.999 0 0 \$0fs \$0fr101 empty 0 -9
0 10 -262144 -262144 -1 0 0;
#X obj 226 229 vsl 18 12 102 102.999 0 0 \$0fs \$0fr102 empty 0 -9
0 10 -262144 -262144 -1 0 0;
#X obj 246 229 vsl 18 12 103 103.999 0 0 \$0fs \$0fr103 empty 0 -9
0 10 -262144 -262144 -1 0 0;
#X obj 266 229 vsl 18 12 104 104.999 0 0 \$0fs \$0fr104 empty 0 -9
0 10 -262144 -262144 -1 0 0;
#X obj 286 229 vsl 18 12 105 105.999 0 0 \$0fs \$0fr105 empty 0 -9
0 10 -262144 -262144 -1 0 0;
#X obj 306 229 vsl 18 12 106 106.999 0 0 \$0fs \$0fr106 empty 0 -9
0 10 -262144 -262144 -1 0 0;
#X obj 326 229 vsl 18 12 107 107.999 0 0 \$0fs \$0fr107 empty 0 -9
0 10 -262144 -262144 -1 0 0;
#X obj 346 229 vsl 18 12 108 108.999 0 0 \$0fs \$0fr108 empty 0 -9
0 10 -262144 -262144 -1 0 0;
#X obj 366 229 vsl 18 12 109 109.999 0 0 \$0fs \$0fr109 empty 0 -9
0 10 -262144 -262144 -1 0 0;
#X obj 386 229 vsl 18 12 110 110.999 0 0 \$0fs \$0fr110 empty 0 -9
0 10 -262144 -262144 -1 0 0;
#X obj 406 229 vsl 18 12 111 111.999 0 0 \$0fs \$0fr111 empty 0 -9
0 10 -262144 -262144 -1 0 0;
#X obj 106 249 vsl 18 12 112 112.999 0 0 \$0fs \$0fr112 empty 0 -9
0 10 -262144 -262144 -1 0 0;
#X obj 126 249 vsl 18 12 113 113.999 0 0 \$0fs \$0fr113 empty 0 -9
0 10 -262144 -262144 -1 0 0;
#X obj 146 249 vsl 18 12 114 114.999 0 0 \$0fs \$0fr114 empty 0 -9
0 10 -262144 -262144 -1 0 0;
#X obj 166 249 vsl 18 12 115 115.999 0 0 \$0fs \$0fr115 empty 0 -9
0 10 -262144 -262144 -1 0 0;
#X obj 186 249 vsl 18 12 116 116.999 0 0 \$0fs \$0fr116 empty 0 -9
0 10 -262144 -262144 -1 0 0;
#X obj 206 249 vsl 18 12 117 117.999 0 0 \$0fs \$0fr117 empty 0 -9
0 10 -262144 -262144 -1 0 0;
#X obj 226 249 vsl 18 12 118 118.999 0 0 \$0fs \$0fr118 empty 0 -9
0 10 -262144 -262144 -1 0 0;
#X obj 246 249 vsl 18 12 119 119.999 0 0 \$0fs \$0fr119 empty 0 -9
0 10 -262144 -262144 -1 0 0;
#X obj 266 249 vsl 18 12 120 120.999 0 0 \$0fs \$0fr120 empty 0 -9
0 10 -262144 -262144 -1 0 0;
#X obj 286 249 vsl 18 12 121 121.999 0 0 \$0fs \$0fr121 empty 0 -9
0 10 -262144 -262144 -1 0 0;
#X obj 306 249 vsl 18 12 122 122.999 0 0 \$0fs \$0fr122 empty 0 -9
0 10 -262144 -262144 -1 0 0;
#X obj 326 249 vsl 18 12 123 123.999 0 0 \$0fs \$0fr123 empty 0 -9
0 10 -262144 -262144 -1 0 0;
#X obj 346 249 vsl 18 12 124 124.999 0 0 \$0fs \$0fr124 empty 0 -9
0 10 -262144 -262144 -1 0 0;
#X obj 366 249 vsl 18 12 125 125.999 0 0 \$0fs \$0fr125 empty 0 -9
0 10 -262144 -262144 -1 0 0;
#X obj 386 249 vsl 18 12 126 126.999 0 0 \$0fs \$0fr126 empty 0 -9
0 10 -262144 -262144 -1 0 0;
#X obj 406 249 vsl 18 12 127 127.999 0 0 \$0fs \$0fr127 empty 0 -9
0 10 -262144 -262144 -1 0 0;
#X obj 106 269 vsl 18 12 128 128.999 0 0 \$0fs \$0fr128 empty 0 -9
0 10 -262144 -262144 -1 0 0;
#X obj 126 269 vsl 18 12 129 129.999 0 0 \$0fs \$0fr129 empty 0 -9
0 10 -262144 -262144 -1 0 0;
#X obj 146 269 vsl 18 12 130 130.999 0 0 \$0fs \$0fr130 empty 0 -9
0 10 -262144 -262144 -1 0 0;
#X obj 166 269 vsl 18 12 131 131.999 0 0 \$0fs \$0fr131 empty 0 -9
0 10 -262144 -262144 -1 0 0;
#X obj 186 269 vsl 18 12 132 132.999 0 0 \$0fs \$0fr132 empty 0 -9
0 10 -262144 -262144 -1 0 0;
#X obj 206 269 vsl 18 12 133 133.999 0 0 \$0fs \$0fr133 empty 0 -9
0 10 -262144 -262144 -1 0 0;
#X obj 226 269 vsl 18 12 134 134.999 0 0 \$0fs \$0fr134 empty 0 -9
0 10 -262144 -262144 -1 0 0;
#X obj 246 269 vsl 18 12 135 135.999 0 0 \$0fs \$0fr135 empty 0 -9
0 10 -262144 -262144 -1 0 0;
#X obj 266 269 vsl 18 12 136 136.999 0 0 \$0fs \$0fr136 empty 0 -9
0 10 -262144 -262144 -1 0 0;
#X obj 286 269 vsl 18 12 137 137.999 0 0 \$0fs \$0fr137 empty 0 -9
0 10 -262144 -262144 -1 0 0;
#X obj 306 269 vsl 18 12 138 138.999 0 0 \$0fs \$0fr138 empty 0 -9
0 10 -262144 -262144 -1 0 0;
#X obj 326 269 vsl 18 12 139 139.999 0 0 \$0fs \$0fr139 empty 0 -9
0 10 -262144 -262144 -1 0 0;
#X obj 346 269 vsl 18 12 140 140.999 0 0 \$0fs \$0fr140 empty 0 -9
0 10 -262144 -262144 -1 0 0;
#X obj 366 269 vsl 18 12 141 141.999 0 0 \$0fs \$0fr141 empty 0 -9
0 10 -262144 -262144 -1 0 0;
#X obj 386 269 vsl 18 12 142 142.999 0 0 \$0fs \$0fr142 empty 0 -9
0 10 -262144 -262144 -1 0 0;
#X obj 406 269 vsl 18 12 143 143.999 0 0 \$0fs \$0fr143 empty 0 -9
0 10 -262144 -262144 -1 0 0;
#X obj 106 289 vsl 18 12 144 144.999 0 0 \$0fs \$0fr144 empty 0 -9
0 10 -262144 -262144 -1 0 0;
#X obj 126 289 vsl 18 12 145 145.999 0 0 \$0fs \$0fr145 empty 0 -9
0 10 -262144 -262144 -1 0 0;
#X obj 146 289 vsl 18 12 146 146.999 0 0 \$0fs \$0fr146 empty 0 -9
0 10 -262144 -262144 -1 0 0;
#X obj 166 289 vsl 18 12 147 147.999 0 0 \$0fs \$0fr147 empty 0 -9
0 10 -262144 -262144 -1 0 0;
#X obj 186 289 vsl 18 12 148 148.999 0 0 \$0fs \$0fr148 empty 0 -9
0 10 -262144 -262144 -1 0 0;
#X obj 206 289 vsl 18 12 149 149.999 0 0 \$0fs \$0fr149 empty 0 -9
0 10 -262144 -262144 -1 0 0;
#X obj 226 289 vsl 18 12 150 150.999 0 0 \$0fs \$0fr150 empty 0 -9
0 10 -262144 -262144 -1 0 0;
#X obj 246 289 vsl 18 12 151 151.999 0 0 \$0fs \$0fr151 empty 0 -9
0 10 -262144 -262144 -1 0 0;
#X obj 266 289 vsl 18 12 152 152.999 0 0 \$0fs \$0fr152 empty 0 -9
0 10 -262144 -262144 -1 0 0;
#X obj 286 289 vsl 18 12 153 153.999 0 0 \$0fs \$0fr153 empty 0 -9
0 10 -262144 -262144 -1 0 0;
#X obj 306 289 vsl 18 12 154 154.999 0 0 \$0fs \$0fr154 empty 0 -9
0 10 -262144 -262144 -1 0 0;
#X obj 326 289 vsl 18 12 155 155.999 0 0 \$0fs \$0fr155 empty 0 -9
0 10 -262144 -262144 -1 0 0;
#X obj 346 289 vsl 18 12 156 156.999 0 0 \$0fs \$0fr156 empty 0 -9
0 10 -262144 -262144 -1 0 0;
#X obj 366 289 vsl 18 12 157 157.999 0 0 \$0fs \$0fr157 empty 0 -9
0 10 -262144 -262144 -1 0 0;
#X obj 386 289 vsl 18 12 158 158.999 0 0 \$0fs \$0fr158 empty 0 -9
0 10 -262144 -262144 -1 0 0;
#X obj 406 289 vsl 18 12 159 159.999 0 0 \$0fs \$0fr159 empty 0 -9
0 10 -262144 -262144 -1 0 0;
#X obj 106 309 vsl 18 12 160 160.999 0 0 \$0fs \$0fr160 empty 0 -9
0 10 -262144 -262144 -1 0 0;
#X obj 126 309 vsl 18 12 161 161.999 0 0 \$0fs \$0fr161 empty 0 -9
0 10 -262144 -262144 -1 0 0;
#X obj 146 309 vsl 18 12 162 162.999 0 0 \$0fs \$0fr162 empty 0 -9
0 10 -262144 -262144 -1 0 0;
#X obj 166 309 vsl 18 12 163 163.999 0 0 \$0fs \$0fr163 empty 0 -9
0 10 -262144 -262144 -1 0 0;
#X obj 186 309 vsl 18 12 164 164.999 0 0 \$0fs \$0fr164 empty 0 -9
0 10 -262144 -262144 -1 0 0;
#X obj 206 309 vsl 18 12 165 165.999 0 0 \$0fs \$0fr165 empty 0 -9
0 10 -262144 -262144 -1 0 0;
#X obj 226 309 vsl 18 12 166 166.999 0 0 \$0fs \$0fr166 empty 0 -9
0 10 -262144 -262144 -1 0 0;
#X obj 246 309 vsl 18 12 167 167.999 0 0 \$0fs \$0fr167 empty 0 -9
0 10 -262144 -262144 -1 0 0;
#X obj 266 309 vsl 18 12 168 168.999 0 0 \$0fs \$0fr168 empty 0 -9
0 10 -262144 -262144 -1 0 0;
#X obj 286 309 vsl 18 12 169 169.999 0 0 \$0fs \$0fr169 empty 0 -9
0 10 -262144 -262144 -1 0 0;
#X obj 306 309 vsl 18 12 170 170.999 0 0 \$0fs \$0fr170 empty 0 -9
0 10 -262144 -262144 -1 0 0;
#X obj 326 309 vsl 18 12 171 171.999 0 0 \$0fs \$0fr171 empty 0 -9
0 10 -262144 -262144 -1 0 0;
#X obj 346 309 vsl 18 12 172 172.999 0 0 \$0fs \$0fr172 empty 0 -9
0 10 -262144 -262144 -1 0 0;
#X obj 366 309 vsl 18 12 173 173.999 0 0 \$0fs \$0fr173 empty 0 -9
0 10 -262144 -262144 -1 0 0;
#X obj 386 309 vsl 18 12 174 174.999 0 0 \$0fs \$0fr174 empty 0 -9
0 10 -262144 -262144 -1 0 0;
#X obj 406 309 vsl 18 12 175 175.999 0 0 \$0fs \$0fr175 empty 0 -9
0 10 -262144 -262144 -1 0 0;
#X obj 106 329 vsl 18 12 176 176.999 0 0 \$0fs \$0fr176 empty 0 -9
0 10 -262144 -262144 -1 0 0;
#X obj 126 329 vsl 18 12 177 177.999 0 0 \$0fs \$0fr177 empty 0 -9
0 10 -262144 -262144 -1 0 0;
#X obj 146 329 vsl 18 12 178 178.999 0 0 \$0fs \$0fr178 empty 0 -9
0 10 -262144 -262144 -1 0 0;
#X obj 166 329 vsl 18 12 179 179.999 0 0 \$0fs \$0fr179 empty 0 -9
0 10 -262144 -262144 -1 0 0;
#X obj 186 329 vsl 18 12 180 180.999 0 0 \$0fs \$0fr180 empty 0 -9
0 10 -262144 -262144 -1 0 0;
#X obj 206 329 vsl 18 12 181 181.999 0 0 \$0fs \$0fr181 empty 0 -9
0 10 -262144 -262144 -1 0 0;
#X obj 226 329 vsl 18 12 182 182.999 0 0 \$0fs \$0fr182 empty 0 -9
0 10 -262144 -262144 -1 0 0;
#X obj 246 329 vsl 18 12 183 183.999 0 0 \$0fs \$0fr183 empty 0 -9
0 10 -262144 -262144 -1 0 0;
#X obj 266 329 vsl 18 12 184 184.999 0 0 \$0fs \$0fr184 empty 0 -9
0 10 -262144 -262144 -1 0 0;
#X obj 286 329 vsl 18 12 185 185.999 0 0 \$0fs \$0fr185 empty 0 -9
0 10 -262144 -262144 -1 0 0;
#X obj 306 329 vsl 18 12 186 186.999 0 0 \$0fs \$0fr186 empty 0 -9
0 10 -262144 -262144 -1 0 0;
#X obj 326 329 vsl 18 12 187 187.999 0 0 \$0fs \$0fr187 empty 0 -9
0 10 -262144 -262144 -1 0 0;
#X obj 346 329 vsl 18 12 188 188.999 0 0 \$0fs \$0fr188 empty 0 -9
0 10 -262144 -262144 -1 0 0;
#X obj 366 329 vsl 18 12 189 189.999 0 0 \$0fs \$0fr189 empty 0 -9
0 10 -262144 -262144 -1 0 0;
#X obj 386 329 vsl 18 12 190 190.999 0 0 \$0fs \$0fr190 empty 0 -9
0 10 -262144 -262144 -1 0 0;
#X obj 406 329 vsl 18 12 191 191.999 0 0 \$0fs \$0fr191 empty 0 -9
0 10 -262144 -262144 -1 0 0;
#X obj 106 349 vsl 18 12 192 192.999 0 0 \$0fs \$0fr192 empty 0 -9
0 10 -262144 -262144 -1 0 0;
#X obj 126 349 vsl 18 12 193 193.999 0 0 \$0fs \$0fr193 empty 0 -9
0 10 -262144 -262144 -1 0 0;
#X obj 146 349 vsl 18 12 194 194.999 0 0 \$0fs \$0fr194 empty 0 -9
0 10 -262144 -262144 -1 0 0;
#X obj 166 349 vsl 18 12 195 195.999 0 0 \$0fs \$0fr195 empty 0 -9
0 10 -262144 -262144 -1 0 0;
#X obj 186 349 vsl 18 12 196 196.999 0 0 \$0fs \$0fr196 empty 0 -9
0 10 -262144 -262144 -1 0 0;
#X obj 206 349 vsl 18 12 197 197.999 0 0 \$0fs \$0fr197 empty 0 -9
0 10 -262144 -262144 -1 0 0;
#X obj 226 349 vsl 18 12 198 198.999 0 0 \$0fs \$0fr198 empty 0 -9
0 10 -262144 -262144 -1 0 0;
#X obj 246 349 vsl 18 12 199 199.999 0 0 \$0fs \$0fr199 empty 0 -9
0 10 -262144 -262144 -1 0 0;
#X obj 266 349 vsl 18 12 200 200.999 0 0 \$0fs \$0fr200 empty 0 -9
0 10 -262144 -262144 -1 0 0;
#X obj 286 349 vsl 18 12 201 201.999 0 0 \$0fs \$0fr201 empty 0 -9
0 10 -262144 -262144 -1 0 0;
#X obj 306 349 vsl 18 12 202 202.999 0 0 \$0fs \$0fr202 empty 0 -9
0 10 -262144 -262144 -1 0 0;
#X obj 326 349 vsl 18 12 203 203.999 0 0 \$0fs \$0fr203 empty 0 -9
0 10 -262144 -262144 -1 0 0;
#X obj 346 349 vsl 18 12 204 204.999 0 0 \$0fs \$0fr204 empty 0 -9
0 10 -262144 -262144 -1 0 0;
#X obj 366 349 vsl 18 12 205 205.999 0 0 \$0fs \$0fr205 empty 0 -9
0 10 -262144 -262144 -1 0 0;
#X obj 386 349 vsl 18 12 206 206.999 0 0 \$0fs \$0fr206 empty 0 -9
0 10 -262144 -262144 -1 0 0;
#X obj 406 349 vsl 18 12 207 207.999 0 0 \$0fs \$0fr207 empty 0 -9
0 10 -262144 -262144 -1 0 0;
#X obj 106 369 vsl 18 12 208 208.999 0 0 \$0fs \$0fr208 empty 0 -9
0 10 -262144 -262144 -1 0 0;
#X obj 126 369 vsl 18 12 209 209.999 0 0 \$0fs \$0fr209 empty 0 -9
0 10 -262144 -262144 -1 0 0;
#X obj 146 369 vsl 18 12 210 210.999 0 0 \$0fs \$0fr210 empty 0 -9
0 10 -262144 -262144 -1 0 0;
#X obj 166 369 vsl 18 12 211 211.999 0 0 \$0fs \$0fr211 empty 0 -9
0 10 -262144 -262144 -1 0 0;
#X obj 186 369 vsl 18 12 212 212.999 0 0 \$0fs \$0fr212 empty 0 -9
0 10 -262144 -262144 -1 0 0;
#X obj 206 369 vsl 18 12 213 213.999 0 0 \$0fs \$0fr213 empty 0 -9
0 10 -262144 -262144 -1 0 0;
#X obj 226 369 vsl 18 12 214 214.999 0 0 \$0fs \$0fr214 empty 0 -9
0 10 -262144 -262144 -1 0 0;
#X obj 246 369 vsl 18 12 215 215.999 0 0 \$0fs \$0fr215 empty 0 -9
0 10 -262144 -262144 -1 0 0;
#X obj 266 369 vsl 18 12 216 216.999 0 0 \$0fs \$0fr216 empty 0 -9
0 10 -262144 -262144 -1 0 0;
#X obj 286 369 vsl 18 12 217 217.999 0 0 \$0fs \$0fr217 empty 0 -9
0 10 -262144 -262144 -1 0 0;
#X obj 306 369 vsl 18 12 218 218.999 0 0 \$0fs \$0fr218 empty 0 -9
0 10 -262144 -262144 -1 0 0;
#X obj 326 369 vsl 18 12 219 219.999 0 0 \$0fs \$0fr219 empty 0 -9
0 10 -262144 -262144 -1 0 0;
#X obj 346 369 vsl 18 12 220 220.999 0 0 \$0fs \$0fr220 empty 0 -9
0 10 -262144 -262144 -1 0 0;
#X obj 366 369 vsl 18 12 221 221.999 0 0 \$0fs \$0fr221 empty 0 -9
0 10 -262144 -262144 -1 0 0;
#X obj 386 369 vsl 18 12 222 222.999 0 0 \$0fs \$0fr222 empty 0 -9
0 10 -262144 -262144 -1 0 0;
#X obj 406 369 vsl 18 12 223 223.999 0 0 \$0fs \$0fr223 empty 0 -9
0 10 -262144 -262144 -1 0 0;
#X obj 106 389 vsl 18 12 224 224.999 0 0 \$0fs \$0fr224 empty 0 -9
0 10 -262144 -262144 -1 0 0;
#X obj 126 389 vsl 18 12 225 225.999 0 0 \$0fs \$0fr225 empty 0 -9
0 10 -262144 -262144 -1 0 0;
#X obj 146 389 vsl 18 12 226 226.999 0 0 \$0fs \$0fr226 empty 0 -9
0 10 -262144 -262144 -1 0 0;
#X obj 166 389 vsl 18 12 227 227.999 0 0 \$0fs \$0fr227 empty 0 -9
0 10 -262144 -262144 -1 0 0;
#X obj 186 389 vsl 18 12 228 228.999 0 0 \$0fs \$0fr228 empty 0 -9
0 10 -262144 -262144 -1 0 0;
#X obj 206 389 vsl 18 12 229 229.999 0 0 \$0fs \$0fr229 empty 0 -9
0 10 -262144 -262144 -1 0 0;
#X obj 226 389 vsl 18 12 230 230.999 0 0 \$0fs \$0fr230 empty 0 -9
0 10 -262144 -262144 -1 0 0;
#X obj 246 389 vsl 18 12 231 231.999 0 0 \$0fs \$0fr231 empty 0 -9
0 10 -262144 -262144 -1 0 0;
#X obj 266 389 vsl 18 12 232 232.999 0 0 \$0fs \$0fr232 empty 0 -9
0 10 -262144 -262144 -1 0 0;
#X obj 286 389 vsl 18 12 233 233.999 0 0 \$0fs \$0fr233 empty 0 -9
0 10 -262144 -262144 -1 0 0;
#X obj 306 389 vsl 18 12 234 234.999 0 0 \$0fs \$0fr234 empty 0 -9
0 10 -262144 -262144 -1 0 0;
#X obj 326 389 vsl 18 12 235 235.999 0 0 \$0fs \$0fr235 empty 0 -9
0 10 -262144 -262144 -1 0 0;
#X obj 346 389 vsl 18 12 236 236.999 0 0 \$0fs \$0fr236 empty 0 -9
0 10 -262144 -262144 -1 0 0;
#X obj 366 389 vsl 18 12 237 237.999 0 0 \$0fs \$0fr237 empty 0 -9
0 10 -262144 -262144 -1 0 0;
#X obj 386 389 vsl 18 12 238 238.999 0 0 \$0fs \$0fr238 empty 0 -9
0 10 -262144 -262144 -1 0 0;
#X obj 406 389 vsl 18 12 239 239.999 0 0 \$0fs \$0fr239 empty 0 -9
0 10 -262144 -262144 -1 0 0;
#X obj 106 409 vsl 18 12 240 240.999 0 0 \$0fs \$0fr240 empty 0 -9
0 10 -262144 -262144 -1 0 0;
#X obj 126 409 vsl 18 12 241 241.999 0 0 \$0fs \$0fr241 empty 0 -9
0 10 -262144 -262144 -1 0 0;
#X obj 146 409 vsl 18 12 242 242.999 0 0 \$0fs \$0fr242 empty 0 -9
0 10 -262144 -262144 -1 0 0;
#X obj 166 409 vsl 18 12 243 243.999 0 0 \$0fs \$0fr243 empty 0 -9
0 10 -262144 -262144 -1 0 0;
#X obj 186 409 vsl 18 12 244 244.999 0 0 \$0fs \$0fr244 empty 0 -9
0 10 -262144 -262144 -1 0 0;
#X obj 206 409 vsl 18 12 245 245.999 0 0 \$0fs \$0fr245 empty 0 -9
0 10 -262144 -262144 -1 0 0;
#X obj 226 409 vsl 18 12 246 246.999 0 0 \$0fs \$0fr246 empty 0 -9
0 10 -262144 -262144 -1 0 0;
#X obj 246 409 vsl 18 12 247 247.999 0 0 \$0fs \$0fr247 empty 0 -9
0 10 -262144 -262144 -1 0 0;
#X obj 266 409 vsl 18 12 248 248.999 0 0 \$0fs \$0fr248 empty 0 -9
0 10 -262144 -262144 -1 0 0;
#X obj 286 409 vsl 18 12 249 249.999 0 0 \$0fs \$0fr249 empty 0 -9
0 10 -262144 -262144 -1 0 0;
#X obj 306 409 vsl 18 12 250 250.999 0 0 \$0fs \$0fr250 empty 0 -9
0 10 -262144 -262144 -1 0 0;
#X obj 326 409 vsl 18 12 251 251.999 0 0 \$0fs \$0fr251 empty 0 -9
0 10 -262144 -262144 -1 0 0;
#X obj 346 409 vsl 18 12 252 252.999 0 0 \$0fs \$0fr252 empty 0 -9
0 10 -262144 -262144 -1 0 0;
#X obj 366 409 vsl 18 12 253 253.999 0 0 \$0fs \$0fr253 empty 0 -9
0 10 -262144 -262144 -1 0 0;
#X obj 386 409 vsl 18 12 254 254.999 0 0 \$0fs \$0fr254 empty 0 -9
0 10 -262144 -262144 -1 0 0;
#X obj 406 409 vsl 18 12 255 255.999 0 0 \$0fs \$0fr255 empty 0 -9
0 10 -262144 -262144 -1 0 0;
#X obj 28 426 r \$0fs;
#X obj 118 500 int;
#X obj 29 570 -;
#X obj 32 470 t f f;
#X obj 61 873 send;
#X obj 28 609 moses 0.0001;
#X obj 170 761 \$0;
#X obj 178 720 t b f;
#X obj 169 793 pack f f;
#X msg 155 834 symbol \$1fr\$2;
#X obj 526 65 inlet;
#X obj 723 67 inlet;
#X obj 508 740 outlet;
#X obj 604 740 outlet;
#X obj 542 612 int;
#X obj 517 643 -;
#X obj 511 577 t f f;
#X text 505 772 value;
#X text 608 772 address;
#X text 532 40 value;
#X text 719 44 address;
#X obj 621 473 send;
#X obj 692 246 \$0;
#X obj 700 205 t b f;
#X obj 691 278 pack f f;
#X msg 674 324 symbol \$1fr\$2;
#X msg 611 327 set \$1;
#X obj 520 228 clip 0 0.999;
#X obj 502 324 moses 0.0001;
#X obj 603 283 +;
#N canvas 1 81 591 504 grey 0;
#X obj 101 8 inlet;
#X obj 121 185 * 256;
#X obj 210 345 +;
#X obj 175 398 +;
#X obj 118 296 * -65536;
#X obj 195 297 * -256;
#X obj 261 297 * -1;
#X obj 175 429 - 1;
#X obj 174 519 outlet;
#X obj 116 248 t f f f;
#X obj 120 211 int;
#X obj 106 127 -;
#X msg 85 90 1;
#X obj 107 50 t b f;
#X connect 0 0 13 0;
#X connect 1 0 10 0;
#X connect 2 0 3 1;
#X connect 3 0 7 0;
#X connect 4 0 3 0;
#X connect 5 0 2 0;
#X connect 6 0 2 1;
#X connect 7 0 8 0;
#X connect 9 0 4 0;
#X connect 9 1 5 0;
#X connect 9 2 6 0;
#X connect 10 0 9 0;
#X connect 11 0 1 0;
#X connect 12 0 11 0;
#X connect 13 0 12 0;
#X connect 13 1 11 1;
#X restore 103 657 pd grey;
#X obj 15 655 t b;
#N canvas 1 81 591 504 grey 0;
#X obj 101 8 inlet;
#X obj 121 185 * 256;
#X obj 210 345 +;
#X obj 175 398 +;
#X obj 118 296 * -65536;
#X obj 195 297 * -256;
#X obj 261 297 * -1;
#X obj 175 429 - 1;
#X obj 174 519 outlet;
#X obj 116 248 t f f f;
#X obj 120 211 int;
#X obj 106 127 -;
#X msg 85 90 1;
#X obj 107 50 t b f;
#X connect 0 0 13 0;
#X connect 1 0 10 0;
#X connect 2 0 3 1;
#X connect 3 0 7 0;
#X connect 4 0 3 0;
#X connect 5 0 2 0;
#X connect 6 0 2 1;
#X connect 7 0 8 0;
#X connect 9 0 4 0;
#X connect 9 1 5 0;
#X connect 9 2 6 0;
#X connect 10 0 9 0;
#X connect 11 0 1 0;
#X connect 12 0 11 0;
#X connect 13 0 12 0;
#X connect 13 1 11 1;
#X restore 570 368 pd grey;
#X obj 489 370 t b;
#X msg 11 690 color 0 0;
#X msg 486 406 color 0 0;
#X msg 100 694 color \$1 17;
#X msg 574 415 color \$1 17;
#X obj 103 106 cnv 3 3 318 empty \$0pos empty 20 12 0 14 -162280 -66577
0;
#X obj 785 596 s \$0pos;
#X obj 870 69 inlet;
#X text 872 45 pos;
#X msg 786 571 pos \$1 106;
#X obj 787 551 + 103;
#X obj 783 524 * 20;
#X connect 256 0 259 0;
#X connect 256 0 272 0;
#X connect 257 0 258 1;
#X connect 257 0 263 0;
#X connect 258 0 261 0;
#X connect 259 0 258 0;
#X connect 259 1 257 0;
#X connect 261 0 287 0;
#X connect 261 1 286 0;
#X connect 262 0 264 0;
#X connect 263 0 262 0;
#X connect 263 1 264 1;
#X connect 264 0 265 0;
#X connect 265 0 260 1;
#X connect 266 0 283 0;
#X connect 267 0 279 0;
#X connect 267 0 285 1;
#X connect 270 0 271 1;
#X connect 270 0 269 0;
#X connect 271 0 268 0;
#X connect 272 0 271 0;
#X connect 272 1 270 0;
#X connect 278 0 280 0;
#X connect 279 0 278 0;
#X connect 279 1 280 1;
#X connect 280 0 281 0;
#X connect 281 0 277 1;
#X connect 282 0 277 0;
#X connect 283 0 284 0;
#X connect 283 0 285 0;
#X connect 284 0 289 0;
#X connect 284 1 288 0;
#X connect 285 0 282 0;
#X connect 286 0 292 0;
#X connect 287 0 290 0;
#X connect 288 0 293 0;
#X connect 289 0 291 0;
#X connect 290 0 260 0;
#X connect 291 0 277 0;
#X connect 292 0 260 0;
#X connect 293 0 277 0;
#X connect 296 0 300 0;
#X connect 298 0 295 0;
#X connect 299 0 298 0;
#X connect 300 0 299 0;
#X coords 0 -1 1 1 330 330 2 100 100;
