#N canvas 559 292 428 400 10;
#X obj 38 222 dac~;
#N canvas 532 175 861 897 metroblips1 0;
#N canvas 1 81 537 756 twoosc_ringblip 0;
#X obj 93 371 *~;
#X obj 115 298 vline~;
#X msg 117 277 1 \$1 \, 0 \$2 \$1;
#X obj 147 188 float;
#X obj 127 256 pack f f;
#X obj 130 234 / 20;
#X obj 101 335 *~;
#X obj 142 210 t f f b;
#X msg 201 252 1;
#X obj 192 519 outlet~;
#X obj 283 396 *~;
#X obj 329 310 vline~;
#X msg 331 289 1 \$1 \, 0 \$2 \$1;
#X obj 361 200 float;
#X obj 341 268 pack f f;
#X obj 344 246 / 20;
#X obj 315 347 *~;
#X obj 356 222 t f f b;
#X msg 415 264 1;
#X obj 193 471 *~;
#X obj 168 29 inlet;
#X obj 308 121 t b f;
#X obj 104 31 inlet;
#X obj 82 90 t b f;
#X obj 324 32 inlet;
#X obj 267 31 inlet;
#X text 282 7 durations;
#X text 131 4 speeds;
#X obj 436 33 inlet;
#X obj 379 32 inlet;
#X text 405 6 pitches;
#X obj 47 291 osc~;
#X obj 261 303 osc~;
#X obj 118 163 metro;
#X obj 323 176 metro;
#X obj 79 132 delay;
#X obj 303 149 delay;
#X connect 0 0 19 0;
#X connect 1 0 6 0;
#X connect 1 0 6 1;
#X connect 2 0 1 0;
#X connect 3 0 7 0;
#X connect 4 0 2 0;
#X connect 5 0 4 0;
#X connect 6 0 0 1;
#X connect 7 0 5 0;
#X connect 7 1 4 1;
#X connect 7 2 8 0;
#X connect 8 0 31 1;
#X connect 10 0 19 1;
#X connect 11 0 16 0;
#X connect 11 0 16 1;
#X connect 12 0 11 0;
#X connect 13 0 17 0;
#X connect 14 0 12 0;
#X connect 15 0 14 0;
#X connect 16 0 10 1;
#X connect 17 0 15 0;
#X connect 17 1 14 1;
#X connect 17 2 18 0;
#X connect 18 0 32 1;
#X connect 19 0 9 0;
#X connect 20 0 21 0;
#X connect 21 0 36 0;
#X connect 21 1 34 1;
#X connect 21 1 36 1;
#X connect 22 0 23 0;
#X connect 23 0 35 0;
#X connect 23 1 33 1;
#X connect 23 1 35 1;
#X connect 24 0 13 1;
#X connect 25 0 3 1;
#X connect 28 0 32 0;
#X connect 29 0 31 0;
#X connect 31 0 0 0;
#X connect 32 0 10 0;
#X connect 33 0 3 0;
#X connect 34 0 13 0;
#X connect 35 0 33 0;
#X connect 36 0 34 0;
#X restore 60 569 pd twoosc_ringblip;
#X obj 132 301 random;
#X obj 160 273 -;
#X obj 142 326 +;
#X obj 107 119 nbx 4 14 30 3000 0 1 empty empty empty 0 -8 0 10 -262144
-1 -1 268 256;
#X obj 156 119 nbx 4 14 30 3000 0 1 empty empty empty 0 -8 0 10 -262144
-1 -1 1382 256;
#X obj 151 229 t b f;
#X obj 176 447 route 0 1 2 3 4 5 6 7;
#X obj 187 313 random;
#X obj 196 337 +;
#X obj 271 298 random;
#X obj 299 270 -;
#X obj 248 332 +;
#X obj 107 157 nbx 4 14 10 1000 0 1 empty empty empty 0 -8 0 10 -262144
-1 -1 61 256;
#X obj 156 158 nbx 4 14 30 3000 0 1 empty empty empty 0 -8 0 10 -262144
-1 -1 185 256;
#X obj 300 247 t b f;
#X obj 303 326 random;
#X obj 304 349 +;
#X obj 382 300 random;
#X obj 426 266 -;
#X obj 359 334 +;
#X obj 107 138 nbx 5 14 20 16000 0 1 empty empty empty 0 -8 0 10 -262144
-1 -1 149 256;
#X obj 165 138 nbx 5 14 20 16000 0 1 empty empty empty 0 -8 0 10 -262144
-1 -1 3111 256;
#X obj 437 221 t b f;
#X obj 414 328 random;
#X obj 415 351 +;
#X obj -5 57 until;
#X msg -5 33 8;
#X obj 2 106 + 1;
#X obj -3 84 int;
#X obj 41 95 mod 8;
#X obj 49 197 t f b;
#N canvas 0 0 450 300 pan1 0;
#X obj 120 15 inlet;
#X obj 297 51 inlet~;
#X obj 256 225 outlet~;
#X obj 336 218 outlet~;
#X obj 251 149 *~;
#X obj 323 154 *~;
#X obj 276 122 + 1;
#X obj 335 113 * -1;
#X obj 208 75 * -1;
#X obj 160 42 clip 0 1;
#X connect 0 0 9 0;
#X connect 1 0 4 0;
#X connect 1 0 5 1;
#X connect 4 0 2 0;
#X connect 5 0 3 0;
#X connect 6 0 4 1;
#X connect 7 0 5 0;
#X connect 8 0 6 0;
#X connect 8 0 7 0;
#X connect 9 0 8 0;
#X restore 51 601 pd pan1;
#X obj 61 543 unpack f f f f f f f;
#X obj 197 858 *~ 0.25;
#X obj 308 857 *~ 0.25;
#X obj 177 424 pack f f f f f f f f;
#X obj 107 177 nbx 4 14 0 100 0 1 empty empty empty 0 -8 0 10 -262144
-1 -1 28 256;
#X obj 498 263 random;
#X obj 524 348 + 0.5;
#X obj 527 295 -;
#X obj 550 269 / 2;
#X obj 524 326 / 100;
#N canvas 0 0 450 300 pan1 0;
#X obj 120 15 inlet;
#X obj 297 51 inlet~;
#X obj 256 225 outlet~;
#X obj 336 218 outlet~;
#X obj 251 149 *~;
#X obj 323 154 *~;
#X obj 276 122 + 1;
#X obj 335 113 * -1;
#X obj 208 75 * -1;
#X obj 160 42 clip 0 1;
#X connect 0 0 9 0;
#X connect 1 0 4 0;
#X connect 1 0 5 1;
#X connect 4 0 2 0;
#X connect 5 0 3 0;
#X connect 6 0 4 1;
#X connect 7 0 5 0;
#X connect 8 0 6 0;
#X connect 8 0 7 0;
#X connect 9 0 8 0;
#X restore 181 601 pd pan1;
#X obj 191 543 unpack f f f f f f f;
#N canvas 0 0 450 300 pan1 0;
#X obj 120 15 inlet;
#X obj 297 51 inlet~;
#X obj 256 225 outlet~;
#X obj 336 218 outlet~;
#X obj 251 149 *~;
#X obj 323 154 *~;
#X obj 276 122 + 1;
#X obj 335 113 * -1;
#X obj 208 75 * -1;
#X obj 160 42 clip 0 1;
#X connect 0 0 9 0;
#X connect 1 0 4 0;
#X connect 1 0 5 1;
#X connect 4 0 2 0;
#X connect 5 0 3 0;
#X connect 6 0 4 1;
#X connect 7 0 5 0;
#X connect 8 0 6 0;
#X connect 8 0 7 0;
#X connect 9 0 8 0;
#X restore 319 601 pd pan1;
#X obj 329 543 unpack f f f f f f f;
#N canvas 0 0 450 300 pan1 0;
#X obj 120 15 inlet;
#X obj 297 51 inlet~;
#X obj 256 225 outlet~;
#X obj 336 218 outlet~;
#X obj 251 149 *~;
#X obj 323 154 *~;
#X obj 276 122 + 1;
#X obj 335 113 * -1;
#X obj 208 75 * -1;
#X obj 160 42 clip 0 1;
#X connect 0 0 9 0;
#X connect 1 0 4 0;
#X connect 1 0 5 1;
#X connect 4 0 2 0;
#X connect 5 0 3 0;
#X connect 6 0 4 1;
#X connect 7 0 5 0;
#X connect 8 0 6 0;
#X connect 8 0 7 0;
#X connect 9 0 8 0;
#X restore 462 599 pd pan1;
#X obj 472 541 unpack f f f f f f f;
#N canvas 0 0 450 300 pan1 0;
#X obj 120 15 inlet;
#X obj 297 51 inlet~;
#X obj 256 225 outlet~;
#X obj 336 218 outlet~;
#X obj 251 149 *~;
#X obj 323 154 *~;
#X obj 276 122 + 1;
#X obj 335 113 * -1;
#X obj 208 75 * -1;
#X obj 160 42 clip 0 1;
#X connect 0 0 9 0;
#X connect 1 0 4 0;
#X connect 1 0 5 1;
#X connect 4 0 2 0;
#X connect 5 0 3 0;
#X connect 6 0 4 1;
#X connect 7 0 5 0;
#X connect 8 0 6 0;
#X connect 8 0 7 0;
#X connect 9 0 8 0;
#X restore 175 710 pd pan1;
#X obj 185 652 unpack f f f f f f f;
#N canvas 0 0 450 300 pan1 0;
#X obj 120 15 inlet;
#X obj 297 51 inlet~;
#X obj 256 225 outlet~;
#X obj 336 218 outlet~;
#X obj 251 149 *~;
#X obj 323 154 *~;
#X obj 276 122 + 1;
#X obj 335 113 * -1;
#X obj 208 75 * -1;
#X obj 160 42 clip 0 1;
#X connect 0 0 9 0;
#X connect 1 0 4 0;
#X connect 1 0 5 1;
#X connect 4 0 2 0;
#X connect 5 0 3 0;
#X connect 6 0 4 1;
#X connect 7 0 5 0;
#X connect 8 0 6 0;
#X connect 8 0 7 0;
#X connect 9 0 8 0;
#X restore 305 710 pd pan1;
#X obj 315 652 unpack f f f f f f f;
#N canvas 0 0 450 300 pan1 0;
#X obj 120 15 inlet;
#X obj 297 51 inlet~;
#X obj 256 225 outlet~;
#X obj 336 218 outlet~;
#X obj 251 149 *~;
#X obj 323 154 *~;
#X obj 276 122 + 1;
#X obj 335 113 * -1;
#X obj 208 75 * -1;
#X obj 160 42 clip 0 1;
#X connect 0 0 9 0;
#X connect 1 0 4 0;
#X connect 1 0 5 1;
#X connect 4 0 2 0;
#X connect 5 0 3 0;
#X connect 6 0 4 1;
#X connect 7 0 5 0;
#X connect 8 0 6 0;
#X connect 8 0 7 0;
#X connect 9 0 8 0;
#X restore 443 710 pd pan1;
#X obj 453 652 unpack f f f f f f f;
#N canvas 0 0 450 300 pan1 0;
#X obj 120 15 inlet;
#X obj 297 51 inlet~;
#X obj 256 225 outlet~;
#X obj 336 218 outlet~;
#X obj 251 149 *~;
#X obj 323 154 *~;
#X obj 276 122 + 1;
#X obj 335 113 * -1;
#X obj 208 75 * -1;
#X obj 160 42 clip 0 1;
#X connect 0 0 9 0;
#X connect 1 0 4 0;
#X connect 1 0 5 1;
#X connect 4 0 2 0;
#X connect 5 0 3 0;
#X connect 6 0 4 1;
#X connect 7 0 5 0;
#X connect 8 0 6 0;
#X connect 8 0 7 0;
#X connect 9 0 8 0;
#X restore 586 708 pd pan1;
#X obj 596 650 unpack f f f f f f f;
#X obj 196 890 outlet~;
#X obj 308 895 outlet~;
#X obj 166 177 nbx 7 14 0 1e+07 0 1 empty empty empty 0 -8 0 10 -262144
-1 -1 2346 256;
#X msg 24 263 seed \$1;
#X msg 26 291 seed \$1;
#X msg 27 321 seed \$1;
#X obj -14 331 + 2.1;
#X obj -15 301 + 1.3;
#X msg 26 351 seed \$1;
#X msg 27 381 seed \$1;
#X obj -15 361 + 3.4;
#X obj -14 391 + 4.9;
#X obj -6 11 loadbang;
#X msg 26 411 seed \$1;
#X msg 27 441 seed \$1;
#X obj -15 421 + 5.7;
#X obj -14 451 + 6.6;
#X text 210 118 speed;
#X text 222 139 frq;
#X text 205 158 env;
#X text 116 193 pan;
#X text 175 193 seed;
#X obj 231 39 inlet;
#X obj 228 69 t b b;
#N canvas 1 81 537 756 twoosc_ringblip 0;
#X obj 93 371 *~;
#X obj 115 298 vline~;
#X msg 117 277 1 \$1 \, 0 \$2 \$1;
#X obj 147 188 float;
#X obj 127 256 pack f f;
#X obj 130 234 / 20;
#X obj 101 335 *~;
#X obj 142 210 t f f b;
#X msg 201 252 1;
#X obj 192 519 outlet~;
#X obj 283 396 *~;
#X obj 329 310 vline~;
#X msg 331 289 1 \$1 \, 0 \$2 \$1;
#X obj 361 200 float;
#X obj 341 268 pack f f;
#X obj 344 246 / 20;
#X obj 315 347 *~;
#X obj 356 222 t f f b;
#X msg 415 264 1;
#X obj 193 471 *~;
#X obj 168 29 inlet;
#X obj 308 121 t b f;
#X obj 104 31 inlet;
#X obj 82 90 t b f;
#X obj 324 32 inlet;
#X obj 267 31 inlet;
#X text 282 7 durations;
#X text 131 4 speeds;
#X obj 436 33 inlet;
#X obj 379 32 inlet;
#X text 405 6 pitches;
#X obj 47 291 osc~;
#X obj 261 303 osc~;
#X obj 118 163 metro;
#X obj 323 176 metro;
#X obj 79 132 delay;
#X obj 303 149 delay;
#X connect 0 0 19 0;
#X connect 1 0 6 0;
#X connect 1 0 6 1;
#X connect 2 0 1 0;
#X connect 3 0 7 0;
#X connect 4 0 2 0;
#X connect 5 0 4 0;
#X connect 6 0 0 1;
#X connect 7 0 5 0;
#X connect 7 1 4 1;
#X connect 7 2 8 0;
#X connect 8 0 31 1;
#X connect 10 0 19 1;
#X connect 11 0 16 0;
#X connect 11 0 16 1;
#X connect 12 0 11 0;
#X connect 13 0 17 0;
#X connect 14 0 12 0;
#X connect 15 0 14 0;
#X connect 16 0 10 1;
#X connect 17 0 15 0;
#X connect 17 1 14 1;
#X connect 17 2 18 0;
#X connect 18 0 32 1;
#X connect 19 0 9 0;
#X connect 20 0 21 0;
#X connect 21 0 36 0;
#X connect 21 1 34 1;
#X connect 21 1 36 1;
#X connect 22 0 23 0;
#X connect 23 0 35 0;
#X connect 23 1 33 1;
#X connect 23 1 35 1;
#X connect 24 0 13 1;
#X connect 25 0 3 1;
#X connect 28 0 32 0;
#X connect 29 0 31 0;
#X connect 31 0 0 0;
#X connect 32 0 10 0;
#X connect 33 0 3 0;
#X connect 34 0 13 0;
#X connect 35 0 33 0;
#X connect 36 0 34 0;
#X restore 190 569 pd twoosc_ringblip;
#N canvas 1 81 537 756 twoosc_ringblip 0;
#X obj 93 371 *~;
#X obj 115 298 vline~;
#X msg 117 277 1 \$1 \, 0 \$2 \$1;
#X obj 147 188 float;
#X obj 127 256 pack f f;
#X obj 130 234 / 20;
#X obj 101 335 *~;
#X obj 142 210 t f f b;
#X msg 201 252 1;
#X obj 192 519 outlet~;
#X obj 283 396 *~;
#X obj 329 310 vline~;
#X msg 331 289 1 \$1 \, 0 \$2 \$1;
#X obj 361 200 float;
#X obj 341 268 pack f f;
#X obj 344 246 / 20;
#X obj 315 347 *~;
#X obj 356 222 t f f b;
#X msg 415 264 1;
#X obj 193 471 *~;
#X obj 168 29 inlet;
#X obj 308 121 t b f;
#X obj 104 31 inlet;
#X obj 82 90 t b f;
#X obj 324 32 inlet;
#X obj 267 31 inlet;
#X text 282 7 durations;
#X text 131 4 speeds;
#X obj 436 33 inlet;
#X obj 379 32 inlet;
#X text 405 6 pitches;
#X obj 47 291 osc~;
#X obj 261 303 osc~;
#X obj 118 163 metro;
#X obj 323 176 metro;
#X obj 79 132 delay;
#X obj 303 149 delay;
#X connect 0 0 19 0;
#X connect 1 0 6 0;
#X connect 1 0 6 1;
#X connect 2 0 1 0;
#X connect 3 0 7 0;
#X connect 4 0 2 0;
#X connect 5 0 4 0;
#X connect 6 0 0 1;
#X connect 7 0 5 0;
#X connect 7 1 4 1;
#X connect 7 2 8 0;
#X connect 8 0 31 1;
#X connect 10 0 19 1;
#X connect 11 0 16 0;
#X connect 11 0 16 1;
#X connect 12 0 11 0;
#X connect 13 0 17 0;
#X connect 14 0 12 0;
#X connect 15 0 14 0;
#X connect 16 0 10 1;
#X connect 17 0 15 0;
#X connect 17 1 14 1;
#X connect 17 2 18 0;
#X connect 18 0 32 1;
#X connect 19 0 9 0;
#X connect 20 0 21 0;
#X connect 21 0 36 0;
#X connect 21 1 34 1;
#X connect 21 1 36 1;
#X connect 22 0 23 0;
#X connect 23 0 35 0;
#X connect 23 1 33 1;
#X connect 23 1 35 1;
#X connect 24 0 13 1;
#X connect 25 0 3 1;
#X connect 28 0 32 0;
#X connect 29 0 31 0;
#X connect 31 0 0 0;
#X connect 32 0 10 0;
#X connect 33 0 3 0;
#X connect 34 0 13 0;
#X connect 35 0 33 0;
#X connect 36 0 34 0;
#X restore 328 569 pd twoosc_ringblip;
#N canvas 1 81 537 756 twoosc_ringblip 0;
#X obj 93 371 *~;
#X obj 115 298 vline~;
#X msg 117 277 1 \$1 \, 0 \$2 \$1;
#X obj 147 188 float;
#X obj 127 256 pack f f;
#X obj 130 234 / 20;
#X obj 101 335 *~;
#X obj 142 210 t f f b;
#X msg 201 252 1;
#X obj 192 519 outlet~;
#X obj 283 396 *~;
#X obj 329 310 vline~;
#X msg 331 289 1 \$1 \, 0 \$2 \$1;
#X obj 361 200 float;
#X obj 341 268 pack f f;
#X obj 344 246 / 20;
#X obj 315 347 *~;
#X obj 356 222 t f f b;
#X msg 415 264 1;
#X obj 193 471 *~;
#X obj 168 29 inlet;
#X obj 308 121 t b f;
#X obj 104 31 inlet;
#X obj 82 90 t b f;
#X obj 324 32 inlet;
#X obj 267 31 inlet;
#X text 282 7 durations;
#X text 131 4 speeds;
#X obj 436 33 inlet;
#X obj 379 32 inlet;
#X text 405 6 pitches;
#X obj 47 291 osc~;
#X obj 261 303 osc~;
#X obj 118 163 metro;
#X obj 323 176 metro;
#X obj 79 132 delay;
#X obj 303 149 delay;
#X connect 0 0 19 0;
#X connect 1 0 6 0;
#X connect 1 0 6 1;
#X connect 2 0 1 0;
#X connect 3 0 7 0;
#X connect 4 0 2 0;
#X connect 5 0 4 0;
#X connect 6 0 0 1;
#X connect 7 0 5 0;
#X connect 7 1 4 1;
#X connect 7 2 8 0;
#X connect 8 0 31 1;
#X connect 10 0 19 1;
#X connect 11 0 16 0;
#X connect 11 0 16 1;
#X connect 12 0 11 0;
#X connect 13 0 17 0;
#X connect 14 0 12 0;
#X connect 15 0 14 0;
#X connect 16 0 10 1;
#X connect 17 0 15 0;
#X connect 17 1 14 1;
#X connect 17 2 18 0;
#X connect 18 0 32 1;
#X connect 19 0 9 0;
#X connect 20 0 21 0;
#X connect 21 0 36 0;
#X connect 21 1 34 1;
#X connect 21 1 36 1;
#X connect 22 0 23 0;
#X connect 23 0 35 0;
#X connect 23 1 33 1;
#X connect 23 1 35 1;
#X connect 24 0 13 1;
#X connect 25 0 3 1;
#X connect 28 0 32 0;
#X connect 29 0 31 0;
#X connect 31 0 0 0;
#X connect 32 0 10 0;
#X connect 33 0 3 0;
#X connect 34 0 13 0;
#X connect 35 0 33 0;
#X connect 36 0 34 0;
#X restore 471 567 pd twoosc_ringblip;
#N canvas 1 81 537 756 twoosc_ringblip 0;
#X obj 93 371 *~;
#X obj 115 298 vline~;
#X msg 117 277 1 \$1 \, 0 \$2 \$1;
#X obj 147 188 float;
#X obj 127 256 pack f f;
#X obj 130 234 / 20;
#X obj 101 335 *~;
#X obj 142 210 t f f b;
#X msg 201 252 1;
#X obj 192 519 outlet~;
#X obj 283 396 *~;
#X obj 329 310 vline~;
#X msg 331 289 1 \$1 \, 0 \$2 \$1;
#X obj 361 200 float;
#X obj 341 268 pack f f;
#X obj 344 246 / 20;
#X obj 315 347 *~;
#X obj 356 222 t f f b;
#X msg 415 264 1;
#X obj 193 471 *~;
#X obj 168 29 inlet;
#X obj 308 121 t b f;
#X obj 104 31 inlet;
#X obj 82 90 t b f;
#X obj 324 32 inlet;
#X obj 267 31 inlet;
#X text 282 7 durations;
#X text 131 4 speeds;
#X obj 436 33 inlet;
#X obj 379 32 inlet;
#X text 405 6 pitches;
#X obj 47 291 osc~;
#X obj 261 303 osc~;
#X obj 118 163 metro;
#X obj 323 176 metro;
#X obj 79 132 delay;
#X obj 303 149 delay;
#X connect 0 0 19 0;
#X connect 1 0 6 0;
#X connect 1 0 6 1;
#X connect 2 0 1 0;
#X connect 3 0 7 0;
#X connect 4 0 2 0;
#X connect 5 0 4 0;
#X connect 6 0 0 1;
#X connect 7 0 5 0;
#X connect 7 1 4 1;
#X connect 7 2 8 0;
#X connect 8 0 31 1;
#X connect 10 0 19 1;
#X connect 11 0 16 0;
#X connect 11 0 16 1;
#X connect 12 0 11 0;
#X connect 13 0 17 0;
#X connect 14 0 12 0;
#X connect 15 0 14 0;
#X connect 16 0 10 1;
#X connect 17 0 15 0;
#X connect 17 1 14 1;
#X connect 17 2 18 0;
#X connect 18 0 32 1;
#X connect 19 0 9 0;
#X connect 20 0 21 0;
#X connect 21 0 36 0;
#X connect 21 1 34 1;
#X connect 21 1 36 1;
#X connect 22 0 23 0;
#X connect 23 0 35 0;
#X connect 23 1 33 1;
#X connect 23 1 35 1;
#X connect 24 0 13 1;
#X connect 25 0 3 1;
#X connect 28 0 32 0;
#X connect 29 0 31 0;
#X connect 31 0 0 0;
#X connect 32 0 10 0;
#X connect 33 0 3 0;
#X connect 34 0 13 0;
#X connect 35 0 33 0;
#X connect 36 0 34 0;
#X restore 184 678 pd twoosc_ringblip;
#N canvas 1 81 537 756 twoosc_ringblip 0;
#X obj 93 371 *~;
#X obj 115 298 vline~;
#X msg 117 277 1 \$1 \, 0 \$2 \$1;
#X obj 147 188 float;
#X obj 127 256 pack f f;
#X obj 130 234 / 20;
#X obj 101 335 *~;
#X obj 142 210 t f f b;
#X msg 201 252 1;
#X obj 192 519 outlet~;
#X obj 283 396 *~;
#X obj 329 310 vline~;
#X msg 331 289 1 \$1 \, 0 \$2 \$1;
#X obj 361 200 float;
#X obj 341 268 pack f f;
#X obj 344 246 / 20;
#X obj 315 347 *~;
#X obj 356 222 t f f b;
#X msg 415 264 1;
#X obj 193 471 *~;
#X obj 168 29 inlet;
#X obj 308 121 t b f;
#X obj 104 31 inlet;
#X obj 82 90 t b f;
#X obj 324 32 inlet;
#X obj 267 31 inlet;
#X text 282 7 durations;
#X text 131 4 speeds;
#X obj 436 33 inlet;
#X obj 379 32 inlet;
#X text 405 6 pitches;
#X obj 47 291 osc~;
#X obj 261 303 osc~;
#X obj 118 163 metro;
#X obj 323 176 metro;
#X obj 79 132 delay;
#X obj 303 149 delay;
#X connect 0 0 19 0;
#X connect 1 0 6 0;
#X connect 1 0 6 1;
#X connect 2 0 1 0;
#X connect 3 0 7 0;
#X connect 4 0 2 0;
#X connect 5 0 4 0;
#X connect 6 0 0 1;
#X connect 7 0 5 0;
#X connect 7 1 4 1;
#X connect 7 2 8 0;
#X connect 8 0 31 1;
#X connect 10 0 19 1;
#X connect 11 0 16 0;
#X connect 11 0 16 1;
#X connect 12 0 11 0;
#X connect 13 0 17 0;
#X connect 14 0 12 0;
#X connect 15 0 14 0;
#X connect 16 0 10 1;
#X connect 17 0 15 0;
#X connect 17 1 14 1;
#X connect 17 2 18 0;
#X connect 18 0 32 1;
#X connect 19 0 9 0;
#X connect 20 0 21 0;
#X connect 21 0 36 0;
#X connect 21 1 34 1;
#X connect 21 1 36 1;
#X connect 22 0 23 0;
#X connect 23 0 35 0;
#X connect 23 1 33 1;
#X connect 23 1 35 1;
#X connect 24 0 13 1;
#X connect 25 0 3 1;
#X connect 28 0 32 0;
#X connect 29 0 31 0;
#X connect 31 0 0 0;
#X connect 32 0 10 0;
#X connect 33 0 3 0;
#X connect 34 0 13 0;
#X connect 35 0 33 0;
#X connect 36 0 34 0;
#X restore 314 678 pd twoosc_ringblip;
#N canvas 1 81 537 756 twoosc_ringblip 0;
#X obj 93 371 *~;
#X obj 115 298 vline~;
#X msg 117 277 1 \$1 \, 0 \$2 \$1;
#X obj 147 188 float;
#X obj 127 256 pack f f;
#X obj 130 234 / 20;
#X obj 101 335 *~;
#X obj 142 210 t f f b;
#X msg 201 252 1;
#X obj 192 519 outlet~;
#X obj 283 396 *~;
#X obj 329 310 vline~;
#X msg 331 289 1 \$1 \, 0 \$2 \$1;
#X obj 361 200 float;
#X obj 341 268 pack f f;
#X obj 344 246 / 20;
#X obj 315 347 *~;
#X obj 356 222 t f f b;
#X msg 415 264 1;
#X obj 193 471 *~;
#X obj 168 29 inlet;
#X obj 308 121 t b f;
#X obj 104 31 inlet;
#X obj 82 90 t b f;
#X obj 324 32 inlet;
#X obj 267 31 inlet;
#X text 282 7 durations;
#X text 131 4 speeds;
#X obj 436 33 inlet;
#X obj 379 32 inlet;
#X text 405 6 pitches;
#X obj 47 291 osc~;
#X obj 261 303 osc~;
#X obj 118 163 metro;
#X obj 323 176 metro;
#X obj 79 132 delay;
#X obj 303 149 delay;
#X connect 0 0 19 0;
#X connect 1 0 6 0;
#X connect 1 0 6 1;
#X connect 2 0 1 0;
#X connect 3 0 7 0;
#X connect 4 0 2 0;
#X connect 5 0 4 0;
#X connect 6 0 0 1;
#X connect 7 0 5 0;
#X connect 7 1 4 1;
#X connect 7 2 8 0;
#X connect 8 0 31 1;
#X connect 10 0 19 1;
#X connect 11 0 16 0;
#X connect 11 0 16 1;
#X connect 12 0 11 0;
#X connect 13 0 17 0;
#X connect 14 0 12 0;
#X connect 15 0 14 0;
#X connect 16 0 10 1;
#X connect 17 0 15 0;
#X connect 17 1 14 1;
#X connect 17 2 18 0;
#X connect 18 0 32 1;
#X connect 19 0 9 0;
#X connect 20 0 21 0;
#X connect 21 0 36 0;
#X connect 21 1 34 1;
#X connect 21 1 36 1;
#X connect 22 0 23 0;
#X connect 23 0 35 0;
#X connect 23 1 33 1;
#X connect 23 1 35 1;
#X connect 24 0 13 1;
#X connect 25 0 3 1;
#X connect 28 0 32 0;
#X connect 29 0 31 0;
#X connect 31 0 0 0;
#X connect 32 0 10 0;
#X connect 33 0 3 0;
#X connect 34 0 13 0;
#X connect 35 0 33 0;
#X connect 36 0 34 0;
#X restore 452 678 pd twoosc_ringblip;
#N canvas 1 81 537 756 twoosc_ringblip 0;
#X obj 93 371 *~;
#X obj 115 298 vline~;
#X msg 117 277 1 \$1 \, 0 \$2 \$1;
#X obj 147 188 float;
#X obj 127 256 pack f f;
#X obj 130 234 / 20;
#X obj 101 335 *~;
#X obj 142 210 t f f b;
#X msg 201 252 1;
#X obj 192 519 outlet~;
#X obj 283 396 *~;
#X obj 329 310 vline~;
#X msg 331 289 1 \$1 \, 0 \$2 \$1;
#X obj 361 200 float;
#X obj 341 268 pack f f;
#X obj 344 246 / 20;
#X obj 315 347 *~;
#X obj 356 222 t f f b;
#X msg 415 264 1;
#X obj 193 471 *~;
#X obj 168 29 inlet;
#X obj 308 121 t b f;
#X obj 104 31 inlet;
#X obj 82 90 t b f;
#X obj 324 32 inlet;
#X obj 267 31 inlet;
#X text 282 7 durations;
#X text 131 4 speeds;
#X obj 436 33 inlet;
#X obj 379 32 inlet;
#X text 405 6 pitches;
#X obj 47 291 osc~;
#X obj 261 303 osc~;
#X obj 118 163 metro;
#X obj 323 176 metro;
#X obj 79 132 delay;
#X obj 303 149 delay;
#X connect 0 0 19 0;
#X connect 1 0 6 0;
#X connect 1 0 6 1;
#X connect 2 0 1 0;
#X connect 3 0 7 0;
#X connect 4 0 2 0;
#X connect 5 0 4 0;
#X connect 6 0 0 1;
#X connect 7 0 5 0;
#X connect 7 1 4 1;
#X connect 7 2 8 0;
#X connect 8 0 31 1;
#X connect 10 0 19 1;
#X connect 11 0 16 0;
#X connect 11 0 16 1;
#X connect 12 0 11 0;
#X connect 13 0 17 0;
#X connect 14 0 12 0;
#X connect 15 0 14 0;
#X connect 16 0 10 1;
#X connect 17 0 15 0;
#X connect 17 1 14 1;
#X connect 17 2 18 0;
#X connect 18 0 32 1;
#X connect 19 0 9 0;
#X connect 20 0 21 0;
#X connect 21 0 36 0;
#X connect 21 1 34 1;
#X connect 21 1 36 1;
#X connect 22 0 23 0;
#X connect 23 0 35 0;
#X connect 23 1 33 1;
#X connect 23 1 35 1;
#X connect 24 0 13 1;
#X connect 25 0 3 1;
#X connect 28 0 32 0;
#X connect 29 0 31 0;
#X connect 31 0 0 0;
#X connect 32 0 10 0;
#X connect 33 0 3 0;
#X connect 34 0 13 0;
#X connect 35 0 33 0;
#X connect 36 0 34 0;
#X restore 595 676 pd twoosc_ringblip;
#X obj 142 373 f;
#X obj -39 157 t b;
#X obj -53 189 delay 250;
#X connect 0 0 32 1;
#X connect 1 0 3 0;
#X connect 2 0 1 1;
#X connect 2 0 8 1;
#X connect 3 0 36 1;
#X connect 4 0 3 1;
#X connect 4 0 9 1;
#X connect 4 0 6 0;
#X connect 5 0 2 0;
#X connect 6 0 2 0;
#X connect 6 1 2 1;
#X connect 7 0 33 0;
#X connect 7 1 44 0;
#X connect 7 2 46 0;
#X connect 7 3 48 0;
#X connect 7 4 50 0;
#X connect 7 5 52 0;
#X connect 7 6 54 0;
#X connect 7 7 56 0;
#X connect 8 0 9 0;
#X connect 9 0 36 2;
#X connect 10 0 12 0;
#X connect 11 0 10 1;
#X connect 11 0 16 1;
#X connect 12 0 36 3;
#X connect 13 0 12 1;
#X connect 13 0 17 1;
#X connect 13 0 15 0;
#X connect 13 0 89 0;
#X connect 14 0 11 0;
#X connect 14 0 89 0;
#X connect 15 0 11 0;
#X connect 15 1 11 1;
#X connect 16 0 17 0;
#X connect 17 0 36 4;
#X connect 18 0 20 0;
#X connect 19 0 18 1;
#X connect 19 0 24 1;
#X connect 20 0 36 5;
#X connect 21 0 20 1;
#X connect 21 0 25 1;
#X connect 21 0 23 0;
#X connect 21 0 89 0;
#X connect 22 0 19 0;
#X connect 22 0 89 0;
#X connect 23 0 19 0;
#X connect 23 1 19 1;
#X connect 24 0 25 0;
#X connect 25 0 36 6;
#X connect 26 0 29 0;
#X connect 27 0 26 0;
#X connect 28 0 30 0;
#X connect 29 0 28 0;
#X connect 30 0 29 1;
#X connect 30 0 31 0;
#X connect 31 0 88 0;
#X connect 31 1 1 0;
#X connect 31 1 8 0;
#X connect 31 1 10 0;
#X connect 31 1 16 0;
#X connect 31 1 18 0;
#X connect 31 1 24 0;
#X connect 31 1 38 0;
#X connect 32 0 34 0;
#X connect 32 1 35 0;
#X connect 33 0 0 0;
#X connect 33 1 0 1;
#X connect 33 2 0 2;
#X connect 33 3 0 3;
#X connect 33 4 0 4;
#X connect 33 5 0 5;
#X connect 33 6 32 0;
#X connect 34 0 57 0;
#X connect 35 0 58 0;
#X connect 36 0 7 0;
#X connect 37 0 41 0;
#X connect 37 0 38 1;
#X connect 37 0 89 0;
#X connect 38 0 40 0;
#X connect 39 0 36 7;
#X connect 40 0 42 0;
#X connect 41 0 40 1;
#X connect 42 0 39 0;
#X connect 43 0 34 0;
#X connect 43 1 35 0;
#X connect 44 0 81 0;
#X connect 44 1 81 1;
#X connect 44 2 81 2;
#X connect 44 3 81 3;
#X connect 44 4 81 4;
#X connect 44 5 81 5;
#X connect 44 6 43 0;
#X connect 45 0 34 0;
#X connect 45 1 35 0;
#X connect 46 0 82 0;
#X connect 46 1 82 1;
#X connect 46 2 82 2;
#X connect 46 3 82 3;
#X connect 46 4 82 4;
#X connect 46 5 82 5;
#X connect 46 6 45 0;
#X connect 47 0 34 0;
#X connect 47 1 35 0;
#X connect 48 0 83 0;
#X connect 48 1 83 1;
#X connect 48 2 83 2;
#X connect 48 3 83 3;
#X connect 48 4 83 4;
#X connect 48 5 83 5;
#X connect 48 6 47 0;
#X connect 49 0 34 0;
#X connect 49 1 35 0;
#X connect 50 0 84 0;
#X connect 50 1 84 1;
#X connect 50 2 84 2;
#X connect 50 3 84 3;
#X connect 50 4 84 4;
#X connect 50 5 84 5;
#X connect 50 6 49 0;
#X connect 51 0 34 0;
#X connect 51 1 35 0;
#X connect 52 0 85 0;
#X connect 52 1 85 1;
#X connect 52 2 85 2;
#X connect 52 3 85 3;
#X connect 52 4 85 4;
#X connect 52 5 85 5;
#X connect 52 6 51 0;
#X connect 53 0 34 0;
#X connect 53 1 35 0;
#X connect 54 0 86 0;
#X connect 54 1 86 1;
#X connect 54 2 86 2;
#X connect 54 3 86 3;
#X connect 54 4 86 4;
#X connect 54 5 86 5;
#X connect 54 6 53 0;
#X connect 55 0 34 0;
#X connect 55 1 35 0;
#X connect 56 0 87 0;
#X connect 56 1 87 1;
#X connect 56 2 87 2;
#X connect 56 3 87 3;
#X connect 56 4 87 4;
#X connect 56 5 87 5;
#X connect 56 6 55 0;
#X connect 59 0 60 0;
#X connect 59 0 64 0;
#X connect 59 0 63 0;
#X connect 59 0 67 0;
#X connect 59 0 68 0;
#X connect 59 0 72 0;
#X connect 59 0 73 0;
#X connect 59 0 89 0;
#X connect 60 0 1 0;
#X connect 61 0 8 0;
#X connect 62 0 10 0;
#X connect 63 0 62 0;
#X connect 64 0 61 0;
#X connect 65 0 16 0;
#X connect 66 0 18 0;
#X connect 67 0 65 0;
#X connect 68 0 66 0;
#X connect 69 0 27 0;
#X connect 70 0 24 0;
#X connect 71 0 38 0;
#X connect 72 0 70 0;
#X connect 73 0 71 0;
#X connect 79 0 80 0;
#X connect 80 0 59 0;
#X connect 80 1 27 0;
#X connect 81 0 43 1;
#X connect 82 0 45 1;
#X connect 83 0 47 1;
#X connect 84 0 49 1;
#X connect 85 0 51 1;
#X connect 86 0 53 1;
#X connect 87 0 55 1;
#X connect 88 0 36 0;
#X connect 89 0 90 0;
#X connect 90 0 27 0;
#X coords 0 -1 1 1 150 110 1 100 100;
#X restore 19 54 pd metroblips1;
#X obj 23 26 bng 15 250 50 0 empty empty empty 17 7 0 10 -262144 -1
-1;
#X connect 1 0 0 0;
#X connect 1 1 0 1;
#X connect 2 0 1 0;
