#N canvas 3 55 1265 683 10;
#X obj 101 101 cnv 15 184 114 empty empty unchanged-stalb 20 12 0 14
-233017 -66577 0;
#X obj 104 18 inlet~;
#X obj 104 71 outlet~;
#X obj 225 24 inlet;
#X text 121 139 [*~ 1];
#X obj 225 67 s \$0-dummy;
#X obj 322 23 inlet;
#X obj 320 88 switch~;
#X obj 322 60 tgl 15 0 empty empty empty 17 7 0 10 -262144 -1 -1 0.8
1;
#X obj 404 205 route 0;
#X msg 404 250 \$1 20;
#X obj 404 272 line~;
#X obj 104 49 *~ 1;
#X connect 1 0 12 0;
#X connect 3 0 5 0;
#X connect 6 0 8 0;
#X connect 8 0 7 0;
#X connect 9 0 10 0;
#X connect 10 0 11 0;
#X connect 12 0 2 0;
#X coords 0 -1 1 1 186 116 2 100 100;
