#N canvas 3 57 1265 686 10;
#X obj 101 101 cnv 15 184 114 empty empty BEATLOOPER 2 12 0 14 -233017
-66577 0;
#X obj 146 344 *~;
#X obj 148 265 tgl 15 0 empty empty empty 17 7 0 10 -262144 -1 -1 0
1;
#X obj 78 330 tgl 15 0 empty empty empty 17 7 0 10 -262144 -1 -1 1
1;
#X obj 78 307 == 0;
#X obj 146 237 == 1;
#X obj 78 379 line~;
#X obj 78 353 pack 1 50;
#X obj 142 312 line~;
#X obj 142 287 pack 1 50;
#X obj 264 112 tgl 15 0 empty empty by 0 -7 0 10 -262144 -1 -1 0 1
;
#X obj 480 32 loadbang;
#X msg 70 237 0;
#X obj 38 395 *~;
#X obj 638 37 inlet;
#X obj 38 192 inlet~;
#X obj 146 377 s~ \$0-bypassedSignalBL;
#X obj 215 614 r~ \$0-bypassedSignalBL;
#X floatatom 161 167 5 0 0 2 rec - -, f 5;
#X floatatom 201 168 5 0 0 2 pause - -, f 5;
#X floatatom 241 167 5 0 0 2 play - -, f 5;
#X obj 46 633 *~ 0.75;
#X obj 48 655 outlet~;
#X obj 207 -1 inlet;
#X obj 207 21 route 0 1 2;
#X obj 431 216 switch~;
#X obj 238 114 tgl 15 0 empty empty on 0 -8 0 10 -262144 -1 -1 1 1
;
#X floatatom 110 168 5 0 0 2 bpm - -, f 5;
#X msg 436 85 120;
#N canvas 3 54 1265 718 abs_beatlooper~_sv 1;
#X obj 705 150 pow -1;
#X obj 705 175 / 4;
#X obj 705 200 *;
#X obj 705 225 * 60000;
#X obj 705 125 float;
#X obj 705 100 t b f;
#X floatatom 224 65 5 0 240 0 bpm - -, f 5;
#X floatatom 175 98 5 1 240 0 rec_time - -, f 5;
#X obj 820 157 pow -1;
#X obj 820 182 / 4;
#X obj 820 207 *;
#X obj 820 232 * 60000;
#X obj 820 132 float;
#X obj 820 107 t b f;
#X floatatom 175 117 5 1 240 0 pause_time - -, f 5;
#X obj 960 157 pow -1;
#X obj 960 182 / 4;
#X obj 960 207 *;
#X obj 960 232 * 60000;
#X obj 960 132 float;
#X obj 960 107 t b f;
#X floatatom 175 136 5 1 240 0 play_time - -, f 5;
#X obj 514 72 tgl 15 0 empty empty empty 17 7 0 10 -262144 -1 -1 1
1;
#X obj 506 133 sel 1;
#X floatatom 509 190 5 0 0 0 - - -, f 5;
#X obj 514 97 t f f;
#X msg 222 29 120;
#X obj 705 301 int;
#X obj 821 298 int;
#X obj 821 374 +;
#X obj 224 3 loadbang;
#X floatatom 821 410 5 0 0 0 - - -, f 5;
#X obj 960 299 int;
#X obj 297 29 t f f f;
#X obj 960 345 t b f;
#X obj 821 344 t b f;
#X obj 962 376 +;
#X floatatom 962 407 5 0 0 0 - - -, f 5;
#X obj 507 161 timer 10 persec;
#X obj 573 57 metro 1 10 persec;
#X obj 705 279 / 100;
#X obj 543 298 s \$0-TIME;
#X obj 821 268 / 100;
#X obj 960 277 / 100;
#X floatatom 706 335 5 0 0 0 - - -, f 5;
#X obj 691 443 ==;
#X msg 753 536 /Looperfwd 1;
#X obj 565 405 r \$0-TIME;
#X obj 805 446 ==;
#X msg 967 502 /Looperfwd 1;
#X msg 566 502 /Looperrecord 1;
#X obj 447 279 t b b;
#X msg 480 303 0;
#X obj 509 259 sel;
#X msg 445 305 1;
#X msg 298 4 16;
#X obj 525 209 r \$0-LoopMAX;
#X msg 710 503 /Looperrecord 0;
#X obj 948 441 ==;
#X obj 525 231 + 1;
#X obj 997 434 s \$0-LoopMAX;
#X obj 691 468 sel 0 1;
#X obj 566 470 sel 0 1;
#X obj 805 469 sel 0 1;
#X obj 948 466 sel 0 1;
#N canvas 3 54 458 308 rh_scalelog 0;
#X obj 20 155 exp;
#X obj 20 107 *;
#X obj 20 130 +;
#X obj 98 87 log;
#X obj 194 84 log;
#X obj 123 123 t b f;
#X obj 123 145 -;
#X obj 20 183 outlet;
#X obj 20 19 inlet;
#X obj 98 23 inlet;
#X obj 194 24 inlet;
#X connect 0 0 7 0;
#X connect 1 0 2 0;
#X connect 2 0 0 0;
#X connect 3 0 2 1;
#X connect 3 0 5 0;
#X connect 4 0 6 0;
#X connect 5 0 6 0;
#X connect 5 1 6 1;
#X connect 6 0 1 1;
#X connect 8 0 1 0;
#X connect 9 0 3 0;
#X connect 10 0 4 0;
#X restore 289 276 pd rh_scalelog;
#N canvas 0 50 462 312 rh_scalelog 0;
#X obj 20 155 exp;
#X obj 20 107 *;
#X obj 20 130 +;
#X obj 98 87 log;
#X obj 194 84 log;
#X obj 123 123 t b f;
#X obj 123 145 -;
#X obj 20 183 outlet;
#X obj 20 19 inlet;
#X obj 98 23 inlet;
#X obj 194 24 inlet;
#X connect 0 0 7 0;
#X connect 1 0 2 0;
#X connect 2 0 0 0;
#X connect 3 0 2 1;
#X connect 3 0 5 0;
#X connect 4 0 6 0;
#X connect 5 0 6 0;
#X connect 5 1 6 1;
#X connect 6 0 1 1;
#X connect 8 0 1 0;
#X connect 9 0 3 0;
#X connect 10 0 4 0;
#X restore 320 536 pd rh_scalelog;
#X msg 367 512 0.1;
#X msg 413 512 10;
#X msg 382 252 1000;
#X msg 335 251 1;
#X obj 293 408 *~;
#X obj 308 381 * 0.95;
#X obj 232 628 *~ 1;
#X obj 291 352 vd~ \$0-fbbb 100;
#X msg 290 299 \$1 20;
#X obj 291 323 line~;
#X obj 335 224 loadbang;
#X obj 367 484 loadbang;
#X msg 288 253 0;
#X obj 107 170 hsl 128 15 0 1 0 0 empty empty feedback -2 -8 0 10 -262144
-1 -1 6350 1;
#X obj 231 508 *~ 1;
#X obj 115 239 hsl 128 15 0 1 0 0 empty empty gain -2 -8 0 10 -262144
-1 -1 6350 1;
#N canvas 3 54 1351 686 abs_sample~-looper 0;
#X msg 365 213 0;
#X obj 155 52 inlet~;
#X obj 254 638 outlet~;
#X obj 236 145 sel start stop;
#X obj 236 123 list \$1;
#X obj 347 416 phasor~ 0;
#X obj 649 357 hsl 128 30 0 123480 0 0 \$0-start-s \$0-start start
136 15 0 10 -262144 -258113 -1 0 1;
#X obj 648 391 hsl 128 30 0 123480 0 0 \$0-stop-s \$0-stop stop 136
15 0 10 -262144 -258113 -1 12700 1;
#X obj 348 455 *~ 1;
#X obj 27 571 table \$0-sample 4.41e+06;
#X obj 256 490 +~ 0;
#X text 295 491 offset;
#X obj 287 333 t b f;
#X msg 398 218 0;
#X obj 527 60 inlet;
#X obj 440 444 fexpr~ $x[0] < $x[-1];
#X obj 440 484 threshold~ 0.5 1 0.1 1;
#X obj 763 319 bng 30 250 50 0 \$0-reset-s \$0-reset reset 32 12 0
10 -262144 -1 -1;
#X obj 647 431 hsl 128 30 0.1 10 1 0 \$0-speed-s \$0-speed speed 136
15 0 10 -262144 -258113 -1 6350 1;
#X obj 647 464 hsl 128 30 0.1 10 1 0 \$0-pitch-s \$0-pitch pitch 136
15 0 10 -262144 -258113 -1 6350 1;
#X obj 203 215 r \$0-start-s;
#X obj 203 240 t b f f;
#X obj 116 333 r \$0-stop-s;
#X obj 456 250 r \$0-speed-s;
#N canvas 254 90 717 606 recording 0;
#X msg 164 110 stop;
#X obj 97 80 sel start stop;
#X obj 97 59 list \$1;
#X obj 222 172 tabwrite~ \$0-sample;
#X obj 168 265 f;
#X msg 410 158 \; \$1-sample const 0;
#X obj 410 134 \$0;
#X obj 97 113 t b b b b;
#X obj 97 30 inlet;
#X obj 221 30 inlet~;
#X obj 201 242 samplerate~;
#N canvas 370 460 450 300 counter 0;
#X obj 63 22 inlet;
#X obj 115 24 inlet;
#X obj 63 140 outlet;
#X msg 115 69 0;
#X obj 63 67 metro 1;
#X obj 100 110 + 1;
#X obj 63 109 f;
#X connect 0 0 4 0;
#X connect 1 0 3 0;
#X connect 3 0 6 0;
#X connect 4 0 6 0;
#X connect 5 0 6 1;
#X connect 6 0 5 0;
#X connect 6 0 2 0;
#X restore 97 197 pd counter;
#X obj 168 323 outlet;
#X obj 201 271 / 1000;
#X obj 168 293 * 4.41;
#X obj 164 170 t a b b;
#X connect 0 0 3 0;
#X connect 0 0 15 0;
#X connect 1 0 7 0;
#X connect 1 1 0 0;
#X connect 2 0 1 0;
#X connect 4 0 14 0;
#X connect 6 0 5 0;
#X connect 7 0 11 0;
#X connect 7 1 11 1;
#X connect 7 2 3 0;
#X connect 7 3 6 0;
#X connect 8 0 2 0;
#X connect 9 0 3 0;
#X connect 10 0 13 0;
#X connect 11 0 4 1;
#X connect 13 0 14 1;
#X connect 14 0 12 0;
#X connect 15 0 11 0;
#X connect 15 1 4 0;
#X connect 15 2 10 0;
#X restore 85 273 pd recording;
#N canvas 87 111 448 424 phasor-freq-calc 0;
#X obj 42 37 inlet;
#X obj 86 36 inlet;
#X obj 137 35 inlet;
#X obj 42 336 outlet;
#X obj 107 334 outlet;
#X obj 187 35 inlet;
#X obj 234 36 inlet;
#X obj 42 161 t b f;
#X obj 42 214 /;
#X obj 42 244 f;
#X obj 42 104 -;
#X obj 42 75 f;
#X obj 42 132 t f f;
#X obj 42 270 spigot;
#X obj 42 298 * 1;
#X obj 42 187 samplerate~;
#X connect 0 0 11 0;
#X connect 1 0 10 1;
#X connect 2 0 9 0;
#X connect 5 0 13 1;
#X connect 6 0 14 1;
#X connect 7 0 15 0;
#X connect 7 1 8 1;
#X connect 8 0 9 0;
#X connect 9 0 13 0;
#X connect 10 0 12 0;
#X connect 11 0 10 0;
#X connect 12 0 7 0;
#X connect 12 1 4 0;
#X connect 13 0 14 0;
#X connect 14 0 3 0;
#X connect 15 0 8 0;
#X restore 203 382 pd phasor-freq-calc;
#X obj 519 148 r \$0-reset-s;
#X obj 440 525 s \$0-reset;
#X msg 338 212 0;
#X msg 285 213 1;
#X obj 27 611 table \$0-hanning 256;
#N canvas 44 51 443 256 write-hanning 0;
#X msg 142 80 0;
#X obj 36 129 osc~;
#X obj 36 81 samplerate~;
#X obj 36 152 *~ -0.5;
#X obj 36 175 +~ 0.5;
#X obj 28 58 bng 15 250 50 0 empty empty empty 0 -6 0 8 -262144 -1
-1;
#X obj 28 26 loadbang;
#X obj 36 105 / 256;
#X obj 28 200 tabwrite~ \$0-hanning;
#X connect 0 0 1 1;
#X connect 1 0 3 0;
#X connect 2 0 7 0;
#X connect 3 0 4 0;
#X connect 4 0 8 0;
#X connect 5 0 2 0;
#X connect 5 0 0 0;
#X connect 5 0 8 0;
#X connect 6 0 5 0;
#X connect 7 0 1 0;
#X restore 26 638 pd write-hanning;
#N canvas 713 142 526 599 read-table 0;
#X obj 89 83 / 256;
#X obj 89 56 * 44100;
#X obj 15 30 inlet~;
#X obj 89 28 inlet;
#X obj 233 429 outlet~;
#X obj 18 258 tabread4~ \$0-sample;
#X obj 89 117 phasor~;
#X obj 16 196 samphold~;
#X obj 98 198 *~ 256;
#X obj 17 232 +~;
#X obj 43 288 *~;
#X obj 149 260 tabread4~ \$0-hanning;
#X obj 374 152 +~ 0.5;
#X obj 374 181 wrap~;
#X obj 304 273 tabread4~ \$0-sample;
#X obj 302 211 samphold~;
#X obj 384 213 *~ 256;
#X obj 303 247 +~;
#X obj 329 303 *~;
#X obj 435 275 tabread4~ \$0-hanning;
#X obj 234 395 +~;
#X obj 128 -4 loadbang;
#X obj 128 22 samplerate~;
#X connect 0 0 6 0;
#X connect 1 0 0 0;
#X connect 2 0 7 0;
#X connect 2 0 15 0;
#X connect 3 0 1 0;
#X connect 5 0 10 0;
#X connect 6 0 7 1;
#X connect 6 0 8 0;
#X connect 6 0 12 0;
#X connect 7 0 9 0;
#X connect 8 0 9 1;
#X connect 8 0 11 0;
#X connect 9 0 5 0;
#X connect 10 0 20 0;
#X connect 11 0 10 1;
#X connect 12 0 13 0;
#X connect 13 0 16 0;
#X connect 13 0 15 1;
#X connect 14 0 18 0;
#X connect 15 0 17 0;
#X connect 16 0 17 1;
#X connect 16 0 19 0;
#X connect 17 0 14 0;
#X connect 18 0 20 1;
#X connect 19 0 18 1;
#X connect 20 0 4 0;
#X connect 21 0 22 0;
#X connect 22 0 1 1;
#X restore 255 541 pd read-table;
#X obj 330 515 r \$0-pitch-s;
#X obj 254 606 *~ 0;
#X obj 236 172 t b b b b;
#X msg 275 575 1;
#X msg 317 575 0;
#X obj 647 496 hsl 128 15 0 1 0 0 empty \$0-pos position 136 7 0 10
-228856 -1 -1 0 1;
#X obj 165 524 s \$0-pos;
#X obj 165 494 snapshot~;
#X obj 165 458 metro 10;
#X obj 165 427 loadbang;
#X obj 338 184 t b b b b;
#X obj 121 254 soundfiler;
#N canvas 364 326 450 300 set_length 0;
#X obj 91 24 inlet;
#X obj 186 142 s \$0-stop;
#X obj 91 150 s \$0-start;
#X msg 91 111 0;
#X msg 186 90 range 0 \$1;
#X msg 106 88 range 0 \$1;
#X obj 151 226 s \$0-speed;
#X msg 151 193 1;
#X obj 91 57 t b f f f b b;
#X obj 285 117 s \$0-pitch;
#X msg 285 88 1;
#X obj 305 234 outlet;
#X connect 0 0 8 0;
#X connect 3 0 2 0;
#X connect 4 0 1 0;
#X connect 5 0 2 0;
#X connect 7 0 6 0;
#X connect 8 0 3 0;
#X connect 8 1 5 0;
#X connect 8 1 11 0;
#X connect 8 2 1 0;
#X connect 8 3 4 0;
#X connect 8 4 7 0;
#X connect 8 5 10 0;
#X connect 10 0 9 0;
#X restore 85 303 pd set_length;
#X obj 85 83 route rec open play;
#X msg 121 229 read \$1 \$2;
#X obj 31 120 symbol;
#X obj 31 142 t s b;
#X obj 58 167 symbol \$0-sample;
#X obj 31 192 pack s s;
#X obj 646 157 tgl 25 0 empty empty switch~ 28 12 0 20 -262144 -1 -1
1 1;
#X obj 708 134 switch~;
#X msg 1107 279 -1;
#X msg 1001 248 1;
#X obj 649 252 bng 15 250 50 0 empty empty FW 17 7 0 10 -262144 -1
-1;
#X obj 686 252 bng 15 250 50 0 empty empty rev 17 7 0 10 -262144 -1
-1;
#X floatatom 651 278 15 0 0 0 - - -, f 15;
#X text 740 549 from whale-av on the forum;
#X obj 505 358 s \$0-sample-length;
#X obj 862 40 r \$0-sample-length;
#X obj 864 356 phasor~;
#X obj 863 425 *~;
#X obj 878 378 r \$0-sample-length;
#X obj 878 401 sig~;
#X obj 864 277 sig~;
#X obj 863 326 *~ 1;
#X msg 862 63 44100 \$1;
#X obj 862 86 /;
#X obj 865 466 tabread4~ \$0-sample;
#X msg 1214 313 0;
#X obj 727 252 bng 15 250 50 0 empty empty stp 17 7 0 10 -262144 -1
-1;
#X obj 863 110 v phasorfreq;
#X floatatom 863 252 5 0 0 0 - - -, f 5;
#X msg 862 200 bang;
#X obj 863 230 v phasorfreq;
#X obj 865 499 outlet~;
#X text 651 185 rec play;
#X obj 1010 95 sel 0 1;
#X obj 1078 96 sel 1;
#X obj 1143 98 sel 1;
#X obj 1210 104 sel 1;
#X obj 1014 59 route /Looperrecord /Looperfwd /Looperbwd /Looperstop
;
#X obj 1014 27 inlet;
#X obj 645 45 inlet;
#N canvas 3 54 1351 686 rec_play_switch 0;
#X msg 44 225 rec start;
#X msg 112 228 rec stop;
#X msg 253 236 play start;
#X msg 347 236 play stop;
#X obj 120 44 inlet;
#X obj 162 45 inlet;
#X obj 141 338 outlet;
#X msg 151 125 1;
#X msg 192 123 0;
#X obj 120 70 route bang 1 0;
#N canvas 640 130 450 300 switch-bang 0;
#X obj 15 11 inlet;
#X obj 15 146 outlet;
#X obj 61 147 outlet;
#X obj 15 59 tgl 30 0 empty empty empty 0 -6 0 10 -258113 -1 -1 0 1
;
#X obj 15 114 sel 1 0;
#X connect 0 0 3 0;
#X connect 3 0 4 0;
#X connect 4 0 1 0;
#X connect 4 1 2 0;
#X coords 0 -1 1 1 34 34 2 13 57;
#X restore 62 54 pd switch-bang;
#N canvas 640 130 450 300 switch-bang 0;
#X obj 15 11 inlet;
#X obj 15 146 outlet;
#X obj 61 147 outlet;
#X obj 15 59 tgl 30 0 empty empty empty 0 -6 0 10 -258113 -1 -1 0 1
;
#X obj 15 114 sel 1 0;
#X connect 0 0 3 0;
#X connect 3 0 4 0;
#X connect 4 0 1 0;
#X connect 4 1 2 0;
#X coords 0 -1 1 1 34 34 2 13 57;
#X restore 26 54 pd switch-bang;
#X connect 0 0 6 0;
#X connect 1 0 6 0;
#X connect 2 0 6 0;
#X connect 3 0 6 0;
#X connect 4 0 9 0;
#X connect 5 0 10 0;
#X connect 7 0 11 0;
#X connect 8 0 11 0;
#X connect 9 0 11 0;
#X connect 9 1 7 0;
#X connect 9 2 8 0;
#X connect 9 3 6 0;
#X connect 10 0 2 0;
#X connect 10 1 3 0;
#X connect 11 0 0 0;
#X connect 11 1 1 0;
#X coords 0 -1 1 1 76 40 2 23 50;
#X restore 646 202 pd rec_play_switch;
#X connect 0 0 5 0;
#X connect 1 0 24 1;
#X connect 3 0 35 0;
#X connect 3 1 43 0;
#X connect 4 0 3 0;
#X connect 5 0 8 0;
#X connect 5 0 15 0;
#X connect 5 0 40 0;
#X connect 8 0 10 0;
#X connect 10 0 32 0;
#X connect 12 0 25 2;
#X connect 12 1 25 4;
#X connect 13 0 5 1;
#X connect 14 0 27 0;
#X connect 15 0 16 0;
#X connect 16 0 27 0;
#X connect 20 0 21 0;
#X connect 21 0 25 0;
#X connect 21 1 25 1;
#X connect 21 2 10 1;
#X connect 22 0 25 0;
#X connect 23 0 12 0;
#X connect 24 0 45 0;
#X connect 25 0 5 0;
#X connect 25 1 8 1;
#X connect 26 0 13 0;
#X connect 28 0 25 3;
#X connect 29 0 25 3;
#X connect 32 0 34 0;
#X connect 33 0 32 1;
#X connect 34 0 2 0;
#X connect 35 0 25 0;
#X connect 35 1 29 0;
#X connect 35 2 13 0;
#X connect 35 3 36 0;
#X connect 36 0 34 1;
#X connect 37 0 34 1;
#X connect 40 0 39 0;
#X connect 41 0 40 0;
#X connect 42 0 41 0;
#X connect 43 0 28 0;
#X connect 43 1 0 0;
#X connect 43 2 37 0;
#X connect 43 3 13 0;
#X connect 44 0 45 0;
#X connect 45 0 58 0;
#X connect 46 0 24 0;
#X connect 46 1 48 0;
#X connect 46 2 4 0;
#X connect 47 0 44 0;
#X connect 48 0 49 0;
#X connect 49 0 51 0;
#X connect 49 1 50 0;
#X connect 50 0 51 1;
#X connect 51 0 47 0;
#X connect 52 0 53 0;
#X connect 54 0 67 1;
#X connect 54 0 75 0;
#X connect 55 0 67 1;
#X connect 55 0 75 0;
#X connect 56 0 55 0;
#X connect 57 0 54 0;
#X connect 58 0 60 0;
#X connect 61 0 68 0;
#X connect 62 0 63 0;
#X connect 63 0 70 0;
#X connect 64 0 65 0;
#X connect 65 0 63 1;
#X connect 66 0 67 0;
#X connect 67 0 62 0;
#X connect 68 0 69 0;
#X connect 69 0 73 0;
#X connect 70 0 77 0;
#X connect 71 0 67 1;
#X connect 71 0 75 0;
#X connect 72 0 71 0;
#X connect 74 0 66 0;
#X connect 75 0 76 0;
#X connect 76 0 74 0;
#X connect 79 0 86 0;
#X connect 79 1 86 0;
#X connect 80 0 56 0;
#X connect 81 0 57 0;
#X connect 82 0 72 0;
#X connect 83 0 79 0;
#X connect 83 1 80 0;
#X connect 83 2 81 0;
#X connect 83 3 82 0;
#X connect 84 0 83 0;
#X connect 85 0 52 0;
#X connect 86 0 46 0;
#X coords 0 -1 1 1 143 175 1 640 125;
#X restore 95 320 pd abs_sample~-looper;
#X obj 77 8 inlet~;
#X obj 565 693 s \$0-beatloopermsgs;
#X obj 144 286 r \$0-beatloopermsgs;
#X obj 107 57 tgl 15 0 empty empty off|on 17 7 0 10 -262144 -1 -1 1
1;
#X obj 77 623 outlet~;
#X obj 267 80 s \$0-btlp_bpm;
#X obj 690 19 r \$0-btlp_bpm;
#X obj 268 114 s \$0-btlp_recdur;
#X obj 268 157 s \$0-btlp_playdur;
#X obj 268 137 s s \$0-btlp_pause;
#X obj 710 64 r \$0-btlp_recdur;
#X obj 818 62 r s \$0-btlp_pause;
#X obj 933 61 r \$0-btlp_playdur;
#X obj 294 438 delwrite~ \$0-fbbb 0;
#X obj 267 174 s \$0-btlp_fb;
#X obj 193 236 s \$0-btlp_gn;
#X obj 284 484 r \$0-btlp_gn;
#X obj 409 345 r \$0-btlp_fb;
#X text 103 83 times in beats;
#X obj 389 3 inlet;
#X obj 348 3 inlet;
#X obj 474 3 inlet;
#X obj 436 3 inlet;
#X obj 557 3 inlet;
#X obj 516 3 inlet;
#X obj 77 547 *~;
#X obj 106 203 hsl 128 15 0 1 0 0 empty empty saturation -2 -8 0 10
-262144 -1 -1 6350 1;
#N canvas 0 50 462 312 rh_scalelog 0;
#X obj 20 155 exp;
#X obj 20 107 *;
#X obj 20 130 +;
#X obj 98 87 log;
#X obj 194 84 log;
#X obj 123 123 t b f;
#X obj 123 145 -;
#X obj 20 183 outlet;
#X obj 20 19 inlet;
#X obj 98 23 inlet;
#X obj 194 24 inlet;
#X connect 0 0 7 0;
#X connect 1 0 2 0;
#X connect 2 0 0 0;
#X connect 3 0 2 1;
#X connect 3 0 5 0;
#X connect 4 0 6 0;
#X connect 5 0 6 0;
#X connect 5 1 6 1;
#X connect 6 0 1 1;
#X connect 8 0 1 0;
#X connect 9 0 3 0;
#X connect 10 0 4 0;
#X restore 114 555 pd rh_scalelog;
#X msg 161 531 0.1;
#X msg 198 527 10;
#X obj 161 503 loadbang;
#X obj 115 267 hsl 128 15 0 1 0 0 empty empty raw_gain -2 -8 0 10 -262144
-1 -1 6350 1;
#X obj 78 592 +~;
#X obj 26 207 - 1;
#X obj 26 229 abs;
#X obj 600 2 inlet;
#X obj 227 144 tgl 15 0 empty empty fw|bw 0 -7 0 10 -262144 -1 -1 0
1;
#X obj 817 605 spigot;
#X obj 851 584 tgl 15 0 empty empty empty 17 7 0 10 -262144 -1 -1 1
1;
#X obj 852 558 == 0;
#X obj 884 606 spigot;
#X obj 918 585 tgl 15 0 empty empty empty 17 7 0 10 -262144 -1 -1 0
1;
#X obj 919 559 == 1;
#X obj 954 606 spigot;
#X obj 988 585 tgl 15 0 empty empty empty 17 7 0 10 -262144 -1 -1 1
1;
#X obj 989 559 == 0;
#X obj 1021 607 spigot;
#X obj 1055 586 tgl 15 0 empty empty empty 17 7 0 10 -262144 -1 -1
0 1;
#X obj 1056 560 == 1;
#X obj 3 141 s \$0-btlp_fwbw;
#X obj 999 530 r \$0-btlp_fwbw;
#X msg 817 637 /Looperfwd 1;
#X msg 955 636 /Looperfwd 1;
#X msg 887 666 /Looperbwd 1;
#X msg 1030 665 /Looperbwd 1;
#X msg 2 77 0;
#X obj 641 1 inlet;
#X msg 9 103 0.5, f 4;
#X obj 389 32 *;
#X obj 389 54 int;
#X obj 440 32 *;
#X obj 440 54 int;
#X obj 478 31 *;
#X obj 478 53 int;
#X connect 0 0 1 0;
#X connect 1 0 2 0;
#X connect 2 0 3 0;
#X connect 3 0 40 0;
#X connect 4 0 0 0;
#X connect 5 0 4 0;
#X connect 5 1 2 1;
#X connect 6 0 89 0;
#X connect 6 0 142 1;
#X connect 6 0 144 1;
#X connect 6 0 146 1;
#X connect 7 0 91 0;
#X connect 8 0 9 0;
#X connect 9 0 10 0;
#X connect 10 0 11 0;
#X connect 11 0 42 0;
#X connect 12 0 8 0;
#X connect 13 0 12 0;
#X connect 13 1 10 1;
#X connect 14 0 93 0;
#X connect 15 0 16 0;
#X connect 16 0 17 0;
#X connect 17 0 18 0;
#X connect 18 0 43 0;
#X connect 19 0 15 0;
#X connect 20 0 19 0;
#X connect 20 1 17 1;
#X connect 21 0 92 0;
#X connect 22 0 25 0;
#X connect 23 0 38 0;
#X connect 24 0 41 0;
#X connect 24 0 53 0;
#X connect 25 0 39 0;
#X connect 25 1 23 0;
#X connect 26 0 6 0;
#X connect 27 0 44 0;
#X connect 28 0 35 0;
#X connect 29 0 31 0;
#X connect 29 0 36 0;
#X connect 30 0 26 0;
#X connect 30 0 55 0;
#X connect 30 0 139 0;
#X connect 30 0 141 0;
#X connect 31 0 48 1;
#X connect 32 0 34 0;
#X connect 33 0 7 0;
#X connect 33 1 14 0;
#X connect 33 2 21 0;
#X connect 34 0 36 0;
#X connect 34 1 36 1;
#X connect 35 0 29 0;
#X connect 35 1 29 1;
#X connect 36 0 37 0;
#X connect 37 0 60 0;
#X connect 37 0 58 1;
#X connect 38 0 24 0;
#X connect 39 0 38 1;
#X connect 40 0 27 0;
#X connect 42 0 28 0;
#X connect 43 0 32 0;
#X connect 44 0 29 0;
#X connect 44 0 45 1;
#X connect 45 0 61 0;
#X connect 46 0 85 0;
#X connect 47 0 45 0;
#X connect 47 0 48 0;
#X connect 47 0 58 0;
#X connect 47 0 62 0;
#X connect 48 0 63 0;
#X connect 49 0 85 0;
#X connect 50 0 85 0;
#X connect 51 0 54 0;
#X connect 51 1 52 0;
#X connect 52 0 22 0;
#X connect 53 0 51 0;
#X connect 54 0 22 0;
#X connect 55 0 33 0;
#X connect 56 0 59 0;
#X connect 57 0 85 0;
#X connect 58 0 64 0;
#X connect 59 0 53 1;
#X connect 61 1 57 0;
#X connect 62 0 50 0;
#X connect 63 1 46 0;
#X connect 63 1 121 0;
#X connect 63 1 124 0;
#X connect 64 1 49 0;
#X connect 64 1 127 0;
#X connect 64 1 130 0;
#X connect 65 0 75 0;
#X connect 66 0 73 1;
#X connect 67 0 66 1;
#X connect 68 0 66 2;
#X connect 69 0 65 2;
#X connect 70 0 65 1;
#X connect 71 0 97 0;
#X connect 72 0 71 1;
#X connect 73 0 116 1;
#X connect 74 0 71 0;
#X connect 74 0 73 0;
#X connect 75 0 76 0;
#X connect 76 0 74 0;
#X connect 77 0 70 0;
#X connect 77 0 69 0;
#X connect 77 0 79 0;
#X connect 78 0 67 0;
#X connect 78 0 68 0;
#X connect 79 0 65 0;
#X connect 80 0 98 0;
#X connect 81 0 73 0;
#X connect 81 0 97 0;
#X connect 82 0 99 0;
#X connect 83 1 81 0;
#X connect 84 0 83 0;
#X connect 84 0 109 0;
#X connect 86 0 83 3;
#X connect 87 0 22 0;
#X connect 87 0 83 2;
#X connect 90 0 12 0;
#X connect 90 0 19 0;
#X connect 90 0 4 0;
#X connect 94 0 5 0;
#X connect 95 0 13 0;
#X connect 96 0 20 0;
#X connect 100 0 66 0;
#X connect 101 0 72 0;
#X connect 103 0 142 0;
#X connect 104 0 6 0;
#X connect 105 0 146 0;
#X connect 106 0 144 0;
#X connect 107 0 110 0;
#X connect 108 0 80 0;
#X connect 109 0 116 0;
#X connect 110 0 117 0;
#X connect 110 0 82 0;
#X connect 111 0 109 1;
#X connect 112 0 111 1;
#X connect 113 0 111 2;
#X connect 114 0 112 0;
#X connect 114 0 113 0;
#X connect 115 0 111 0;
#X connect 116 0 88 0;
#X connect 117 0 118 0;
#X connect 118 0 115 0;
#X connect 119 0 87 0;
#X connect 120 0 133 0;
#X connect 121 0 135 0;
#X connect 122 0 121 1;
#X connect 123 0 122 0;
#X connect 124 0 137 0;
#X connect 125 0 124 1;
#X connect 126 0 125 0;
#X connect 127 0 136 0;
#X connect 128 0 127 1;
#X connect 129 0 128 0;
#X connect 130 0 138 0;
#X connect 131 0 130 1;
#X connect 132 0 131 0;
#X connect 134 0 123 0;
#X connect 134 0 126 0;
#X connect 134 0 129 0;
#X connect 134 0 132 0;
#X connect 135 0 85 0;
#X connect 136 0 85 0;
#X connect 137 0 85 0;
#X connect 138 0 85 0;
#X connect 139 0 120 0;
#X connect 140 0 120 0;
#X connect 141 0 110 0;
#X connect 141 0 80 0;
#X connect 142 0 143 0;
#X connect 143 0 7 0;
#X connect 144 0 145 0;
#X connect 145 0 14 0;
#X connect 146 0 147 0;
#X connect 147 0 21 0;
#X coords 0 -1 1 1 160 180 1 100 50;
#X restore 42 435 pd abs_beatlooper~_sv;
#X connect 1 0 16 0;
#X connect 2 0 9 0;
#X connect 3 0 7 0;
#X connect 4 0 3 0;
#X connect 5 0 2 0;
#X connect 6 0 13 1;
#X connect 7 0 6 0;
#X connect 8 0 1 1;
#X connect 9 0 8 0;
#X connect 10 0 4 0;
#X connect 10 0 5 0;
#X connect 11 0 12 0;
#X connect 11 0 28 0;
#X connect 12 0 10 0;
#X connect 13 0 29 0;
#X connect 14 0 26 0;
#X connect 15 0 13 0;
#X connect 17 0 21 0;
#X connect 18 0 29 2;
#X connect 19 0 29 3;
#X connect 20 0 29 4;
#X connect 21 0 22 0;
#X connect 23 0 24 0;
#X connect 24 0 18 0;
#X connect 24 1 19 0;
#X connect 24 2 20 0;
#X connect 26 0 25 0;
#X connect 26 0 29 7;
#X connect 28 0 27 0;
#X connect 29 0 21 0;
#X coords 0 -1 1 1 186 116 2 100 100;
