#N canvas 3 54 1351 686 10;
#X obj 101 101 cnv 15 184 114 empty empty PitDelay 2 12 0 14 -233017
-66577 0;
#X obj 90 430 vsl 15 90 0 1 0 1 \$0-psychfb empty fb 0 -9 0 10 -262144
-1 -1 2634 1;
#X obj 156 456 vsl 15 90 0 2000 0 1 \$0-psychdel empty del 0 -9 0 10
-262144 -1 -1 0 1;
#X obj 190 477 vsl 15 90 0 1 0 1 \$0-pyschmix empty mix 0 -9 0 10 -262144
-1 -1 8900 1;
#X obj 124 428 vsl 15 90 10 -10 0 1 \$0-pyschpitch empty pitch 0 -9
0 10 -262144 -1 -1 8900 1;
#X obj 224 480 vsl 15 90 0 1 0 0 \$0-psychgain empty gain 0 -9 0 10
-262144 -1 -1 4450 1;
#X text 380 197 Pitch Delay;
#X obj 125 365 expr -10+20*$f1;
#X obj 156 402 expr 2000*$f1;
#N canvas 12 54 1265 683 pitchdelay 0;
#X obj 169 255 *~;
#X obj 331 217 expr~ $v1*$v3+$v2*(1-$v3);
#X obj 169 46 r \$0-psychdel;
#X obj 208 241 r \$0-psychfb;
#X obj 477 34 r \$0-pyschmix;
#X obj 291 39 r \$0-pyschpitch;
#X obj 590 38 r \$0-psychgain;
#X obj 331 449 outlet~;
#X obj 403 35 inlet~;
#X obj 169 80 vd~ \$0-buff;
#X obj 167 318 delwrite~ \$0-buff 2000;
#N canvas 300 195 864 500 pitchDelayembedded 0;
#X obj 218 75 inlet~;
#X obj 421 390 outlet~;
#X obj 461 71 block~ 1;
#X obj 347 157 *~ 30;
#X obj 347 103 inlet;
#X obj 347 132 phasor~;
#X obj 348 215 *~;
#X obj 512 149 +~ 0.5;
#X obj 512 172 wrap~;
#X obj 511 202 *~ 30;
#X obj 512 260 *~;
#X obj 421 366 *~ 0.5;
#N canvas 3 54 450 300 workings 0;
#X obj 114 -110 -~ 0.5;
#X obj 113 -89 *~ 0.5;
#X obj 112 -68 cos~;
#X obj 112 -47 outlet~;
#X obj 115 -132 inlet~ phasor;
#X connect 0 0 1 0;
#X connect 1 0 2 0;
#X connect 2 0 3 0;
#X connect 4 0 0 0;
#X restore 388 157 pd workings;
#X obj 138 150 delwrite~ \$0-pitchDel 30;
#X obj 348 195 vd~ \$0-pitchDel;
#X obj 511 239 vd~ \$0-pitchDel;
#N canvas 0 54 1366 686 hanning~ 0;
#X obj 61 146 -~ 0.5;
#X obj 60 167 *~ 0.5;
#X obj 59 188 cos~;
#X obj 59 209 outlet~;
#X obj 62 124 inlet~ phasor;
#X connect 0 0 1 0;
#X connect 1 0 2 0;
#X connect 2 0 3 0;
#X connect 4 0 0 0;
#X restore 554 202 pd hanning~;
#X connect 0 0 13 0;
#X connect 3 0 14 0;
#X connect 4 0 5 0;
#X connect 5 0 3 0;
#X connect 5 0 7 0;
#X connect 5 0 12 0;
#X connect 6 0 11 0;
#X connect 7 0 8 0;
#X connect 8 0 9 0;
#X connect 8 0 16 0;
#X connect 9 0 15 0;
#X connect 10 0 11 0;
#X connect 11 0 1 0;
#X connect 12 0 6 1;
#X connect 14 0 6 0;
#X connect 15 0 10 0;
#X connect 16 0 10 1;
#X restore 168 219 pd pitchDelayembedded;
#X obj 364 379 line~;
#X msg 364 351 \$1 50;
#X obj 331 427 *~;
#X connect 0 0 10 0;
#X connect 1 0 14 0;
#X connect 2 0 9 0;
#X connect 3 0 0 1;
#X connect 4 0 1 2;
#X connect 5 0 11 1;
#X connect 6 0 13 0;
#X connect 8 0 1 1;
#X connect 8 0 10 0;
#X connect 9 0 11 0;
#X connect 9 0 1 0;
#X connect 11 0 0 0;
#X connect 12 0 14 1;
#X connect 13 0 12 0;
#X connect 14 0 7 0;
#X restore 291 459 pd pitchdelay;
#X obj 292 555 outlet~;
#X obj 292 31 inlet~;
#X obj 291 493 *~ 1;
#X obj 127 190 tgl 15 0 empty empty by 17 7 0 10 -262144 -1 -1 0 1
;
#X msg 497 117 0;
#X obj 369 -1 inlet;
#X obj 196 118 vsl 15 90 0 1 0 0 empty empty pit 0 -9 0 10 -262144
-1 -1 0 1;
#X obj 173 118 vsl 15 90 0 1 0 0 empty empty fb 0 -9 0 10 -262144 -1
-1 0 1;
#X obj 263 118 vsl 15 90 0 1 0 0 empty empty gn 0 -9 0 10 -262144 -1
-1 4450 1;
#X obj 219 118 vsl 15 90 0 1 0 0 empty empty del 0 -9 0 10 -262144
-1 -1 0 1;
#X obj 242 118 vsl 15 90 0 1 0 0 empty empty mix 0 -9 0 10 -262144
-1 -1 8900 1;
#X obj 369 33 route 0 1 2, f 39;
#X obj 519 87 loadbang;
#X msg 543 117 1;
#X msg 597 117 0.5;
#X obj 729 52 tgl 15 0 empty empty empty 17 7 0 10 -262144 -1 -1 0
1;
#X obj 729 72 switch~;
#X obj 727 17 inlet;
#X connect 7 0 4 0;
#X connect 8 0 2 0;
#X connect 9 0 12 0;
#X connect 11 0 9 0;
#X connect 12 0 10 0;
#X connect 14 0 13 0;
#X connect 15 0 21 0;
#X connect 16 0 7 0;
#X connect 17 0 1 0;
#X connect 18 0 5 0;
#X connect 19 0 8 0;
#X connect 20 0 3 0;
#X connect 21 0 17 0;
#X connect 21 1 16 0;
#X connect 21 2 19 0;
#X connect 21 3 20 0;
#X connect 22 0 24 0;
#X connect 22 0 23 0;
#X connect 22 0 14 0;
#X connect 23 0 20 0;
#X connect 24 0 18 0;
#X connect 25 0 26 0;
#X connect 27 0 25 0;
#X coords 0 -1 1 1 186 116 1 100 100;
