#N canvas 3 54 1265 683 10;
#X obj 101 101 cnv 15 184 114 empty empty DETUNING 2 7 0 14 -233017
-66577 0;
#X obj 361 240 *~;
#X obj 757 101 line~;
#X obj 757 82 pack 0 5;
#X obj 636 -65 vsl 15 128 0 1 0 0 empty Effect_Vol Effect_Volume 0
-9 0 10 -260097 -1 -1 6350 1;
#X obj 36 333 phasor~;
#X obj 100 467 *~;
#X obj 107 155 hsl 128 15 0 1 0 0 empty Speed Speed -2 -8 0 10 -262144
-1 -1 889 1;
#X obj 105 189 hsl 128 15 0 1000 0 0 empty Depth Depth -2 -8 0 10 -262144
-1 -1 4089 1;
#X obj 193 355 +~ 0.5;
#X obj 193 379 wrap~;
#X obj 192 415 *~;
#X obj 107 128 hsl 128 15 0 0.9 0 0 empty Feedback Feedback -2 -8 0
10 -262144 -1 -1 12700 1;
#X obj 36 500 cos~;
#X obj 36 527 *~;
#X obj 36 448 -~ 0.5;
#X obj 36 474 *~ 0.5;
#X obj 273 510 cos~;
#X obj 274 537 *~;
#X obj 273 458 -~ 0.5;
#X obj 273 484 *~ 0.5;
#X obj 282 244 *~;
#X obj 529 104 line~;
#X obj 530 85 pack 0 5;
#X obj 518 -66 vsl 15 128 0 1 0 0 empty Main_Vol Main_Signal_Volume
0 -9 0 10 -4034 -1 -1 6350 1;
#X obj 166 -40 line~;
#X obj 167 -59 pack 0 5;
#X obj 208 6 *~;
#X obj 80 7 *~;
#X obj 37 309 line~;
#X obj 38 290 pack 0 5;
#X floatatom 145 155 10 0 0 0 - - -, f 10;
#X floatatom 152 128 10 0 0 0 - - -, f 10;
#X text 52 60 Write incoming signal + feedback from delays;
#X text 95 331 <-- 1 phasor controls the length of two delay lines
...;
#X text 243 412 <-- ... The output is squared so that the length of
the;
#X text 267 423 grows at an increasing speed.;
#X text 327 490 <-- The signal from the phasor is also used to make
an;
#X text 326 508 envelope for each delay line.;
#X text 240 353 <-- This shifts the phasor signal so that one delay
line;
#X text 244 369 starts growing when the other one is at half its cycle.
;
#X obj 985 -12 loadbang;
#X text 497 559 GuitarExtended \, Pierre Massat \, 2012;
#X obj 115 385 line~;
#X obj 116 366 pack 0 5;
#X obj 99 487 *~;
#X obj 193 450 *~;
#X obj 52 -41 inlet~;
#X floatatom 162 190 5 0 0 0 - - -, f 5;
#X obj 241 118 vsl 15 90 0.01 1 0 0 empty empty dry|wet 0 -9 0 10 -262144
-1 -1 4405 1;
#X obj 834 213 abs;
#X obj 834 191 - 1;
#X obj 285 273 +~;
#X obj 285 295 outlet~;
#X msg 799 0 0.5;
#X msg 988 18 \; Feedback 0.9 \; Speed 0.07 \; Depth 322 \;;
#X obj 360 -73 inlet;
#X obj 386 -22 route 0 1 2;
#X obj 1064 144 inlet;
#X obj 1064 166 tgl 15 0 empty empty empty 17 7 0 10 -262144 -1 -1
0 1;
#X obj 1064 186 switch~;
#X obj 315 9 * 0.9;
#X obj 360 37 * 1000;
#X obj 52 34 delwrite~ \$0-del1 3000;
#X obj 99 509 vd~ \$0-del1;
#X obj 194 35 delwrite~ \$0-del2 3000;
#X obj 194 473 vd~ \$0-del2;
#X obj 80 -14 receive~ \$0-out_del1;
#X obj 37 569 send~ \$0-out_del1;
#X obj 273 556 send~ \$0-out_del2;
#X obj 593 81 receive~ \$0-out_del1;
#X obj 609 100 receive~ \$0-out_del2;
#X obj 208 -15 receive~ \$0-out_del2;
#X connect 1 0 52 1;
#X connect 2 0 1 1;
#X connect 3 0 2 0;
#X connect 4 0 3 0;
#X connect 5 0 6 0;
#X connect 5 0 6 1;
#X connect 5 0 9 0;
#X connect 5 0 15 0;
#X connect 6 0 45 0;
#X connect 7 0 30 0;
#X connect 7 0 31 0;
#X connect 8 0 44 0;
#X connect 8 0 48 0;
#X connect 9 0 10 0;
#X connect 10 0 11 0;
#X connect 10 0 11 1;
#X connect 10 0 19 0;
#X connect 11 0 46 0;
#X connect 12 0 26 0;
#X connect 12 0 32 0;
#X connect 13 0 14 0;
#X connect 14 0 68 0;
#X connect 15 0 16 0;
#X connect 16 0 13 0;
#X connect 17 0 18 0;
#X connect 18 0 69 0;
#X connect 19 0 20 0;
#X connect 20 0 17 0;
#X connect 21 0 52 0;
#X connect 22 0 21 1;
#X connect 23 0 22 0;
#X connect 24 0 23 0;
#X connect 25 0 28 1;
#X connect 25 0 27 1;
#X connect 26 0 25 0;
#X connect 27 0 65 0;
#X connect 28 0 63 0;
#X connect 29 0 5 0;
#X connect 30 0 29 0;
#X connect 41 0 55 0;
#X connect 41 0 54 0;
#X connect 43 0 45 1;
#X connect 43 0 46 1;
#X connect 44 0 43 0;
#X connect 45 0 64 0;
#X connect 46 0 66 0;
#X connect 47 0 21 0;
#X connect 47 0 63 0;
#X connect 47 0 65 0;
#X connect 49 0 24 0;
#X connect 49 0 51 0;
#X connect 50 0 4 0;
#X connect 51 0 50 0;
#X connect 52 0 53 0;
#X connect 54 0 49 0;
#X connect 56 0 57 0;
#X connect 57 0 61 0;
#X connect 57 1 7 0;
#X connect 57 2 62 0;
#X connect 58 0 59 0;
#X connect 59 0 60 0;
#X connect 61 0 12 0;
#X connect 62 0 8 0;
#X connect 64 0 14 1;
#X connect 66 0 18 1;
#X connect 67 0 28 0;
#X connect 70 0 1 0;
#X connect 71 0 1 0;
#X connect 72 0 27 0;
#X coords 0 -1 1 1 186 116 2 100 100;
