#N canvas 3 54 1425 818 10;
#X obj 132 68 inlet~;
#X obj 241 68 inlet~;
#X obj 414 75 inlet;
#X obj 134 414 outlet~;
#X obj 133 364 *~;
#X obj 244 383 *~;
#X floatatom 102 167 5 0 1 0 - - -, f 5;
#X msg 150 314 \$1 20;
#X obj 150 336 line~;
#X msg 313 330 \$1 20;
#X obj 312 356 line~;
#X obj 153 245 * -1;
#X obj 153 274 + 1;
#X obj 244 415 outlet~;
#X text 241 459 cutting the 1 outlet \; trying left and right \; really
dependent on cpu hit \; THIS doesnt make any sense \; so reverting
to mono;
#X obj 105 117 hsl 146 15 0 1 0 0 empty empty D<-----|----->W -2 -8
0 16 -262144 -1 -1 0 1;
#X msg 53 45 0.5;
#X connect 0 0 4 0;
#X connect 1 0 5 0;
#X connect 2 0 15 0;
#X connect 4 0 3 0;
#X connect 5 0 13 0;
#X connect 6 0 11 0;
#X connect 6 0 9 0;
#X connect 7 0 8 0;
#X connect 8 0 4 1;
#X connect 9 0 10 0;
#X connect 10 0 5 1;
#X connect 11 0 12 0;
#X connect 12 0 7 0;
#X connect 15 0 6 0;
#X connect 16 0 15 0;
#X coords 0 818 1 817 158 34 0;
