#N canvas 3 65 1351 686 10;
#X obj 2 600 outlet~;
#X obj 36 328 delwrite~ \$0-delay 5000;
#X obj 197 425 vd~ \$0-delay;
#N canvas 115 454 450 300 wet-dry 0;
#X obj 124 66 inlet~;
#X obj 187 70 inlet~;
#X obj 261 72 inlet;
#X obj 132 221 outlet~;
#X obj 133 146 *~;
#X obj 192 146 *~;
#X floatatom 263 200 5 0 0 0 - - -, f 5;
#X floatatom 261 101 5 0 1 0 - - -, f 5;
#X obj 263 139 * -1;
#X obj 263 168 + 1;
#X connect 0 0 4 0;
#X connect 1 0 5 0;
#X connect 2 0 7 0;
#X connect 4 0 3 0;
#X connect 5 0 3 0;
#X connect 6 0 4 1;
#X connect 7 0 8 0;
#X connect 7 0 5 1;
#X connect 8 0 9 0;
#X connect 9 0 6 0;
#X restore 27 524 pd wet-dry;
#N canvas 181 182 657 686 bypass 0;
#X obj 195 -4 route 0 1;
#X obj 195 23 bng 15 250 50 0 empty empty empty 17 7 0 10 -262144 -1
-1;
#X obj 220 24 bng 15 250 50 0 empty empty empty 17 7 0 10 -262144 -1
-1;
#X msg 168 65 1;
#X msg 195 65 0;
#X msg 220 65 0;
#X msg 246 65 1;
#X obj 74 218 outlet~;
#X obj 195 -33 inlet;
#X obj 75 -33 inlet~;
#X obj 138 -33 inlet~;
#N canvas 628 268 450 300 pot~ 0;
#X obj -183 96 line~;
#X obj -220 175 *~;
#X obj -182 135 *~;
#X msg -183 69 \$1 20;
#X obj -221 20 inlet~;
#X obj -221 205 outlet~;
#X obj -183 43 inlet;
#X connect 0 0 2 0;
#X connect 0 0 2 1;
#X connect 1 0 5 0;
#X connect 2 0 1 1;
#X connect 3 0 0 0;
#X connect 4 0 1 0;
#X connect 6 0 3 0;
#X restore 74 138 pd pot~;
#N canvas 630 270 450 300 pot~ 0;
#X obj -183 96 line~;
#X obj -220 175 *~;
#X obj -182 135 *~;
#X msg -183 69 \$1 20;
#X obj -221 20 inlet~;
#X obj -221 205 outlet~;
#X obj -183 43 inlet;
#X connect 0 0 2 0;
#X connect 0 0 2 1;
#X connect 1 0 5 0;
#X connect 2 0 1 1;
#X connect 3 0 0 0;
#X connect 4 0 1 0;
#X connect 6 0 3 0;
#X restore 137 138 pd pot~;
#X connect 0 0 1 0;
#X connect 0 1 2 0;
#X connect 1 0 3 0;
#X connect 1 0 4 0;
#X connect 2 0 5 0;
#X connect 2 0 6 0;
#X connect 3 0 11 1;
#X connect 4 0 12 1;
#X connect 5 0 11 1;
#X connect 6 0 12 1;
#X connect 8 0 0 0;
#X connect 9 0 11 0;
#X connect 10 0 12 0;
#X connect 11 0 7 0;
#X connect 12 0 7 0;
#X restore 2 561 pd bypass;
#X obj 199 312 osc~;
#X obj 198 370 *~ \$1;
#X obj 196 397 abs~;
#X obj 84 488 * 0.01;
#X obj 101 101 cnv 15 184 114 empty empty Flanger 4 8 0 12 -258112
-13381 0;
#X floatatom 142 119 5 0 100 0 freq - -, f 5;
#X floatatom 143 138 5 0 100 0 delay - -, f 5;
#X floatatom 143 163 5 0 100 0 depth - -, f 5;
#X obj 223 179 hradio 12 1 0 2 empty empty bypass -38 8 0 10 -228856
-1 -1 1;
#X obj 119 13 loadbang;
#X obj 295 428 vd~ \$0-delay;
#X obj 296 373 *~ \$1;
#X obj 294 400 abs~;
#X obj 295 317 osc~;
#X obj 524 12 inlet;
#X obj 351 545 outlet;
#X obj 76 271 bang;
#X floatatom 213 121 5 0 70 0 f-back - -, f 5;
#X obj 190 515 *~;
#X obj 191 629 s~ \$0-feedback;
#X obj 59 71 r~ \$0-feedback;
#X obj 213 490 * 0.007;
#X msg 318 271 0.5;
#X msg 229 267 0;
#X floatatom 214 140 5 0 100 0 phase - -, f 5;
#X obj 353 198 * 0.01;
#N canvas 413 384 757 439 tone 0;
#X obj 89 48 inlet~;
#X obj 86 252 outlet~;
#X obj 32 178 *~ \$1;
#X obj 143 178 *~ \$1;
#X floatatom 400 53 5 0 100 0 - - -, f 5;
#X msg 332 110 50;
#X obj 332 146 -;
#X floatatom 332 280 5 0 0 0 - - -, f 5;
#X obj 441 105 - 50;
#X obj 332 175 / 50;
#X obj 441 176 / 50;
#X obj 332 204 + 1;
#X obj 332 238 / 2;
#X floatatom 441 280 5 0 0 0 - - -, f 5;
#X obj 441 207 + 1;
#X obj 441 240 / 2;
#X obj 401 26 inlet;
#X obj 143 108 lop~ 800;
#X obj 33 110 hip~ 400;
#X connect 0 0 17 0;
#X connect 0 0 18 0;
#X connect 2 0 1 0;
#X connect 3 0 1 0;
#X connect 4 0 6 1;
#X connect 4 0 5 0;
#X connect 4 0 8 0;
#X connect 5 0 6 0;
#X connect 6 0 9 0;
#X connect 7 0 2 1;
#X connect 8 0 10 0;
#X connect 9 0 11 0;
#X connect 10 0 14 0;
#X connect 11 0 12 0;
#X connect 12 0 7 0;
#X connect 13 0 3 1;
#X connect 14 0 15 0;
#X connect 15 0 13 0;
#X connect 16 0 4 0;
#X connect 17 0 3 0;
#X connect 18 0 2 0;
#X restore 190 552 pd tone;
#X floatatom 214 159 5 0 100 0 f-tone - -, f 5;
#X obj 225 341 * 0.1;
#X obj 323 345 * 0.2;
#X obj 76 301 pack f f f f f f f;
#X obj 171 58 unpack f f f f f f f;
#X obj 292 245 * 0.03;
#X obj 126 248 * 0.03;
#X obj 729 52 tgl 15 0 empty empty empty 17 7 0 10 -262144 -1 -1 0
1;
#X obj 729 72 switch~;
#X obj 727 17 inlet;
#X obj 524 34 route 0 1 2;
#X msg 119 46 1;
#X obj 567 87 * 100;
#X obj 377 25 * 100;
#X obj 329 25 * 100;
#X obj 5 55 *~ 1;
#X obj 8 9 inlet~;
#X obj 329 78 int;
#X obj 376 79 int;
#X obj 380 54 + 0.5;
#X obj 330 53 + 0.5;
#X msg 170 34 10 30 100 0;
#X connect 2 0 3 1;
#X connect 2 0 23 0;
#X connect 3 0 4 1;
#X connect 4 0 0 0;
#X connect 5 0 6 0;
#X connect 6 0 7 0;
#X connect 7 0 2 0;
#X connect 8 0 3 2;
#X connect 10 0 35 0;
#X connect 10 0 37 0;
#X connect 10 0 38 0;
#X connect 11 0 21 0;
#X connect 11 0 33 0;
#X connect 11 0 34 0;
#X connect 11 0 35 1;
#X connect 12 0 8 0;
#X connect 12 0 21 0;
#X connect 12 0 35 2;
#X connect 13 0 4 2;
#X connect 13 0 21 0;
#X connect 13 0 28 0;
#X connect 13 0 27 0;
#X connect 13 0 35 6;
#X connect 14 0 43 0;
#X connect 15 0 3 1;
#X connect 15 0 23 0;
#X connect 16 0 17 0;
#X connect 17 0 15 0;
#X connect 18 0 16 0;
#X connect 19 0 42 0;
#X connect 21 0 35 0;
#X connect 22 0 26 0;
#X connect 22 0 35 3;
#X connect 23 0 31 0;
#X connect 25 0 1 0;
#X connect 26 0 23 1;
#X connect 27 0 18 1;
#X connect 28 0 5 1;
#X connect 29 0 30 0;
#X connect 29 0 35 4;
#X connect 30 0 18 1;
#X connect 31 0 24 0;
#X connect 32 0 31 1;
#X connect 32 0 35 5;
#X connect 33 0 6 1;
#X connect 34 0 16 1;
#X connect 35 0 20 0;
#X connect 36 0 10 0;
#X connect 36 1 11 0;
#X connect 36 2 12 0;
#X connect 36 3 22 0;
#X connect 36 4 29 0;
#X connect 36 5 32 0;
#X connect 36 6 13 0;
#X connect 37 0 18 0;
#X connect 38 0 5 0;
#X connect 39 0 40 0;
#X connect 41 0 39 0;
#X connect 42 0 46 0;
#X connect 42 1 45 0;
#X connect 42 2 44 0;
#X connect 43 0 13 0;
#X connect 43 0 53 0;
#X connect 44 0 12 0;
#X connect 45 0 51 0;
#X connect 46 0 52 0;
#X connect 47 0 1 0;
#X connect 47 0 3 0;
#X connect 47 0 4 0;
#X connect 48 0 47 0;
#X connect 49 0 10 0;
#X connect 50 0 11 0;
#X connect 51 0 50 0;
#X connect 52 0 49 0;
#X connect 53 0 36 0;
#X coords 0 686 1 685 186 116 0;
