#N canvas 13 64 1351 674 10;
#X floatatom 55 51 5 0 0 0 - - -;
#X obj 55 27 inlet;
#X obj 51 383 outlet;
#X obj 164 384 outlet;
#X obj 310 379 outlet;
#X obj 425 377 outlet;
#X msg 531 84 clear;
#X obj 305 34 loadbang;
#X obj 305 57 t b b;
#X obj 55 73 t f f f f;
#X msg 305 86 read -c text-obj-params-to-effs.txt;
#X obj 56 177 text get \$0-eff-to-paramname-map 0 1;
#X obj 164 219 text get \$0-eff-to-paramname-map 1 1;
#X obj 308 250 text get \$0-eff-to-paramname-map 2 1;
#X obj 424 344 text get \$0-eff-to-paramname-map 3 1;
#X obj 305 109 text define -k \$0-eff-to-paramname-map;
#A set;
#X connect 0 0 9 0;
#X connect 1 0 0 0;
#X connect 6 0 15 0;
#X connect 7 0 8 0;
#X connect 8 0 10 0;
#X connect 8 1 6 0;
#X connect 9 0 11 0;
#X connect 9 1 12 0;
#X connect 9 2 13 0;
#X connect 9 3 14 0;
#X connect 10 0 15 0;
#X connect 11 0 2 0;
#X connect 12 0 3 0;
#X connect 13 0 4 0;
#X connect 14 0 5 0;
