#N canvas 3 54 1351 686 10;
#X obj 301 102 cnv 15 184 112 empty empty HEXX 2 12 0 14 -233017 -66577
0;
#X obj 59 155 env~;
#X floatatom 58 180 5 0 0 0 - - -, f 5;
#X obj 58 230 change;
#X obj 123 251 == 1;
#X obj 124 276 sel 1;
#X obj 333 402 rev1~;
#X obj 928 14 loadbang;
#X floatatom 98 179 5 0 0 0 - - -, f 5;
#X obj 375 401 rev1~;
#X msg 306 250 0;
#X obj 124 303 t b b;
#X obj 41 416 *~;
#X obj 58 383 line~;
#X obj 58 363 pack 0 5;
#X obj 269 590 line~;
#X obj 269 569 pack 0 5;
#X obj 211 608 *~;
#X obj 269 548 expr 1-$f1;
#X obj 212 520 *~ 0.98;
#X obj 335 432 *~;
#X obj 443 414 line~;
#X obj 444 384 pack 0 5;
#X obj 444 227 vsl 15 90 0.001 1 1 0 empty volume Rev_vol 0 8 0 10
-262144 -1 -1 7547 1;
#X obj 212 467 line~;
#X obj 212 448 pack 0 5;
#X obj 382 192 hsl 90 15 50 1000 0 0 empty length_delay lgth_of_sust_del
-2 8 0 10 -262144 -1 -1 94 1;
#X obj 374 146 hsl 90 15 5 50 0 0 empty attack Attack-Decay -2 8 0
10 -262144 -1 -1 8900 1;
#X obj 98 158 + 70;
#X obj 357 109 hsl 90 15 0 15 0 0 empty empty threh_of_trigger -2 8
0 10 -262144 -1 -1 0 1;
#X obj 643 237 hsl 90 15 0 80 0 0 empty rev1tail Reverb_1_-_Tail -2
8 0 10 -262144 -1 -1 5562 1;
#X obj 692 293 hsl 90 15 0 80 0 0 empty rev2tail Reverb_2_-_Tail -2
8 0 10 -262144 -1 -1 6675 1;
#X obj 332 362 *~ 1;
#X msg 124 328 -18 9000;
#X msg 188 261 set -18 \$1;
#X obj 364 128 hsl 90 15 10 9000 0 0 empty speed Spd_of_pshifter -2
8 0 10 -262144 -1 -1 8900 1;
#X obj 58 204 > 78;
#X text 226 39 Adjust the threshold of the trigger;
#X text 229 74 to change the minimum value in the [+ 70];
#X text 227 85 object.);
#X text 225 57 (Depends on your instrument. You may want;
#X text 328 526 Parameters of the sustain;
#X text 460 345 Parameters of the reverb;
#X text 932 145 GuitarExtended \, Pierre Massat \, 2012;
#X text 930 158 (Adapted from the pitchshift example by Miller Puckette.
;
#X text 933 172 Original idea by Lorenzo Sutton.);
#X obj 16 57 inlet~;
#X obj 16 678 outlet~;
#X obj 604 33 inlet;
#X obj 1161 56 inlet;
#X obj 1164 109 tgl 15 0 empty empty empty 17 7 0 10 -262144 -1 -1
0 1;
#X obj 1164 129 switch~;
#X obj 341 8 route 0 1 2 4 4 5 6;
#X obj 385 171 hsl 90 15 0 80 0 0 empty rev1tail Rev12-TailMIX -2 8
0 10 -262144 -1 -1 5562 1;
#X obj 770 180 - 80;
#X obj 769 204 abs;
#X msg 925 44 \; length_delay 60 \; attack 50 \; rev1tail 50 \; rev2tail
60 \; volume 0.35 \; speed 9000 \;;
#X obj 40 437 delwrite~ \$0-G09-del 5000;
#X obj 212 488 vd~ \$0-G09-del 60;
#X obj 1105 626 *~;
#X obj 1228 563 line~;
#X floatatom 1228 381 0 0 0 0 - - -;
#X obj 1228 537 pack 0 200;
#X obj 1153 434 * 0.001;
#X obj 1337 633 line~;
#X obj 1337 608 pack 0 200;
#X floatatom 1337 557 0 0 0 0 - - -;
#X obj 1337 531 r delay;
#X obj 1105 652 +~;
#X obj 1042 678 cos~;
#X obj 1042 705 *~;
#X obj 1042 740 +~;
#X obj 1129 585 wrap~;
#X obj 1274 628 *~;
#X obj 1274 661 +~;
#X obj 1211 688 cos~;
#X obj 1211 715 *~;
#X obj 1129 558 +~ 0.5;
#X obj 1042 626 -~ 0.5;
#X obj 1042 652 *~ 0.5;
#X obj 1211 627 -~ 0.5;
#X obj 1211 660 *~ 0.5;
#X text 1115 361 <-- transposition;
#X text 1114 374 (halftones);
#X text 1105 431 speed;
#X text 1104 445 change;
#X text 1272 380 <--window (msec);
#X text 1077 520 tape head;
#X obj 1042 584 phasor~;
#X obj 1337 584 max 1.5;
#X text 1340 490 delay;
#X text 1337 508 (msec);
#X text 1078 533 rotation freq;
#X obj 1228 411 max 1;
#X msg 1228 354 100;
#X obj 1131 469 t b f;
#X obj 1038 763 outlet~;
#X text 1516 347 Based on Miller Puckette's G09.pitchshift.pd example
;
#X text 1516 364 (slightly adapted with signal objects for smooth transposition).
;
#X text 1088 483 took out this bang;
#X obj 1042 527 /, f 4;
#X obj 1042 490 * -1;
#X obj 1043 464 - 1;
#X obj 1042 411 exp;
#X floatatom 1043 310 5 0 0 0 - - -, f 5;
#X obj 1042 385 * 0.05776;
#X obj 1106 678 vd~ \$0-G09-del;
#X obj 1274 690 vd~ \$0-G09-del;
#X connect 1 0 2 0;
#X connect 2 0 36 0;
#X connect 3 0 4 0;
#X connect 3 0 14 0;
#X connect 3 0 18 0;
#X connect 4 0 5 0;
#X connect 5 0 11 0;
#X connect 6 0 20 0;
#X connect 7 0 56 0;
#X connect 7 0 94 0;
#X connect 8 0 36 1;
#X connect 9 0 20 0;
#X connect 10 0 104 0;
#X connect 11 0 33 0;
#X connect 11 1 10 0;
#X connect 12 0 57 0;
#X connect 13 0 12 1;
#X connect 14 0 13 0;
#X connect 15 0 17 1;
#X connect 16 0 15 0;
#X connect 17 0 57 0;
#X connect 18 0 16 0;
#X connect 19 0 17 0;
#X connect 20 0 47 0;
#X connect 21 0 20 1;
#X connect 22 0 21 0;
#X connect 23 0 22 0;
#X connect 24 0 58 0;
#X connect 25 0 24 0;
#X connect 26 0 25 0;
#X connect 27 0 14 1;
#X connect 27 0 16 1;
#X connect 28 0 8 0;
#X connect 29 0 28 0;
#X connect 30 0 6 1;
#X connect 31 0 9 1;
#X connect 32 0 6 0;
#X connect 32 0 9 0;
#X connect 33 0 104 0;
#X connect 34 0 33 0;
#X connect 35 0 34 0;
#X connect 36 0 3 0;
#X connect 46 0 1 0;
#X connect 46 0 12 0;
#X connect 46 0 47 0;
#X connect 48 0 52 0;
#X connect 49 0 50 0;
#X connect 50 0 51 0;
#X connect 52 0 29 0;
#X connect 52 1 35 0;
#X connect 52 2 27 0;
#X connect 52 5 26 0;
#X connect 52 6 23 0;
#X connect 53 0 54 0;
#X connect 53 0 30 0;
#X connect 54 0 55 0;
#X connect 55 0 31 0;
#X connect 58 0 19 0;
#X connect 59 0 68 0;
#X connect 60 0 59 1;
#X connect 60 0 73 1;
#X connect 61 0 93 0;
#X connect 62 0 60 0;
#X connect 63 0 95 0;
#X connect 64 0 68 1;
#X connect 64 0 74 1;
#X connect 65 0 64 0;
#X connect 66 0 89 0;
#X connect 67 0 66 0;
#X connect 68 0 106 0;
#X connect 69 0 70 0;
#X connect 70 0 71 0;
#X connect 71 0 96 0;
#X connect 71 0 32 0;
#X connect 72 0 73 0;
#X connect 72 0 80 0;
#X connect 73 0 74 0;
#X connect 74 0 107 0;
#X connect 75 0 76 0;
#X connect 76 0 71 1;
#X connect 77 0 72 0;
#X connect 78 0 79 0;
#X connect 79 0 69 0;
#X connect 80 0 81 0;
#X connect 81 0 75 0;
#X connect 88 0 59 0;
#X connect 88 0 78 0;
#X connect 88 0 77 0;
#X connect 89 0 65 0;
#X connect 93 0 63 0;
#X connect 93 0 62 0;
#X connect 94 0 61 0;
#X connect 95 0 100 0;
#X connect 95 1 100 1;
#X connect 100 0 88 0;
#X connect 101 0 100 0;
#X connect 102 0 101 0;
#X connect 103 0 102 0;
#X connect 104 0 105 0;
#X connect 105 0 103 0;
#X connect 106 0 70 1;
#X connect 107 0 76 1;
#X coords 0 -1 1 1 186 116 2 300 100;
