#N canvas 0 54 1366 686 10;
#X obj 39 550 outlet~;
#X obj 44 143 inlet~;
#N canvas 115 454 450 300 wet-dry 0;
#X obj 124 66 inlet~;
#X obj 187 70 inlet~;
#X obj 261 72 inlet;
#X obj 132 221 outlet~;
#X obj 133 146 *~;
#X obj 192 146 *~;
#X floatatom 263 200 5 0 0 0 - - -, f 5;
#X floatatom 261 101 5 0 1 0 - - -, f 5;
#X obj 263 139 * -1;
#X obj 263 168 + 1;
#X connect 0 0 4 0;
#X connect 1 0 5 0;
#X connect 2 0 7 0;
#X connect 4 0 3 0;
#X connect 5 0 3 0;
#X connect 6 0 4 1;
#X connect 7 0 8 0;
#X connect 7 0 5 1;
#X connect 8 0 9 0;
#X connect 9 0 6 0;
#X restore 64 474 pd wet-dry;
#N canvas 181 182 657 686 bypass 0;
#X obj 195 -4 route 0 1;
#X obj 195 23 bng 15 250 50 0 empty empty empty 17 7 0 10 -262144 -1
-1;
#X obj 220 24 bng 15 250 50 0 empty empty empty 17 7 0 10 -262144 -1
-1;
#X msg 168 65 1;
#X msg 195 65 0;
#X msg 220 65 0;
#X msg 246 65 1;
#X obj 74 218 outlet~;
#X obj 195 -33 inlet;
#X obj 75 -33 inlet~;
#X obj 138 -33 inlet~;
#N canvas 628 268 450 300 pot~ 0;
#X obj -183 96 line~;
#X obj -220 175 *~;
#X obj -182 135 *~;
#X msg -183 69 \$1 20;
#X obj -221 20 inlet~;
#X obj -221 205 outlet~;
#X obj -183 43 inlet;
#X connect 0 0 2 0;
#X connect 0 0 2 1;
#X connect 1 0 5 0;
#X connect 2 0 1 1;
#X connect 3 0 0 0;
#X connect 4 0 1 0;
#X connect 6 0 3 0;
#X restore 74 138 pd pot~;
#N canvas 630 270 450 300 pot~ 0;
#X obj -183 96 line~;
#X obj -220 175 *~;
#X obj -182 135 *~;
#X msg -183 69 \$1 20;
#X obj -221 20 inlet~;
#X obj -221 205 outlet~;
#X obj -183 43 inlet;
#X connect 0 0 2 0;
#X connect 0 0 2 1;
#X connect 1 0 5 0;
#X connect 2 0 1 1;
#X connect 3 0 0 0;
#X connect 4 0 1 0;
#X connect 6 0 3 0;
#X restore 137 138 pd pot~;
#X connect 0 0 1 0;
#X connect 0 1 2 0;
#X connect 1 0 3 0;
#X connect 1 0 4 0;
#X connect 2 0 5 0;
#X connect 2 0 6 0;
#X connect 3 0 11 1;
#X connect 4 0 12 1;
#X connect 5 0 11 1;
#X connect 6 0 12 1;
#X connect 8 0 0 0;
#X connect 9 0 11 0;
#X connect 10 0 12 0;
#X connect 11 0 7 0;
#X connect 12 0 7 0;
#X restore 39 511 pd bypass;
#X obj 141 443 * 0.01;
#X obj 101 101 cnv 15 184 114 empty empty Phaser 4 8 0 12 -4067 -13381
0;
#X floatatom 139 122 5 0 100 0 freq - -, f 5;
#X floatatom 139 141 5 0 100 0 tone - -, f 5;
#X floatatom 139 160 5 0 100 0 depth - -, f 5;
#X obj 147 181 hradio 12 1 0 2 empty empty bypass -38 8 0 10 -228856
-1 -1 1;
#X obj 66 25 loadbang;
#X obj 427 19 inlet;
#X obj 318 93 unpack f f f f;
#X obj 480 234 pack f f f f;
#X obj 475 644 outlet;
#X obj 480 204 bang;
#X obj 256 472 rpole~;
#X obj 251 443 rzero_rev~;
#X obj 254 538 rpole~;
#X obj 255 503 rzero_rev~;
#X obj 252 272 rpole~;
#X obj 252 247 rzero_rev~;
#X obj 252 321 rpole~;
#X obj 252 296 rzero_rev~;
#X obj 252 369 rpole~;
#X obj 252 344 rzero_rev~;
#X obj 252 418 rpole~;
#X obj 252 393 rzero_rev~;
#X obj 242 617 +~;
#X obj 407 364 phasor~ 0.3;
#X obj 409 266 * 0.05;
#N canvas 413 384 757 439 tone 0;
#X obj 89 48 inlet~;
#X obj 86 252 outlet~;
#X obj 32 178 *~ \$1;
#X obj 143 178 *~ \$1;
#X floatatom 400 53 5 0 100 0 - - -, f 5;
#X msg 332 110 50;
#X obj 332 146 -;
#X floatatom 332 280 5 0 0 0 - - -, f 5;
#X obj 441 105 - 50;
#X obj 332 175 / 50;
#X obj 441 176 / 50;
#X obj 332 204 + 1;
#X obj 332 238 / 2;
#X floatatom 441 280 5 0 0 0 - - -, f 5;
#X obj 441 207 + 1;
#X obj 441 240 / 2;
#X obj 401 26 inlet;
#X obj 143 108 lop~ 800;
#X obj 33 110 hip~ 400;
#X connect 0 0 17 0;
#X connect 0 0 18 0;
#X connect 2 0 1 0;
#X connect 3 0 1 0;
#X connect 4 0 6 1;
#X connect 4 0 5 0;
#X connect 4 0 8 0;
#X connect 5 0 6 0;
#X connect 6 0 9 0;
#X connect 7 0 2 1;
#X connect 8 0 10 0;
#X connect 9 0 11 0;
#X connect 10 0 14 0;
#X connect 11 0 12 0;
#X connect 12 0 7 0;
#X connect 13 0 3 1;
#X connect 14 0 15 0;
#X connect 15 0 13 0;
#X connect 16 0 4 0;
#X connect 17 0 3 0;
#X connect 18 0 2 0;
#X restore 283 592 pd tone;
#X obj 419 406 expr~ 1 - 0.03 - 0.5*abs($v1-0.5)*abs($v1-0.5);
#X obj 945 5 inlet;
#X obj 157 52 int;
#X obj 211 52 int;
#X obj 259 52 int;
#X obj 423 48 route 0 1 2;
#X obj 157 30 * 100;
#X obj 211 30 * 100;
#X obj 259 30 * 100;
#X msg 66 58 0;
#X msg 317 74 10 30 40 1;
#X obj 946 58 tgl 15 0 empty empty empty 17 7 0 10 -262144 -1 -1 0
1;
#X obj 946 78 switch~;
#X connect 1 0 2 0;
#X connect 1 0 3 0;
#X connect 1 0 28 0;
#X connect 1 0 21 0;
#X connect 2 0 3 1;
#X connect 3 0 0 0;
#X connect 4 0 2 2;
#X connect 6 0 13 0;
#X connect 6 0 30 0;
#X connect 7 0 13 1;
#X connect 7 0 15 0;
#X connect 7 0 31 1;
#X connect 8 0 4 0;
#X connect 8 0 13 2;
#X connect 8 0 15 0;
#X connect 9 0 3 2;
#X connect 9 0 13 3;
#X connect 9 0 15 0;
#X connect 10 0 41 0;
#X connect 11 0 37 0;
#X connect 12 0 6 0;
#X connect 12 1 7 0;
#X connect 12 2 8 0;
#X connect 12 3 9 0;
#X connect 13 0 14 0;
#X connect 15 0 13 0;
#X connect 16 0 19 0;
#X connect 17 0 16 0;
#X connect 18 0 31 0;
#X connect 19 0 18 0;
#X connect 20 0 23 0;
#X connect 21 0 20 0;
#X connect 22 0 25 0;
#X connect 23 0 22 0;
#X connect 24 0 27 0;
#X connect 25 0 24 0;
#X connect 26 0 17 0;
#X connect 27 0 26 0;
#X connect 28 0 2 1;
#X connect 29 0 32 0;
#X connect 30 0 29 0;
#X connect 31 0 28 1;
#X connect 32 0 21 1;
#X connect 32 0 20 1;
#X connect 32 0 23 1;
#X connect 32 0 22 1;
#X connect 32 0 25 1;
#X connect 32 0 24 1;
#X connect 32 0 27 1;
#X connect 32 0 26 1;
#X connect 32 0 17 1;
#X connect 32 0 16 1;
#X connect 32 0 19 1;
#X connect 32 0 18 1;
#X connect 33 0 43 0;
#X connect 34 0 6 0;
#X connect 35 0 7 0;
#X connect 36 0 8 0;
#X connect 37 0 38 0;
#X connect 37 1 39 0;
#X connect 37 2 40 0;
#X connect 38 0 34 0;
#X connect 39 0 35 0;
#X connect 40 0 36 0;
#X connect 41 0 9 0;
#X connect 41 0 42 0;
#X connect 42 0 12 0;
#X connect 43 0 44 0;
#X coords 0 -1 1 1 186 116 2 100 100;
