#N canvas 3 54 1351 708 10;
#X obj 169 216 line~;
#X obj 123 292 *~;
#X obj 122 43 inlet~;
#X obj 122 322 outlet~;
#X obj 171 43 inlet;
#X obj 214 43 r fadetime;
#X obj 168 122 pack f f;
#X msg 168 157 \$1 \$2;
#X obj 168 245 *~;
#X connect 0 0 8 0;
#X connect 0 0 8 1;
#X connect 1 0 3 0;
#X connect 2 0 1 0;
#X connect 4 0 6 0;
#X connect 5 0 6 1;
#X connect 6 0 7 0;
#X connect 7 0 0 0;
#X connect 8 0 1 1;
