#N canvas 3 54 1351 708 10;
#X obj 101 102 cnv 15 184 112 empty empty empty 20 12 0 14 -233017
-66577 0;
#X obj 47 576 *~;
#X obj 61 498 osc~;
#X obj 225 545 line~;
#X obj 226 525 pack 0 5;
#X obj 663 43 loadbang;
#X obj 60 239 phasor~;
#X obj 56 344 +~ 0.5;
#X obj 66 548 *~;
#X obj 191 560 *~;
#X obj 106 531 line~;
#X obj 107 511 pack 0 5;
#X obj 118 489 expr 1-$f1;
#X obj 104 158 tgl 28 0 empty toggle_man_lfo Man/LFO 0 21 0 10 -4034
-1 -1 0 1;
#X text 673 653 Pierre Massat \, GuitarExtended \, 2012;
#X obj 63 427 *~;
#X obj 62 462 +~;
#X obj 235 153 cnv 15 50 60 empty empty MAN 0 12 0 12 -4034 -66577
0;
#X obj 192 485 mtof;
#X obj 192 508 osc~;
#X obj 102 102 cnv 15 180 50 empty empty LFO 0 12 0 14 -260097 -66577
0;
#X obj 138 104 hsl 90 15 0 127 0 0 empty lfo_upper Upper_limit -2 8
0 10 -262144 -1 -1 3504 1;
#X obj 139 120 hsl 90 15 0 127 0 0 empty lfo_lower Lower_limit -2 8
0 10 -262144 -1 -1 2102 1;
#X floatatom 238 121 6 0 0 0 - - -, f 6;
#X floatatom 237 105 6 0 0 0 - - -, f 6;
#X obj 191 379 -;
#X obj 191 357 bang;
#X obj 232 418 mtof;
#X obj 233 354 mtof;
#X obj 190 398 max 1;
#X obj 217 445 min;
#X obj 121 384 line~;
#X obj 122 364 pack 0 5;
#X obj 110 441 line~;
#X obj 111 421 pack 0 5;
#X obj 140 137 hsl 90 15 0 30 0 0 empty lfo_freq LFO_frequency -2 8
0 10 -262144 -1 -1 1187 1;
#N canvas 0 50 450 300 random_manual 0;
#X obj 163 115 random 120;
#X obj 164 143 + 10;
#X obj 162 236 s manual_freq;
#X obj 162 197 line;
#X obj 178 171 pack 0 0;
#X floatatom 216 216 5 0 0 0 - - -, f 5;
#X floatatom 268 194 5 0 0 0 - - -, f 5;
#X obj 233 141 + 50;
#X obj 163 91 metro 3000;
#X obj 235 115 random 2950;
#X obj 202 17 inlet;
#X connect 0 0 1 0;
#X connect 1 0 4 0;
#X connect 3 0 5 0;
#X connect 3 0 2 0;
#X connect 4 0 3 0;
#X connect 7 0 4 1;
#X connect 8 0 0 0;
#X connect 8 0 9 0;
#X connect 9 0 6 0;
#X connect 9 0 7 0;
#X connect 10 0 8 0;
#X restore 478 447 pd random_manual;
#N canvas 0 50 607 397 random_LFO 0;
#X obj 61 140 + 10;
#X obj 59 194 line;
#X obj 75 168 pack 0 0;
#X floatatom 113 213 5 0 0 0 - - -, f 5;
#X floatatom 165 191 5 0 0 0 - - -, f 5;
#X obj 130 138 + 50;
#X obj 132 112 random 2950;
#X obj 233 113 random 120;
#X obj 231 261 line;
#X obj 247 235 pack 0 0;
#X floatatom 285 280 5 0 0 0 - - -, f 5;
#X floatatom 338 192 5 0 0 0 - - -, f 5;
#X obj 303 139 + 50;
#X obj 305 113 random 2950;
#X obj 231 300 s lfo_lower;
#X obj 60 112 random 31;
#X obj 59 233 s lfo_freq;
#X obj 157 18 inlet;
#X obj 383 113 random 120;
#X obj 384 141 + 10;
#X obj 382 195 line;
#X obj 398 169 pack 0 0;
#X floatatom 436 214 5 0 0 0 - - -, f 5;
#X floatatom 488 192 5 0 0 0 - - -, f 5;
#X obj 453 139 + 50;
#X obj 383 89 metro 3000;
#X obj 455 113 random 2950;
#X obj 382 234 s lfo_upper;
#X obj 247 175 *;
#X obj 233 132 + 10;
#X obj 246 154 / 130;
#X obj 249 210 min;
#X obj 281 179 bang;
#X obj 60 88 metro 2500;
#X obj 233 89 metro 2400;
#X connect 1 0 3 0;
#X connect 1 0 16 0;
#X connect 2 0 1 0;
#X connect 5 0 2 1;
#X connect 6 0 4 0;
#X connect 6 0 5 0;
#X connect 7 0 29 0;
#X connect 8 0 10 0;
#X connect 8 0 14 0;
#X connect 9 0 8 0;
#X connect 12 0 9 1;
#X connect 13 0 11 0;
#X connect 13 0 12 0;
#X connect 15 0 0 0;
#X connect 15 0 2 0;
#X connect 17 0 25 0;
#X connect 17 0 33 0;
#X connect 17 0 34 0;
#X connect 18 0 19 0;
#X connect 18 0 28 1;
#X connect 18 0 31 1;
#X connect 18 0 32 0;
#X connect 19 0 21 0;
#X connect 20 0 22 0;
#X connect 20 0 27 0;
#X connect 21 0 20 0;
#X connect 24 0 21 1;
#X connect 25 0 18 0;
#X connect 25 0 26 0;
#X connect 26 0 23 0;
#X connect 26 0 24 0;
#X connect 28 0 31 0;
#X connect 29 0 30 0;
#X connect 30 0 28 0;
#X connect 31 0 9 0;
#X connect 32 0 31 0;
#X connect 33 0 6 0;
#X connect 33 0 15 0;
#X connect 34 0 7 0;
#X connect 34 0 13 0;
#X restore 393 445 pd random_LFO;
#X obj 153 158 tgl 28 0 empty empty RNDLFO 0 20 0 10 -258113 -1 -1
0 1;
#X obj 198 157 tgl 28 0 empty empty RNDMan 0 20 0 10 -4032 -1 -1 0
1;
#N canvas 0 50 612 483 equal_power_crossfade 0;
#X obj 33 48 inlet~;
#X obj 244 58 inlet;
#X obj 33 332 outlet~;
#X obj 319 54 loadbang;
#X msg 319 74 0.5;
#X obj 49 194 expr cos($f1 * 3.14159 / 2);
#X obj 244 194 expr sin($f1 * 3.14159 / 2);
#X obj 244 134 clip 0 1;
#N canvas 0 50 450 300 pan_core 0;
#X obj 21 106 inlet~;
#X obj 226 126 inlet;
#X obj 80 453 *~;
#X obj 144 497 outlet~;
#X obj 210 452 *~;
#X obj 226 428 line~;
#X obj 96 428 line~;
#X obj 96 127 inlet;
#X obj 179 104 inlet~;
#X text 244 544 comment;
#X obj 96 389 pack f 5;
#X obj 226 389 pack f 5;
#X text 223 540 Hans-Christoph Steiner \, 2004;
#X text 223 526 Adapted from [pan_core~];
#X connect 0 0 2 0;
#X connect 1 0 11 0;
#X connect 2 0 3 0;
#X connect 4 0 3 0;
#X connect 5 0 4 1;
#X connect 6 0 2 1;
#X connect 7 0 10 0;
#X connect 8 0 4 0;
#X connect 10 0 6 0;
#X connect 11 0 5 0;
#X restore 39 266 pd pan_core;
#X text 256 437 Adapted from [equal_power_pan~] \, Hans-Christoph Steiner
\, 2004;
#X text 411 449 comment;
#X obj 128 46 inlet~;
#X connect 0 0 8 0;
#X connect 1 0 7 0;
#X connect 3 0 4 0;
#X connect 4 0 7 0;
#X connect 5 0 8 1;
#X connect 6 0 8 3;
#X connect 7 0 5 0;
#X connect 7 0 6 0;
#X connect 8 0 2 0;
#X connect 11 0 8 2;
#X restore 13 610 pd equal_power_crossfade;
#X obj 104 191 hsl 128 18 0 1 0 0 empty crossfade Dry|Wet(crossfade)
-2 8 0 10 -257985 -1 -1 12700 1;
#X obj 60 259 *~ 2048;
#X obj 60 276 +~ 1;
#X text 175 611 <-- Abstraction to crossfade smoothly between dry and
wet.;
#X text 720 444 <-- Control the patch using;
#X text 744 459 these toggles and sliders.;
#X text 792 43 <-- Create the LFO waveforms and;
#X text 816 58 initialize a bunch of parameters.;
#X obj 12 654 outlet~;
#X obj 14 8 inlet~;
#X obj 264 160 vsl 15 42 0 127 0 0 empty manual_freq FRQ 0 8 0 10 -262144
-1 -1 1614 1;
#X obj 106 120 tgl 28 0 empty empty SQ|SN 0 14 0 10 -262144 -1 -1 0
1;
#X obj 354 230 sel 0 1;
#X obj 561 33 inlet;
#X obj 562 63 tgl 15 0 empty empty empty 17 7 0 10 -262144 -1 -1 0
1;
#X obj 562 83 switch~;
#X obj 154 -2 inlet;
#X obj 152 22 route 0 1 2 3 4 5 6 7 8, f 35;
#X obj 170 51 * 127;
#X obj 415 64 * 127;
#X obj 212 54 * 30;
#X obj 455 64 > 0.5;
#X obj 270 52 > 0.5;
#X obj 308 52 > 0.5;
#X obj 124 50 * 127;
#X obj 351 52 > 0.5;
#X msg 668 275 \; manual_freq 50 \; lfo_freq 4 \; lfo_upper 50 \; lfo_lower
30 \; toggle_man_lfo 0 \; crossfade 1 \;;
#X msg 406 139 0;
#X obj 802 593 table \$0-waveform_square;
#X obj 802 616 table \$0-waveform_sine;
#X obj 712 84 pack \$0, f 8;
#X msg 742 120 \; \$1-waveform_square sinesum 2051 1 0 0.333333 0 0.2
0 0.142857 0 0.111111 0 0.090909 0 0.076923 0 0.066666 0 0.058823 0
0.052631 0 0.047619 0 0.043478 0 0.04 0 0.037037 \; \$1-waveform_square
normalize 0.5 \;;
#X msg 711 215 \; \$1-waveform_sine sinesum 2051 1 \; \$1-waveform_sine
normalize 0.5 \;;
#X obj 57 321 tabread4~;
#X obj 411 261 pack \$0, f 8;
#X obj 354 261 pack \$0, f 8;
#X msg 355 306 set \$1-waveform_square;
#X msg 374 332 set \$1-waveform_sine;
#X connect 1 0 40 1;
#X connect 2 0 8 0;
#X connect 3 0 9 1;
#X connect 4 0 3 0;
#X connect 5 0 67 0;
#X connect 5 0 68 0;
#X connect 5 0 71 0;
#X connect 6 0 42 0;
#X connect 7 0 15 0;
#X connect 8 0 1 1;
#X connect 9 0 1 1;
#X connect 10 0 8 1;
#X connect 11 0 10 0;
#X connect 12 0 11 0;
#X connect 13 0 4 0;
#X connect 13 0 12 0;
#X connect 15 0 16 0;
#X connect 16 0 2 0;
#X connect 18 0 19 0;
#X connect 19 0 9 0;
#X connect 21 0 28 0;
#X connect 22 0 27 0;
#X connect 25 0 29 0;
#X connect 26 0 25 0;
#X connect 27 0 25 1;
#X connect 27 0 26 0;
#X connect 27 0 30 0;
#X connect 28 0 25 0;
#X connect 28 0 30 1;
#X connect 29 0 24 0;
#X connect 29 0 32 0;
#X connect 30 0 23 0;
#X connect 30 0 34 0;
#X connect 31 0 15 1;
#X connect 32 0 31 0;
#X connect 33 0 16 1;
#X connect 34 0 33 0;
#X connect 35 0 6 0;
#X connect 38 0 37 0;
#X connect 39 0 36 0;
#X connect 40 0 49 0;
#X connect 41 0 40 2;
#X connect 42 0 43 0;
#X connect 43 0 74 0;
#X connect 50 0 1 0;
#X connect 50 0 40 0;
#X connect 51 0 18 0;
#X connect 52 0 53 0;
#X connect 53 0 76 0;
#X connect 53 1 75 0;
#X connect 54 0 55 0;
#X connect 55 0 56 0;
#X connect 57 0 58 0;
#X connect 58 0 65 0;
#X connect 58 1 59 0;
#X connect 58 2 61 0;
#X connect 58 3 63 0;
#X connect 58 4 64 0;
#X connect 58 5 66 0;
#X connect 58 6 41 0;
#X connect 58 7 60 0;
#X connect 58 8 62 0;
#X connect 59 0 22 0;
#X connect 60 0 51 0;
#X connect 61 0 35 0;
#X connect 62 0 52 0;
#X connect 63 0 13 0;
#X connect 64 0 38 0;
#X connect 65 0 21 0;
#X connect 66 0 39 0;
#X connect 68 0 52 0;
#X connect 71 0 72 0;
#X connect 71 0 73 0;
#X connect 74 0 7 0;
#X connect 75 0 78 0;
#X connect 76 0 77 0;
#X connect 77 0 74 0;
#X connect 78 0 74 0;
#X coords 0 -1 1 1 186 116 1 100 100;
