#N canvas 0 54 1366 686 10;
#X obj 236 518 vcf~ 100;
#N canvas 3 84 307 317 triangleLFO 0;
#X obj 114 157 *~ -1;
#X obj 114 187 +~ 0.5;
#X obj 52 227 *~ 2;
#X obj 52 87 phasor~;
#X obj 52 45 inlet frequency;
#X obj 157 45 inlet phase;
#X obj 52 257 outlet~;
#X obj 114 127 max~ 0.5;
#X obj 52 127 min~ 0.5;
#X msg 157 67 0;
#X connect 0 0 1 0;
#X connect 1 0 2 0;
#X connect 2 0 6 0;
#X connect 3 0 7 0;
#X connect 3 0 8 0;
#X connect 4 0 3 0;
#X connect 5 0 9 0;
#X connect 7 0 0 0;
#X connect 8 0 2 0;
#X connect 9 0 3 1;
#X restore 338 285 pd triangleLFO;
#N canvas 268 84 307 317 sineLFO 0;
#X obj 52 45 inlet frequency;
#X obj 157 45 inlet phase;
#X obj 52 197 outlet~;
#X obj 52 87 osc~;
#X msg 157 67 0.5;
#X obj 52 127 *~ 0.5;
#X obj 52 167 +~ 0.5;
#X connect 0 0 3 0;
#X connect 1 0 4 0;
#X connect 3 0 5 0;
#X connect 4 0 3 1;
#X connect 5 0 6 0;
#X connect 6 0 2 0;
#X restore 439 285 pd sineLFO;
#X obj 338 254 t f f;
#N canvas 158 293 311 322 xfade 0;
#X obj 76 57 inlet~;
#X obj 142 57 inlet~;
#X obj 77 198 outlet~;
#X obj 201 57 inlet;
#X obj 201 127 vline~;
#X obj 141 136 -~;
#X obj 141 156 *~;
#X obj 201 79 pack f 100;
#X connect 0 0 5 1;
#X connect 0 0 2 0;
#X connect 1 0 5 0;
#X connect 3 0 7 0;
#X connect 4 0 6 1;
#X connect 5 0 6 0;
#X connect 6 0 2 0;
#X connect 7 0 4 0;
#X restore 338 371 pd xfade;
#X text 309 453 Frequency range;
#X text 303 476 Offset;
#X text 292 528 Q;
#X text 504 284 Two different LFOs;
#X obj 521 189 sel 1;
#X obj 258 453 *~ 2000;
#X obj 258 475 +~ 500;
#X obj 149 354 line~;
#X obj 150 412 *~;
#X obj 85 355 line~;
#X obj 85 275 r \$0-bp;
#X obj 187 412 *~;
#X obj 148 329 pack 1 50;
#X obj 85 329 pack 1 50;
#X obj 101 101 cnv 15 184 114 empty \$0-color empty 2 10 0 12 -233017
-262144 0;
#X obj 106 156 hsl 110 15 200 800 0 1 \$0-offset \$0-offset offset
20 8 0 10 -262144 -1 -1 5450 1;
#X obj 106 176 hsl 110 15 0 20 0 1 \$0-q \$0-q Q 20 8 0 10 -262144
-1 -1 5450 1;
#X obj 107 197 tgl 15 0 \$0-bp empty bypass 17 7 0 10 -262144 -1 -1
0 1;
#X obj 107 13 loadbang;
#X msg 250 56 0;
#X obj 106 136 hsl 110 15 1000 3000 0 1 \$0-range \$0-range range 20
8 0 10 -262144 -1 -1 8175 1;
#X obj 166 197 hradio 15 1 0 2 \$0-lfo \$0-lfo LFO 33 8 0 10 -262144
-1 -1 0;
#X obj 106 116 hsl 110 15 0 5 0 1 \$0-freq \$0-freq frequency 20 8
0 10 -262144 -1 -1 4360 1;
#X obj 414 334 r \$0-lfo;
#X obj 297 427 r \$0-range;
#X obj 369 425 r \$0-offset;
#X obj 281 495 r \$0-q;
#X msg 112 56 2;
#X msg 146 56 2500;
#X msg 200 56 500;
#X obj 767 511 line~;
#X obj 237 583 *~;
#X obj 237 403 clip~ -1 1;
#X obj 338 227 r \$0-freq;
#X obj 237 364 *~ 3;
#X msg 62 56 10;
#X obj 772 327 vsl 15 80 0 1 0 0 empty empty gn 0 -9 0 10 -262144 -1
-1 7110 1;
#X obj 164 251 inlet~;
#X obj 237 608 outlet~;
#X obj 85 303 == 0;
#X obj 147 303 == 1;
#X obj 380 12 inlet;
#X obj 598 119 switch~;
#X obj 589 28 inlet;
#X obj 380 40 route 0 1 2;
#X msg 771 468 \$1 50;
#X obj 591 75 tgl 15 0 empty empty empty 17 7 0 10 -262144 -1 -1 0
1;
#X obj 324 76 * 5;
#X obj 354 74 * 2000;
#X obj 354 96 + 1000;
#X obj 402 74 * 600;
#X obj 402 96 + 200;
#X msg 290 56 0.9;
#X text 103 100 WHA(AUTO);
#X connect 0 0 36 0;
#X connect 0 1 36 0;
#X connect 1 0 4 0;
#X connect 2 0 4 1;
#X connect 3 0 1 0;
#X connect 3 1 2 0;
#X connect 4 0 10 0;
#X connect 9 0 1 1;
#X connect 9 0 2 1;
#X connect 10 0 11 0;
#X connect 11 0 0 1;
#X connect 12 0 16 1;
#X connect 13 0 39 0;
#X connect 14 0 13 1;
#X connect 15 0 44 0;
#X connect 15 0 45 0;
#X connect 16 0 36 0;
#X connect 17 0 12 0;
#X connect 18 0 14 0;
#X connect 23 0 24 0;
#X connect 23 0 40 0;
#X connect 23 0 32 0;
#X connect 23 0 33 0;
#X connect 23 0 34 0;
#X connect 23 0 57 0;
#X connect 24 0 22 0;
#X connect 24 0 26 0;
#X connect 28 0 4 2;
#X connect 29 0 10 1;
#X connect 30 0 11 1;
#X connect 31 0 0 2;
#X connect 32 0 27 0;
#X connect 33 0 25 0;
#X connect 34 0 20 0;
#X connect 35 0 36 1;
#X connect 36 0 43 0;
#X connect 37 0 0 0;
#X connect 38 0 3 0;
#X connect 39 0 37 0;
#X connect 40 0 21 0;
#X connect 41 0 50 0;
#X connect 42 0 13 0;
#X connect 42 0 16 0;
#X connect 44 0 18 0;
#X connect 45 0 17 0;
#X connect 46 0 49 0;
#X connect 48 0 9 0;
#X connect 48 0 51 0;
#X connect 49 0 52 0;
#X connect 49 1 53 0;
#X connect 49 2 55 0;
#X connect 50 0 35 0;
#X connect 51 0 47 0;
#X connect 52 0 27 0;
#X connect 53 0 54 0;
#X connect 54 0 25 0;
#X connect 55 0 56 0;
#X connect 56 0 20 0;
#X connect 57 0 41 0;
#X coords 0 -1 1 1 186 116 1 100 100;
