#N canvas 3 54 1425 818 10;
#X obj 28 424 *~;
#X floatatom 105 116 0 0 0 2 gain(dB) - -;
#X text 112 197 (give some 190dB and notice no clipping);
#X obj 27 383 z~ 64;
#X obj 28 465 hip~ 1;
#X obj 29 515 outlet~;
#X obj 28 111 inlet~;
#X text 30 90 audio;
#X text 903 307 set limit/holdtime/releasetime at once;
#X obj 421 27 loadbang;
#X msg 908 325 set 98 40 150;
#X obj 596 23 inlet;
#X obj 43 330 limiter~ 98 1;
#X obj 27 290 *~;
#X obj 48 226 line~;
#X obj 52 165 f;
#X obj 52 140 dbtorms;
#X msg 50 188 \$1 20;
#X msg 143 231 limit \$1;
#X floatatom 143 140 5 0 100 2 limit - -, f 5;
#X obj 594 44 route 0 1;
#X obj 343 313 * 120;
#X obj 344 334 + 0.5;
#X obj 344 356 int;
#X obj 433 333 + 0.5;
#X obj 433 355 int;
#X obj 434 311 * 100;
#X msg 314 116 98;
#X obj 421 49 t b b;
#X msg 107 55 120;
#X connect 0 0 4 0;
#X connect 1 0 16 0;
#X connect 3 0 0 0;
#X connect 4 0 5 0;
#X connect 6 0 13 0;
#X connect 9 0 28 0;
#X connect 10 0 12 0;
#X connect 11 0 20 0;
#X connect 12 0 0 1;
#X connect 13 0 3 0;
#X connect 13 0 12 0;
#X connect 14 0 13 1;
#X connect 15 0 17 0;
#X connect 16 0 15 0;
#X connect 17 0 14 0;
#X connect 18 0 12 0;
#X connect 19 0 18 0;
#X connect 20 0 21 0;
#X connect 20 1 26 0;
#X connect 21 0 22 0;
#X connect 22 0 23 0;
#X connect 23 0 1 0;
#X connect 24 0 25 0;
#X connect 25 0 19 0;
#X connect 26 0 24 0;
#X connect 27 0 19 0;
#X connect 28 0 29 0;
#X connect 28 1 27 0;
#X connect 29 0 1 0;
#X coords 0 -1 1 1 85 60 2 100 100;
