#N canvas 43 24 997 652 10;
#X obj 90 577 dac~;
#X obj 449 34 f;
#X floatatom 565 -5 5 0 0 0 - - -;
#X floatatom 465 59 5 0 0 0 - - -;
#X text 605 -6 <-shows 1 if connected;
#X text 505 58 <-step index 0-15;
#X obj 620 313 vsl 8 128 0.5 100 0 0 empty empty empty 0 -8 32 8 -262144
-1 -1 0 1;
#X obj 633 313 vsl 8 128 0.5 500 0 0 empty empty empty 0 -8 32 8 -262144
-1 -1 0 1;
#X text 576 429 Attack;
#X text 644 429 Release;
#X obj 584 467 send AAttack;
#X obj 584 488 send ARelease;
#X text 584 508 Amplitude EG;
#X obj 239 440 *~;
#X obj 7 503 AccessLib/output~;
#X obj 45 314 vsl 15 128 0 127 0 0 empty empty empty 0 -8 32 8 -262144
-1 -1 0 1;
#X obj 83 431 tgl 15 0 empty empty empty 0 -6 32 8 -262144 -1 -1 0
1;
#X obj 71 384 hsl 128 15 0 127 0 0 empty empty empty -2 -6 32 8 -262144
-1 -1 0 1;
#X obj 523 203 bng 15 250 50 0 empty empty empty 0 -6 32 8 -262144
-1 -1;
#X obj 449 -5 netreceive 3000;
#N canvas 0 20 450 300 graph1 0;
#X array sequenz 16 float 1;
#A 0 0.214285 0.471425 0.335712 0.0857144 0.0857144 0.0857144 0.178571
0.171428 0.142857 0.0785716 -0.149997 -0.0357129 0.0714288 0.257141
0.257141 0.114285;
#X array intens 16 float 1;
#A 0 0.0785713 0.171427 0.399997 0.48571 0.342854 0.43571 0.557138
0.664279 0.549995 0.349997 0.385711 0.514281 0.482139 0.314283 0.292855
0.271426;
#X coords 0 1 15 0 200 140 1;
#X restore 690 15 graph;
#X obj 449 89 tabread sequenz;
#X obj 523 150 > 0;
#X obj 523 171 select 1;
#X text 22 311 vol;
#X text 88 369 panorama;
#X text 66 419 mute;
#X text 431 198 manualtrigger;
#X obj 239 380 osc~;
#X obj 327 235 osc~;
#X obj 342 265 *~;
#N canvas 0 20 539 583 envelopeOP1~ 0;
#X obj 36 468 line~;
#X obj 46 268 delay 2;
#X obj 101 52 receive AAttack;
#X obj 86 290 receive ARelease;
#X obj 36 125 int 0.5;
#X msg 46 371 0 \$1;
#X obj 73 236 + 1;
#X obj 46 332 int 1000;
#X obj 14 12 inlet;
#X text 58 12 <--recieves the triggering bang;
#X text 81 489 output the AR Envelope;
#X obj 36 510 outlet~;
#X msg 36 149 0.5 \$1;
#X connect 0 0 11 0;
#X connect 1 0 7 0;
#X connect 2 0 4 1;
#X connect 2 0 6 0;
#X connect 3 0 7 1;
#X connect 4 0 12 0;
#X connect 5 0 0 0;
#X connect 6 0 1 1;
#X connect 7 0 5 0;
#X connect 8 0 4 0;
#X connect 8 0 1 0;
#X connect 12 0 0 0;
#X restore 255 412 pd envelopeOP1~;
#N canvas 0 20 547 591 envelopeOP2~ 0;
#X obj 36 468 line~;
#X obj 46 268 delay 2;
#X obj 36 125 int 0.5;
#X msg 46 371 0 \$1;
#X obj 73 236 + 1;
#X obj 46 332 int 1000;
#X obj 14 12 inlet;
#X text 58 12 <--recieves the triggering bang;
#X text 81 489 output the AR Envelope;
#X obj 36 510 outlet~;
#X msg 36 149 0.5 \$1;
#X obj 101 52 receive AAttack2;
#X obj 86 290 receive ARelease2;
#X connect 0 0 9 0;
#X connect 1 0 5 0;
#X connect 2 0 10 0;
#X connect 3 0 0 0;
#X connect 4 0 1 1;
#X connect 5 0 3 0;
#X connect 6 0 2 0;
#X connect 6 0 1 0;
#X connect 10 0 0 0;
#X connect 11 0 2 1;
#X connect 11 0 4 0;
#X connect 12 0 5 1;
#X restore 399 225 pd envelopeOP2~;
#X obj 342 299 *~;
#X obj 805 313 vsl 8 128 0.5 100 0 0 empty empty empty 0 -8 32 8 -262144
-1 -1 0 1;
#X obj 818 313 vsl 8 128 0.5 500 0 0 empty empty empty 0 -8 32 8 -262144
-1 -1 0 1;
#X text 761 433 Attack;
#X text 829 433 Release;
#X obj 342 89 tabread intens;
#X obj 190 195 vsl 8 128 0 5000 0 0 empty empty empty 0 -8 32 8 -262144
-1 -1 0 1;
#X obj 269 280 tgl 15 0 empty empty empty 0 -6 32 8 -262144 -1 -1 0
1;
#X obj 239 312 *~;
#X obj 190 347 sig~;
#X obj 769 467 send AAttack2;
#X obj 769 488 send ARelease2;
#X text 769 508 Amplitude EG 2;
#X obj 400 145 * 10000;
#X obj 264 66 vsl 8 128 0 5000 0 0 empty empty empty 0 -8 32 8 -262144
-1 -1 0 1;
#X obj 358 175 tgl 15 0 empty empty empty 0 -6 32 8 -262144 -1 -1 0
1;
#X obj 342 203 *~;
#X obj 264 205 sig~;
#X msg 581 237 \; intens 0 0 0 0 0 0 0 0 0 0 0 0 0 0 0 0 0 \;;
#X msg 581 270 \; sequenz 0 0.2 0.5 0.3 0.7 \;;
#X text 155 316 tune;
#X text 231 182 tune;
#X text 310 161 sequence on;
#X text 273 374 Operator 1 the carrier;
#X text 378 256 Operator 2 the modulator;
#X obj 342 124 * 800;
#X text 350 560 2 Op FM Synthesizer by Malte Steiner Access Space Sheffield
\, UK;
#X text 3 -11 FM Synthesis was invented by John Chowning to calculate
rich signals with low cpuload. Later Yamaha showed up and licence the
synthesis. 1983 they created the most famous FM Synth ever \, the DX
7 which got 6 sinus generators \, which they called operators.;
#X text 594 157 if sequenz value goes below 0 \, sequence pauses. But
attention when you drag all values out of the graph \, you can only
get them back by pressing on the sequenz button below.;
#X text 286 283 <-sequence to frequence on;
#X connect 1 0 3 0;
#X connect 1 0 21 0;
#X connect 1 0 38 0;
#X connect 6 0 10 0;
#X connect 7 0 11 0;
#X connect 13 0 14 0;
#X connect 14 0 0 0;
#X connect 14 1 0 1;
#X connect 15 0 14 1;
#X connect 16 0 14 2;
#X connect 17 0 14 3;
#X connect 18 0 31 0;
#X connect 18 0 32 0;
#X connect 19 0 1 0;
#X connect 19 1 2 0;
#X connect 21 0 22 0;
#X connect 21 0 58 0;
#X connect 22 0 23 0;
#X connect 23 0 18 0;
#X connect 28 0 13 0;
#X connect 29 0 30 0;
#X connect 30 0 33 0;
#X connect 31 0 13 1;
#X connect 32 0 30 1;
#X connect 33 0 28 0;
#X connect 34 0 43 0;
#X connect 35 0 44 0;
#X connect 38 0 46 0;
#X connect 39 0 42 0;
#X connect 40 0 41 1;
#X connect 41 0 28 0;
#X connect 42 0 28 0;
#X connect 46 0 33 1;
#X connect 47 0 50 0;
#X connect 48 0 49 1;
#X connect 49 0 29 0;
#X connect 50 0 29 0;
#X connect 58 0 49 0;
#X connect 58 0 41 0;
