#N canvas 270 135 719 496 10;
#X obj 203 410 dac~;
#N canvas 137 269 1064 585 reverb 0;
#X obj 77 37 inlet~;
#X obj 77 85 echo echo-del2 8.45346;
#X obj 77 61 echo echo-del1 5.43216;
#X obj 77 109 echo echo-del3 13.4367;
#X obj 77 133 echo echo-del4 21.5463;
#X obj 77 157 echo echo-del5 34.3876;
#X obj 77 181 echo echo-del6 55.5437;
#X obj 253 545 delwrite~ loop-del1 70;
#X obj 295 157 delread~ loop-del1 70;
#X obj 466 157 delread~ loop-del2 81.9345;
#X obj 416 545 delwrite~ loop-del2 81.9345;
#X obj 665 154 delread~ loop-del3 94.7545;
#X obj 855 154 delread~ loop-del4 115.945;
#X obj 622 545 delwrite~ loop-del3 94.7545;
#X obj 820 545 delwrite~ loop-del4 115.945;
#X obj 282 215 +~;
#X obj 443 215 +~;
#X obj 187 251 outlet~;
#X obj 364 244 outlet~;
#X obj 251 337 +~;
#X obj 619 328 +~;
#X obj 408 334 -~;
#X obj 791 327 -~;
#X obj 251 391 +~;
#X obj 411 397 +~;
#X obj 615 407 -~;
#X obj 785 388 -~;
#X obj 620 474 *~ 0;
#X obj 620 511 lop~ 5000;
#X obj 415 472 *~ 0;
#X obj 415 510 lop~ 5000;
#X obj 246 475 *~ 0;
#X obj 246 513 lop~ 5000;
#X obj 821 472 *~ 0;
#X obj 821 506 lop~ 5000;
#X obj 924 254 inlet;
#X obj 924 278 moses 100;
#X obj 926 325 moses -100;
#X msg 979 303 100;
#X msg 930 349 -100;
#X obj 934 386 / 200;
#X connect 0 0 2 0;
#X connect 1 0 3 0;
#X connect 1 1 3 1;
#X connect 2 0 1 0;
#X connect 2 1 1 1;
#X connect 3 0 4 0;
#X connect 3 1 4 1;
#X connect 4 0 5 0;
#X connect 4 1 5 1;
#X connect 5 0 6 0;
#X connect 5 1 6 1;
#X connect 6 0 15 0;
#X connect 6 1 16 0;
#X connect 8 0 15 1;
#X connect 9 0 16 1;
#X connect 11 0 19 1;
#X connect 11 0 21 1;
#X connect 12 0 20 1;
#X connect 12 0 22 1;
#X connect 15 0 17 0;
#X connect 15 0 19 0;
#X connect 15 0 21 0;
#X connect 16 0 18 0;
#X connect 16 0 20 0;
#X connect 16 0 22 0;
#X connect 19 0 23 0;
#X connect 19 0 25 0;
#X connect 20 0 25 1;
#X connect 20 0 23 1;
#X connect 21 0 24 0;
#X connect 21 0 26 0;
#X connect 22 0 24 1;
#X connect 22 0 26 1;
#X connect 23 0 27 0;
#X connect 24 0 29 0;
#X connect 25 0 31 0;
#X connect 26 0 33 0;
#X connect 27 0 28 0;
#X connect 28 0 13 0;
#X connect 29 0 30 0;
#X connect 30 0 10 0;
#X connect 31 0 32 0;
#X connect 32 0 7 0;
#X connect 33 0 34 0;
#X connect 34 0 14 0;
#X connect 35 0 36 0;
#X connect 36 0 37 0;
#X connect 36 1 38 0;
#X connect 37 0 39 0;
#X connect 37 1 40 0;
#X connect 38 0 37 0;
#X connect 39 0 40 0;
#X connect 40 0 33 1;
#X connect 40 0 31 1;
#X connect 40 0 29 1;
#X connect 40 0 27 1;
#X restore 203 309 pd reverb;
#X obj 291 173 vsl 8 128 0 1 0 0 empty empty empty 0 -8 32 8 -262144
-1 -1 3810 1;
#X obj 449 34 f;
#X floatatom 500 2 5 0 0 0 - - -;
#X floatatom 465 59 5 0 0 0 - - -;
#X text 540 -2 <-shows 1 if connected;
#X text 505 56 <-step index 0-15;
#X obj 476 223 vsl 8 128 0.5 100 0 0 empty empty empty 0 -8 32 8 -262144
-1 -1 0 1;
#X obj 489 223 vsl 8 128 0.5 500 0 0 empty empty empty 0 -8 32 8 -262144
-1 -1 0 1;
#X text 432 342 Attack;
#X text 500 342 Release;
#X obj 440 377 send AAttack;
#X obj 440 397 send ARelease;
#X text 443 417 Amplitude EG;
#X obj 177 146 AccessLib/formantia~;
#X obj 5 187 *~;
#X obj 5 361 AccessLib/output~;
#X obj 43 219 vsl 15 128 0 127 0 0 empty empty empty 0 -8 32 8 -262144
-1 -1 0 1;
#X obj 81 334 tgl 15 0 empty empty empty 0 -6 32 8 -262144 -1 -1 0
1;
#X obj 69 287 hsl 128 15 0 127 0 0 empty empty empty -2 -6 32 8 -262144
-1 -1 0 1;
#X obj 5 120 bng 15 250 50 0 empty empty empty 0 -6 32 8 -262144 -1
-1;
#X obj 384 1 netreceive 3000;
#X obj 338 82 tabread formant;
#N canvas 0 20 450 300 graph1 0;
#X array sequenz 16 float 1;
#A 0 0.278571 0.271428 0.264285 0.264285 0.264285 0.264285 0.271428
0.292856 0.299999 0.32857 0.342856 0.357142 0.392856 0.357142 0.392856
0.399999;
#X array formant 16 float 1;
#A 0 0.0928569 0.342857 0.357142 0.328571 0.328571 0.3 0.285714 0.264286
0.264286 0.264286 0.285714 0.292857 0.228571 0.0714284 0.0571427 0
;
#X coords 0 1 15 0 200 140 1;
#X restore 119 -4 graph;
#X obj 449 82 tabread sequenz;
#X obj 5 70 > 0;
#X obj 5 96 select 1;
#X obj 495 120 send note;
#X obj 5 29 receive note;
#N canvas 0 20 539 583 envelope~ 0;
#X obj 36 468 line~;
#X obj 46 268 delay 2;
#X obj 101 52 receive AAttack;
#X obj 86 290 receive ARelease;
#X obj 36 125 int 0.5;
#X msg 46 371 0 \$1;
#X obj 73 236 + 1;
#X obj 46 332 int 1000;
#X obj 14 12 inlet;
#X text 58 12 <--recieves the triggering bang;
#X text 81 489 output the AR Envelope;
#X obj 36 510 outlet~;
#X msg 36 149 0.5 \$1;
#X connect 0 0 11 0;
#X connect 1 0 7 0;
#X connect 2 0 4 1;
#X connect 2 0 6 0;
#X connect 3 0 7 1;
#X connect 4 0 12 0;
#X connect 5 0 0 0;
#X connect 6 0 1 1;
#X connect 7 0 5 0;
#X connect 8 0 4 0;
#X connect 8 0 1 0;
#X connect 12 0 0 0;
#X restore 5 146 pd envelope~;
#X obj 449 120 * 1000;
#X obj 203 241 *~ 2;
#X obj 304 173 vsl 8 128 0 100 0 0 empty empty empty 0 -8 32 8 -262144
-1 -1 0 1;
#X text 18 215 vol;
#X text 86 272 panorama;
#X text 64 322 mute;
#X text 199 168 reverb amount;
#X text 312 168 reverb decay;
#X text 273 459 Formantsynthesizer by Malte Steiner Access Space Sheffield
UK;
#X text 15 131 manualtrigger;
#X obj 228 183 loadbang;
#X msg 228 205 0.3;
#X text 7 431 This synthesizer creates vowels with additive synthesis
of sinusoidal tones. No samples are involved!;
#X text 166 329 reverb from the PD documentary.;
#X text 166 340 Eats a lot of CPU cycles.;
#X connect 1 0 0 0;
#X connect 1 1 0 1;
#X connect 2 0 32 1;
#X connect 3 0 5 0;
#X connect 3 0 23 0;
#X connect 3 0 25 0;
#X connect 8 0 12 0;
#X connect 9 0 13 0;
#X connect 15 0 16 1;
#X connect 16 0 17 0;
#X connect 16 0 32 0;
#X connect 17 0 0 0;
#X connect 17 1 0 1;
#X connect 18 0 17 1;
#X connect 19 0 17 2;
#X connect 20 0 17 3;
#X connect 21 0 30 0;
#X connect 22 0 3 0;
#X connect 22 1 4 0;
#X connect 23 0 15 2;
#X connect 25 0 28 0;
#X connect 25 0 31 0;
#X connect 26 0 27 0;
#X connect 27 0 21 0;
#X connect 29 0 26 0;
#X connect 30 0 16 0;
#X connect 31 0 15 0;
#X connect 32 0 1 0;
#X connect 33 0 1 1;
#X connect 41 0 42 0;
#X connect 42 0 2 0;
