#N canvas 105 22 982 693 10;
#X obj 510 575 loadbang;
#X obj 274 36 f;
#X obj 272 114 mtof;
#X obj 14 573 *~;
#X obj 214 4 netreceive 3000;
#X floatatom 325 4 5 0 0 0 - - -;
#X obj 14 539 line~;
#X floatatom 301 62 5 0 0 0 - - -;
#X floatatom 329 134 5 0 0 0 - - -;
#X obj 126 107 bng 15 250 50 0 empty empty empty 0 -6 32 8 -262144
-1 -1;
#X obj 274 83 tabread sequenz2;
#N canvas 0 20 450 300 graph2 0;
#X array sequenz2 100 float 1;
#A 0 25 -19.2858 54.2858 53.5715 51.4286 50 50 -16.4286 -14.2858 52.1429
48.8096 45.4762 42.1429 37.8572 30 50 27.8571 23.5714 0 0 0 0 0 0 0
0 0 0 0 0 0 0 0 0 0 0 0 0 0 0 0 0 0 0 0 0 0 0 0 0 0 0 0 0 0 0 0 0 0
0 0 0 0 0 0 0 0 0 0 0 0 0 0 0 0 0 0 0 0 0 0 0 0 0 0 0 0 0 0 0 0 0 0
0 0 0 0 0 0 0;
#X array cutoff 16 float 1;
#A 0 21.4286 24.2858 24.2858 25.7143 5.35716 3.92858 3.92858 8.92859
20.3572 28.9286 40.3572 45.3572 25 22.8572 20 2.85715;
#X coords 0 100 15 0 200 140 1;
#X restore 746 9 graph;
#X obj 272 200 phasor~;
#X obj 24 339 delay 2;
#X obj 92 208 delay 2;
#X obj 194 361 vcf~ 5;
#X floatatom 260 347 5 0 0 0 - - -;
#X obj 146 299 line~;
#X msg 510 600 \; sequenz2 0 25 50 30 55 25 60 30 57 25 63 30 65 25
70 30 50;
#X text 374 3 <-shows 1 if connected;
#X obj 27 41 key;
#X obj 27 66 select 32;
#X text 3 19 trigger the sound with space;
#X text 141 108 <- or click here;
#X text 207 380 Filter section;
#X obj 786 191 vsl 8 128 0.5 100 0 0 empty empty empty 0 -8 32 8 -262144
-1 -1 200 1;
#X obj 799 191 vsl 8 128 0.5 500 0 0 empty empty empty 0 -8 32 8 -262144
-1 -1 7200 1;
#X text 750 320 Attack;
#X text 801 320 Release;
#X obj 750 345 send AAttack;
#X obj 750 365 send ARelease;
#X obj 11 110 receive AAttack;
#X obj 64 361 receive ARelease;
#X obj 14 196 int 0.5;
#X obj 113 172 + 1;
#X msg 92 278 0 \$1;
#X obj 92 257 int 1000;
#X msg 14 220 1 \$1;
#X msg 24 442 0 \$1;
#X obj 51 307 + 1;
#X obj 24 403 int 1000;
#X obj 890 190 vsl 8 128 0.5 100 0 0 empty empty empty 0 -8 32 8 -262144
-1 -1 100 1;
#X obj 903 190 vsl 8 128 0.5 500 0 0 empty empty empty 0 -8 32 8 -262144
-1 -1 1800 1;
#X text 854 320 Attack;
#X text 905 320 Release;
#X obj 854 345 send FAttack;
#X obj 854 365 send FRelease;
#X obj 150 124 receive FAttack;
#X obj 106 234 receive FRelease;
#X obj 147 162 int 0.5;
#X text 342 63 <-step index 0-15;
#X obj 328 200 osc~;
#X obj 481 191 vsl 8 128 0 10 0 0 empty empty empty 0 -8 32 8 -262144
-1 -1 1270 1;
#X msg 328 159 bang;
#X obj 367 200 noise~;
#X obj 518 191 vsl 8 128 0 1 0 0 empty empty empty 0 -8 32 8 -262144
-1 -1 8400 1;
#X obj 546 191 vsl 8 128 0 1 0 0 empty empty empty 0 -8 32 8 -262144
-1 -1 7800 1;
#X obj 572 191 vsl 8 128 0 1 0 0 empty empty empty 0 -8 32 8 -262144
-1 -1 300 1;
#X obj 272 232 *~;
#X obj 328 271 *~;
#X obj 325 308 *~;
#X obj 518 334 send MixSaw;
#X obj 518 353 send MixSinus;
#X obj 518 373 send MixNoise;
#X obj 344 229 receive MixSaw;
#X obj 354 253 receive MixSinus;
#X obj 354 288 receive MixNoise;
#X obj 328 179 *;
#X floatatom 476 333 5 0 0 0 - - -;
#X msg 481 160 1;
#X text 397 146 press for normal tune;
#X text 448 159 -->;
#X text 411 346 Detune Sinus;
#X obj 643 190 vsl 8 128 1 10000 0 0 empty empty empty 0 -8 32 8 -262144
-1 -1 1360 1;
#X obj 678 190 vsl 8 128 0.01 100 0 0 empty empty empty 0 -8 32 8 -262144
-1 -1 400 1;
#X obj 643 334 send Cutoff;
#X obj 148 325 *~;
#X obj 175 267 receive Cutoff;
#X obj 193 295 sig~;
#X msg 147 189 1 \$1;
#X obj 643 355 send Resonanz;
#X obj 226 445 + 1;
#X obj 194 467 *~;
#X obj 274 402 receive Resonanz;
#X obj 391 83 tabread cutoff;
#X obj 625 101 tgl 15 0 empty empty empty 0 -6 32 8 -262144 -1 -1 1
1;
#X obj 598 124 *;
#X obj 598 147 select 0;
#X obj 243 423 * 0.5;
#X obj 614 168 * 50;
#X text 491 397 Oscillators;
#X text 652 396 Filter;
#X text 754 395 Amplitude EG;
#X text 870 394 Filter EG;
#X text 637 647 by Malte Steiner \, Access Space Sheffield \, UK;
#X obj 300 482 vsl 15 128 1.27 127 0 0 empty empty empty 0 -8 32 8
-262144 -1 -1 9500 1;
#X obj 261 538 tgl 30 0 empty empty empty 0 -6 32 8 -262144 -1 -1 0
1;
#X obj 262 627 hsl 128 15 0 127 0 0 empty empty empty -2 -6 32 8 -262144
-1 -1 4200 1;
#X obj 47 632 AccessLib/output;
#X text 260 524 MUTE;
#X text 319 478 Main Volume;
#X text 344 608 Pan;
#X text 392 624 Right;
#X text 229 624 Left;
#X obj 188 38 >= 0;
#X obj 170 66 select 0;
#X text 589 497 this is a basic subtractive synthesizer;
#X text 797 21 Step - Sequencer;
#X connect 0 0 18 0;
#X connect 1 0 7 0;
#X connect 1 0 10 0;
#X connect 1 0 84 0;
#X connect 2 0 12 0;
#X connect 2 0 67 0;
#X connect 3 0 98 0;
#X connect 4 0 1 0;
#X connect 4 1 5 0;
#X connect 6 0 3 0;
#X connect 9 0 13 0;
#X connect 9 0 14 0;
#X connect 9 0 33 0;
#X connect 9 0 49 0;
#X connect 10 0 2 0;
#X connect 10 0 8 0;
#X connect 10 0 104 0;
#X connect 12 0 58 0;
#X connect 13 0 40 0;
#X connect 14 0 36 0;
#X connect 15 0 82 0;
#X connect 16 0 15 2;
#X connect 17 0 76 0;
#X connect 20 0 21 0;
#X connect 21 0 9 0;
#X connect 25 0 29 0;
#X connect 26 0 30 0;
#X connect 31 0 33 1;
#X connect 31 0 39 0;
#X connect 32 0 40 1;
#X connect 33 0 37 0;
#X connect 34 0 14 1;
#X connect 35 0 17 0;
#X connect 36 0 35 0;
#X connect 37 0 6 0;
#X connect 38 0 6 0;
#X connect 39 0 13 1;
#X connect 40 0 38 0;
#X connect 41 0 45 0;
#X connect 42 0 46 0;
#X connect 47 0 49 0;
#X connect 47 0 34 0;
#X connect 48 0 36 1;
#X connect 49 0 79 0;
#X connect 51 0 59 0;
#X connect 52 0 68 0;
#X connect 53 0 67 0;
#X connect 54 0 60 0;
#X connect 55 0 61 0;
#X connect 56 0 62 0;
#X connect 57 0 63 0;
#X connect 58 0 15 0;
#X connect 59 0 15 0;
#X connect 60 0 15 0;
#X connect 64 0 58 1;
#X connect 65 0 59 1;
#X connect 66 0 60 1;
#X connect 67 0 51 0;
#X connect 68 0 67 1;
#X connect 68 0 53 0;
#X connect 69 0 52 0;
#X connect 73 0 75 0;
#X connect 74 0 80 0;
#X connect 76 0 15 1;
#X connect 77 0 78 0;
#X connect 77 0 76 1;
#X connect 78 0 15 1;
#X connect 79 0 17 0;
#X connect 81 0 82 1;
#X connect 82 0 3 1;
#X connect 83 0 16 0;
#X connect 83 0 88 0;
#X connect 84 0 86 0;
#X connect 85 0 86 1;
#X connect 86 0 87 0;
#X connect 87 1 89 0;
#X connect 88 0 81 0;
#X connect 89 0 73 0;
#X connect 95 0 98 1;
#X connect 96 0 98 2;
#X connect 97 0 98 3;
#X connect 104 0 105 0;
#X connect 105 1 9 0;
