#N canvas 148 148 664 660 10;
#X obj -111 14 inlet;
#X obj -188 144 mtof;
#X obj -189 609 *~;
#X obj -190 630 outlet~;
#X obj 391 66 != 0;
#X obj -188 173 vline~;
#X obj -188 198 phasor~;
#X obj -111 49 unpack f f;
#X floatatom 263 180 5 0 0 0 - - -;
#X obj 391 630 outlet;
#X obj 219 630 outlet;
#X floatatom 97 131 5 0 0 0 - - -;
#X obj 68 263 r decay;
#X obj 301 251 bng 15 250 50 0 empty empty empty 17 7 0 10 -262144
-1 -1;
#X obj 179 250 bng 15 250 50 0 empty empty empty 17 7 0 10 -262144
-1 -1;
#X obj 116 155 > 0;
#X obj 97 180 spigot;
#X obj 52 180 spigot;
#X msg 137 265 1;
#X msg 218 226 set \$1;
#X msg 218 265 59;
#X msg 338 266 59;
#X msg 257 266 0;
#X obj 276 313 pack f f;
#X obj 276 337 s off;
#X floatatom 281 593 5 0 0 0 - - -;
#X obj 281 630 outlet;
#X obj 68 335 line;
#X msg 68 309 0 1000;
#X msg 68 285 set 0 \$1;
#X floatatom 68 361 5 0 0 0 - - -;
#X obj 34 287 bng 15 250 50 0 empty empty empty 17 7 0 10 -262144 -1
-1;
#X msg 9 306 7.8;
#X msg 9 265 set \$1;
#X obj 9 336 bng 15 250 50 0 empty empty empty 17 7 0 10 -262144 -1
-1;
#X obj 68 386 == 0;
#X obj 60 416 spigot;
#X obj -76 328 line;
#X floatatom -76 354 5 0 0 0 - - -;
#X obj -61 171 bng 15 250 50 0 empty empty empty 17 7 0 10 -262144
-1 -1;
#X msg -76 193 7.8;
#X msg -76 149 set \$1;
#X msg -76 302 7.8 10;
#X obj -188 433 *~;
#X floatatom -150 402 5 0 0 0 - - -;
#X obj -6 194 r attack;
#X msg 57 443 0;
#X msg -75 256 set \$1 \$2;
#X obj -76 233 pack f f;
#X obj -62 278 bng 15 250 50 0 empty empty empty 17 7 0 10 -262144
-1 -1;
#X obj 137 290 tabwrite gs-notes;
#X obj 257 291 tabwrite gs-notes;
#X obj -150 375 * 0.08;
#X obj 281 566 * 0.08;
#X connect 0 0 7 0;
#X connect 1 0 5 0;
#X connect 2 0 3 0;
#X connect 4 0 9 0;
#X connect 5 0 6 0;
#X connect 6 0 43 0;
#X connect 7 0 1 0;
#X connect 7 0 8 0;
#X connect 7 0 17 0;
#X connect 7 1 4 0;
#X connect 7 1 11 0;
#X connect 8 0 19 0;
#X connect 11 0 15 0;
#X connect 11 0 16 0;
#X connect 12 0 29 0;
#X connect 13 0 21 0;
#X connect 13 0 22 0;
#X connect 14 0 20 0;
#X connect 14 0 18 0;
#X connect 15 0 16 1;
#X connect 15 0 17 1;
#X connect 16 0 27 0;
#X connect 16 0 33 0;
#X connect 16 0 41 0;
#X connect 17 0 14 0;
#X connect 18 0 50 0;
#X connect 19 0 20 0;
#X connect 19 0 21 0;
#X connect 20 0 10 0;
#X connect 20 0 50 1;
#X connect 21 0 23 0;
#X connect 21 0 51 1;
#X connect 22 0 23 1;
#X connect 22 0 51 0;
#X connect 23 0 24 0;
#X connect 25 0 2 1;
#X connect 25 0 26 0;
#X connect 27 0 30 0;
#X connect 28 0 27 0;
#X connect 29 0 28 0;
#X connect 30 0 35 0;
#X connect 30 0 53 0;
#X connect 31 0 32 0;
#X connect 32 0 27 0;
#X connect 32 0 34 0;
#X connect 33 0 32 0;
#X connect 33 0 31 0;
#X connect 34 0 28 0;
#X connect 35 0 36 1;
#X connect 35 0 36 0;
#X connect 36 0 13 0;
#X connect 36 0 46 0;
#X connect 37 0 38 0;
#X connect 38 0 52 0;
#X connect 39 0 40 0;
#X connect 40 0 48 0;
#X connect 41 0 40 0;
#X connect 41 0 39 0;
#X connect 42 0 37 0;
#X connect 43 0 2 0;
#X connect 44 0 43 1;
#X connect 45 0 48 1;
#X connect 46 0 37 0;
#X connect 47 0 42 0;
#X connect 47 0 49 0;
#X connect 48 0 47 0;
#X connect 49 0 42 0;
#X connect 52 0 44 0;
#X connect 53 0 25 0;
