#N canvas 106 124 1193 771 10;
#X obj 562 185 notein;
#X floatatom 384 213 5 0 0 0 - - -;
#X obj 391 53 int;
#N canvas 7 81 915 489 (subpatch) 0;
#X array gs-notes 127 float 3;
#A 0 0 0 0 0 0 0 0 0 0 0 0 0 0 0 0 0 0 0 0 0 0 0 0 0 0 0 0 0 0 0 0
0 0 0 0 0 0 0 0 0 0 0 0 0 0 0 0 0 0 0 0 0 0 0 0 0 0 0 0 0 0 0 0 0 0
0 0 0 0 0 0 0 0 0 0 0 0 0 0 0 0 0 0 0 0 0 0 0 0 0 0 0 0 0 0 0 0 0 0
0 0 0 0 0 0 0 0 0 0 0 0 0 0 0 0 0 0 0 0 0 0 0 0 0 0 0 0;
#X coords 0 1 127 0 1024 4 1 0 0;
#X restore 27 662 graph;
#X floatatom 498 68 5 0 0 0 - - -;
#X obj 430 125 spigot;
#X obj 498 93 == 0;
#X floatatom 502 145 5 0 0 0 - - -;
#X floatatom 498 21 5 0 0 0 - - -;
#X floatatom 339 213 5 0 0 0 - - -;
#X obj 391 97 pack f f;
#X obj 393 155 unpack f f;
#N canvas 445 263 450 300 r-pv 0;
#X obj -300 -20 r~ pv1;
#X obj -244 -19 r~ pv2;
#X obj -194 -20 r~ pv3;
#X obj -148 -19 r~ pv4;
#X obj -101 -17 r~ pv5;
#X obj -56 -18 r~ pv6;
#X obj -100 206 outlet~;
#X obj -100 133 *~ \$1;
#X obj -5 -16 inlet;
#X obj -299 2 r~ pv7;
#X obj -245 3 r~ pv8;
#X obj -195 2 r~ pv9;
#X obj -149 3 r~ pv10;
#X obj -102 5 r~ pv11;
#X obj -53 3 r~ pv12;
#X connect 0 0 7 0;
#X connect 1 0 7 0;
#X connect 2 0 7 0;
#X connect 3 0 7 0;
#X connect 4 0 7 0;
#X connect 5 0 7 0;
#X connect 7 0 6 0;
#X connect 8 0 7 1;
#X connect 9 0 7 0;
#X connect 10 0 7 0;
#X connect 11 0 7 0;
#X connect 12 0 7 0;
#X connect 13 0 7 0;
#X connect 14 0 7 0;
#X restore 953 131 pd r-pv;
#X obj 1048 241 s decay;
#X floatatom 599 233 5 0 0 0 - - -;
#X floatatom 562 210 5 0 0 0 - - -;
#X obj 339 155 r off;
#X obj 339 190 unpack f f;
#X obj 174 14 loadbang;
#X obj 157 53 s bang;
#X obj 658 270 r bang;
#X msg 715 335 0.5;
#X msg 230 53 110;
#X obj 1062 217 int;
#X obj 499 117 spigot;
#X floatatom 531 92 5 0 0 0 - - -;
#X obj 550 128 == 0;
#X floatatom 502 213 5 0 0 0 - - -;
#X floatatom 457 213 5 0 0 0 - - -;
#X obj 457 155 r off;
#X obj 457 190 unpack f f;
#N canvas 171 402 450 300 choice 0;
#X obj 78 26 inlet;
#X obj 129 26 inlet;
#X obj 187 25 inlet;
#X obj 78 191 outlet;
#X obj 78 147 spigot;
#X floatatom 216 118 5 0 0 0 - - -;
#X obj 183 150 spigot;
#X floatatom 111 119 5 0 0 0 - - -;
#X obj 111 89 != 1;
#X connect 0 0 4 0;
#X connect 1 0 6 0;
#X connect 2 0 5 0;
#X connect 2 0 8 0;
#X connect 4 0 3 0;
#X connect 5 0 6 1;
#X connect 6 0 3 0;
#X connect 7 0 4 1;
#X connect 8 0 7 0;
#X restore 370 332 pd choice;
#X obj 599 209 * 0.1;
#N canvas 396 543 475 300 lo-hi-pass 0;
#X obj 159 21 inlet;
#X obj 258 19 inlet;
#X obj 26 13 inlet~;
#X obj 40 243 outlet~;
#X obj 227 128 hip~;
#X obj 160 126 lop~;
#X obj 224 80 mtof;
#X obj 173 78 mtof;
#X floatatom 306 155 8 0 0 0 - - -;
#X floatatom 307 119 8 0 0 0 - - -;
#X text 303 101 low-pass;
#X text 303 137 high-pass;
#X obj 337 29 int;
#X obj 394 34 int;
#X connect 0 0 7 0;
#X connect 1 0 6 0;
#X connect 2 0 5 0;
#X connect 4 0 3 0;
#X connect 5 0 4 0;
#X connect 6 0 4 1;
#X connect 6 0 13 0;
#X connect 7 0 5 1;
#X connect 7 0 12 0;
#X connect 12 0 9 0;
#X connect 13 0 8 0;
#X coords 0 -1 1 1 64 80 2 300 100;
#X restore 253 165 pd lo-hi-pass;
#N canvas 396 543 475 300 lo-hi-pass 0;
#X obj 159 21 inlet;
#X obj 258 19 inlet;
#X obj 26 13 inlet~;
#X obj 40 243 outlet~;
#X obj 227 128 hip~;
#X obj 160 126 lop~;
#X obj 224 80 mtof;
#X obj 173 78 mtof;
#X floatatom 306 155 8 0 0 0 - - -;
#X floatatom 307 119 8 0 0 0 - - -;
#X text 303 101 low-pass;
#X text 303 137 high-pass;
#X obj 337 29 int;
#X obj 394 34 int;
#X connect 0 0 7 0;
#X connect 1 0 6 0;
#X connect 2 0 5 0;
#X connect 4 0 3 0;
#X connect 5 0 4 0;
#X connect 6 0 4 1;
#X connect 6 0 13 0;
#X connect 7 0 5 1;
#X connect 7 0 12 0;
#X connect 12 0 9 0;
#X connect 13 0 8 0;
#X coords 0 -1 1 1 64 80 2 300 100;
#X restore 952 199 pd lo-hi-pass;
#X obj 609 123 r bang;
#X obj 251 318 r bang;
#X obj 562 259 poly 12 1;
#X obj 370 365 route 1 2 3 4 5 6 7 8 9 10 11 12;
#X msg 649 123 1;
#X obj 333 284 pack 0 0 0;
#X obj 451 284 pack 0 0 0;
#X obj 556 284 pack 0 0 0;
#N canvas 471 167 881 405 display-note 0;
#X obj 142 131 inlet;
#X msg 294 204 set C;
#X msg 333 204 set C#;
#X msg 371 204 set D;
#X msg 409 204 set D#;
#X msg 447 204 set E;
#X msg 486 204 set F;
#X msg 526 204 set F#;
#X msg 565 204 set G;
#X msg 603 204 set G#;
#X msg 641 204 set A;
#X msg 679 204 set A#;
#X msg 718 204 set B;
#X obj 406 147 route 1 2 3 4 5 6 7 8 9 10 11 12;
#X obj 404 98 mod 12;
#X obj 406 121 + 1;
#X obj 100 350 cnv 15 64 36 empty empty empty 20 12 0 14 -1 -66577
0;
#X obj 147 370 bng 15 250 50 0 empty empty empty 17 7 0 10 -1 -4032
-1;
#X floatatom 101 351 3 0 0 0 - - nothing;
#X symbolatom 123 351 3 0 0 0 - - nothing;
#X obj 189 131 inlet;
#X floatatom 101 369 7 0 0 0 - - nothing;
#X obj 147 352 tgl 15 0 empty empty empty 5 8 0 10 -1 -257985 -4032
0 1;
#X obj 233 131 inlet;
#X obj 91 131 inlet~;
#X obj 34 194 s~ pv1;
#X connect 0 0 14 0;
#X connect 0 0 17 0;
#X connect 0 0 18 0;
#X connect 1 0 19 0;
#X connect 2 0 19 0;
#X connect 3 0 19 0;
#X connect 4 0 19 0;
#X connect 5 0 19 0;
#X connect 6 0 19 0;
#X connect 7 0 19 0;
#X connect 8 0 19 0;
#X connect 9 0 19 0;
#X connect 10 0 19 0;
#X connect 11 0 19 0;
#X connect 12 0 19 0;
#X connect 13 0 1 0;
#X connect 13 1 2 0;
#X connect 13 2 3 0;
#X connect 13 3 4 0;
#X connect 13 4 5 0;
#X connect 13 5 6 0;
#X connect 13 6 7 0;
#X connect 13 7 8 0;
#X connect 13 8 9 0;
#X connect 13 9 10 0;
#X connect 13 10 11 0;
#X connect 13 11 12 0;
#X connect 14 0 15 0;
#X connect 15 0 13 0;
#X connect 20 0 21 0;
#X connect 23 0 22 0;
#X connect 24 0 25 0;
#X coords 0 -1 1 1 64 36 2 100 350;
#X restore 23 605 pd display-note;
#N canvas 469 165 881 405 display-note 0;
#X obj 142 131 inlet;
#X msg 294 204 set C;
#X msg 333 204 set C#;
#X msg 371 204 set D;
#X msg 409 204 set D#;
#X msg 447 204 set E;
#X msg 486 204 set F;
#X msg 526 204 set F#;
#X msg 565 204 set G;
#X msg 603 204 set G#;
#X msg 641 204 set A;
#X msg 679 204 set A#;
#X msg 718 204 set B;
#X obj 406 147 route 1 2 3 4 5 6 7 8 9 10 11 12;
#X obj 404 98 mod 12;
#X obj 406 121 + 1;
#X obj 100 350 cnv 15 64 36 empty empty empty 20 12 0 14 -1 -66577
0;
#X obj 147 370 bng 15 250 50 0 empty empty empty 17 7 0 10 -1 -4032
-1;
#X floatatom 101 351 3 0 0 0 - - nothing;
#X symbolatom 123 351 3 0 0 0 - - nothing;
#X obj 189 131 inlet;
#X floatatom 101 369 7 0 0 0 - - nothing;
#X obj 147 352 tgl 15 0 empty empty empty 5 8 0 10 -1 -257985 -4032
0 1;
#X obj 233 131 inlet;
#X obj 91 131 inlet~;
#X obj 34 194 s~ pv2;
#X connect 0 0 14 0;
#X connect 0 0 17 0;
#X connect 0 0 18 0;
#X connect 1 0 19 0;
#X connect 2 0 19 0;
#X connect 3 0 19 0;
#X connect 4 0 19 0;
#X connect 5 0 19 0;
#X connect 6 0 19 0;
#X connect 7 0 19 0;
#X connect 8 0 19 0;
#X connect 9 0 19 0;
#X connect 10 0 19 0;
#X connect 11 0 19 0;
#X connect 12 0 19 0;
#X connect 13 0 1 0;
#X connect 13 1 2 0;
#X connect 13 2 3 0;
#X connect 13 3 4 0;
#X connect 13 4 5 0;
#X connect 13 5 6 0;
#X connect 13 6 7 0;
#X connect 13 7 8 0;
#X connect 13 8 9 0;
#X connect 13 9 10 0;
#X connect 13 10 11 0;
#X connect 13 11 12 0;
#X connect 14 0 15 0;
#X connect 15 0 13 0;
#X connect 20 0 21 0;
#X connect 23 0 22 0;
#X connect 24 0 25 0;
#X coords 0 -1 1 1 64 36 2 100 350;
#X restore 94 605 pd display-note;
#N canvas 469 165 881 405 display-note 0;
#X obj 142 131 inlet;
#X msg 294 204 set C;
#X msg 333 204 set C#;
#X msg 371 204 set D;
#X msg 409 204 set D#;
#X msg 447 204 set E;
#X msg 486 204 set F;
#X msg 526 204 set F#;
#X msg 565 204 set G;
#X msg 603 204 set G#;
#X msg 641 204 set A;
#X msg 679 204 set A#;
#X msg 718 204 set B;
#X obj 406 147 route 1 2 3 4 5 6 7 8 9 10 11 12;
#X obj 404 98 mod 12;
#X obj 406 121 + 1;
#X obj 100 350 cnv 15 64 36 empty empty empty 20 12 0 14 -1 -66577
0;
#X obj 147 370 bng 15 250 50 0 empty empty empty 17 7 0 10 -1 -4032
-1;
#X floatatom 101 351 3 0 0 0 - - nothing;
#X symbolatom 123 351 3 0 0 0 - - nothing;
#X obj 189 131 inlet;
#X floatatom 101 369 7 0 0 0 - - nothing;
#X obj 147 352 tgl 15 0 empty empty empty 5 8 0 10 -1 -257985 -4032
0 1;
#X obj 233 131 inlet;
#X obj 91 131 inlet~;
#X obj 34 194 s~ pv3;
#X connect 0 0 14 0;
#X connect 0 0 17 0;
#X connect 0 0 18 0;
#X connect 1 0 19 0;
#X connect 2 0 19 0;
#X connect 3 0 19 0;
#X connect 4 0 19 0;
#X connect 5 0 19 0;
#X connect 6 0 19 0;
#X connect 7 0 19 0;
#X connect 8 0 19 0;
#X connect 9 0 19 0;
#X connect 10 0 19 0;
#X connect 11 0 19 0;
#X connect 12 0 19 0;
#X connect 13 0 1 0;
#X connect 13 1 2 0;
#X connect 13 2 3 0;
#X connect 13 3 4 0;
#X connect 13 4 5 0;
#X connect 13 5 6 0;
#X connect 13 6 7 0;
#X connect 13 7 8 0;
#X connect 13 8 9 0;
#X connect 13 9 10 0;
#X connect 13 10 11 0;
#X connect 13 11 12 0;
#X connect 14 0 15 0;
#X connect 15 0 13 0;
#X connect 20 0 21 0;
#X connect 23 0 22 0;
#X connect 24 0 25 0;
#X coords 0 -1 1 1 64 36 2 100 350;
#X restore 165 605 pd display-note;
#N canvas 469 165 881 405 display-note 0;
#X obj 142 131 inlet;
#X msg 294 204 set C;
#X msg 333 204 set C#;
#X msg 371 204 set D;
#X msg 409 204 set D#;
#X msg 447 204 set E;
#X msg 486 204 set F;
#X msg 526 204 set F#;
#X msg 565 204 set G;
#X msg 603 204 set G#;
#X msg 641 204 set A;
#X msg 679 204 set A#;
#X msg 718 204 set B;
#X obj 406 147 route 1 2 3 4 5 6 7 8 9 10 11 12;
#X obj 404 98 mod 12;
#X obj 406 121 + 1;
#X obj 100 350 cnv 15 64 36 empty empty empty 20 12 0 14 -1 -66577
0;
#X obj 147 370 bng 15 250 50 0 empty empty empty 17 7 0 10 -1 -4032
-1;
#X floatatom 101 351 3 0 0 0 - - nothing;
#X symbolatom 123 351 3 0 0 0 - - nothing;
#X obj 189 131 inlet;
#X floatatom 101 369 7 0 0 0 - - nothing;
#X obj 147 352 tgl 15 0 empty empty empty 5 8 0 10 -1 -257985 -4032
0 1;
#X obj 233 131 inlet;
#X obj 91 131 inlet~;
#X obj 34 194 s~ pv4;
#X connect 0 0 14 0;
#X connect 0 0 17 0;
#X connect 0 0 18 0;
#X connect 1 0 19 0;
#X connect 2 0 19 0;
#X connect 3 0 19 0;
#X connect 4 0 19 0;
#X connect 5 0 19 0;
#X connect 6 0 19 0;
#X connect 7 0 19 0;
#X connect 8 0 19 0;
#X connect 9 0 19 0;
#X connect 10 0 19 0;
#X connect 11 0 19 0;
#X connect 12 0 19 0;
#X connect 13 0 1 0;
#X connect 13 1 2 0;
#X connect 13 2 3 0;
#X connect 13 3 4 0;
#X connect 13 4 5 0;
#X connect 13 5 6 0;
#X connect 13 6 7 0;
#X connect 13 7 8 0;
#X connect 13 8 9 0;
#X connect 13 9 10 0;
#X connect 13 10 11 0;
#X connect 13 11 12 0;
#X connect 14 0 15 0;
#X connect 15 0 13 0;
#X connect 20 0 21 0;
#X connect 23 0 22 0;
#X connect 24 0 25 0;
#X coords 0 -1 1 1 64 36 2 100 350;
#X restore 236 605 pd display-note;
#N canvas 471 167 881 405 display-note 0;
#X obj 142 131 inlet;
#X msg 294 204 set C;
#X msg 333 204 set C#;
#X msg 371 204 set D;
#X msg 409 204 set D#;
#X msg 447 204 set E;
#X msg 486 204 set F;
#X msg 526 204 set F#;
#X msg 565 204 set G;
#X msg 603 204 set G#;
#X msg 641 204 set A;
#X msg 679 204 set A#;
#X msg 718 204 set B;
#X obj 406 147 route 1 2 3 4 5 6 7 8 9 10 11 12;
#X obj 404 98 mod 12;
#X obj 406 121 + 1;
#X obj 100 350 cnv 15 64 36 empty empty empty 20 12 0 14 -1 -66577
0;
#X obj 147 370 bng 15 250 50 0 empty empty empty 17 7 0 10 -1 -4032
-1;
#X floatatom 101 351 3 0 0 0 - - nothing;
#X symbolatom 123 351 3 0 0 0 - - nothing;
#X obj 189 131 inlet;
#X floatatom 101 369 7 0 0 0 - - nothing;
#X obj 147 352 tgl 15 0 empty empty empty 5 8 0 10 -1 -257985 -4032
0 1;
#X obj 233 131 inlet;
#X obj 91 131 inlet~;
#X obj 34 194 s~ pv5;
#X connect 0 0 14 0;
#X connect 0 0 17 0;
#X connect 0 0 18 0;
#X connect 1 0 19 0;
#X connect 2 0 19 0;
#X connect 3 0 19 0;
#X connect 4 0 19 0;
#X connect 5 0 19 0;
#X connect 6 0 19 0;
#X connect 7 0 19 0;
#X connect 8 0 19 0;
#X connect 9 0 19 0;
#X connect 10 0 19 0;
#X connect 11 0 19 0;
#X connect 12 0 19 0;
#X connect 13 0 1 0;
#X connect 13 1 2 0;
#X connect 13 2 3 0;
#X connect 13 3 4 0;
#X connect 13 4 5 0;
#X connect 13 5 6 0;
#X connect 13 6 7 0;
#X connect 13 7 8 0;
#X connect 13 8 9 0;
#X connect 13 9 10 0;
#X connect 13 10 11 0;
#X connect 13 11 12 0;
#X connect 14 0 15 0;
#X connect 15 0 13 0;
#X connect 20 0 21 0;
#X connect 23 0 22 0;
#X connect 24 0 25 0;
#X coords 0 -1 1 1 64 36 2 100 350;
#X restore 307 605 pd display-note;
#N canvas 471 167 881 405 display-note 0;
#X obj 142 131 inlet;
#X msg 294 204 set C;
#X msg 333 204 set C#;
#X msg 371 204 set D;
#X msg 409 204 set D#;
#X msg 447 204 set E;
#X msg 486 204 set F;
#X msg 526 204 set F#;
#X msg 565 204 set G;
#X msg 603 204 set G#;
#X msg 641 204 set A;
#X msg 679 204 set A#;
#X msg 718 204 set B;
#X obj 406 147 route 1 2 3 4 5 6 7 8 9 10 11 12;
#X obj 404 98 mod 12;
#X obj 406 121 + 1;
#X obj 100 350 cnv 15 64 36 empty empty empty 20 12 0 14 -1 -66577
0;
#X obj 147 370 bng 15 250 50 0 empty empty empty 17 7 0 10 -1 -4032
-1;
#X floatatom 101 351 3 0 0 0 - - nothing;
#X symbolatom 123 351 3 0 0 0 - - nothing;
#X obj 189 131 inlet;
#X floatatom 101 369 7 0 0 0 - - nothing;
#X obj 147 352 tgl 15 0 empty empty empty 5 8 0 10 -1 -257985 -4032
0 1;
#X obj 233 131 inlet;
#X obj 91 131 inlet~;
#X obj 34 194 s~ pv6;
#X connect 0 0 14 0;
#X connect 0 0 17 0;
#X connect 0 0 18 0;
#X connect 1 0 19 0;
#X connect 2 0 19 0;
#X connect 3 0 19 0;
#X connect 4 0 19 0;
#X connect 5 0 19 0;
#X connect 6 0 19 0;
#X connect 7 0 19 0;
#X connect 8 0 19 0;
#X connect 9 0 19 0;
#X connect 10 0 19 0;
#X connect 11 0 19 0;
#X connect 12 0 19 0;
#X connect 13 0 1 0;
#X connect 13 1 2 0;
#X connect 13 2 3 0;
#X connect 13 3 4 0;
#X connect 13 4 5 0;
#X connect 13 5 6 0;
#X connect 13 6 7 0;
#X connect 13 7 8 0;
#X connect 13 8 9 0;
#X connect 13 9 10 0;
#X connect 13 10 11 0;
#X connect 13 11 12 0;
#X connect 14 0 15 0;
#X connect 15 0 13 0;
#X connect 20 0 21 0;
#X connect 23 0 22 0;
#X connect 24 0 25 0;
#X coords 0 -1 1 1 64 36 2 100 350;
#X restore 377 605 pd display-note;
#N canvas 457 405 450 390 clear-note-array 0;
#X msg -8 270 0;
#X obj -12 191 + 1;
#X msg -12 87 bang;
#X msg -72 143 stop;
#X obj -12 165 float;
#X obj -12 113 trigger bang bang;
#X msg 102 145 0;
#X floatatom -27 217 0 0 0 0 - - -;
#X obj -103 119 select 127;
#X obj 47 224 s off1;
#X obj -12 139 metro 0;
#X obj -15 51 metro 5000;
#X msg 110 26 stop;
#X text 166 9 ON;
#X text 268 9 OFF;
#X text 168 50 5 seconds when on;
#X text 168 40 keeps clearing every;
#X obj 169 28 bng 15 250 50 0 empty empty empty 17 7 0 10 -262144 -1
-1;
#X obj 272 29 bng 15 250 50 0 empty empty empty 17 7 0 10 -262144 -1
-1;
#X text 208 15 Clear;
#X text 194 25 Notes Array;
#X obj -8 304 tabwrite gs-notes;
#X connect 0 0 21 0;
#X connect 1 0 4 1;
#X connect 1 0 7 0;
#X connect 1 0 8 0;
#X connect 2 0 5 0;
#X connect 3 0 10 0;
#X connect 4 0 1 0;
#X connect 5 0 10 0;
#X connect 5 1 6 0;
#X connect 6 0 4 1;
#X connect 7 0 0 0;
#X connect 7 0 9 0;
#X connect 7 0 21 1;
#X connect 8 0 3 0;
#X connect 10 0 4 0;
#X connect 11 0 2 0;
#X connect 12 0 11 0;
#X connect 17 0 11 0;
#X connect 18 0 12 0;
#X coords 0 -1 1 1 140 60 2 160 10;
#X restore 912 583 pd clear-note-array;
#N canvas 475 171 881 405 display-note 0;
#X obj 142 131 inlet;
#X msg 294 204 set C;
#X msg 333 204 set C#;
#X msg 371 204 set D;
#X msg 409 204 set D#;
#X msg 447 204 set E;
#X msg 486 204 set F;
#X msg 526 204 set F#;
#X msg 565 204 set G;
#X msg 603 204 set G#;
#X msg 641 204 set A;
#X msg 679 204 set A#;
#X msg 718 204 set B;
#X obj 406 147 route 1 2 3 4 5 6 7 8 9 10 11 12;
#X obj 404 98 mod 12;
#X obj 406 121 + 1;
#X obj 100 350 cnv 15 64 36 empty empty empty 20 12 0 14 -1 -66577
0;
#X obj 147 370 bng 15 250 50 0 empty empty empty 17 7 0 10 -1 -4032
-1;
#X floatatom 101 351 3 0 0 0 - - nothing;
#X symbolatom 123 351 3 0 0 0 - - nothing;
#X obj 189 131 inlet;
#X floatatom 101 369 7 0 0 0 - - nothing;
#X obj 147 352 tgl 15 0 empty empty empty 5 8 0 10 -1 -257985 -4032
0 1;
#X obj 233 131 inlet;
#X obj 91 131 inlet~;
#X obj 34 194 s~ pv7;
#X connect 0 0 14 0;
#X connect 0 0 17 0;
#X connect 0 0 18 0;
#X connect 1 0 19 0;
#X connect 2 0 19 0;
#X connect 3 0 19 0;
#X connect 4 0 19 0;
#X connect 5 0 19 0;
#X connect 6 0 19 0;
#X connect 7 0 19 0;
#X connect 8 0 19 0;
#X connect 9 0 19 0;
#X connect 10 0 19 0;
#X connect 11 0 19 0;
#X connect 12 0 19 0;
#X connect 13 0 1 0;
#X connect 13 1 2 0;
#X connect 13 2 3 0;
#X connect 13 3 4 0;
#X connect 13 4 5 0;
#X connect 13 5 6 0;
#X connect 13 6 7 0;
#X connect 13 7 8 0;
#X connect 13 8 9 0;
#X connect 13 9 10 0;
#X connect 13 10 11 0;
#X connect 13 11 12 0;
#X connect 14 0 15 0;
#X connect 15 0 13 0;
#X connect 20 0 21 0;
#X connect 23 0 22 0;
#X connect 24 0 25 0;
#X coords 0 -1 1 1 64 36 2 100 350;
#X restore 447 605 pd display-note;
#N canvas 471 167 881 405 display-note 0;
#X obj 142 131 inlet;
#X msg 294 204 set C;
#X msg 333 204 set C#;
#X msg 371 204 set D;
#X msg 409 204 set D#;
#X msg 447 204 set E;
#X msg 486 204 set F;
#X msg 526 204 set F#;
#X msg 565 204 set G;
#X msg 603 204 set G#;
#X msg 641 204 set A;
#X msg 679 204 set A#;
#X msg 718 204 set B;
#X obj 406 147 route 1 2 3 4 5 6 7 8 9 10 11 12;
#X obj 404 98 mod 12;
#X obj 406 121 + 1;
#X obj 100 350 cnv 15 64 36 empty empty empty 20 12 0 14 -1 -66577
0;
#X obj 147 370 bng 15 250 50 0 empty empty empty 17 7 0 10 -1 -4032
-1;
#X floatatom 101 351 3 0 0 0 - - nothing;
#X symbolatom 123 351 3 0 0 0 - - nothing;
#X obj 189 131 inlet;
#X floatatom 101 369 7 0 0 0 - - nothing;
#X obj 147 352 tgl 15 0 empty empty empty 5 8 0 10 -1 -257985 -4032
0 1;
#X obj 233 131 inlet;
#X obj 91 131 inlet~;
#X obj 34 194 s~ pv8;
#X connect 0 0 14 0;
#X connect 0 0 17 0;
#X connect 0 0 18 0;
#X connect 1 0 19 0;
#X connect 2 0 19 0;
#X connect 3 0 19 0;
#X connect 4 0 19 0;
#X connect 5 0 19 0;
#X connect 6 0 19 0;
#X connect 7 0 19 0;
#X connect 8 0 19 0;
#X connect 9 0 19 0;
#X connect 10 0 19 0;
#X connect 11 0 19 0;
#X connect 12 0 19 0;
#X connect 13 0 1 0;
#X connect 13 1 2 0;
#X connect 13 2 3 0;
#X connect 13 3 4 0;
#X connect 13 4 5 0;
#X connect 13 5 6 0;
#X connect 13 6 7 0;
#X connect 13 7 8 0;
#X connect 13 8 9 0;
#X connect 13 9 10 0;
#X connect 13 10 11 0;
#X connect 13 11 12 0;
#X connect 14 0 15 0;
#X connect 15 0 13 0;
#X connect 20 0 21 0;
#X connect 23 0 22 0;
#X connect 24 0 25 0;
#X coords 0 -1 1 1 64 36 2 100 350;
#X restore 518 605 pd display-note;
#N canvas 471 167 881 405 display-note 0;
#X obj 142 131 inlet;
#X msg 294 204 set C;
#X msg 333 204 set C#;
#X msg 371 204 set D;
#X msg 409 204 set D#;
#X msg 447 204 set E;
#X msg 486 204 set F;
#X msg 526 204 set F#;
#X msg 565 204 set G;
#X msg 603 204 set G#;
#X msg 641 204 set A;
#X msg 679 204 set A#;
#X msg 718 204 set B;
#X obj 406 147 route 1 2 3 4 5 6 7 8 9 10 11 12;
#X obj 404 98 mod 12;
#X obj 406 121 + 1;
#X obj 100 350 cnv 15 64 36 empty empty empty 20 12 0 14 -1 -66577
0;
#X obj 147 370 bng 15 250 50 0 empty empty empty 17 7 0 10 -1 -4032
-1;
#X floatatom 101 351 3 0 0 0 - - nothing;
#X symbolatom 123 351 3 0 0 0 - - nothing;
#X obj 189 131 inlet;
#X floatatom 101 369 7 0 0 0 - - nothing;
#X obj 147 352 tgl 15 0 empty empty empty 5 8 0 10 -1 -257985 -4032
0 1;
#X obj 233 131 inlet;
#X obj 91 131 inlet~;
#X obj 34 194 s~ pv9;
#X connect 0 0 14 0;
#X connect 0 0 17 0;
#X connect 0 0 18 0;
#X connect 1 0 19 0;
#X connect 2 0 19 0;
#X connect 3 0 19 0;
#X connect 4 0 19 0;
#X connect 5 0 19 0;
#X connect 6 0 19 0;
#X connect 7 0 19 0;
#X connect 8 0 19 0;
#X connect 9 0 19 0;
#X connect 10 0 19 0;
#X connect 11 0 19 0;
#X connect 12 0 19 0;
#X connect 13 0 1 0;
#X connect 13 1 2 0;
#X connect 13 2 3 0;
#X connect 13 3 4 0;
#X connect 13 4 5 0;
#X connect 13 5 6 0;
#X connect 13 6 7 0;
#X connect 13 7 8 0;
#X connect 13 8 9 0;
#X connect 13 9 10 0;
#X connect 13 10 11 0;
#X connect 13 11 12 0;
#X connect 14 0 15 0;
#X connect 15 0 13 0;
#X connect 20 0 21 0;
#X connect 23 0 22 0;
#X connect 24 0 25 0;
#X coords 0 -1 1 1 64 36 2 100 350;
#X restore 589 605 pd display-note;
#N canvas 471 167 881 405 display-note 0;
#X obj 142 131 inlet;
#X msg 294 204 set C;
#X msg 333 204 set C#;
#X msg 371 204 set D;
#X msg 409 204 set D#;
#X msg 447 204 set E;
#X msg 486 204 set F;
#X msg 526 204 set F#;
#X msg 565 204 set G;
#X msg 603 204 set G#;
#X msg 641 204 set A;
#X msg 679 204 set A#;
#X msg 718 204 set B;
#X obj 406 147 route 1 2 3 4 5 6 7 8 9 10 11 12;
#X obj 404 98 mod 12;
#X obj 406 121 + 1;
#X obj 100 350 cnv 15 64 36 empty empty empty 20 12 0 14 -1 -66577
0;
#X obj 147 370 bng 15 250 50 0 empty empty empty 17 7 0 10 -1 -4032
-1;
#X floatatom 101 351 3 0 0 0 - - nothing;
#X symbolatom 123 351 3 0 0 0 - - nothing;
#X obj 189 131 inlet;
#X floatatom 101 369 7 0 0 0 - - nothing;
#X obj 147 352 tgl 15 0 empty empty empty 5 8 0 10 -1 -257985 -4032
0 1;
#X obj 233 131 inlet;
#X obj 91 131 inlet~;
#X obj 34 194 s~ pv10;
#X connect 0 0 14 0;
#X connect 0 0 17 0;
#X connect 0 0 18 0;
#X connect 1 0 19 0;
#X connect 2 0 19 0;
#X connect 3 0 19 0;
#X connect 4 0 19 0;
#X connect 5 0 19 0;
#X connect 6 0 19 0;
#X connect 7 0 19 0;
#X connect 8 0 19 0;
#X connect 9 0 19 0;
#X connect 10 0 19 0;
#X connect 11 0 19 0;
#X connect 12 0 19 0;
#X connect 13 0 1 0;
#X connect 13 1 2 0;
#X connect 13 2 3 0;
#X connect 13 3 4 0;
#X connect 13 4 5 0;
#X connect 13 5 6 0;
#X connect 13 6 7 0;
#X connect 13 7 8 0;
#X connect 13 8 9 0;
#X connect 13 9 10 0;
#X connect 13 10 11 0;
#X connect 13 11 12 0;
#X connect 14 0 15 0;
#X connect 15 0 13 0;
#X connect 20 0 21 0;
#X connect 23 0 22 0;
#X connect 24 0 25 0;
#X coords 0 -1 1 1 64 36 2 100 350;
#X restore 660 605 pd display-note;
#N canvas 473 169 881 405 display-note 0;
#X obj 142 131 inlet;
#X msg 294 204 set C;
#X msg 333 204 set C#;
#X msg 371 204 set D;
#X msg 409 204 set D#;
#X msg 447 204 set E;
#X msg 486 204 set F;
#X msg 526 204 set F#;
#X msg 565 204 set G;
#X msg 603 204 set G#;
#X msg 641 204 set A;
#X msg 679 204 set A#;
#X msg 718 204 set B;
#X obj 406 147 route 1 2 3 4 5 6 7 8 9 10 11 12;
#X obj 404 98 mod 12;
#X obj 406 121 + 1;
#X obj 100 350 cnv 15 64 36 empty empty empty 20 12 0 14 -1 -66577
0;
#X obj 147 370 bng 15 250 50 0 empty empty empty 17 7 0 10 -1 -4032
-1;
#X floatatom 101 351 3 0 0 0 - - nothing;
#X symbolatom 123 351 3 0 0 0 - - nothing;
#X obj 189 131 inlet;
#X floatatom 101 369 7 0 0 0 - - nothing;
#X obj 147 352 tgl 15 0 empty empty empty 5 8 0 10 -1 -257985 -4032
0 1;
#X obj 233 131 inlet;
#X obj 91 131 inlet~;
#X obj 34 194 s~ pv11;
#X connect 0 0 14 0;
#X connect 0 0 17 0;
#X connect 0 0 18 0;
#X connect 1 0 19 0;
#X connect 2 0 19 0;
#X connect 3 0 19 0;
#X connect 4 0 19 0;
#X connect 5 0 19 0;
#X connect 6 0 19 0;
#X connect 7 0 19 0;
#X connect 8 0 19 0;
#X connect 9 0 19 0;
#X connect 10 0 19 0;
#X connect 11 0 19 0;
#X connect 12 0 19 0;
#X connect 13 0 1 0;
#X connect 13 1 2 0;
#X connect 13 2 3 0;
#X connect 13 3 4 0;
#X connect 13 4 5 0;
#X connect 13 5 6 0;
#X connect 13 6 7 0;
#X connect 13 7 8 0;
#X connect 13 8 9 0;
#X connect 13 9 10 0;
#X connect 13 10 11 0;
#X connect 13 11 12 0;
#X connect 14 0 15 0;
#X connect 15 0 13 0;
#X connect 20 0 21 0;
#X connect 23 0 22 0;
#X connect 24 0 25 0;
#X coords 0 -1 1 1 64 36 2 100 350;
#X restore 731 605 pd display-note;
#N canvas 473 169 881 405 display-note 0;
#X obj 142 131 inlet;
#X msg 294 204 set C;
#X msg 333 204 set C#;
#X msg 371 204 set D;
#X msg 409 204 set D#;
#X msg 447 204 set E;
#X msg 486 204 set F;
#X msg 526 204 set F#;
#X msg 565 204 set G;
#X msg 603 204 set G#;
#X msg 641 204 set A;
#X msg 679 204 set A#;
#X msg 718 204 set B;
#X obj 406 147 route 1 2 3 4 5 6 7 8 9 10 11 12;
#X obj 404 98 mod 12;
#X obj 406 121 + 1;
#X obj 100 350 cnv 15 64 36 empty empty empty 20 12 0 14 -1 -66577
0;
#X obj 147 370 bng 15 250 50 0 empty empty empty 17 7 0 10 -1 -4032
-1;
#X floatatom 101 351 3 0 0 0 - - nothing;
#X symbolatom 123 351 3 0 0 0 - - nothing;
#X obj 189 131 inlet;
#X floatatom 101 369 7 0 0 0 - - nothing;
#X obj 147 352 tgl 15 0 empty empty empty 5 8 0 10 -1 -257985 -4032
0 1;
#X obj 233 131 inlet;
#X obj 91 131 inlet~;
#X obj 34 197 s~ pv12;
#X connect 0 0 14 0;
#X connect 0 0 17 0;
#X connect 0 0 18 0;
#X connect 1 0 19 0;
#X connect 2 0 19 0;
#X connect 3 0 19 0;
#X connect 4 0 19 0;
#X connect 5 0 19 0;
#X connect 6 0 19 0;
#X connect 7 0 19 0;
#X connect 8 0 19 0;
#X connect 9 0 19 0;
#X connect 10 0 19 0;
#X connect 11 0 19 0;
#X connect 12 0 19 0;
#X connect 13 0 1 0;
#X connect 13 1 2 0;
#X connect 13 2 3 0;
#X connect 13 3 4 0;
#X connect 13 4 5 0;
#X connect 13 5 6 0;
#X connect 13 6 7 0;
#X connect 13 7 8 0;
#X connect 13 8 9 0;
#X connect 13 9 10 0;
#X connect 13 10 11 0;
#X connect 13 11 12 0;
#X connect 14 0 15 0;
#X connect 15 0 13 0;
#X connect 20 0 21 0;
#X connect 23 0 22 0;
#X connect 24 0 25 0;
#X coords 0 -1 1 1 64 36 2 100 350;
#X restore 801 605 pd display-note;
#X obj 339 259 poly 12 1;
#X obj 457 259 poly 12 0;
#X msg 277 84 auto 1;
#X msg 276 62 npoints 2048;
#X msg 276 42 reattack 0 0;
#X msg 275 22 amp-range 0 0;
#X obj 393 26 fiddle~;
#N canvas 160 322 450 300 attenuate 0;
#X obj -183 96 line~;
#X obj -220 175 *~;
#X obj -182 135 *~;
#X msg -183 69 \$1 20;
#X obj -221 20 inlet~;
#X obj -221 205 outlet~;
#X obj -183 43 inlet;
#X connect 0 0 2 0;
#X connect 0 0 2 1;
#X connect 1 0 5 0;
#X connect 2 0 1 1;
#X connect 3 0 0 0;
#X connect 4 0 1 0;
#X connect 6 0 3 0;
#X restore 254 140 pd attenuate;
#X msg 118 82 0.5;
#N canvas 418 188 602 551 audio-out 0;
#X obj 103 117 hsl 42 18 0.01 1 1 0 empty output-vol volume 7 10 1
9 -245500 -13381 -1 4100 0;
#X obj 147 117 tgl 18 0 THIS_IS_HERE_TO_GET_RID_OF_THE_OUTLET \$0-dsp-toggle
dsp 2 9 1 9 -225271 -195568 -33289 1 1;
#N canvas 366 514 482 356 dsp 0;
#X obj 11 7 inlet;
#X obj 92 226 select 0 1;
#X msg 125 248 6;
#X obj 92 57 route dsp;
#X obj 92 36 receive pd;
#X obj 206 138 loadbang;
#X msg 11 220 dsp \$1;
#X obj 11 245 send pd;
#X msg 206 278 set \$1;
#X obj 206 174 value GLOBAL_PDDP_DSP;
#X msg 109 278 color \$1 20 12;
#X obj 180 309 send \$0-dsp-toggle;
#X obj 92 115 change;
#X msg 92 247 0;
#X connect 0 0 6 0;
#X connect 0 0 12 0;
#X connect 1 0 13 0;
#X connect 1 1 2 0;
#X connect 2 0 10 0;
#X connect 3 0 12 0;
#X connect 4 0 3 0;
#X connect 5 0 9 0;
#X connect 6 0 7 0;
#X connect 8 0 11 0;
#X connect 9 0 8 0;
#X connect 9 0 1 0;
#X connect 10 0 11 0;
#X connect 12 0 8 0;
#X connect 12 0 1 0;
#X connect 12 0 9 0;
#X connect 13 0 10 0;
#X restore 92 168 pd dsp logic;
#X obj 211 22 inlet~;
#X obj 96 293 line~;
#X obj 196 353 *~;
#X obj 216 383 dac~;
#X text 223 42 audio in;
#X obj 273 22 inlet~;
#X obj 258 352 *~;
#X obj 211 93 hip~ 3;
#X obj 273 93 hip~ 3;
#X obj 22 308 send pd;
#X msg 22 287 dsp 1;
#X obj 96 272 pack 0 50;
#X text 163 271 <-- make a ramp to avoid clicks or zipper noise;
#X msg 96 237 0;
#X obj 96 214 moses 0.011;
#X text 317 94 filter out DC;
#X text 105 99 audio-out;
#X connect 0 0 13 0;
#X connect 0 0 17 0;
#X connect 1 0 2 0;
#X connect 3 0 10 0;
#X connect 4 0 9 0;
#X connect 4 0 5 0;
#X connect 5 0 6 0;
#X connect 8 0 11 0;
#X connect 9 0 6 1;
#X connect 10 0 5 1;
#X connect 11 0 9 1;
#X connect 13 0 12 0;
#X connect 14 0 4 0;
#X connect 16 0 14 0;
#X connect 17 0 16 0;
#X connect 17 1 14 0;
#X coords 0 -1 1 1 65 35 2 100 100;
#X restore 986 540 pd audio-out;
#X obj 747 360 s output-vol;
#X msg 746 335 1;
#X msg 291 318 0;
#X obj 1116 219 int;
#X obj 1113 247 s attack;
#X obj 24 583 gs-voice;
#X text 22 668 A guitar synthesizer utilising the poly_tutorial.mmb.pd
from maelstorm;
#X obj 886 409 cnv 15 165 18 empty empty A Guitar Synthesizer 3 9
0 14 -1 -262144 0;
#X obj 886 428 cnv 15 165 18 empty empty by Dave Adams (Balwyn)
18 9 0 10 -1 -262144 0;
#X msg 657 335 85;
#X obj 498 44 tabread gs-notes;
#N canvas 473 136 962 633 mono-git-syn 0;
#X obj 333 144 fiddle~;
#X obj 359 249 mtof;
#X floatatom 579 306 5 0 0 0 - - -;
#X obj 359 297 phasor~;
#X msg 361 83 npoints 2048;
#X floatatom 496 413 5 0 0 0 - - -;
#X obj 456 342 expr $f1 \; if($f1 > $f2 \, $f1 \, 0);
#X floatatom 516 306 5 0 0 0 - - -;
#X msg 359 59 amp-range 0 0;
#X obj 516 -10 loadbang;
#N canvas 750 388 450 300 ramp 0;
#X obj -150 192 line~;
#X obj -221 228 *~;
#X obj -182 225 *~;
#X obj -221 20 inlet~;
#X obj -222 258 outlet~;
#X obj -151 21 inlet;
#X obj -89 19 inlet;
#X obj -149 47 pack f f;
#X connect 0 0 2 0;
#X connect 0 0 2 1;
#X connect 1 0 4 0;
#X connect 2 0 1 1;
#X connect 3 0 1 0;
#X connect 5 0 7 0;
#X connect 6 0 7 1;
#X connect 7 0 0 0;
#X restore 477 473 pd ramp;
#X msg 680 44 50;
#X obj 72 16 inlet~ audio;
#X obj 228 519 outlet~ audio;
#X obj 346 518 outlet bang-attack;
#X msg 359 35 auto 1;
#X floatatom 426 182 5 0 0 0 - - -;
#X floatatom 478 296 5 0 0 0 - - -;
#X obj 214 73 *~ 8;
#X obj 600 100 cnv 15 140 170 empty empty Mono Synth 4 12 0 12 -260097
-262144 0;
#X obj 661 134 vsl 15 128 0 0.5 0 0 empty empty t-hold -11 -9 0 10
-261234 -1 -1 2540 1;
#X obj 704 134 vsl 15 128 0 200 0 0 empty empty attack -10 -9 0 10
-4032 -1 -1 800 1;
#X obj 621 135 vsl 15 128 0 10 0 0 empty empty input -7 -9 0 10 -257985
-1 -1 4100 1;
#X msg 648 48 0.1;
#X msg 609 53 3;
#X obj 723 103 tgl 15 0 empty empty empty 17 7 0 10 -260097 -262144
-1 0 0.100082;
#X obj 456 260 * 0.05;
#X obj 222 442 clip~ -1 1;
#X connect 0 1 14 0;
#X connect 0 2 1 0;
#X connect 0 3 16 0;
#X connect 0 3 26 0;
#X connect 1 0 3 0;
#X connect 2 0 6 1;
#X connect 3 0 10 0;
#X connect 4 0 0 0;
#X connect 5 0 10 1;
#X connect 6 1 5 0;
#X connect 6 1 25 0;
#X connect 7 0 10 2;
#X connect 8 0 0 0;
#X connect 9 0 8 0;
#X connect 9 0 4 0;
#X connect 9 0 11 0;
#X connect 9 0 23 0;
#X connect 9 0 15 0;
#X connect 9 0 24 0;
#X connect 10 0 27 0;
#X connect 11 0 21 0;
#X connect 12 0 18 0;
#X connect 15 0 0 0;
#X connect 18 0 0 0;
#X connect 20 0 2 0;
#X connect 21 0 7 0;
#X connect 22 0 18 1;
#X connect 23 0 20 0;
#X connect 24 0 22 0;
#X connect 26 0 6 0;
#X connect 26 0 17 0;
#X connect 27 0 13 0;
#X coords 0 -1 1 1 140 170 2 600 100;
#X restore 726 409 pd mono-git-syn;
#X obj 251 265 s~ audio-in;
#X obj 630 0 r~ audio-in;
#N canvas 102 446 450 300 choice~ 0;
#X obj 187 25 inlet;
#X floatatom 185 111 5 0 0 0 - - -;
#X floatatom 32 123 5 0 0 0 - - -;
#X obj 32 87 != 1;
#X obj 150 143 *~ \$1;
#X obj 24 27 inlet~;
#X obj 13 204 outlet~;
#X obj 7 154 *~ \$1;
#X obj 165 199 outlet~;
#X connect 0 0 1 0;
#X connect 0 0 3 0;
#X connect 1 0 4 1;
#X connect 2 0 7 1;
#X connect 3 0 2 0;
#X connect 4 0 8 0;
#X connect 5 0 4 0;
#X connect 5 0 7 0;
#X connect 7 0 6 0;
#X restore 638 31 pd choice~;
#X obj 886 448 cnv 15 165 25 empty empty Poly      Mono 6 14
0 18 -1 -262144 0;
#X obj 949 451 cnv 15 38 20 empty empty empty 20 12 0 14 -262144 -66577
0;
#X obj 950 452 hradio 18 1 0 2 empty empty empty 0 -8 0 10 -1 -262144
-1 0;
#X msg 783 335 0;
#X obj 118 409 cnv 15 140 170 empty empty Input 4 12 0 12 -6208 -262144
0;
#X obj 501 409 cnv 15 210 170 empty empty Output 4 12 0 12 -4034 -262144
0;
#X obj 224 444 vsl 15 128 0 140 0 0 empty empty hipass -10 -9 0 10
-261234 -1 -1 7900 1;
#X obj 180 444 vsl 15 128 0 127 0 0 empty empty lopass -10 -9 0 10
-203904 -1 -1 3600 1;
#X obj 556 444 vsl 15 128 0 5000 0 0 empty empty decay -8 -9 0 10 -4032
-1 -1 2540 1;
#X obj 683 444 vsl 15 128 0 1 0 0 empty empty volume -12 -9 0 10 -257985
-1 -1 10550 1;
#X obj 641 444 vsl 15 128 0 140 0 0 empty empty hipass -10 -9 0 10
-261234 -1 -1 3629 1;
#X obj 598 444 vsl 15 128 0 140 0 0 empty empty lopass -10 -9 0 10
-203904 -1 -1 7711 1;
#X obj 358 538 hradio 20 1 0 2 empty empty empty 0 -8 0 10 -262144
-1 -1 0;
#X obj 136 444 vsl 15 128 0 1 0 0 empty empty volume -12 -9 0 10 -257985
-1 -1 2850 1;
#N canvas 186 217 918 655 noisegate 0;
#X floatatom 327 412 0 0 1000 0 - - -;
#N canvas 98 0 648 669 fft-analysis 0;
#X obj 35 589 *~;
#X obj 143 305 *~;
#X obj 158 150 *~;
#X obj 35 72 *~;
#X obj 76 527 *~;
#X obj 35 44 inlet~;
#X obj 35 528 *~;
#X obj 34 101 rfft~;
#X obj 35 558 rifft~;
#X obj 36 616 outlet~;
#X obj 119 149 *~;
#X obj 119 176 +~;
#X obj 165 278 r mask-level;
#X obj 100 422 /~;
#X obj 355 23 block~ 1024 4;
#X text 176 446 is signal power and "m" is mask.;
#X obj 131 332 -~;
#X obj 131 355 max~ 0;
#X obj 99 448 q8_sqrt~;
#X text 175 464 (zero if s < m).;
#X obj 144 256 tabreceive~ \$0-mask;
#X obj 76 72 tabreceive~ \$0-hann;
#X obj 69 590 tabreceive~ \$0-hann;
#N canvas 91 250 910 495 calculate-mask 0;
#X obj 125 379 inlet~;
#X msg 371 283 0;
#X msg 371 166 0;
#X obj 240 196 float;
#X obj 294 200 + 1;
#X obj 240 144 bang~;
#X obj 240 169 spigot;
#X floatatom 411 218 0 0 0 0 - - -;
#X obj 315 408 -~;
#X obj 371 258 sel 0;
#X obj 327 443 *~;
#X obj 293 443 +~;
#X floatatom 351 313 0 0 0 0 - - -;
#X obj 240 219 t f f;
#X obj 370 113 r make-mask;
#X obj 371 141 t b f;
#X obj 411 165 /;
#X text 483 212 number of;
#X text 491 227 frames;
#X floatatom 481 166 0 0 0 0 - - -;
#X obj 480 113 r window-msec;
#X obj 481 136 / 4;
#X text 521 133 hop size (analysis;
#X text 546 149 period) in msec;
#X obj 359 408 tabreceive~ \$0-mask;
#X obj 292 468 tabsend~ \$0-mask;
#X obj 371 218 <;
#X obj 235 258 expr 1/($f1+1);
#X text 134 17 calculate a mask using N msec of background noise;
#X text 43 354 current power (for each channel);
#X text 367 430 average the current power into the last mask to get
the new mask. The new value is weighted 1/n on the nth iteration.;
#X text 390 312 weight to average in new power to mask;
#X text 11 203 loop counting to desired;
#X text 78 219 number of frames;
#X text 72 39 This loops for "make-mask" milliseconds \, averaging
power in each channel over that amount of time. This is done by a moving
average whose weight is adjusted to average each new value equally
with each of the accumulating ones.;
#X connect 0 0 8 0;
#X connect 1 0 12 0;
#X connect 2 0 3 1;
#X connect 2 0 26 0;
#X connect 3 0 13 0;
#X connect 3 0 4 0;
#X connect 4 0 3 1;
#X connect 5 0 6 0;
#X connect 6 0 3 0;
#X connect 7 0 26 1;
#X connect 8 0 10 0;
#X connect 9 0 1 0;
#X connect 10 0 11 1;
#X connect 11 0 25 0;
#X connect 12 0 10 1;
#X connect 13 0 26 0;
#X connect 13 1 27 0;
#X connect 14 0 15 0;
#X connect 15 0 2 0;
#X connect 15 1 16 0;
#X connect 16 0 7 0;
#X connect 20 0 21 0;
#X connect 21 0 16 1;
#X connect 21 0 19 0;
#X connect 24 0 8 1;
#X connect 24 0 11 0;
#X connect 26 0 6 1;
#X connect 26 0 9 0;
#X connect 27 0 12 0;
#X restore 132 203 pd calculate-mask;
#X text 91 98 real Fourier transform;
#X obj 357 57 loadbang;
#X msg 357 80 \; pd dsp 1 \; window-size 1024;
#X text 193 355 ... but not less than zero;
#X text 101 561 real inverse Fourier transform;
#X text 196 498 normalize by 2/(3N) where N is window size;
#X text 168 332 current power ("s") minus level-adjusted mask ("m")
;
#X text 156 175 compute power (call it "s") in each channel;
#X obj 123 395 +~ 1e-20;
#X text 203 395 protect against division by zero;
#X text 179 426 compute sqrt((s-m)/s) where "s";
#X text 296 204 <- subwindow calculates noise mask;
#X obj 98 499 /~ 1536;
#X connect 0 0 9 0;
#X connect 1 0 16 1;
#X connect 2 0 11 1;
#X connect 3 0 7 0;
#X connect 4 0 8 1;
#X connect 5 0 3 0;
#X connect 6 0 8 0;
#X connect 7 0 6 0;
#X connect 7 0 10 0;
#X connect 7 0 10 1;
#X connect 7 1 4 0;
#X connect 7 1 2 0;
#X connect 7 1 2 1;
#X connect 8 0 0 0;
#X connect 10 0 11 0;
#X connect 11 0 16 0;
#X connect 11 0 23 0;
#X connect 11 0 32 0;
#X connect 12 0 1 1;
#X connect 13 0 18 0;
#X connect 16 0 17 0;
#X connect 17 0 13 0;
#X connect 18 0 36 0;
#X connect 20 0 1 0;
#X connect 21 0 3 1;
#X connect 22 0 0 1;
#X connect 25 0 26 0;
#X connect 32 0 13 1;
#X connect 36 0 6 1;
#X connect 36 0 4 1;
#X restore 72 403 pd fft-analysis;
#N canvas 0 110 565 454 hann-window 0;
#N canvas 0 0 450 300 (subpatch) 0;
#X array \$0-hann 1024 float 0;
#X coords 0 1 1023 0 300 100 1;
#X restore 82 311 graph;
#X obj 378 165 osc~;
#X obj 378 190 *~ -0.5;
#X obj 378 214 +~ 0.5;
#X obj 331 247 tabwrite~ \$0-hann;
#X obj 37 88 r window-size;
#X obj 38 173 /;
#X obj 127 142 samplerate~;
#X obj 38 251 s window-sec;
#X obj 177 204 swap;
#X obj 177 228 /;
#X obj 177 252 s window-hz;
#X obj 49 201 * 1000;
#X obj 49 228 s window-msec;
#X obj 38 115 t f b f;
#X msg 173 92 resize \$1;
#X obj 173 116 s \$0-hann;
#X obj 330 105 r window-hz;
#X msg 382 130 0;
#X obj 330 131 t f b;
#X text 15 8 calculate Hann window table (variable window size) and
constants window-hz (fundamental frequency of analysis) \, window-sec
and window-msec (analysis window size in seconds and msec).;
#X connect 1 0 2 0;
#X connect 2 0 3 0;
#X connect 3 0 4 0;
#X connect 5 0 14 0;
#X connect 6 0 8 0;
#X connect 6 0 12 0;
#X connect 7 0 6 1;
#X connect 7 0 9 1;
#X connect 9 0 10 0;
#X connect 9 1 10 1;
#X connect 10 0 11 0;
#X connect 12 0 13 0;
#X connect 14 0 6 0;
#X connect 14 0 9 0;
#X connect 14 1 7 0;
#X connect 14 2 15 0;
#X connect 15 0 16 0;
#X connect 17 0 19 0;
#X connect 18 0 1 1;
#X connect 19 0 1 0;
#X connect 19 1 4 0;
#X connect 19 1 18 0;
#X restore 341 488 pd hann-window;
#X obj 327 437 s mask-level;
#X text 331 331 on;
#X text 370 332 off;
#X text 352 409 masking;
#X text 279 41 DENOISER;
#X msg 372 385 0;
#X text 183 496 calculate noise mask;
#X msg 202 523 \; make-mask 2000;
#X msg 327 384 15;
#N canvas 0 0 592 442 mask-table 0;
#N canvas 0 0 450 300 (subpatch) 0;
#X array \$0-mask 512 float 0;
#X coords 0 500 511 0 400 300 1;
#X restore 110 76 graph;
#X text 25 14 This table (1002-mask) is the average power measured
in each channel of the spectrum \, presumed to represent the noise
floor.;
#X restore 341 510 pd mask-table;
#X text 57 62 This patch attempts to scrub the noise floor from a sample
in two steps. First using the "make-mask" message (which is caught
in the "fft-analysis" window) \, you estimate the background spectrum.
You would normally do this at a moment when only the background noise
is audible. Then \, turn on "masking" (to 15 by default \, but try
other values) and the patch will try to clean the background noise
out of a signal.;
#X text 56 185 For this demonstration \, you control the amplitudes
of a looping sample and a filtered noise source. Normally you'd hit
"calculate noise mask" with only hte noise turned on \, then turn both
the noise and the sampler on \, and also "masking" \, to see if the
patch can clean the noise out of the signal. Open the "fft-analysis"
window to see the algorithm \, or the "insample" window to change samples
\, or "mask-table" to see the current mask (the average signal power
of the noise to clean out of the signal).;
#X obj 71 456 outlet~;
#X obj 221 444 t b b;
#X text 56 4 This is a copy of 104.noisegate.pd with the sample sounds
removed;
#X obj 73 355 inlet~;
#X obj 136 353 inlet;
#X obj 189 355 inlet;
#X obj 331 351 bng 15 250 50 0 empty empty empty 17 7 0 10 -262144
-1 -1;
#X obj 372 351 bng 15 250 50 0 empty empty empty 17 7 0 10 -262144
-1 -1;
#X text 327 320 Noise Gate;
#X obj 352 351 tgl 15 0 empty empty empty 17 7 0 10 -262144 -1 -1 0
15;
#X connect 0 0 3 0;
#X connect 0 0 24 0;
#X connect 1 0 15 0;
#X connect 8 0 0 0;
#X connect 11 0 0 0;
#X connect 16 0 10 0;
#X connect 16 1 11 0;
#X connect 18 0 1 0;
#X connect 19 0 16 0;
#X connect 20 0 8 0;
#X connect 21 0 16 0;
#X connect 22 0 8 0;
#X coords 0 -1 1 1 80 55 2 320 320;
#X restore 24 524 pd noisegate;
#N canvas 531 481 450 300 audio-in 0;
#X obj 34 -58 outlet~;
#X obj 35 -104 adc~;
#X connect 1 0 0 0;
#X coords 0 -1 1 1 80 20 1 100 100;
#X restore 24 409 pd audio-in;
#X obj 515 444 vsl 15 128 0 1000 0 0 empty empty attack -8 -9 0 10
-4032 -1 -1 127 1;
#X text 403 539 block;
#X text 317 538 allow;
#X obj 358 485 hradio 20 1 0 2 empty empty empty 0 -8 0 10 -262144
-1 -1 0;
#X text 359 465 voices;
#X text 323 483 steal;
#X text 400 483 don't steal;
#X msg 686 335 40;
#X msg 617 335 1000;
#X msg 571 349 10;
#X msg 201 53 40;
#X text 561 168 MIDI Keyboard In;
#X text 316 242 Voice stealing on;
#X text 434 242 Voice stealing off;
#X text 265 415 register incoming notes;
#X text 265 425 Adjust high pass so lowest note plays;
#X text 266 435 Adjust low pass so highest note plays;
#X text 265 405 Set the input volume just high enough;
#X text 266 445 Re-adjust input to suit;
#X obj 95 583 gs-voice;
#X obj 164 583 gs-voice;
#X obj 235 583 gs-voice;
#X obj 306 583 gs-voice;
#X obj 376 583 gs-voice;
#X obj 448 583 gs-voice;
#X obj 519 583 gs-voice;
#X obj 588 583 gs-voice;
#X obj 659 583 gs-voice;
#X obj 730 583 gs-voice;
#X obj 800 583 gs-voice;
#X text 708 668 The gs-notes array is for blocking playing notes &
visual only. Maybe MIDI out in the next version;
#X text 311 519 overide playing notes;
#X connect 0 0 15 0;
#X connect 0 0 37 0;
#X connect 0 1 32 0;
#X connect 1 0 56 1;
#X connect 2 0 10 0;
#X connect 2 0 8 0;
#X connect 4 0 6 0;
#X connect 5 0 11 0;
#X connect 6 0 24 0;
#X connect 7 0 5 1;
#X connect 8 0 76 0;
#X connect 9 0 56 0;
#X connect 10 0 5 0;
#X connect 10 0 11 0;
#X connect 11 0 9 0;
#X connect 11 0 28 0;
#X connect 11 1 1 0;
#X connect 11 1 27 0;
#X connect 12 0 34 0;
#X connect 14 0 37 1;
#X connect 16 0 17 0;
#X connect 17 0 56 0;
#X connect 17 1 56 1;
#X connect 18 0 107 0;
#X connect 18 0 19 0;
#X connect 18 0 22 0;
#X connect 18 0 61 0;
#X connect 18 0 60 0;
#X connect 18 0 59 0;
#X connect 18 0 58 0;
#X connect 18 0 64 0;
#X connect 20 0 21 0;
#X connect 20 0 105 0;
#X connect 20 0 75 0;
#X connect 20 0 104 0;
#X connect 20 0 67 0;
#X connect 20 0 106 0;
#X connect 20 0 84 0;
#X connect 21 0 90 0;
#X connect 22 0 87 0;
#X connect 23 0 13 0;
#X connect 24 0 7 0;
#X connect 25 0 24 1;
#X connect 26 0 7 0;
#X connect 27 0 57 1;
#X connect 28 0 57 0;
#X connect 29 0 30 0;
#X connect 30 0 57 0;
#X connect 30 1 57 1;
#X connect 31 0 38 0;
#X connect 32 0 14 0;
#X connect 33 0 78 0;
#X connect 34 0 65 0;
#X connect 34 0 65 1;
#X connect 35 0 39 0;
#X connect 36 0 68 0;
#X connect 36 0 100 0;
#X connect 37 0 42 0;
#X connect 37 1 42 1;
#X connect 37 2 42 2;
#X connect 38 0 71 0;
#X connect 38 1 116 0;
#X connect 38 2 117 0;
#X connect 38 3 118 0;
#X connect 38 4 119 0;
#X connect 38 5 120 0;
#X connect 38 6 121 0;
#X connect 38 7 122 0;
#X connect 38 8 123 0;
#X connect 38 9 124 0;
#X connect 38 10 125 0;
#X connect 38 11 126 0;
#X connect 39 0 93 0;
#X connect 40 0 31 0;
#X connect 41 0 31 1;
#X connect 42 0 38 0;
#X connect 56 0 40 0;
#X connect 56 1 40 1;
#X connect 56 2 40 2;
#X connect 57 0 41 0;
#X connect 57 1 41 1;
#X connect 57 2 41 2;
#X connect 58 0 62 0;
#X connect 59 0 62 0;
#X connect 60 0 62 0;
#X connect 61 0 62 0;
#X connect 62 0 2 0;
#X connect 62 3 10 1;
#X connect 63 0 33 0;
#X connect 64 0 94 0;
#X connect 67 0 66 0;
#X connect 68 0 100 0;
#X connect 69 0 70 0;
#X connect 71 0 43 0;
#X connect 71 1 43 1;
#X connect 71 2 43 2;
#X connect 71 3 43 3;
#X connect 75 0 92 0;
#X connect 76 0 4 0;
#X connect 77 0 34 0;
#X connect 79 0 80 0;
#X connect 80 0 62 0;
#X connect 80 1 77 0;
#X connect 83 0 80 1;
#X connect 84 0 83 0;
#X connect 87 0 33 2;
#X connect 88 0 33 1;
#X connect 89 0 23 0;
#X connect 90 0 12 0;
#X connect 91 0 34 2;
#X connect 92 0 34 1;
#X connect 93 0 25 0;
#X connect 93 0 26 0;
#X connect 94 0 63 1;
#X connect 95 0 63 0;
#X connect 96 0 95 0;
#X connect 97 0 69 0;
#X connect 100 0 31 2;
#X connect 104 0 91 0;
#X connect 105 0 89 0;
#X connect 106 0 97 0;
#X connect 107 0 88 0;
#X connect 116 0 44 0;
#X connect 116 1 44 1;
#X connect 116 2 44 2;
#X connect 116 3 44 3;
#X connect 117 0 45 0;
#X connect 117 1 45 1;
#X connect 117 2 45 2;
#X connect 117 3 45 3;
#X connect 118 0 46 0;
#X connect 118 1 46 1;
#X connect 118 2 46 2;
#X connect 118 3 46 3;
#X connect 119 0 47 0;
#X connect 119 1 47 1;
#X connect 119 2 47 2;
#X connect 119 3 47 3;
#X connect 120 0 48 0;
#X connect 120 1 48 1;
#X connect 120 2 48 2;
#X connect 120 3 48 3;
#X connect 121 0 50 0;
#X connect 121 1 50 1;
#X connect 121 2 50 2;
#X connect 121 3 50 3;
#X connect 122 0 51 0;
#X connect 122 1 51 1;
#X connect 122 2 51 2;
#X connect 122 3 51 3;
#X connect 123 0 52 0;
#X connect 123 1 52 1;
#X connect 123 2 52 2;
#X connect 123 3 52 3;
#X connect 124 0 53 0;
#X connect 124 1 53 1;
#X connect 124 2 53 2;
#X connect 124 3 53 3;
#X connect 125 0 54 0;
#X connect 125 1 54 1;
#X connect 125 2 54 2;
#X connect 125 3 54 3;
#X connect 126 0 55 0;
#X connect 126 1 55 1;
#X connect 126 2 55 2;
#X connect 126 3 55 3;
#X coords 0 -1 1 1 1050 300 2 10 400;
