#N canvas 0 64 1366 676 10;
#X text 1113 182 on;
#X obj 985 377 *~;
#X obj 1057 352 line~;
#X obj 984 486 s~ MSTIN~;
#X text 1124 205 off;
#X obj 17 26 fx3000~ 0;
#X obj 986 34 fx3000~/playsample~;
#X obj 337 33 fx3000~ 1;
#X obj 657 33 fx3000~ 2;
#X obj 985 453 fx3000~/abs_bypass(s)~;
#X obj 1114 414 tgl 15 0 empty empty empty 17 7 0 10 -262144 -1 -1
0 1;
#X obj 1047 392 adc~;
#X obj 1114 364 loadbang;
#X msg 1114 387 0;
#X obj 129 483 r~ fx3000-0-OUT;
#X obj 30 533 s~ fx3000-in-0;
#X obj 129 533 s~ fx3000-in-1;
#X obj 249 533 s~ fx3000-in-2;
#X obj 249 483 r~ fx3000-1-OUT;
#X obj 389 483 r~ fx3000-2-OUT;
#X obj 29 483 r~ MSTIN~;
#X obj 390 533 dac~;
#X obj 1172 185 vsl 15 128 0 1 0 0 empty empty empty 0 -9 0 10 -262144
-1 -1 0 1;
#X msg 1056 185 0.68 20;
#X msg 1076 207 0 20;
#X msg 1172 321 \$1 20;
#X connect 1 0 9 0;
#X connect 2 0 1 1;
#X connect 6 0 1 0;
#X connect 9 0 3 0;
#X connect 10 0 9 2;
#X connect 11 0 9 1;
#X connect 11 1 9 1;
#X connect 12 0 13 0;
#X connect 13 0 10 0;
#X connect 14 0 16 0;
#X connect 18 0 17 0;
#X connect 19 0 21 0;
#X connect 19 0 21 1;
#X connect 20 0 15 0;
#X connect 22 0 25 0;
#X connect 23 0 2 0;
#X connect 24 0 2 0;
#X connect 25 0 2 0;
