#N canvas 104 134 1078 607 12;
#X obj 332 500 v pos;
#X obj 227 133 v resi;
#X obj 293 134 v poid;
#X obj 175 284 v vit;
#X obj 332 477 nbx 5 14 -1e+37 1e+37 0 0 empty empty empty 0 -8 0 10
-262144 -1 -1 0 256;
#X obj 227 109 nbx 5 14 -1e+37 1e+37 0 0 empty empty empty 0 -8 0 10
-262144 -1 -1 64 256;
#X obj 293 110 nbx 5 14 -1e+37 1e+37 0 0 empty empty empty 0 -8 0 10
-262144 -1 -1 660 256;
#X obj 175 264 nbx 5 14 -1e+37 1e+37 0 0 empty empty empty 0 -8 0 10
-262144 -1 -1 150000 256;
#X obj 159 498 v centre;
#X obj 159 474 nbx 5 14 -1e+37 1e+37 0 0 empty empty empty 0 -8 0 10
-262144 -1 -1 500 256;
#X obj 477 216 nbx 5 14 -1e+37 1e+37 0 0 empty empty empty 0 -8 0 10
-262144 -1 -1 491.694 256;
#X obj 477 120 tgl 15 0 empty empty empty 17 7 0 10 -262144 -1 -1 1
1;
#X obj 477 148 metro 40;
#X obj 740 216 nbx 5 14 -1e+37 1e+37 0 0 empty empty empty 0 -8 0 10
-262144 -1 -1 -1530.84 256;
#X obj 376 182 vsl 15 128 -1000 1000 0 0 empty empty empty 0 -9 0 10
-262144 -1 -1 9472 1;
#X obj 368 134 v amor;
#X obj 368 110 nbx 5 14 -1e+37 1e+37 0 0 empty empty empty 0 -8 0 10
-262144 -1 -1 750 256;
#X obj 477 175 expr pos=pos+vit*0.004 \; vit=(vit*poid/amor-(pos-centre)*resi)
\;;
#X msg 175 237 150000;
#X msg 227 82 64;
#X msg 293 82 660;
#X msg 368 82 750;
#X obj 293 32 loadbang;
#X obj 175 181 bng 50 250 50 0 empty empty empty 17 7 0 10 -99865 -257985
-1;
#X text 5 193 Clic to put some motion;
#X text 215 156 Tweak those parameters and see;
#X text 75 388 You could also start the oscillation by changing the
position of an extremitie of the spring :;
#X msg 183 429 500;
#X msg 306 443 500;
#X msg 138 427 0;
#X text 884 20 Il pleut resonat;
#X text 538 305 This equation is a poor modelisation of the oscillation
of a spring. Resi = hardness of the material for a fixed lenght \,
Poid = weight amor = amortissement \, how different parameters like
air resistance and thermique dissipation slow down the movement. centre
= position of a side of the spring on a X axis. pos = position of the
other side on that axis. Vit= speed of the pos side relatively to the
centre. The exact same equation can be used in an fexpr~ to create
percussion sound.;
#X connect 4 0 0 0;
#X connect 5 0 1 0;
#X connect 6 0 2 0;
#X connect 7 0 3 0;
#X connect 9 0 8 0;
#X connect 11 0 12 0;
#X connect 12 0 17 0;
#X connect 16 0 15 0;
#X connect 17 0 10 0;
#X connect 17 0 14 0;
#X connect 17 1 13 0;
#X connect 18 0 7 0;
#X connect 19 0 5 0;
#X connect 20 0 6 0;
#X connect 21 0 16 0;
#X connect 22 0 21 0;
#X connect 22 0 20 0;
#X connect 22 0 19 0;
#X connect 22 0 11 0;
#X connect 23 0 18 0;
#X connect 27 0 9 0;
#X connect 28 0 4 0;
#X connect 29 0 9 0;
