#N canvas 46 71 1234 707 12;
#X obj 391 113 nbx 5 14 -1e+37 1e+37 0 0 empty ppos empty 0 -8 0 10
#fcfcfc #000000 #000000 0 256;
#X obj 461 113 nbx 5 14 -1e+37 1e+37 0 0 empty rresi empty 0 -8 0 10
#fcfcfc #000000 #000000 0 256;
#X obj 526 113 nbx 5 14 -1e+37 1e+37 0 0 empty ppoid empty 0 -8 0 10
#fcfcfc #000000 #000000 0 256;
#X obj 591 118 nbx 5 14 -1e+37 1e+37 0 0 empty empty empty 0 -8 0 10
#fcfcfc #000000 #000000 0 256;
#X obj 320 114 nbx 5 14 -1e+37 1e+37 0 0 empty ccentre empty 0 -8 0
10 #fcfcfc #000000 #000000 0 256;
#X obj 200 280 tgl 15 0 empty empty empty 17 7 0 10 #fcfcfc #000000
#000000 0 1;
#X obj 200 302 metro 40;
#X obj 173 358 vsl 15 128 -1000 1000 0 0 empty empty empty 0 -9 0 10
#fcfcfc #000000 #000000 0 1;
#X obj 652 118 nbx 5 14 -1e+37 1e+37 0 0 empty aamor empty 0 -8 0 10
#fcfcfc #000000 #000000 0 256;
#X obj 61 379 dac~;
#X obj 200 330 snapshot~;
#X obj 200 356 nbx 5 14 -1e+37 1e+37 0 0 empty empty empty 0 -8 0 10
#fcfcfc #000000 #000000 0 256;
#X msg 974 594 500000;
#X obj 966 265 + 1;
#X obj 1022 256 % 16;
#X obj 1004 294 f;
#X obj 1004 190 tgl 15 0 empty empty empty 17 7 0 10 #fcfcfc #000000
#000000 0 1;
#X obj 1004 212 metro 200;
#X obj 863 387 moses 13;
#X obj 685 458 route 0;
#X msg 1045 629 500030;
#X obj 895 536 nbx 5 14 -1e+37 1e+37 0 0 ppos empty empty 0 -8 0 10
#fcfcfc #000000 #000000 0 256;
#X obj 895 461 nbx 5 14 -1e+37 1e+37 0 0 rresi empty empty 0 -8 0 10
#fcfcfc #000000 #000000 0 256;
#X obj 863 671 nbx 5 14 -1e+37 1e+37 0 0 aamor empty empty 0 -8 0 10
#fcfcfc #000000 #000000 0 256;
#X msg 895 509 500;
#X obj 863 573 random 100000;
#X obj 863 643 + 10;
#X obj 895 437 random 600;
#X obj 895 622 nbx 5 14 -1e+37 1e+37 0 0 ppoid empty empty 0 -8 0 10
#fcfcfc #000000 #000000 0 256;
#X obj 863 598 t f f;
#X obj 1045 584 tgl 15 0 empty mode empty 17 7 0 10 #fcfcfc #000000
#000000 0 1;
#X obj 1045 605 route 0;
#X obj 1075 473 tgl 15 0 mode empty empty 17 7 0 10 #fcfcfc #000000
#000000 0 1;
#X obj 731 628 nbx 5 14 -1e+37 1e+37 0 0 ccentre empty empty 0 -8 0
10 #fcfcfc #000000 #000000 0 256;
#X obj 863 413 t b b;
#X obj 863 481 t b b;
#X obj 731 485 moses 13;
#X obj 763 559 nbx 5 14 -1e+37 1e+37 0 0 rresi empty empty 0 -8 0 10
#fcfcfc #000000 #000000 0 256;
#X obj 763 535 random 600;
#X obj 731 511 t b b;
#X obj 685 547 nbx 5 14 -1e+37 1e+37 0 0 ppos empty empty 0 -8 0 10
#fcfcfc #000000 #000000 0 256;
#X msg 685 506 -250;
#X obj 1057 521 s;
#X obj 863 360 r 1-gobu;
#X obj 685 425 r 0-gobu;
#X msg 1075 495 symbol \$1-gobu;
#X obj 1004 348 route 14;
#X obj 200 254 loadbang;
#X obj 1004 127 loadbang;
#X msg 1088 207 \; pd dsp 1;
#X obj 1004 163 t b b;
#X obj 731 579 random 600;
#X obj 1004 401 random 2;
#X obj 1004 427 route 0;
#X obj 731 604 * -1;
#X obj 37 278 hip~ 30;
#X obj 37 247 lop~ 18000;
#X text 683 240 these generate some kind of a melodie;
#X obj 37 340 /~ 1100;
#X text 333 179 Same parameters and equation;
#X obj 320 137 v centre1;
#X obj 391 136 v pos1;
#X obj 461 139 v resi1;
#X obj 526 137 v poid1;
#X obj 591 138 v vit1;
#X obj 652 137 v amor1;
#X obj 37 199 fexpr~ pos1=pos1+vit1*0.00001 \; vit1=(vit1*poid1/amor1-(pos1-centre1)*resi1)
\;;
#X floatatom 1084 327 5 0 0 0 - - - 0;
#X obj 1120 393 bng 15 250 50 0 empty empty empty 17 7 0 10 #fcfcfc
#000000 #000000;
#X obj 961 376 bng 15 250 50 0 empty empty empty 17 7 0 10 #fcfcfc
#000000 #000000;
#X connect 0 0 61 0;
#X connect 1 0 62 0;
#X connect 2 0 63 0;
#X connect 3 0 64 0;
#X connect 4 0 60 0;
#X connect 5 0 6 0;
#X connect 6 0 10 0;
#X connect 8 0 65 0;
#X connect 10 0 7 0;
#X connect 10 0 11 0;
#X connect 12 0 28 0;
#X connect 13 0 14 0;
#X connect 14 0 15 1;
#X connect 15 0 13 0;
#X connect 15 0 46 0;
#X connect 15 0 67 0;
#X connect 16 0 17 0;
#X connect 17 0 15 0;
#X connect 18 0 34 0;
#X connect 19 0 41 0;
#X connect 19 1 36 0;
#X connect 20 0 23 0;
#X connect 24 0 21 0;
#X connect 25 0 29 0;
#X connect 26 0 23 0;
#X connect 27 0 22 0;
#X connect 29 0 26 0;
#X connect 29 1 28 0;
#X connect 30 0 31 0;
#X connect 31 0 20 0;
#X connect 31 0 12 0;
#X connect 32 0 45 0;
#X connect 34 0 35 0;
#X connect 34 1 27 0;
#X connect 35 0 25 0;
#X connect 35 1 24 0;
#X connect 36 0 39 0;
#X connect 38 0 37 0;
#X connect 39 0 51 0;
#X connect 39 1 38 0;
#X connect 41 0 40 0;
#X connect 43 0 18 0;
#X connect 44 0 19 0;
#X connect 45 0 42 1;
#X connect 46 0 52 0;
#X connect 46 0 69 0;
#X connect 46 1 42 0;
#X connect 46 1 68 0;
#X connect 47 0 5 0;
#X connect 48 0 50 0;
#X connect 50 0 16 0;
#X connect 50 1 49 0;
#X connect 51 0 54 0;
#X connect 52 0 53 0;
#X connect 53 0 32 0;
#X connect 54 0 33 0;
#X connect 55 0 10 0;
#X connect 55 0 58 0;
#X connect 56 0 55 0;
#X connect 58 0 9 1;
#X connect 58 0 9 0;
#X connect 66 0 56 0;
