#N canvas 190 12 957 647 10;
#X obj 12 343 osc~;
#X obj 97 334 osc~;
#X obj 196 311 osc~;
#X obj 312 325 osc~;
#X text 314 302 the 5 oscillators creating the formant;
#X obj 392 323 osc~;
#X obj 81 611 outlet~;
#N canvas 0 0 450 300 graph3 0;
#X array ffrequency1 7 float 1;
#A 0 600 600 400 250 400 350 350;
#X array ffrequency2 7 float 1;
#A 0 1040 1040 1620 1750 750 600 600;
#X array ffrequency3 7 float 1;
#A 0 2250 2250 2400 2600 2400 2400 2400;
#X array ffrequency4 7 float 1;
#A 0 2450 2450 2800 3050 2600 2675 2675;
#X array ffrequency5 7 float 1;
#A 0 2750 2750 3100 3340 2900 2950 2950;
#X coords 0 3500 6 0 200 140 1;
#X restore 748 194 graph;
#X obj 514 11 loadbang;
#N canvas 0 0 450 300 graph4 0;
#X array famp1 7 float 1;
#A 0 0 0 0 0 0 0 0;
#X array famp2 7 float 1;
#A 0 -7 -7 -12 -30 -11 -20 -20;
#X array famp3 7 float 1;
#A 0 -9 -9 -9 -16 -21 -32 -32;
#X array famp4 7 float 1;
#A 0 -9 -9 -12 -22 -20 -28 -28;
#X array famp5 7 float 1;
#A 0 -20 -20 -18 -28 -40 -36 -36;
#X coords 0 0 6 -64 200 140 1;
#X restore 748 342 graph;
#X obj 12 541 *~;
#X obj 12 22 inlet;
#X obj 139 26 inlet;
#X text 146 47 Formant Morph Position;
#X text 5 2 Frequency Offset;
#X obj 28 123 tabread4 ffrequency1;
#X obj 12 200 +;
#X msg 28 162 bang;
#X obj 36 363 tabread4 famp1;
#X obj 97 541 *~;
#X obj 196 537 *~;
#X obj 312 538 *~;
#X obj 392 538 *~;
#X obj 113 390 tabread4 famp2;
#X obj 209 365 tabread4 famp3;
#X obj 323 365 tabread4 famp4;
#X obj 428 352 tabread4 famp5;
#X obj 184 123 send Morph;
#X obj 210 331 receive Morph;
#X obj 70 220 +;
#X msg 86 182 bang;
#X obj 130 213 +;
#X msg 146 188 bang;
#X obj 86 144 tabread4 ffrequency2;
#X obj 146 168 tabread4 ffrequency3;
#X obj 223 241 +;
#X msg 239 216 bang;
#X obj 239 190 tabread4 ffrequency4;
#X obj 373 240 +;
#X msg 389 215 bang;
#X obj 389 189 tabread4 ffrequency5;
#X obj 32 433 -;
#X obj 40 495 int 1;
#X msg 49 465 bang;
#X obj 129 460 -;
#X obj 129 520 int 1;
#X msg 146 492 bang;
#X obj 223 441 -;
#X obj 227 501 int 1;
#X msg 240 473 bang;
#X obj 341 458 -;
#X obj 345 518 int 1;
#X msg 358 490 bang;
#X obj 438 420 -;
#X obj 442 480 int 1;
#X msg 455 452 bang;
#X text 325 -4 load the data into the tables (could also be done with
a file);
#X floatatom 261 588 5 0 0;
#X obj 227 397 / 200;
#X obj 132 418 / 200;
#X obj 36 389 / 200;
#X obj 345 414 / 200;
#X obj 442 376 / 200;
#X obj 81 575 /~ 15;
#X msg 362 144 \; famp5 0 -20 -20 -18 -28 -40 -36 -36;
#X obj 139 81 * 7;
#X msg 363 111 \; famp4 0 -9 -9 -12 -22 -20 -28 -28;
#X msg 363 78 \; famp3 0 -9 -9 -9 -16 -21 -32 -32;
#X msg 363 45 \; famp2 0 -7 -7 -12 -30 -11 -20 -20;
#X msg 363 12 \; famp1 0 0 0 0 0 0 0 0;
#X msg 614 144 \; ffrequency5 0 2750 2750 3100 3340 2900 2950 2950
;
#X msg 614 111 \; ffrequency4 0 2450 2450 2800 3050 2600 2675 2675
;
#X msg 614 78 \; ffrequency3 0 2250 2250 2400 2600 2400 2400 2400;
#X msg 614 45 \; ffrequency2 0 1040 1040 1620 1750 750 600 600;
#X msg 614 12 \; ffrequency1 0 600 600 400 250 400 350 350;
#X obj 69 22 inlet~;
#X obj 12 243 sig~;
#X obj 12 316 +~;
#X obj 109 243 sig~;
#X obj 109 307 +~;
#X obj 165 243 sig~;
#X obj 165 284 +~;
#X obj 268 242 sig~;
#X obj 268 273 +~;
#X obj 434 242 sig~;
#X obj 434 272 +~;
#X connect 0 0 10 0;
#X connect 1 0 19 0;
#X connect 2 0 20 0;
#X connect 3 0 21 0;
#X connect 5 0 22 0;
#X connect 8 0 74 0;
#X connect 8 0 73 0;
#X connect 8 0 72 0;
#X connect 8 0 71 0;
#X connect 8 0 69 0;
#X connect 8 0 68 0;
#X connect 8 0 67 0;
#X connect 8 0 66 0;
#X connect 8 0 64 0;
#X connect 8 0 70 0;
#X connect 10 0 63 0;
#X connect 11 0 16 0;
#X connect 11 0 29 0;
#X connect 11 0 31 0;
#X connect 11 0 35 0;
#X connect 11 0 38 0;
#X connect 12 0 65 0;
#X connect 15 0 16 1;
#X connect 15 0 17 0;
#X connect 16 0 76 0;
#X connect 17 0 16 0;
#X connect 18 0 60 0;
#X connect 19 0 63 0;
#X connect 20 0 63 0;
#X connect 21 0 63 0;
#X connect 22 0 63 0;
#X connect 23 0 59 0;
#X connect 24 0 58 0;
#X connect 25 0 61 0;
#X connect 26 0 62 0;
#X connect 26 0 57 0;
#X connect 28 0 18 0;
#X connect 28 0 23 0;
#X connect 28 0 24 0;
#X connect 28 0 25 0;
#X connect 28 0 26 0;
#X connect 29 0 78 0;
#X connect 30 0 29 0;
#X connect 31 0 80 0;
#X connect 32 0 31 0;
#X connect 33 0 29 1;
#X connect 33 0 30 0;
#X connect 34 0 31 1;
#X connect 34 0 32 0;
#X connect 35 0 82 0;
#X connect 36 0 35 0;
#X connect 37 0 35 1;
#X connect 37 0 36 0;
#X connect 38 0 84 0;
#X connect 39 0 38 0;
#X connect 40 0 38 1;
#X connect 40 0 39 0;
#X connect 41 0 10 1;
#X connect 42 0 41 0;
#X connect 43 0 42 0;
#X connect 44 0 19 1;
#X connect 45 0 44 0;
#X connect 46 0 45 0;
#X connect 47 0 20 1;
#X connect 48 0 47 0;
#X connect 49 0 48 0;
#X connect 50 0 21 1;
#X connect 51 0 50 0;
#X connect 52 0 51 0;
#X connect 53 0 22 1;
#X connect 54 0 53 0;
#X connect 55 0 54 0;
#X connect 58 0 49 0;
#X connect 58 0 47 1;
#X connect 59 0 46 0;
#X connect 59 0 44 1;
#X connect 60 0 43 0;
#X connect 60 0 41 1;
#X connect 61 0 52 0;
#X connect 61 0 50 1;
#X connect 62 0 55 0;
#X connect 62 0 53 1;
#X connect 63 0 6 0;
#X connect 65 0 15 0;
#X connect 65 0 27 0;
#X connect 65 0 33 0;
#X connect 65 0 34 0;
#X connect 65 0 37 0;
#X connect 65 0 40 0;
#X connect 75 0 77 1;
#X connect 75 0 79 1;
#X connect 75 0 81 1;
#X connect 75 0 83 1;
#X connect 75 0 85 1;
#X connect 76 0 77 0;
#X connect 77 0 0 0;
#X connect 78 0 79 0;
#X connect 79 0 1 0;
#X connect 80 0 81 0;
#X connect 81 0 2 0;
#X connect 82 0 83 0;
#X connect 83 0 3 0;
#X connect 84 0 85 0;
#X connect 85 0 5 0;
