#N canvas 3 54 1351 708 10;
#X obj 93 63 inlet;
#X obj 93 443 outlet;
#X floatatom 94 86 5 0 0 0 - - -, f 5;
#X obj 192 245 list length;
#X obj 131 292 == 1;
#X obj 288 294 == 2;
#X obj 258 329 spigot;
#X obj 93 329 spigot;
#X symbolatom 93 399 10 0 0 0 - - -, f 10;
#X msg 258 351 \$1;
#X obj 216 48 hradio 15 1 0 19 empty empty empty 0 -8 0 10 -262144
-1 -1 5;
#X obj 93 189 list fromsymbol;
#X msg 94 121 \$1;
#X obj 93 245 list tosymbol;
#X msg 93 362 symbol 0\$1;
#X obj 259 382 ../vlist2symbol/vlist2symbol;
#X obj 93 152 ../vlist2symbol/vlist2symbol;
#X connect 0 0 2 0;
#X connect 2 0 12 0;
#X connect 3 0 4 0;
#X connect 3 0 5 0;
#X connect 4 0 7 1;
#X connect 5 0 6 1;
#X connect 6 0 9 0;
#X connect 7 0 14 0;
#X connect 8 0 1 0;
#X connect 9 0 15 0;
#X connect 10 0 2 0;
#X connect 11 0 3 0;
#X connect 11 0 13 0;
#X connect 12 0 16 0;
#X connect 13 0 7 0;
#X connect 13 0 6 0;
#X connect 14 0 8 0;
#X connect 15 0 8 0;
#X connect 16 0 11 0;
