#N canvas 86 378 1351 385 10;
#X obj 132 68 inlet~;
#X obj 241 68 inlet~;
#X obj 311 67 inlet;
#X obj 132 276 outlet~;
#X obj 131 226 *~;
#X obj 242 245 *~;
#X floatatom 313 93 5 0 1 0 - - -, f 5;
#X msg 148 176 \$1 20;
#X obj 148 198 line~;
#X msg 311 192 \$1 20;
#X obj 310 218 line~;
#X obj 151 107 * -1;
#X obj 151 136 + 1;
#X obj 242 277 outlet~;
#X text 239 321 cutting the 1 outlet \; trying left and right \; really
dependent on cpu hit \; THIS doesnt make any sense \; so reverting
to mono;
#X floatatom 186 244 5 0 0 0 - - -, f 5;
#X obj 437 54 hsl 128 15 0 1 0 0 empty empty empty -2 -8 0 10 -262144
-1 -1 0 1;
#X connect 0 0 4 0;
#X connect 1 0 5 0;
#X connect 2 0 6 0;
#X connect 4 0 3 0;
#X connect 5 0 13 0;
#X connect 6 0 11 0;
#X connect 6 0 9 0;
#X connect 7 0 8 0;
#X connect 8 0 4 1;
#X connect 9 0 10 0;
#X connect 10 0 5 1;
#X connect 11 0 12 0;
#X connect 12 0 7 0;
#X connect 12 0 15 0;
#X connect 16 0 6 0;
