#N canvas 0 54 1440 818 10;
#X obj 56 141 date, f 19;
#X msg 56 112 bang;
#X floatatom 109 176 0 0 0 0 - - -;
#X floatatom 82 177 0 0 0 0 - - -;
#X floatatom 42 179 0 0 0 0 - - -;
#X msg 200 119 bang;
#X floatatom 228 178 0 0 0 0 - - -;
#X floatatom 189 178 0 0 0 0 - - -;
#X floatatom 157 178 0 0 0 0 - - -;
#X obj 198 140 time;
#X obj 52 56 bng 15 250 50 0 empty empty empty 17 7 0 10 -262144 -1
-1;
#X obj 54 82 t b b;
#X symbolatom 44 296 36 0 0 0 - - -, f 36;
#X msg 46 274 symbol \$1_\$2_\$3_\$4_\$5_\$6-recording;
#X obj 140 212 2digitdates;
#X obj 71 212 2digitdates;
#X obj 367 212 2digitdates;
#X obj 215 212 2digitdates;
#X obj 289 212 2digitdates;
#X obj 42 244 pack f s s s s s;
#X obj 49 21 inlet;
#X obj 45 348 outlet;
#X connect 0 0 4 0;
#X connect 0 1 3 0;
#X connect 0 2 2 0;
#X connect 1 0 0 0;
#X connect 2 0 14 0;
#X connect 3 0 15 0;
#X connect 4 0 19 0;
#X connect 5 0 9 0;
#X connect 6 0 16 0;
#X connect 7 0 18 0;
#X connect 8 0 17 0;
#X connect 9 0 8 0;
#X connect 9 1 7 0;
#X connect 9 2 6 0;
#X connect 10 0 11 0;
#X connect 11 0 1 0;
#X connect 11 1 5 0;
#X connect 12 0 21 0;
#X connect 13 0 12 0;
#X connect 14 0 19 2;
#X connect 15 0 19 1;
#X connect 16 0 19 5;
#X connect 17 0 19 3;
#X connect 18 0 19 4;
#X connect 19 0 13 0;
#X connect 20 0 10 0;
