#N canvas 12 54 1425 818 10;
#X obj 157 84 env~ 16384 8192;
#X obj 102 102 cnv 15 19 19 empty \$0-met empty 20 12 0 14 -262144
-262144 0;
#X obj 157 62 inlet~;
#X msg 176 212 back;
#N canvas 14 206 606 448 RGB_____________ 0;
#X obj 97 56 inlet;
#X obj 262 53 inlet;
#X obj 339 55 inlet;
#X obj 405 56 inlet;
#X obj 97 270 bang;
#X msg 77 295 0;
#X msg 104 295 1;
#X obj 146 268 bang;
#X msg 132 295 0;
#X msg 160 295 1;
#X obj 265 313 spigot;
#X obj 312 313 spigot;
#X obj 249 385 outlet;
#X text 93 33 select;
#X text 267 28 red;
#X text 337 30 green;
#X text 409 30 blue;
#X obj 405 102 t b f;
#X obj 339 160 +;
#X obj 339 185 t b f;
#X obj 339 216 +;
#X obj 296 385 outlet;
#X obj 28 180 loadbang;
#X obj 296 361 f;
#X obj 249 361 f;
#X obj 262 79 * -65536;
#X obj 339 80 * -256;
#X obj 405 80 * -1;
#X obj 339 247 - 1;
#X obj 97 135 route back label bang;
#X obj 235 168 t b b b;
#X connect 0 0 29 0;
#X connect 1 0 25 0;
#X connect 2 0 26 0;
#X connect 3 0 27 0;
#X connect 4 0 5 0;
#X connect 4 0 6 0;
#X connect 5 0 11 1;
#X connect 6 0 10 1;
#X connect 7 0 8 0;
#X connect 7 0 9 0;
#X connect 8 0 10 1;
#X connect 9 0 11 1;
#X connect 10 0 24 1;
#X connect 11 0 23 1;
#X connect 17 0 18 0;
#X connect 17 1 18 1;
#X connect 18 0 19 0;
#X connect 19 0 20 0;
#X connect 19 1 20 1;
#X connect 20 0 28 0;
#X connect 22 0 6 0;
#X connect 23 0 21 0;
#X connect 24 0 12 0;
#X connect 25 0 20 0;
#X connect 26 0 18 0;
#X connect 27 0 17 0;
#X connect 28 0 11 0;
#X connect 28 0 10 0;
#X connect 29 0 4 0;
#X connect 29 1 7 0;
#X connect 29 2 30 0;
#X connect 30 0 24 0;
#X connect 30 1 23 0;
#X connect 30 2 28 0;
#X restore 165 253 pd RGB_____________;
#X obj 166 291 pack 0 0 0 \$0;
#X msg 164 313 \; \$4-met color \$1 \$2 \$3;
#X obj 159 182 t b b f;
#X obj 212 188 t b b f;
#X obj 159 117 expr int(($f1/100)*255);
#X obj 213 141 - 255;
#X obj 213 163 abs;
#X floatatom 215 433 6 0 0 0 - - -, f 6;
#X connect 0 0 9 0;
#X connect 2 0 0 0;
#X connect 3 0 4 0;
#X connect 4 0 5 0;
#X connect 4 1 5 2;
#X connect 5 0 6 0;
#X connect 7 0 4 0;
#X connect 7 1 3 0;
#X connect 7 2 4 1;
#X connect 8 0 4 0;
#X connect 8 1 3 0;
#X connect 8 2 4 2;
#X connect 9 0 10 0;
#X connect 9 0 7 0;
#X connect 10 0 11 0;
#X connect 11 0 8 0;
#X coords 0 -1 1 1 20 20 2 100 100;
