#N canvas 0 64 1366 676 10;
#X obj 101 101 cnv 15 338 140 empty empty TRANSPORT~ 2 12 0 21 -228856
-66577 0;
#X obj 238 123 tgl 67 0 empty \$0-PLAY PLA 2 33 0 36 -4034 -1 -1 0
1;
#X obj 170 123 tgl 67 0 empty \$0-RECORD REC 2 33 0 36 -258113 -1 -1
0 1;
#X obj 101 392 tgl 15 0 empty empty empty 17 7 0 10 -262144 -1 -1 0
1;
#X obj 100 414 sel 0 1;
#X msg 100 436 2 1;
#X msg 133 473 1 1;
#X obj 134 442 t b b;
#X obj 167 474 bng 15 250 50 0 empty empty empty 17 7 0 10 -262144
-1 -1;
#X obj 72 578 outlet~;
#X obj 309 124 vsl 67 62 0 1 0 0 empty \$0-MASTER VOL 0 33 0 36 -262144
-1 -1 5978 1;
#X msg 168 396 3 \$1;
#X msg 285 386 0 \$1;
#X obj 206 -116 inlet;
#X obj 157 -115 inlet;
#X obj 255 -116 inlet;
#N canvas 3 54 1425 818 recorder~ 0;
#X obj 160 586 writesf~ 2;
#X msg 184 380 stop;
#X obj 132 127 bng 15 250 50 0 empty empty stop 17 7 0 10 -262144 -1
-1;
#X obj 216 12 inlet~;
#X obj 131 106 bng 15 250 50 0 empty \$0-record_canvas empty 17 7 0
10 -262144 -1 -262144;
#X obj 126 293 t b b;
#X text 146 106 record;
#X obj 215 406 *~;
#X obj 105 128 vsl 15 35 0 1 0 0 empty empty vol 0 -9 0 10 -262144
-1 -1 3332 1;
#X obj 714 433 line~;
#X obj 18 374 t b a;
#X obj 332 12 inlet;
#X obj 328 33 route 0 1 2 3, f 25;
#X obj 331 74 sel 1;
#X obj 290 73 sel 1;
#X obj 520 12 inlet;
#X symbolatom 22 303 10 0 0 0 - - -;
#X msg 20 339 open -bytes 4 recordings/\$1 \, start;
#X obj 312 275 readsf~ 2;
#X obj 362 312 bng 15 250 50 0 empty empty empty 17 7 0 10 -262144
-1 -1;
#X symbolatom 315 212 10 0 0 0 - - -;
#X obj 130 152 tgl 15 0 empty empty play 17 7 0 10 -262144 -1 -1 0
1;
#X obj 318 114 pack f s;
#X msg 362 332 1;
#X msg 318 136 \$2 \$1;
#X obj 318 158 unpack s f;
#X obj 484 191 sel 0 1;
#X msg 485 243 0;
#X msg 567 252 1;
#X msg 315 185 symbol \$1.wav;
#X msg 315 241 open recordings/\$1;
#X obj 310 596 outlet~;
#X obj 721 12 loadbang;
#X msg 714 401 \$1 20;
#X obj 664 309 v \$0-curvol;
#X floatatom 714 372 5 0 0 0 - - -;
#X msg 714 340 0;
#X floatatom 964 55 5 0 0 0 - - -;
#X floatatom 713 279 5 0 0 0 - - -;
#X obj 521 54 pack s f;
#X msg 522 95 set \$1-\$2;
#X text 785 169 new 2019_04_20_15_02-for the looping tation;
#X obj 566 219 delay 1000 1 msec;
#X obj 217 510 *~;
#X obj 216 469 z~ 64;
#X obj 217 541 hip~ 1;
#X obj 230 435 limiter~ 98 1;
#X text 272 468 limiter add 2019-04-22-10-28;
#X msg 99 59 0.98;
#X obj 964 14 inlet;
#X connect 1 0 0 0;
#X connect 2 0 5 0;
#X connect 3 0 7 0;
#X connect 4 0 16 0;
#X connect 5 1 1 0;
#X connect 7 0 44 0;
#X connect 7 0 46 0;
#X connect 8 0 38 0;
#X connect 9 0 7 1;
#X connect 10 1 0 0;
#X connect 11 0 12 0;
#X connect 12 0 8 0;
#X connect 12 1 14 0;
#X connect 12 2 13 0;
#X connect 12 3 21 0;
#X connect 13 0 2 0;
#X connect 14 0 4 0;
#X connect 15 0 39 0;
#X connect 16 0 17 0;
#X connect 16 0 22 1;
#X connect 17 0 10 0;
#X connect 18 0 31 0;
#X connect 18 2 19 0;
#X connect 19 0 23 0;
#X connect 20 0 30 0;
#X connect 21 0 22 0;
#X connect 22 0 24 0;
#X connect 23 0 21 0;
#X connect 24 0 25 0;
#X connect 25 0 29 0;
#X connect 25 1 26 0;
#X connect 26 0 27 0;
#X connect 26 0 34 0;
#X connect 26 1 36 0;
#X connect 26 1 42 0;
#X connect 27 0 18 0;
#X connect 28 0 18 0;
#X connect 29 0 20 0;
#X connect 30 0 18 0;
#X connect 32 0 48 0;
#X connect 33 0 9 0;
#X connect 34 0 35 0;
#X connect 35 0 33 0;
#X connect 36 0 35 0;
#X connect 37 0 39 1;
#X connect 38 0 33 0;
#X connect 38 0 34 0;
#X connect 39 0 40 0;
#X connect 40 0 16 0;
#X connect 42 0 28 0;
#X connect 43 0 45 0;
#X connect 44 0 43 0;
#X connect 45 0 0 0;
#X connect 45 0 0 1;
#X connect 45 0 31 0;
#X connect 46 0 43 1;
#X connect 48 0 8 0;
#X connect 49 0 37 0;
#X restore 72 532 pd recorder~;
#N canvas 0 54 1440 818 filenamedate 0;
#X obj 56 141 date, f 19;
#X msg 56 112 bang;
#X floatatom 109 176 0 0 0 0 - - -;
#X floatatom 82 177 0 0 0 0 - - -;
#X floatatom 42 179 0 0 0 0 - - -;
#X msg 200 119 bang;
#X floatatom 228 178 0 0 0 0 - - -;
#X floatatom 189 178 0 0 0 0 - - -;
#X floatatom 157 178 0 0 0 0 - - -;
#X obj 198 140 time;
#X obj 52 56 bng 15 250 50 0 empty empty empty 17 7 0 10 -262144 -1
-1;
#X obj 54 82 t b b;
#X symbolatom 42 390 36 0 0 0 - - -;
#X msg 44 368 symbol \$1_\$2_\$3_\$4_\$5_\$6-recording;
#X obj 40 338 pack f s s s s s;
#X obj 49 21 inlet;
#X obj 43 442 outlet;
#N canvas 3 54 450 300 2digitdates 0;
#X obj 93 63 inlet;
#X obj 93 443 outlet;
#X floatatom 94 86 5 0 0 0 - - -;
#X obj 192 245 list length;
#X obj 131 292 == 1;
#X obj 288 294 == 2;
#X obj 258 329 spigot;
#X obj 93 329 spigot;
#X symbolatom 93 399 10 0 0 0 - - -;
#X obj 259 382 vlist2symbol;
#X msg 258 351 \$1;
#X obj 93 152 vlist2symbol;
#X obj 93 189 list fromsymbol;
#X msg 94 121 \$1;
#X obj 93 245 list tosymbol;
#X msg 93 362 symbol 0\$1;
#X connect 0 0 2 0;
#X connect 2 0 13 0;
#X connect 3 0 4 0;
#X connect 3 0 5 0;
#X connect 4 0 7 1;
#X connect 5 0 6 1;
#X connect 6 0 10 0;
#X connect 7 0 15 0;
#X connect 8 0 1 0;
#X connect 9 0 8 0;
#X connect 10 0 9 0;
#X connect 11 0 12 0;
#X connect 12 0 3 0;
#X connect 12 0 14 0;
#X connect 13 0 11 0;
#X connect 14 0 7 0;
#X connect 14 0 6 0;
#X connect 15 0 8 0;
#X restore 296 239 pd 2digitdates;
#N canvas 3 54 450 300 2digitdates 0;
#X obj 93 63 inlet;
#X obj 93 443 outlet;
#X floatatom 94 86 5 0 0 0 - - -;
#X obj 192 245 list length;
#X obj 131 292 == 1;
#X obj 288 294 == 2;
#X obj 258 329 spigot;
#X obj 93 329 spigot;
#X symbolatom 93 399 10 0 0 0 - - -;
#X obj 259 382 vlist2symbol;
#X msg 258 351 \$1;
#X obj 93 152 vlist2symbol;
#X obj 93 189 list fromsymbol;
#X msg 94 121 \$1;
#X obj 93 245 list tosymbol;
#X msg 93 362 symbol 0\$1;
#X connect 0 0 2 0;
#X connect 2 0 13 0;
#X connect 3 0 4 0;
#X connect 3 0 5 0;
#X connect 4 0 7 1;
#X connect 5 0 6 1;
#X connect 6 0 10 0;
#X connect 7 0 15 0;
#X connect 8 0 1 0;
#X connect 9 0 8 0;
#X connect 10 0 9 0;
#X connect 11 0 12 0;
#X connect 12 0 3 0;
#X connect 12 0 14 0;
#X connect 13 0 11 0;
#X connect 14 0 7 0;
#X connect 14 0 6 0;
#X connect 15 0 8 0;
#X restore 522 239 pd 2digitdates;
#N canvas 3 54 450 300 2digitdates 0;
#X obj 93 63 inlet;
#X obj 93 443 outlet;
#X floatatom 94 86 5 0 0 0 - - -;
#X obj 192 245 list length;
#X obj 131 292 == 1;
#X obj 288 294 == 2;
#X obj 258 329 spigot;
#X obj 93 329 spigot;
#X symbolatom 93 399 10 0 0 0 - - -;
#X obj 259 382 vlist2symbol;
#X msg 258 351 \$1;
#X obj 93 152 vlist2symbol;
#X obj 93 189 list fromsymbol;
#X msg 94 121 \$1;
#X obj 93 245 list tosymbol;
#X msg 93 362 symbol 0\$1;
#X connect 0 0 2 0;
#X connect 2 0 13 0;
#X connect 3 0 4 0;
#X connect 3 0 5 0;
#X connect 4 0 7 1;
#X connect 5 0 6 1;
#X connect 6 0 10 0;
#X connect 7 0 15 0;
#X connect 8 0 1 0;
#X connect 9 0 8 0;
#X connect 10 0 9 0;
#X connect 11 0 12 0;
#X connect 12 0 3 0;
#X connect 12 0 14 0;
#X connect 13 0 11 0;
#X connect 14 0 7 0;
#X connect 14 0 6 0;
#X connect 15 0 8 0;
#X restore 182 239 pd 2digitdates;
#N canvas 3 54 450 300 2digitdates 0;
#X obj 93 63 inlet;
#X obj 93 443 outlet;
#X floatatom 94 86 5 0 0 0 - - -;
#X obj 192 245 list length;
#X obj 131 292 == 1;
#X obj 288 294 == 2;
#X obj 258 329 spigot;
#X obj 93 329 spigot;
#X symbolatom 93 399 10 0 0 0 - - -;
#X obj 259 382 vlist2symbol;
#X msg 258 351 \$1;
#X obj 93 152 vlist2symbol;
#X obj 93 189 list fromsymbol;
#X msg 94 121 \$1;
#X obj 93 245 list tosymbol;
#X msg 93 362 symbol 0\$1;
#X connect 0 0 2 0;
#X connect 2 0 13 0;
#X connect 3 0 4 0;
#X connect 3 0 5 0;
#X connect 4 0 7 1;
#X connect 5 0 6 1;
#X connect 6 0 10 0;
#X connect 7 0 15 0;
#X connect 8 0 1 0;
#X connect 9 0 8 0;
#X connect 10 0 9 0;
#X connect 11 0 12 0;
#X connect 12 0 3 0;
#X connect 12 0 14 0;
#X connect 13 0 11 0;
#X connect 14 0 7 0;
#X connect 14 0 6 0;
#X connect 15 0 8 0;
#X restore 79 239 pd 2digitdates;
#N canvas 3 54 450 300 2digitdates 0;
#X obj 93 63 inlet;
#X obj 93 443 outlet;
#X floatatom 94 86 5 0 0 0 - - -;
#X obj 192 245 list length;
#X obj 131 292 == 1;
#X obj 288 294 == 2;
#X obj 258 329 spigot;
#X obj 93 329 spigot;
#X symbolatom 93 399 10 0 0 0 - - -;
#X obj 259 382 vlist2symbol;
#X msg 258 351 \$1;
#X obj 93 152 vlist2symbol;
#X obj 93 189 list fromsymbol;
#X msg 94 121 \$1;
#X obj 93 245 list tosymbol;
#X msg 93 362 symbol 0\$1;
#X connect 0 0 2 0;
#X connect 2 0 13 0;
#X connect 3 0 4 0;
#X connect 3 0 5 0;
#X connect 4 0 7 1;
#X connect 5 0 6 1;
#X connect 6 0 10 0;
#X connect 7 0 15 0;
#X connect 8 0 1 0;
#X connect 9 0 8 0;
#X connect 10 0 9 0;
#X connect 11 0 12 0;
#X connect 12 0 3 0;
#X connect 12 0 14 0;
#X connect 13 0 11 0;
#X connect 14 0 7 0;
#X connect 14 0 6 0;
#X connect 15 0 8 0;
#X restore 407 239 pd 2digitdates;
#X connect 0 0 4 0;
#X connect 0 1 3 0;
#X connect 0 2 2 0;
#X connect 1 0 0 0;
#X connect 2 0 19 0;
#X connect 3 0 20 0;
#X connect 4 0 14 0;
#X connect 5 0 9 0;
#X connect 6 0 18 0;
#X connect 7 0 21 0;
#X connect 8 0 17 0;
#X connect 9 0 8 0;
#X connect 9 1 7 0;
#X connect 9 2 6 0;
#X connect 10 0 11 0;
#X connect 11 0 1 0;
#X connect 11 1 5 0;
#X connect 12 0 16 0;
#X connect 13 0 12 0;
#X connect 14 0 13 0;
#X connect 15 0 10 0;
#X connect 17 0 14 3;
#X connect 18 0 14 5;
#X connect 19 0 14 2;
#X connect 20 0 14 1;
#X connect 21 0 14 4;
#X restore 167 503 pd filenamedate;
#X obj 343 -148 loadbang;
#X obj 477 91 f \$1;
#X floatatom 477 113 5 0 0 0 - - -;
#X msg 529 87 4 1;
#X obj 531 119 s LooperCtrlIN;
#X obj 222 194 bng 42 250 50 0 empty empty FADEIN 3 21 0 10 -262144
-1 -1;
#X obj 270 194 bng 42 250 50 0 empty empty FADEOUT 0 21 0 10 -262144
-1 -1;
#X msg 524 491 1;
#X obj 502 188 t b b b, f 8;
#X msg 673 532 0;
#X obj 683 454 line;
#X msg 786 409 0;
#X obj 785 243 t b b b;
#X floatatom 522 569 5 0 0 0 - - -;
#X floatatom 607 567 5 0 0 0 - - -;
#X floatatom 684 569 5 0 0 0 - - -;
#X obj 683 282 del 2000;
#X obj 683 310 bng 15 250 50 0 empty empty empty 17 7 0 10 -262144
-1 -1;
#X obj 524 595 s \$0-RECORD;
#X obj 609 594 s \$0-PLAY;
#X obj 684 594 s \$0-MASTER;
#X obj 804 289 bng 15 250 50 0 empty empty empty 17 7 0 10 -262144
-1 -1;
#X msg 683 330 0.9;
#X floatatom 683 352 5 0 0 0 - - -;
#X msg 803 314 0;
#X obj 649 44 inlet;
#X obj 556 44 inlet;
#X obj 785 379 del 10000;
#X obj 524 255 del 10;
#X text 486 283 these dels might fix \; the glitch at the begin. \;
of the recordings;
#X msg 343 -97 0.98;
#X obj 395 168 met;
#X obj 122 169 met;
#X floatatom 317 207 7 0 0 1 fadeout_time - -;
#X floatatom 173 208 7 0 0 0 fadein_time - -;
#X msg 683 426 \$1 \$2;
#X msg 210 -148 8000;
#X msg 256 -148 8000;
#X text 108 150 meter-in;
#X text 379 152 meter-out;
#X obj 683 371 pack f f;
#X obj 69 -117 inlet~;
#X connect 1 0 11 0;
#X connect 2 0 3 0;
#X connect 3 0 4 0;
#X connect 4 0 5 0;
#X connect 4 1 7 0;
#X connect 5 0 16 1;
#X connect 6 0 16 1;
#X connect 7 0 6 0;
#X connect 7 1 8 0;
#X connect 8 0 17 0;
#X connect 10 0 12 0;
#X connect 11 0 16 1;
#X connect 12 0 16 1;
#X connect 13 0 1 0;
#X connect 14 0 2 0;
#X connect 15 0 10 0;
#X connect 16 0 9 0;
#X connect 16 0 49 0;
#X connect 17 0 16 2;
#X connect 18 0 48 0;
#X connect 18 0 19 0;
#X connect 18 0 21 0;
#X connect 18 0 55 0;
#X connect 18 0 54 0;
#X connect 19 0 20 0;
#X connect 20 0 16 3;
#X connect 21 0 22 0;
#X connect 23 0 26 0;
#X connect 24 0 30 0;
#X connect 25 0 31 0;
#X connect 26 0 34 0;
#X connect 26 1 46 0;
#X connect 26 2 27 0;
#X connect 27 0 33 0;
#X connect 28 0 33 0;
#X connect 29 0 31 0;
#X connect 30 0 45 0;
#X connect 30 1 39 0;
#X connect 31 0 36 0;
#X connect 32 0 37 0;
#X connect 33 0 38 0;
#X connect 34 0 35 0;
#X connect 35 0 40 0;
#X connect 39 0 42 0;
#X connect 40 0 41 0;
#X connect 41 0 58 0;
#X connect 42 0 41 0;
#X connect 43 0 24 0;
#X connect 44 0 23 0;
#X connect 45 0 29 0;
#X connect 46 0 25 0;
#X connect 48 0 10 0;
#X connect 51 0 45 1;
#X connect 52 0 58 1;
#X connect 53 0 28 0;
#X connect 54 0 52 0;
#X connect 55 0 51 0;
#X connect 58 0 53 0;
#X connect 59 0 16 0;
#X connect 59 0 50 0;
#X coords 0 -1 1 1 340 142 2 100 100;
