#N canvas 454 154 287 583 10;
#X obj 23 516 list tosymbol;
#X obj 86 203 list fromsymbol;
#X obj 86 149 list split 1;
#X obj 86 99 until;
#X obj 86 124 list append;
#X obj 180 149 bang;
#X obj 86 362 list prepend;
#X obj 200 362 t a;
#X obj 23 393 list append;
#X obj 86 338 list append 32;
#X obj 23 49 t b b a b, f 27;
#X obj 86 177 makefilename %s;
#X obj 23 21 inlet;
#X obj 23 540 outlet;
#X obj 167 312 list fromsymbol;
#X obj 167 262 list append \$1;
#X obj 167 237 loadbang;
#X obj 205 21 inlet;
#X obj 205 49 symbol;
#X obj 167 285 route symbol;
#X obj 23 417 t l l, f 10;
#X obj 80 443 list length;
#X obj 23 491 list split;
#X text 117 469 ------edit--- was ---;
#X obj 245 486 - 1;
#X obj 82 467 - 1;
#X connect 0 0 13 0;
#X connect 1 0 9 0;
#X connect 2 0 11 0;
#X connect 2 1 4 1;
#X connect 2 2 5 0;
#X connect 3 0 4 0;
#X connect 4 0 2 0;
#X connect 5 0 3 1;
#X connect 6 0 7 0;
#X connect 6 0 8 1;
#X connect 7 0 6 1;
#X connect 8 0 20 0;
#X connect 9 0 6 0;
#X connect 10 0 8 0;
#X connect 10 1 3 0;
#X connect 10 2 4 1;
#X connect 10 3 6 1;
#X connect 10 3 8 1;
#X connect 11 0 1 0;
#X connect 12 0 10 0;
#X connect 14 0 9 1;
#X connect 15 0 19 0;
#X connect 16 0 15 0;
#X connect 17 0 18 0;
#X connect 18 0 14 0;
#X connect 19 0 14 0;
#X connect 20 0 22 0;
#X connect 20 1 21 0;
#X connect 21 0 25 0;
#X connect 22 0 0 0;
#X connect 25 0 22 1;
