#N canvas 2 64 1366 676 10;
#X obj 29 502 *~;
#X floatatom 262 114 0 0 0 2 gain(dB) - -;
#X text 112 197 (give some 190dB and notice no clipping);
#X obj 28 461 z~ 64;
#X obj 31 565 hip~ 1;
#X obj 30 593 outlet~;
#X obj 28 111 inlet~;
#X text 30 90 audio;
#X obj 421 27 loadbang;
#X msg 373 511 set 98 40 150;
#X obj 596 23 inlet;
#X obj 44 408 limiter~ 98 1;
#X obj 30 536 *~;
#X obj 143 510 line~;
#X obj 147 449 f;
#X obj 147 424 dbtorms;
#X msg 145 472 \$1 20;
#X msg 143 231 limit \$1;
#X floatatom 156 113 5 0 100 2 limit - -;
#X obj 594 44 route 0 1;
#X obj 593 92 * 120;
#X obj 594 113 + 0.5;
#X obj 594 135 int;
#X obj 653 114 + 0.5;
#X obj 653 136 int;
#X obj 654 92 * 100;
#X msg 156 61 98;
#X obj 421 49 t b b b b;
#X msg 469 105 COMPRESS;
#X floatatom 114 138 0 1 100 0 t - -;
#X floatatom 943 351 5 0 100 2 limit - -;
#X msg 870 370 treshold \$1;
#X floatatom 713 271 5 0 0 0 - - -;
#X obj 714 242 + 1.5;
#X obj 711 214 * 0.5;
#X obj 713 176 - 2;
#X msg 1058 238 label ratio:\$1:1;
#X obj 714 145 + 0.5;
#X obj 200 113 mknob 42 0 0 1 0 0 empty empty ratio:1.5:1 -2 -6 0 10
-262144 -1 -1 20175 1;
#X floatatom 714 308 5 0 0 0 - - -;
#X msg 714 338 ratio \$1;
#X floatatom 114 102 5 0 0 0 e - -;
#X floatatom 73 271 5 0 0 0 - - -;
#X obj 73 292 int;
#X obj 73 249 env~ 16384 8192;
#X obj 714 123 * 2;
#X msg 80 59 65;
#X msg 261 69 100;
#X obj 1054 127 * 100;
#X obj 1056 149 int;
#X obj 1056 172 / 100;
#X msg 205 66;
#X msg 186 35 0.75;
#X connect 0 0 12 0;
#X connect 1 0 15 0;
#X connect 3 0 0 0;
#X connect 4 0 5 0;
#X connect 6 0 3 0;
#X connect 6 0 11 0;
#X connect 6 0 44 0;
#X connect 8 0 27 0;
#X connect 9 0 11 0;
#X connect 10 0 19 0;
#X connect 11 0 0 1;
#X connect 12 0 4 0;
#X connect 13 0 12 1;
#X connect 14 0 16 0;
#X connect 15 0 14 0;
#X connect 16 0 13 0;
#X connect 17 0 11 0;
#X connect 18 0 17 0;
#X connect 19 0 20 0;
#X connect 19 1 25 0;
#X connect 20 0 21 0;
#X connect 21 0 22 0;
#X connect 22 0 1 0;
#X connect 23 0 24 0;
#X connect 24 0 18 0;
#X connect 25 0 23 0;
#X connect 26 0 18 0;
#X connect 27 0 47 0;
#X connect 27 0 46 0;
#X connect 27 0 52 0;
#X connect 27 1 26 0;
#X connect 27 2 9 0;
#X connect 27 3 28 0;
#X connect 28 0 11 0;
#X connect 29 0 31 0;
#X connect 31 0 11 0;
#X connect 32 0 39 0;
#X connect 32 0 48 0;
#X connect 33 0 32 0;
#X connect 34 0 33 0;
#X connect 35 0 34 0;
#X connect 36 0 38 0;
#X connect 37 0 35 0;
#X connect 38 0 45 0;
#X connect 39 0 40 0;
#X connect 40 0 11 0;
#X connect 42 0 43 0;
#X connect 43 0 41 0;
#X connect 44 0 42 0;
#X connect 45 0 37 0;
#X connect 46 0 29 0;
#X connect 47 0 1 0;
#X connect 48 0 49 0;
#X connect 49 0 50 0;
#X connect 50 0 36 0;
#X connect 52 0 38 0;
#X coords 0 -1 1 1 210 60 2 100 100;
