#N canvas 0 64 1366 676 10;
#X obj 100 102 cnv 15 338 76 empty empty compressor 2 4 0 10 -228856
-66577 0;
#X msg 95 310 COMPRESS;
#X obj 300 19 loadbang;
#X obj 54 270 inlet~;
#X obj 54 449 outlet~;
#X obj 54 404 *~;
#X obj 56 370 z~ 64;
#X obj 679 285 hradio 15 1 0 20 empty empty empty 0 -8 0 10 -262144
-1 -1 12;
#X floatatom 678 390 5 0 0 0 - - -;
#X obj 679 369 + 1.5;
#X obj 680 337 * 0.5;
#X obj 679 305 - 2;
#X msg 680 430 label ratio:\$1:1;
#X obj 680 217 * 19;
#X obj 680 239 + 0.5;
#X obj 680 261 int;
#X floatatom 190 342 5 0 0 0 - - -;
#X floatatom 412 364 5 0 0 0 - - -;
#X obj 109 122 mknob 56 0 0.01 1 0 0 empty empty treshold:93 -2 -6
0 10 -262144 -1 -1 12625 1;
#X obj 249 121 mknob 56 0 0 1 0 0 empty empty ratio:6.5:1 -2 -6 0 10
-262144 -1 -1 16678 1;
#X obj 187 122 mknob 56 0 0.01 1 0 0 empty empty limit:98 -2 -6 0 10
-262144 -1 -1 22836 1;
#X obj 172 100 bng 15 250 50 0 empty empty rst 17 7 0 10 -262144 -1
-1;
#X msg 248 66 0.62;
#X msg 1046 281 label hold:\$1;
#X msg 1042 304 label release:\$1;
#X floatatom 645 456 5 0 0 0 - - -;
#X obj 70 349 limiter~;
#X obj 189 283 line;
#X msg 189 257 \$1 20;
#X msg 421 453 limit \$1;
#X msg 188 456 treshold \$1;
#X msg 639 485 ratio \$1;
#X obj 189 312 rmstodb;
#X floatatom 171 483 9 0 0 0 - - -;
#X obj 412 313 rmstodb;
#X obj 414 409 int;
#X obj 189 363 int;
#X msg 496 452 label limit:\$1;
#X msg 269 455 label treshold:\$1;
#X obj 1148 411 pack f f f;
#X obj 1148 381 t b f;
#X obj 1192 378 t b f;
#X floatatom 1147 326 5 0 0 0 - - -;
#X floatatom 1193 323 5 0 0 0 - - -;
#X obj 1197 225 mknob 56 0 10 3000 1 0 empty empty release:150 -2 -6
0 10 -262144 -1 -1 0 1;
#X obj 1136 225 mknob 56 0 1 300 1 0 empty empty hold:40 -2 -6 0 10
-262144 -1 -1 0 1;
#X msg 1136 164 40;
#X msg 1222 164 150;
#X obj 1142 296 int;
#X obj 1183 299 int;
#X msg 295 69 set 96 40 150;
#X floatatom 528 413 9 0 0 0 - - -;
#X msg 117 64 0.271301;
#X floatatom 405 489 9 0 0 0 - - -;
#X msg 178 66 0.87487;
#X obj 112 28 t b b b b b b b;
#X connect 1 0 26 0;
#X connect 2 0 1 0;
#X connect 3 0 6 0;
#X connect 3 0 26 0;
#X connect 5 0 4 0;
#X connect 6 0 5 0;
#X connect 7 0 11 0;
#X connect 8 0 12 0;
#X connect 8 0 25 0;
#X connect 9 0 8 0;
#X connect 10 0 9 0;
#X connect 11 0 10 0;
#X connect 12 0 19 0;
#X connect 13 0 14 0;
#X connect 14 0 15 0;
#X connect 15 0 7 0;
#X connect 16 0 36 0;
#X connect 17 0 35 0;
#X connect 18 0 28 0;
#X connect 18 0 33 0;
#X connect 19 0 13 0;
#X connect 20 0 34 0;
#X connect 20 0 53 0;
#X connect 21 0 55 0;
#X connect 22 0 19 0;
#X connect 25 0 31 0;
#X connect 26 0 5 1;
#X connect 27 0 32 0;
#X connect 28 0 27 0;
#X connect 29 0 26 0;
#X connect 30 0 26 0;
#X connect 31 0 26 0;
#X connect 32 0 16 0;
#X connect 34 0 17 0;
#X connect 35 0 37 0;
#X connect 35 0 29 0;
#X connect 35 0 51 0;
#X connect 36 0 30 0;
#X connect 36 0 38 0;
#X connect 37 0 20 0;
#X connect 38 0 18 0;
#X connect 40 0 39 0;
#X connect 40 1 39 1;
#X connect 41 0 39 0;
#X connect 41 1 39 2;
#X connect 42 0 40 0;
#X connect 43 0 41 0;
#X connect 44 0 49 0;
#X connect 45 0 48 0;
#X connect 46 0 45 0;
#X connect 47 0 44 0;
#X connect 48 0 42 0;
#X connect 49 0 43 0;
#X connect 50 0 26 0;
#X connect 52 0 18 0;
#X connect 54 0 20 0;
#X connect 55 2 52 0;
#X connect 55 3 54 0;
#X connect 55 4 22 0;
#X connect 55 5 50 0;
#X connect 55 6 1 0;
#X coords 0 -1 1 1 340 80 2 100 100;
